%TF.GenerationSoftware,KiCad,Pcbnew,9.0.6*%
%TF.CreationDate,2026-01-22T12:37:59+05:30*%
%TF.ProjectId,Muscle sensor,4d757363-6c65-4207-9365-6e736f722e6b,rev?*%
%TF.SameCoordinates,Original*%
%TF.FileFunction,Soldermask,Bot*%
%TF.FilePolarity,Negative*%
%FSLAX46Y46*%
G04 Gerber Fmt 4.6, Leading zero omitted, Abs format (unit mm)*
G04 Created by KiCad (PCBNEW 9.0.6) date 2026-01-22 12:37:59*
%MOMM*%
%LPD*%
G01*
G04 APERTURE LIST*
G04 Aperture macros list*
%AMRoundRect*
0 Rectangle with rounded corners*
0 $1 Rounding radius*
0 $2 $3 $4 $5 $6 $7 $8 $9 X,Y pos of 4 corners*
0 Add a 4 corners polygon primitive as box body*
4,1,4,$2,$3,$4,$5,$6,$7,$8,$9,$2,$3,0*
0 Add four circle primitives for the rounded corners*
1,1,$1+$1,$2,$3*
1,1,$1+$1,$4,$5*
1,1,$1+$1,$6,$7*
1,1,$1+$1,$8,$9*
0 Add four rect primitives between the rounded corners*
20,1,$1+$1,$2,$3,$4,$5,0*
20,1,$1+$1,$4,$5,$6,$7,0*
20,1,$1+$1,$6,$7,$8,$9,0*
20,1,$1+$1,$8,$9,$2,$3,0*%
G04 Aperture macros list end*
%ADD10C,0.700000*%
%ADD11C,4.400000*%
%ADD12R,1.730000X2.030000*%
%ADD13O,1.730000X2.030000*%
%ADD14C,1.200000*%
%ADD15R,2.030000X1.730000*%
%ADD16O,2.030000X1.730000*%
%ADD17R,1.295400X1.295400*%
%ADD18C,1.295400*%
%ADD19R,3.000000X3.000000*%
%ADD20C,3.000000*%
%ADD21RoundRect,0.250000X-0.550000X-0.550000X0.550000X-0.550000X0.550000X0.550000X-0.550000X0.550000X0*%
%ADD22C,1.600000*%
%ADD23RoundRect,0.250000X0.550000X0.550000X-0.550000X0.550000X-0.550000X-0.550000X0.550000X-0.550000X0*%
%ADD24RoundRect,0.102000X0.609000X-0.609000X0.609000X0.609000X-0.609000X0.609000X-0.609000X-0.609000X0*%
%ADD25C,1.422000*%
G04 APERTURE END LIST*
D10*
%TO.C,H2*%
X144640000Y-104210000D03*
X144156726Y-105376726D03*
X144156726Y-103043274D03*
X142990000Y-105860000D03*
D11*
X142990000Y-104210000D03*
D10*
X142990000Y-102560000D03*
X141823274Y-105376726D03*
X141823274Y-103043274D03*
X141340000Y-104210000D03*
%TD*%
%TO.C,H4*%
X178353274Y-103993274D03*
X177870000Y-105160000D03*
X177870000Y-102826548D03*
X176703274Y-105643274D03*
D11*
X176703274Y-103993274D03*
D10*
X176703274Y-102343274D03*
X175536548Y-105160000D03*
X175536548Y-102826548D03*
X175053274Y-103993274D03*
%TD*%
D12*
%TO.C,J4*%
X177710000Y-70070000D03*
D13*
X175170000Y-70070000D03*
X172630000Y-70070000D03*
%TD*%
D12*
%TO.C,J3*%
X166460000Y-99360000D03*
D13*
X169000000Y-99360000D03*
X171540000Y-99360000D03*
%TD*%
D14*
%TO.C,C3*%
X145330000Y-98620000D03*
X145330000Y-96620000D03*
%TD*%
D15*
%TO.C,J2*%
X175500000Y-83940000D03*
D16*
X175500000Y-81400000D03*
X175500000Y-78860000D03*
%TD*%
D17*
%TO.C,U2*%
X151090000Y-71590000D03*
D18*
X151090000Y-74130000D03*
X151090000Y-76670000D03*
X151090000Y-79210000D03*
X151090000Y-81750000D03*
X151090000Y-84290000D03*
X151090000Y-86830000D03*
X158710000Y-86830000D03*
X158710000Y-84290000D03*
X158710000Y-81750000D03*
X158710000Y-79210000D03*
X158710000Y-76670000D03*
X158710000Y-74130000D03*
X158710000Y-71590000D03*
%TD*%
D14*
%TO.C,C4*%
X168560000Y-75730000D03*
X168560000Y-73730000D03*
%TD*%
D19*
%TO.C,J1*%
X153072500Y-63320000D03*
D20*
X156952500Y-63320000D03*
%TD*%
D21*
%TO.C,D1*%
X151420000Y-92660000D03*
D22*
X159040000Y-92660000D03*
%TD*%
D23*
%TO.C,D2*%
X158910000Y-96110000D03*
D22*
X151290000Y-96110000D03*
%TD*%
D14*
%TO.C,C2*%
X176020000Y-95680000D03*
X176020000Y-93680000D03*
%TD*%
D10*
%TO.C,H1*%
X144610000Y-61860000D03*
X144126726Y-63026726D03*
X144126726Y-60693274D03*
X142960000Y-63510000D03*
D11*
X142960000Y-61860000D03*
D10*
X142960000Y-60210000D03*
X141793274Y-63026726D03*
X141793274Y-60693274D03*
X141310000Y-61860000D03*
%TD*%
%TO.C,H3*%
X175113274Y-61796726D03*
X175596548Y-60630000D03*
X175596548Y-62963452D03*
X176763274Y-60146726D03*
D11*
X176763274Y-61796726D03*
D10*
X176763274Y-63446726D03*
X177930000Y-60630000D03*
X177930000Y-62963452D03*
X178413274Y-61796726D03*
%TD*%
D24*
%TO.C,VR1*%
X146550000Y-76660000D03*
D25*
X146550000Y-74120000D03*
X146550000Y-71580000D03*
%TD*%
D14*
%TO.C,C1*%
X175950000Y-90010000D03*
X175950000Y-88010000D03*
%TD*%
M02*
