%TF.GenerationSoftware,KiCad,Pcbnew,9.0.6*%
%TF.CreationDate,2026-01-22T12:38:03+05:30*%
%TF.ProjectId,Muscle sensor,4d757363-6c65-4207-9365-6e736f722e6b,rev?*%
%TF.SameCoordinates,Original*%
%TF.FileFunction,Plated,1,2,PTH,Drill*%
%TF.FilePolarity,Positive*%
%FSLAX46Y46*%
G04 Gerber Fmt 4.6, Leading zero omitted, Abs format (unit mm)*
G04 Created by KiCad (PCBNEW 9.0.6) date 2026-01-22 12:38:03*
%MOMM*%
%LPD*%
G01*
G04 APERTURE LIST*
%TA.AperFunction,ViaDrill*%
%ADD10C,0.300000*%
%TD*%
%TA.AperFunction,ComponentDrill*%
%ADD11C,0.400000*%
%TD*%
%TA.AperFunction,ComponentDrill*%
%ADD12C,0.600000*%
%TD*%
%TA.AperFunction,ComponentDrill*%
%ADD13C,0.710000*%
%TD*%
%TA.AperFunction,ComponentDrill*%
%ADD14C,0.787400*%
%TD*%
%TA.AperFunction,ComponentDrill*%
%ADD15C,0.800000*%
%TD*%
%TA.AperFunction,ComponentDrill*%
%ADD16C,1.020000*%
%TD*%
%TA.AperFunction,ComponentDrill*%
%ADD17C,1.750000*%
%TD*%
%TA.AperFunction,ComponentDrill*%
%ADD18C,2.200000*%
%TD*%
G04 APERTURE END LIST*
D10*
X145690000Y-87120000D03*
X152670000Y-80250000D03*
X159070000Y-90480000D03*
X168310000Y-94940000D03*
X170880000Y-89450000D03*
X171920000Y-79710000D03*
X172950000Y-76680000D03*
X175050000Y-73520000D03*
D11*
%TO.C,H1*%
X141310000Y-61860000D03*
%TO.C,H2*%
X141340000Y-104210000D03*
%TO.C,H1*%
X141793274Y-60693274D03*
X141793274Y-63026726D03*
%TO.C,H2*%
X141823274Y-103043274D03*
X141823274Y-105376726D03*
%TO.C,H1*%
X142960000Y-60210000D03*
X142960000Y-63510000D03*
%TO.C,H2*%
X142990000Y-102560000D03*
X142990000Y-105860000D03*
%TO.C,H1*%
X144126726Y-60693274D03*
X144126726Y-63026726D03*
%TO.C,H2*%
X144156726Y-103043274D03*
X144156726Y-105376726D03*
%TO.C,H1*%
X144610000Y-61860000D03*
%TO.C,H2*%
X144640000Y-104210000D03*
%TO.C,H4*%
X175053274Y-103993274D03*
%TO.C,H3*%
X175113274Y-61796726D03*
%TO.C,H4*%
X175536548Y-102826548D03*
X175536548Y-105160000D03*
%TO.C,H3*%
X175596548Y-60630000D03*
X175596548Y-62963452D03*
%TO.C,H4*%
X176703274Y-102343274D03*
X176703274Y-105643274D03*
%TO.C,H3*%
X176763274Y-60146726D03*
X176763274Y-63446726D03*
%TO.C,H4*%
X177870000Y-102826548D03*
X177870000Y-105160000D03*
%TO.C,H3*%
X177930000Y-60630000D03*
X177930000Y-62963452D03*
%TO.C,H4*%
X178353274Y-103993274D03*
%TO.C,H3*%
X178413274Y-61796726D03*
D12*
%TO.C,C3*%
X145330000Y-96620000D03*
X145330000Y-98620000D03*
%TO.C,C4*%
X168560000Y-73730000D03*
X168560000Y-75730000D03*
%TO.C,C1*%
X175950000Y-88010000D03*
X175950000Y-90010000D03*
%TO.C,C2*%
X176020000Y-93680000D03*
X176020000Y-95680000D03*
D13*
%TO.C,VR1*%
X146550000Y-71580000D03*
X146550000Y-74120000D03*
X146550000Y-76660000D03*
D14*
%TO.C,U2*%
X151090000Y-71590000D03*
X151090000Y-74130000D03*
X151090000Y-76670000D03*
X151090000Y-79210000D03*
X151090000Y-81750000D03*
X151090000Y-84290000D03*
X151090000Y-86830000D03*
X158710000Y-71590000D03*
X158710000Y-74130000D03*
X158710000Y-76670000D03*
X158710000Y-79210000D03*
X158710000Y-81750000D03*
X158710000Y-84290000D03*
X158710000Y-86830000D03*
D15*
%TO.C,D2*%
X151290000Y-96110000D03*
%TO.C,D1*%
X151420000Y-92660000D03*
%TO.C,D2*%
X158910000Y-96110000D03*
%TO.C,D1*%
X159040000Y-92660000D03*
D16*
%TO.C,J3*%
X166460000Y-99360000D03*
X169000000Y-99360000D03*
X171540000Y-99360000D03*
%TO.C,J4*%
X172630000Y-70070000D03*
X175170000Y-70070000D03*
%TO.C,J2*%
X175500000Y-78860000D03*
X175500000Y-81400000D03*
X175500000Y-83940000D03*
%TO.C,J4*%
X177710000Y-70070000D03*
D17*
%TO.C,J1*%
X153072500Y-63320000D03*
X156952500Y-63320000D03*
D18*
%TO.C,H1*%
X142960000Y-61860000D03*
%TO.C,H2*%
X142990000Y-104210000D03*
%TO.C,H4*%
X176703274Y-103993274D03*
%TO.C,H3*%
X176763274Y-61796726D03*
M02*
