%TF.GenerationSoftware,KiCad,Pcbnew,9.0.6*%
%TF.CreationDate,2026-01-22T12:38:03+05:30*%
%TF.ProjectId,Muscle sensor,4d757363-6c65-4207-9365-6e736f722e6b,rev?*%
%TF.SameCoordinates,Original*%
%TF.FileFunction,Drillmap*%
%TF.FilePolarity,Positive*%
%FSLAX45Y45*%
G04 Gerber Fmt 4.5, Leading zero omitted, Abs format (unit mm)*
G04 Created by KiCad (PCBNEW 9.0.6) date 2026-01-22 12:38:03*
%MOMM*%
%LPD*%
G01*
G04 APERTURE LIST*
%ADD10C,0.050000*%
%ADD11C,0.200000*%
%ADD12C,0.100000*%
%ADD13C,0.102000*%
%ADD14C,0.175000*%
%ADD15C,0.220000*%
G04 APERTURE END LIST*
D10*
X14034000Y-6043450D02*
G75*
G02*
X14159000Y-5918450I125000J0D01*
G01*
X14159000Y-10686000D02*
G75*
G02*
X14034000Y-10561000I0J125000D01*
G01*
X17818000Y-5918450D02*
G75*
G02*
X17943000Y-6043450I0J-125000D01*
G01*
X17943000Y-10561000D02*
G75*
G02*
X17818000Y-10686000I-125000J0D01*
G01*
X14159000Y-5918450D02*
X17818000Y-5918450D01*
X17818000Y-10686000D02*
X14159000Y-10686000D01*
X14034000Y-10561000D02*
X14034000Y-6043450D01*
X17943000Y-6043450D02*
X17943000Y-10561000D01*
D11*
D12*
X14554000Y-8697000D02*
X14584000Y-8727000D01*
X14584000Y-8697000D02*
X14554000Y-8727000D01*
X15252000Y-8010000D02*
X15282000Y-8040000D01*
X15282000Y-8010000D02*
X15252000Y-8040000D01*
X15892000Y-9033000D02*
X15922000Y-9063000D01*
X15922000Y-9033000D02*
X15892000Y-9063000D01*
X16816000Y-9479000D02*
X16846000Y-9509000D01*
X16846000Y-9479000D02*
X16816000Y-9509000D01*
X17073000Y-8930000D02*
X17103000Y-8960000D01*
X17103000Y-8930000D02*
X17073000Y-8960000D01*
X17177000Y-7956000D02*
X17207000Y-7986000D01*
X17207000Y-7956000D02*
X17177000Y-7986000D01*
X17280000Y-7653000D02*
X17310000Y-7683000D01*
X17310000Y-7653000D02*
X17280000Y-7683000D01*
X17490000Y-7337000D02*
X17520000Y-7367000D01*
X17520000Y-7337000D02*
X17490000Y-7367000D01*
X14151000Y-6186000D02*
G75*
G02*
X14111000Y-6186000I-20000J0D01*
G01*
X14111000Y-6186000D02*
G75*
G02*
X14151000Y-6186000I20000J0D01*
G01*
X14154000Y-10421000D02*
G75*
G02*
X14114000Y-10421000I-20000J0D01*
G01*
X14114000Y-10421000D02*
G75*
G02*
X14154000Y-10421000I20000J0D01*
G01*
X14199327Y-6069327D02*
G75*
G02*
X14159327Y-6069327I-20000J0D01*
G01*
X14159327Y-6069327D02*
G75*
G02*
X14199327Y-6069327I20000J0D01*
G01*
X14199327Y-6302673D02*
G75*
G02*
X14159327Y-6302673I-20000J0D01*
G01*
X14159327Y-6302673D02*
G75*
G02*
X14199327Y-6302673I20000J0D01*
G01*
X14202327Y-10304327D02*
G75*
G02*
X14162327Y-10304327I-20000J0D01*
G01*
X14162327Y-10304327D02*
G75*
G02*
X14202327Y-10304327I20000J0D01*
G01*
X14202327Y-10537673D02*
G75*
G02*
X14162327Y-10537673I-20000J0D01*
G01*
X14162327Y-10537673D02*
G75*
G02*
X14202327Y-10537673I20000J0D01*
G01*
X14316000Y-6021000D02*
G75*
G02*
X14276000Y-6021000I-20000J0D01*
G01*
X14276000Y-6021000D02*
G75*
G02*
X14316000Y-6021000I20000J0D01*
G01*
X14316000Y-6351000D02*
G75*
G02*
X14276000Y-6351000I-20000J0D01*
G01*
X14276000Y-6351000D02*
G75*
G02*
X14316000Y-6351000I20000J0D01*
G01*
X14319000Y-10256000D02*
G75*
G02*
X14279000Y-10256000I-20000J0D01*
G01*
X14279000Y-10256000D02*
G75*
G02*
X14319000Y-10256000I20000J0D01*
G01*
X14319000Y-10586000D02*
G75*
G02*
X14279000Y-10586000I-20000J0D01*
G01*
X14279000Y-10586000D02*
G75*
G02*
X14319000Y-10586000I20000J0D01*
G01*
X14432673Y-6069327D02*
G75*
G02*
X14392673Y-6069327I-20000J0D01*
G01*
X14392673Y-6069327D02*
G75*
G02*
X14432673Y-6069327I20000J0D01*
G01*
X14432673Y-6302673D02*
G75*
G02*
X14392673Y-6302673I-20000J0D01*
G01*
X14392673Y-6302673D02*
G75*
G02*
X14432673Y-6302673I20000J0D01*
G01*
X14435673Y-10304327D02*
G75*
G02*
X14395673Y-10304327I-20000J0D01*
G01*
X14395673Y-10304327D02*
G75*
G02*
X14435673Y-10304327I20000J0D01*
G01*
X14435673Y-10537673D02*
G75*
G02*
X14395673Y-10537673I-20000J0D01*
G01*
X14395673Y-10537673D02*
G75*
G02*
X14435673Y-10537673I20000J0D01*
G01*
X14481000Y-6186000D02*
G75*
G02*
X14441000Y-6186000I-20000J0D01*
G01*
X14441000Y-6186000D02*
G75*
G02*
X14481000Y-6186000I20000J0D01*
G01*
X14484000Y-10421000D02*
G75*
G02*
X14444000Y-10421000I-20000J0D01*
G01*
X14444000Y-10421000D02*
G75*
G02*
X14484000Y-10421000I20000J0D01*
G01*
X17525327Y-10399327D02*
G75*
G02*
X17485327Y-10399327I-20000J0D01*
G01*
X17485327Y-10399327D02*
G75*
G02*
X17525327Y-10399327I20000J0D01*
G01*
X17531327Y-6179673D02*
G75*
G02*
X17491327Y-6179673I-20000J0D01*
G01*
X17491327Y-6179673D02*
G75*
G02*
X17531327Y-6179673I20000J0D01*
G01*
X17573655Y-10282655D02*
G75*
G02*
X17533655Y-10282655I-20000J0D01*
G01*
X17533655Y-10282655D02*
G75*
G02*
X17573655Y-10282655I20000J0D01*
G01*
X17573655Y-10516000D02*
G75*
G02*
X17533655Y-10516000I-20000J0D01*
G01*
X17533655Y-10516000D02*
G75*
G02*
X17573655Y-10516000I20000J0D01*
G01*
X17579655Y-6063000D02*
G75*
G02*
X17539655Y-6063000I-20000J0D01*
G01*
X17539655Y-6063000D02*
G75*
G02*
X17579655Y-6063000I20000J0D01*
G01*
X17579655Y-6296345D02*
G75*
G02*
X17539655Y-6296345I-20000J0D01*
G01*
X17539655Y-6296345D02*
G75*
G02*
X17579655Y-6296345I20000J0D01*
G01*
X17690327Y-10234327D02*
G75*
G02*
X17650327Y-10234327I-20000J0D01*
G01*
X17650327Y-10234327D02*
G75*
G02*
X17690327Y-10234327I20000J0D01*
G01*
X17690327Y-10564327D02*
G75*
G02*
X17650327Y-10564327I-20000J0D01*
G01*
X17650327Y-10564327D02*
G75*
G02*
X17690327Y-10564327I20000J0D01*
G01*
X17696327Y-6014673D02*
G75*
G02*
X17656327Y-6014673I-20000J0D01*
G01*
X17656327Y-6014673D02*
G75*
G02*
X17696327Y-6014673I20000J0D01*
G01*
X17696327Y-6344673D02*
G75*
G02*
X17656327Y-6344673I-20000J0D01*
G01*
X17656327Y-6344673D02*
G75*
G02*
X17696327Y-6344673I20000J0D01*
G01*
X17807000Y-10282655D02*
G75*
G02*
X17767000Y-10282655I-20000J0D01*
G01*
X17767000Y-10282655D02*
G75*
G02*
X17807000Y-10282655I20000J0D01*
G01*
X17807000Y-10516000D02*
G75*
G02*
X17767000Y-10516000I-20000J0D01*
G01*
X17767000Y-10516000D02*
G75*
G02*
X17807000Y-10516000I20000J0D01*
G01*
X17813000Y-6063000D02*
G75*
G02*
X17773000Y-6063000I-20000J0D01*
G01*
X17773000Y-6063000D02*
G75*
G02*
X17813000Y-6063000I20000J0D01*
G01*
X17813000Y-6296345D02*
G75*
G02*
X17773000Y-6296345I-20000J0D01*
G01*
X17773000Y-6296345D02*
G75*
G02*
X17813000Y-6296345I20000J0D01*
G01*
X17855327Y-10399327D02*
G75*
G02*
X17815327Y-10399327I-20000J0D01*
G01*
X17815327Y-10399327D02*
G75*
G02*
X17855327Y-10399327I20000J0D01*
G01*
X17861327Y-6179673D02*
G75*
G02*
X17821327Y-6179673I-20000J0D01*
G01*
X17821327Y-6179673D02*
G75*
G02*
X17861327Y-6179673I20000J0D01*
G01*
X14533000Y-9632000D02*
X14533000Y-9692000D01*
X14503000Y-9662000D02*
X14563000Y-9662000D01*
X14533000Y-9832000D02*
X14533000Y-9892000D01*
X14503000Y-9862000D02*
X14563000Y-9862000D01*
X16856000Y-7343000D02*
X16856000Y-7403000D01*
X16826000Y-7373000D02*
X16886000Y-7373000D01*
X16856000Y-7543000D02*
X16856000Y-7603000D01*
X16826000Y-7573000D02*
X16886000Y-7573000D01*
X17595000Y-8771000D02*
X17595000Y-8831000D01*
X17565000Y-8801000D02*
X17625000Y-8801000D01*
X17595000Y-8971000D02*
X17595000Y-9031000D01*
X17565000Y-9001000D02*
X17625000Y-9001000D01*
X17602000Y-9338000D02*
X17602000Y-9398000D01*
X17572000Y-9368000D02*
X17632000Y-9368000D01*
X17602000Y-9538000D02*
X17602000Y-9598000D01*
X17572000Y-9568000D02*
X17632000Y-9568000D01*
X14680102Y-7183102D02*
X14680102Y-7132897D01*
X14629897Y-7132897D01*
X14629897Y-7183102D01*
X14680102Y-7183102D01*
X14680102Y-7437102D02*
X14680102Y-7386897D01*
X14629897Y-7386897D01*
X14629897Y-7437102D01*
X14680102Y-7437102D01*
X14680102Y-7691102D02*
X14680102Y-7640897D01*
X14629897Y-7640897D01*
X14629897Y-7691102D01*
X14680102Y-7691102D01*
X15109000Y-7198370D02*
X15148370Y-7159000D01*
X15109000Y-7119630D01*
X15069630Y-7159000D01*
X15109000Y-7198370D01*
X15109000Y-7452370D02*
X15148370Y-7413000D01*
X15109000Y-7373630D01*
X15069630Y-7413000D01*
X15109000Y-7452370D01*
X15109000Y-7706370D02*
X15148370Y-7667000D01*
X15109000Y-7627630D01*
X15069630Y-7667000D01*
X15109000Y-7706370D01*
X15109000Y-7960370D02*
X15148370Y-7921000D01*
X15109000Y-7881630D01*
X15069630Y-7921000D01*
X15109000Y-7960370D01*
X15109000Y-8214370D02*
X15148370Y-8175000D01*
X15109000Y-8135630D01*
X15069630Y-8175000D01*
X15109000Y-8214370D01*
X15109000Y-8468370D02*
X15148370Y-8429000D01*
X15109000Y-8389630D01*
X15069630Y-8429000D01*
X15109000Y-8468370D01*
X15109000Y-8722370D02*
X15148370Y-8683000D01*
X15109000Y-8643630D01*
X15069630Y-8683000D01*
X15109000Y-8722370D01*
X15871000Y-7198370D02*
X15910370Y-7159000D01*
X15871000Y-7119630D01*
X15831630Y-7159000D01*
X15871000Y-7198370D01*
X15871000Y-7452370D02*
X15910370Y-7413000D01*
X15871000Y-7373630D01*
X15831630Y-7413000D01*
X15871000Y-7452370D01*
X15871000Y-7706370D02*
X15910370Y-7667000D01*
X15871000Y-7627630D01*
X15831630Y-7667000D01*
X15871000Y-7706370D01*
X15871000Y-7960370D02*
X15910370Y-7921000D01*
X15871000Y-7881630D01*
X15831630Y-7921000D01*
X15871000Y-7960370D01*
X15871000Y-8214370D02*
X15910370Y-8175000D01*
X15871000Y-8135630D01*
X15831630Y-8175000D01*
X15871000Y-8214370D01*
X15871000Y-8468370D02*
X15910370Y-8429000D01*
X15871000Y-8389630D01*
X15831630Y-8429000D01*
X15871000Y-8468370D01*
X15871000Y-8722370D02*
X15910370Y-8683000D01*
X15871000Y-8643630D01*
X15831630Y-8683000D01*
X15871000Y-8722370D01*
X15089000Y-9571000D02*
X15169000Y-9651000D01*
X15169000Y-9571000D02*
X15089000Y-9651000D01*
X15169000Y-9611000D02*
G75*
G02*
X15089000Y-9611000I-40000J0D01*
G01*
X15089000Y-9611000D02*
G75*
G02*
X15169000Y-9611000I40000J0D01*
G01*
X15102000Y-9226000D02*
X15182000Y-9306000D01*
X15182000Y-9226000D02*
X15102000Y-9306000D01*
X15182000Y-9266000D02*
G75*
G02*
X15102000Y-9266000I-40000J0D01*
G01*
X15102000Y-9266000D02*
G75*
G02*
X15182000Y-9266000I40000J0D01*
G01*
X15851000Y-9571000D02*
X15931000Y-9651000D01*
X15931000Y-9571000D02*
X15851000Y-9651000D01*
X15931000Y-9611000D02*
G75*
G02*
X15851000Y-9611000I-40000J0D01*
G01*
X15851000Y-9611000D02*
G75*
G02*
X15931000Y-9611000I40000J0D01*
G01*
X15864000Y-9226000D02*
X15944000Y-9306000D01*
X15944000Y-9226000D02*
X15864000Y-9306000D01*
X15944000Y-9266000D02*
G75*
G02*
X15864000Y-9266000I-40000J0D01*
G01*
X15864000Y-9266000D02*
G75*
G02*
X15944000Y-9266000I40000J0D01*
G01*
D13*
X16595000Y-9885000D02*
X16697000Y-9987000D01*
X16697000Y-9885000D02*
X16595000Y-9987000D01*
X16646000Y-9885000D02*
X16646000Y-9987000D01*
X16595000Y-9936000D02*
X16697000Y-9936000D01*
X16849000Y-9885000D02*
X16951000Y-9987000D01*
X16951000Y-9885000D02*
X16849000Y-9987000D01*
X16900000Y-9885000D02*
X16900000Y-9987000D01*
X16849000Y-9936000D02*
X16951000Y-9936000D01*
X17103000Y-9885000D02*
X17205000Y-9987000D01*
X17205000Y-9885000D02*
X17103000Y-9987000D01*
X17154000Y-9885000D02*
X17154000Y-9987000D01*
X17103000Y-9936000D02*
X17205000Y-9936000D01*
X17212000Y-6956000D02*
X17314000Y-7058000D01*
X17314000Y-6956000D02*
X17212000Y-7058000D01*
X17263000Y-6956000D02*
X17263000Y-7058000D01*
X17212000Y-7007000D02*
X17314000Y-7007000D01*
X17466000Y-6956000D02*
X17568000Y-7058000D01*
X17568000Y-6956000D02*
X17466000Y-7058000D01*
X17517000Y-6956000D02*
X17517000Y-7058000D01*
X17466000Y-7007000D02*
X17568000Y-7007000D01*
X17499000Y-7835000D02*
X17601000Y-7937000D01*
X17601000Y-7835000D02*
X17499000Y-7937000D01*
X17550000Y-7835000D02*
X17550000Y-7937000D01*
X17499000Y-7886000D02*
X17601000Y-7886000D01*
X17499000Y-8089000D02*
X17601000Y-8191000D01*
X17601000Y-8089000D02*
X17499000Y-8191000D01*
X17550000Y-8089000D02*
X17550000Y-8191000D01*
X17499000Y-8140000D02*
X17601000Y-8140000D01*
X17499000Y-8343000D02*
X17601000Y-8445000D01*
X17601000Y-8343000D02*
X17499000Y-8445000D01*
X17550000Y-8343000D02*
X17550000Y-8445000D01*
X17499000Y-8394000D02*
X17601000Y-8394000D01*
X17720000Y-6956000D02*
X17822000Y-7058000D01*
X17822000Y-6956000D02*
X17720000Y-7058000D01*
X17771000Y-6956000D02*
X17771000Y-7058000D01*
X17720000Y-7007000D02*
X17822000Y-7007000D01*
D14*
X15219750Y-6244500D02*
X15394750Y-6419500D01*
X15394750Y-6244500D02*
X15219750Y-6419500D01*
X15369122Y-6393872D02*
X15369122Y-6270128D01*
X15245378Y-6270128D01*
X15245378Y-6393872D01*
X15369122Y-6393872D01*
X15607750Y-6244500D02*
X15782750Y-6419500D01*
X15782750Y-6244500D02*
X15607750Y-6419500D01*
X15757122Y-6393872D02*
X15757122Y-6270128D01*
X15633378Y-6270128D01*
X15633378Y-6393872D01*
X15757122Y-6393872D01*
D15*
X14186000Y-6076000D02*
X14406000Y-6296000D01*
X14406000Y-6076000D02*
X14186000Y-6296000D01*
X14296000Y-6296000D02*
X14406000Y-6186000D01*
X14296000Y-6076000D01*
X14186000Y-6186000D01*
X14296000Y-6296000D01*
X14189000Y-10311000D02*
X14409000Y-10531000D01*
X14409000Y-10311000D02*
X14189000Y-10531000D01*
X14299000Y-10531000D02*
X14409000Y-10421000D01*
X14299000Y-10311000D01*
X14189000Y-10421000D01*
X14299000Y-10531000D01*
X17560327Y-10289327D02*
X17780327Y-10509327D01*
X17780327Y-10289327D02*
X17560327Y-10509327D01*
X17670327Y-10509327D02*
X17780327Y-10399327D01*
X17670327Y-10289327D01*
X17560327Y-10399327D01*
X17670327Y-10509327D01*
X17566327Y-6069673D02*
X17786327Y-6289673D01*
X17786327Y-6069673D02*
X17566327Y-6289673D01*
X17676327Y-6289673D02*
X17786327Y-6179673D01*
X17676327Y-6069673D01*
X17566327Y-6179673D01*
X17676327Y-6289673D01*
D11*
X14292277Y-10999984D02*
X14292277Y-10799984D01*
X14292277Y-10799984D02*
X14339896Y-10799984D01*
X14339896Y-10799984D02*
X14368467Y-10809508D01*
X14368467Y-10809508D02*
X14387515Y-10828555D01*
X14387515Y-10828555D02*
X14397039Y-10847603D01*
X14397039Y-10847603D02*
X14406562Y-10885698D01*
X14406562Y-10885698D02*
X14406562Y-10914270D01*
X14406562Y-10914270D02*
X14397039Y-10952365D01*
X14397039Y-10952365D02*
X14387515Y-10971412D01*
X14387515Y-10971412D02*
X14368467Y-10990460D01*
X14368467Y-10990460D02*
X14339896Y-10999984D01*
X14339896Y-10999984D02*
X14292277Y-10999984D01*
X14492277Y-10999984D02*
X14492277Y-10866650D01*
X14492277Y-10904746D02*
X14501801Y-10885698D01*
X14501801Y-10885698D02*
X14511324Y-10876174D01*
X14511324Y-10876174D02*
X14530372Y-10866650D01*
X14530372Y-10866650D02*
X14549420Y-10866650D01*
X14616086Y-10999984D02*
X14616086Y-10866650D01*
X14616086Y-10799984D02*
X14606562Y-10809508D01*
X14606562Y-10809508D02*
X14616086Y-10819031D01*
X14616086Y-10819031D02*
X14625610Y-10809508D01*
X14625610Y-10809508D02*
X14616086Y-10799984D01*
X14616086Y-10799984D02*
X14616086Y-10819031D01*
X14739896Y-10999984D02*
X14720848Y-10990460D01*
X14720848Y-10990460D02*
X14711324Y-10971412D01*
X14711324Y-10971412D02*
X14711324Y-10799984D01*
X14844658Y-10999984D02*
X14825610Y-10990460D01*
X14825610Y-10990460D02*
X14816086Y-10971412D01*
X14816086Y-10971412D02*
X14816086Y-10799984D01*
X15073229Y-10999984D02*
X15073229Y-10799984D01*
X15073229Y-10799984D02*
X15139896Y-10942841D01*
X15139896Y-10942841D02*
X15206562Y-10799984D01*
X15206562Y-10799984D02*
X15206562Y-10999984D01*
X15387515Y-10999984D02*
X15387515Y-10895222D01*
X15387515Y-10895222D02*
X15377991Y-10876174D01*
X15377991Y-10876174D02*
X15358943Y-10866650D01*
X15358943Y-10866650D02*
X15320848Y-10866650D01*
X15320848Y-10866650D02*
X15301801Y-10876174D01*
X15387515Y-10990460D02*
X15368467Y-10999984D01*
X15368467Y-10999984D02*
X15320848Y-10999984D01*
X15320848Y-10999984D02*
X15301801Y-10990460D01*
X15301801Y-10990460D02*
X15292277Y-10971412D01*
X15292277Y-10971412D02*
X15292277Y-10952365D01*
X15292277Y-10952365D02*
X15301801Y-10933317D01*
X15301801Y-10933317D02*
X15320848Y-10923793D01*
X15320848Y-10923793D02*
X15368467Y-10923793D01*
X15368467Y-10923793D02*
X15387515Y-10914270D01*
X15482753Y-10866650D02*
X15482753Y-11066650D01*
X15482753Y-10876174D02*
X15501801Y-10866650D01*
X15501801Y-10866650D02*
X15539896Y-10866650D01*
X15539896Y-10866650D02*
X15558943Y-10876174D01*
X15558943Y-10876174D02*
X15568467Y-10885698D01*
X15568467Y-10885698D02*
X15577991Y-10904746D01*
X15577991Y-10904746D02*
X15577991Y-10961889D01*
X15577991Y-10961889D02*
X15568467Y-10980936D01*
X15568467Y-10980936D02*
X15558943Y-10990460D01*
X15558943Y-10990460D02*
X15539896Y-10999984D01*
X15539896Y-10999984D02*
X15501801Y-10999984D01*
X15501801Y-10999984D02*
X15482753Y-10990460D01*
X15663705Y-10980936D02*
X15673229Y-10990460D01*
X15673229Y-10990460D02*
X15663705Y-10999984D01*
X15663705Y-10999984D02*
X15654182Y-10990460D01*
X15654182Y-10990460D02*
X15663705Y-10980936D01*
X15663705Y-10980936D02*
X15663705Y-10999984D01*
X15663705Y-10876174D02*
X15673229Y-10885698D01*
X15673229Y-10885698D02*
X15663705Y-10895222D01*
X15663705Y-10895222D02*
X15654182Y-10885698D01*
X15654182Y-10885698D02*
X15663705Y-10876174D01*
X15663705Y-10876174D02*
X15663705Y-10895222D01*
D12*
X14001500Y-11313500D02*
X14031500Y-11343500D01*
X14031500Y-11313500D02*
X14001500Y-11343500D01*
D11*
X14330372Y-11219984D02*
X14349420Y-11219984D01*
X14349420Y-11219984D02*
X14368467Y-11229508D01*
X14368467Y-11229508D02*
X14377991Y-11239031D01*
X14377991Y-11239031D02*
X14387515Y-11258079D01*
X14387515Y-11258079D02*
X14397039Y-11296174D01*
X14397039Y-11296174D02*
X14397039Y-11343793D01*
X14397039Y-11343793D02*
X14387515Y-11381888D01*
X14387515Y-11381888D02*
X14377991Y-11400936D01*
X14377991Y-11400936D02*
X14368467Y-11410460D01*
X14368467Y-11410460D02*
X14349420Y-11419984D01*
X14349420Y-11419984D02*
X14330372Y-11419984D01*
X14330372Y-11419984D02*
X14311324Y-11410460D01*
X14311324Y-11410460D02*
X14301801Y-11400936D01*
X14301801Y-11400936D02*
X14292277Y-11381888D01*
X14292277Y-11381888D02*
X14282753Y-11343793D01*
X14282753Y-11343793D02*
X14282753Y-11296174D01*
X14282753Y-11296174D02*
X14292277Y-11258079D01*
X14292277Y-11258079D02*
X14301801Y-11239031D01*
X14301801Y-11239031D02*
X14311324Y-11229508D01*
X14311324Y-11229508D02*
X14330372Y-11219984D01*
X14482753Y-11400936D02*
X14492277Y-11410460D01*
X14492277Y-11410460D02*
X14482753Y-11419984D01*
X14482753Y-11419984D02*
X14473229Y-11410460D01*
X14473229Y-11410460D02*
X14482753Y-11400936D01*
X14482753Y-11400936D02*
X14482753Y-11419984D01*
X14558943Y-11219984D02*
X14682753Y-11219984D01*
X14682753Y-11219984D02*
X14616086Y-11296174D01*
X14616086Y-11296174D02*
X14644658Y-11296174D01*
X14644658Y-11296174D02*
X14663705Y-11305698D01*
X14663705Y-11305698D02*
X14673229Y-11315222D01*
X14673229Y-11315222D02*
X14682753Y-11334269D01*
X14682753Y-11334269D02*
X14682753Y-11381888D01*
X14682753Y-11381888D02*
X14673229Y-11400936D01*
X14673229Y-11400936D02*
X14663705Y-11410460D01*
X14663705Y-11410460D02*
X14644658Y-11419984D01*
X14644658Y-11419984D02*
X14587515Y-11419984D01*
X14587515Y-11419984D02*
X14568467Y-11410460D01*
X14568467Y-11410460D02*
X14558943Y-11400936D01*
X14806562Y-11219984D02*
X14825610Y-11219984D01*
X14825610Y-11219984D02*
X14844658Y-11229508D01*
X14844658Y-11229508D02*
X14854182Y-11239031D01*
X14854182Y-11239031D02*
X14863705Y-11258079D01*
X14863705Y-11258079D02*
X14873229Y-11296174D01*
X14873229Y-11296174D02*
X14873229Y-11343793D01*
X14873229Y-11343793D02*
X14863705Y-11381888D01*
X14863705Y-11381888D02*
X14854182Y-11400936D01*
X14854182Y-11400936D02*
X14844658Y-11410460D01*
X14844658Y-11410460D02*
X14825610Y-11419984D01*
X14825610Y-11419984D02*
X14806562Y-11419984D01*
X14806562Y-11419984D02*
X14787515Y-11410460D01*
X14787515Y-11410460D02*
X14777991Y-11400936D01*
X14777991Y-11400936D02*
X14768467Y-11381888D01*
X14768467Y-11381888D02*
X14758943Y-11343793D01*
X14758943Y-11343793D02*
X14758943Y-11296174D01*
X14758943Y-11296174D02*
X14768467Y-11258079D01*
X14768467Y-11258079D02*
X14777991Y-11239031D01*
X14777991Y-11239031D02*
X14787515Y-11229508D01*
X14787515Y-11229508D02*
X14806562Y-11219984D01*
X14997039Y-11219984D02*
X15016086Y-11219984D01*
X15016086Y-11219984D02*
X15035134Y-11229508D01*
X15035134Y-11229508D02*
X15044658Y-11239031D01*
X15044658Y-11239031D02*
X15054182Y-11258079D01*
X15054182Y-11258079D02*
X15063705Y-11296174D01*
X15063705Y-11296174D02*
X15063705Y-11343793D01*
X15063705Y-11343793D02*
X15054182Y-11381888D01*
X15054182Y-11381888D02*
X15044658Y-11400936D01*
X15044658Y-11400936D02*
X15035134Y-11410460D01*
X15035134Y-11410460D02*
X15016086Y-11419984D01*
X15016086Y-11419984D02*
X14997039Y-11419984D01*
X14997039Y-11419984D02*
X14977991Y-11410460D01*
X14977991Y-11410460D02*
X14968467Y-11400936D01*
X14968467Y-11400936D02*
X14958943Y-11381888D01*
X14958943Y-11381888D02*
X14949420Y-11343793D01*
X14949420Y-11343793D02*
X14949420Y-11296174D01*
X14949420Y-11296174D02*
X14958943Y-11258079D01*
X14958943Y-11258079D02*
X14968467Y-11239031D01*
X14968467Y-11239031D02*
X14977991Y-11229508D01*
X14977991Y-11229508D02*
X14997039Y-11219984D01*
X15149420Y-11419984D02*
X15149420Y-11286650D01*
X15149420Y-11305698D02*
X15158943Y-11296174D01*
X15158943Y-11296174D02*
X15177991Y-11286650D01*
X15177991Y-11286650D02*
X15206563Y-11286650D01*
X15206563Y-11286650D02*
X15225610Y-11296174D01*
X15225610Y-11296174D02*
X15235134Y-11315222D01*
X15235134Y-11315222D02*
X15235134Y-11419984D01*
X15235134Y-11315222D02*
X15244658Y-11296174D01*
X15244658Y-11296174D02*
X15263705Y-11286650D01*
X15263705Y-11286650D02*
X15292277Y-11286650D01*
X15292277Y-11286650D02*
X15311324Y-11296174D01*
X15311324Y-11296174D02*
X15320848Y-11315222D01*
X15320848Y-11315222D02*
X15320848Y-11419984D01*
X15416086Y-11419984D02*
X15416086Y-11286650D01*
X15416086Y-11305698D02*
X15425610Y-11296174D01*
X15425610Y-11296174D02*
X15444658Y-11286650D01*
X15444658Y-11286650D02*
X15473229Y-11286650D01*
X15473229Y-11286650D02*
X15492277Y-11296174D01*
X15492277Y-11296174D02*
X15501801Y-11315222D01*
X15501801Y-11315222D02*
X15501801Y-11419984D01*
X15501801Y-11315222D02*
X15511324Y-11296174D01*
X15511324Y-11296174D02*
X15530372Y-11286650D01*
X15530372Y-11286650D02*
X15558943Y-11286650D01*
X15558943Y-11286650D02*
X15577991Y-11296174D01*
X15577991Y-11296174D02*
X15587515Y-11315222D01*
X15587515Y-11315222D02*
X15587515Y-11419984D01*
X15977991Y-11210460D02*
X15806563Y-11467603D01*
X16235134Y-11219984D02*
X16254182Y-11219984D01*
X16254182Y-11219984D02*
X16273229Y-11229508D01*
X16273229Y-11229508D02*
X16282753Y-11239031D01*
X16282753Y-11239031D02*
X16292277Y-11258079D01*
X16292277Y-11258079D02*
X16301801Y-11296174D01*
X16301801Y-11296174D02*
X16301801Y-11343793D01*
X16301801Y-11343793D02*
X16292277Y-11381888D01*
X16292277Y-11381888D02*
X16282753Y-11400936D01*
X16282753Y-11400936D02*
X16273229Y-11410460D01*
X16273229Y-11410460D02*
X16254182Y-11419984D01*
X16254182Y-11419984D02*
X16235134Y-11419984D01*
X16235134Y-11419984D02*
X16216086Y-11410460D01*
X16216086Y-11410460D02*
X16206563Y-11400936D01*
X16206563Y-11400936D02*
X16197039Y-11381888D01*
X16197039Y-11381888D02*
X16187515Y-11343793D01*
X16187515Y-11343793D02*
X16187515Y-11296174D01*
X16187515Y-11296174D02*
X16197039Y-11258079D01*
X16197039Y-11258079D02*
X16206563Y-11239031D01*
X16206563Y-11239031D02*
X16216086Y-11229508D01*
X16216086Y-11229508D02*
X16235134Y-11219984D01*
X16387515Y-11400936D02*
X16397039Y-11410460D01*
X16397039Y-11410460D02*
X16387515Y-11419984D01*
X16387515Y-11419984D02*
X16377991Y-11410460D01*
X16377991Y-11410460D02*
X16387515Y-11400936D01*
X16387515Y-11400936D02*
X16387515Y-11419984D01*
X16520848Y-11219984D02*
X16539896Y-11219984D01*
X16539896Y-11219984D02*
X16558944Y-11229508D01*
X16558944Y-11229508D02*
X16568467Y-11239031D01*
X16568467Y-11239031D02*
X16577991Y-11258079D01*
X16577991Y-11258079D02*
X16587515Y-11296174D01*
X16587515Y-11296174D02*
X16587515Y-11343793D01*
X16587515Y-11343793D02*
X16577991Y-11381888D01*
X16577991Y-11381888D02*
X16568467Y-11400936D01*
X16568467Y-11400936D02*
X16558944Y-11410460D01*
X16558944Y-11410460D02*
X16539896Y-11419984D01*
X16539896Y-11419984D02*
X16520848Y-11419984D01*
X16520848Y-11419984D02*
X16501801Y-11410460D01*
X16501801Y-11410460D02*
X16492277Y-11400936D01*
X16492277Y-11400936D02*
X16482753Y-11381888D01*
X16482753Y-11381888D02*
X16473229Y-11343793D01*
X16473229Y-11343793D02*
X16473229Y-11296174D01*
X16473229Y-11296174D02*
X16482753Y-11258079D01*
X16482753Y-11258079D02*
X16492277Y-11239031D01*
X16492277Y-11239031D02*
X16501801Y-11229508D01*
X16501801Y-11229508D02*
X16520848Y-11219984D01*
X16777991Y-11419984D02*
X16663706Y-11419984D01*
X16720848Y-11419984D02*
X16720848Y-11219984D01*
X16720848Y-11219984D02*
X16701801Y-11248555D01*
X16701801Y-11248555D02*
X16682753Y-11267603D01*
X16682753Y-11267603D02*
X16663706Y-11277127D01*
X16968468Y-11419984D02*
X16854182Y-11419984D01*
X16911325Y-11419984D02*
X16911325Y-11219984D01*
X16911325Y-11219984D02*
X16892277Y-11248555D01*
X16892277Y-11248555D02*
X16873229Y-11267603D01*
X16873229Y-11267603D02*
X16854182Y-11277127D01*
X17082753Y-11305698D02*
X17063706Y-11296174D01*
X17063706Y-11296174D02*
X17054182Y-11286650D01*
X17054182Y-11286650D02*
X17044658Y-11267603D01*
X17044658Y-11267603D02*
X17044658Y-11258079D01*
X17044658Y-11258079D02*
X17054182Y-11239031D01*
X17054182Y-11239031D02*
X17063706Y-11229508D01*
X17063706Y-11229508D02*
X17082753Y-11219984D01*
X17082753Y-11219984D02*
X17120849Y-11219984D01*
X17120849Y-11219984D02*
X17139896Y-11229508D01*
X17139896Y-11229508D02*
X17149420Y-11239031D01*
X17149420Y-11239031D02*
X17158944Y-11258079D01*
X17158944Y-11258079D02*
X17158944Y-11267603D01*
X17158944Y-11267603D02*
X17149420Y-11286650D01*
X17149420Y-11286650D02*
X17139896Y-11296174D01*
X17139896Y-11296174D02*
X17120849Y-11305698D01*
X17120849Y-11305698D02*
X17082753Y-11305698D01*
X17082753Y-11305698D02*
X17063706Y-11315222D01*
X17063706Y-11315222D02*
X17054182Y-11324746D01*
X17054182Y-11324746D02*
X17044658Y-11343793D01*
X17044658Y-11343793D02*
X17044658Y-11381888D01*
X17044658Y-11381888D02*
X17054182Y-11400936D01*
X17054182Y-11400936D02*
X17063706Y-11410460D01*
X17063706Y-11410460D02*
X17082753Y-11419984D01*
X17082753Y-11419984D02*
X17120849Y-11419984D01*
X17120849Y-11419984D02*
X17139896Y-11410460D01*
X17139896Y-11410460D02*
X17149420Y-11400936D01*
X17149420Y-11400936D02*
X17158944Y-11381888D01*
X17158944Y-11381888D02*
X17158944Y-11343793D01*
X17158944Y-11343793D02*
X17149420Y-11324746D01*
X17149420Y-11324746D02*
X17139896Y-11315222D01*
X17139896Y-11315222D02*
X17120849Y-11305698D01*
X17235134Y-11219984D02*
X17235134Y-11258079D01*
X17311325Y-11219984D02*
X17311325Y-11258079D01*
X17606563Y-11496174D02*
X17597039Y-11486650D01*
X17597039Y-11486650D02*
X17577991Y-11458079D01*
X17577991Y-11458079D02*
X17568468Y-11439031D01*
X17568468Y-11439031D02*
X17558944Y-11410460D01*
X17558944Y-11410460D02*
X17549420Y-11362841D01*
X17549420Y-11362841D02*
X17549420Y-11324746D01*
X17549420Y-11324746D02*
X17558944Y-11277127D01*
X17558944Y-11277127D02*
X17568468Y-11248555D01*
X17568468Y-11248555D02*
X17577991Y-11229508D01*
X17577991Y-11229508D02*
X17597039Y-11200936D01*
X17597039Y-11200936D02*
X17606563Y-11191412D01*
X17711325Y-11305698D02*
X17692277Y-11296174D01*
X17692277Y-11296174D02*
X17682753Y-11286650D01*
X17682753Y-11286650D02*
X17673230Y-11267603D01*
X17673230Y-11267603D02*
X17673230Y-11258079D01*
X17673230Y-11258079D02*
X17682753Y-11239031D01*
X17682753Y-11239031D02*
X17692277Y-11229508D01*
X17692277Y-11229508D02*
X17711325Y-11219984D01*
X17711325Y-11219984D02*
X17749420Y-11219984D01*
X17749420Y-11219984D02*
X17768468Y-11229508D01*
X17768468Y-11229508D02*
X17777991Y-11239031D01*
X17777991Y-11239031D02*
X17787515Y-11258079D01*
X17787515Y-11258079D02*
X17787515Y-11267603D01*
X17787515Y-11267603D02*
X17777991Y-11286650D01*
X17777991Y-11286650D02*
X17768468Y-11296174D01*
X17768468Y-11296174D02*
X17749420Y-11305698D01*
X17749420Y-11305698D02*
X17711325Y-11305698D01*
X17711325Y-11305698D02*
X17692277Y-11315222D01*
X17692277Y-11315222D02*
X17682753Y-11324746D01*
X17682753Y-11324746D02*
X17673230Y-11343793D01*
X17673230Y-11343793D02*
X17673230Y-11381888D01*
X17673230Y-11381888D02*
X17682753Y-11400936D01*
X17682753Y-11400936D02*
X17692277Y-11410460D01*
X17692277Y-11410460D02*
X17711325Y-11419984D01*
X17711325Y-11419984D02*
X17749420Y-11419984D01*
X17749420Y-11419984D02*
X17768468Y-11410460D01*
X17768468Y-11410460D02*
X17777991Y-11400936D01*
X17777991Y-11400936D02*
X17787515Y-11381888D01*
X17787515Y-11381888D02*
X17787515Y-11343793D01*
X17787515Y-11343793D02*
X17777991Y-11324746D01*
X17777991Y-11324746D02*
X17768468Y-11315222D01*
X17768468Y-11315222D02*
X17749420Y-11305698D01*
X18025611Y-11419984D02*
X18025611Y-11219984D01*
X18111325Y-11419984D02*
X18111325Y-11315222D01*
X18111325Y-11315222D02*
X18101801Y-11296174D01*
X18101801Y-11296174D02*
X18082753Y-11286650D01*
X18082753Y-11286650D02*
X18054182Y-11286650D01*
X18054182Y-11286650D02*
X18035134Y-11296174D01*
X18035134Y-11296174D02*
X18025611Y-11305698D01*
X18235134Y-11419984D02*
X18216087Y-11410460D01*
X18216087Y-11410460D02*
X18206563Y-11400936D01*
X18206563Y-11400936D02*
X18197039Y-11381888D01*
X18197039Y-11381888D02*
X18197039Y-11324746D01*
X18197039Y-11324746D02*
X18206563Y-11305698D01*
X18206563Y-11305698D02*
X18216087Y-11296174D01*
X18216087Y-11296174D02*
X18235134Y-11286650D01*
X18235134Y-11286650D02*
X18263706Y-11286650D01*
X18263706Y-11286650D02*
X18282753Y-11296174D01*
X18282753Y-11296174D02*
X18292277Y-11305698D01*
X18292277Y-11305698D02*
X18301801Y-11324746D01*
X18301801Y-11324746D02*
X18301801Y-11381888D01*
X18301801Y-11381888D02*
X18292277Y-11400936D01*
X18292277Y-11400936D02*
X18282753Y-11410460D01*
X18282753Y-11410460D02*
X18263706Y-11419984D01*
X18263706Y-11419984D02*
X18235134Y-11419984D01*
X18416087Y-11419984D02*
X18397039Y-11410460D01*
X18397039Y-11410460D02*
X18387515Y-11391412D01*
X18387515Y-11391412D02*
X18387515Y-11219984D01*
X18568468Y-11410460D02*
X18549420Y-11419984D01*
X18549420Y-11419984D02*
X18511325Y-11419984D01*
X18511325Y-11419984D02*
X18492277Y-11410460D01*
X18492277Y-11410460D02*
X18482753Y-11391412D01*
X18482753Y-11391412D02*
X18482753Y-11315222D01*
X18482753Y-11315222D02*
X18492277Y-11296174D01*
X18492277Y-11296174D02*
X18511325Y-11286650D01*
X18511325Y-11286650D02*
X18549420Y-11286650D01*
X18549420Y-11286650D02*
X18568468Y-11296174D01*
X18568468Y-11296174D02*
X18577992Y-11315222D01*
X18577992Y-11315222D02*
X18577992Y-11334269D01*
X18577992Y-11334269D02*
X18482753Y-11353317D01*
X18654182Y-11410460D02*
X18673230Y-11419984D01*
X18673230Y-11419984D02*
X18711325Y-11419984D01*
X18711325Y-11419984D02*
X18730373Y-11410460D01*
X18730373Y-11410460D02*
X18739896Y-11391412D01*
X18739896Y-11391412D02*
X18739896Y-11381888D01*
X18739896Y-11381888D02*
X18730373Y-11362841D01*
X18730373Y-11362841D02*
X18711325Y-11353317D01*
X18711325Y-11353317D02*
X18682753Y-11353317D01*
X18682753Y-11353317D02*
X18663706Y-11343793D01*
X18663706Y-11343793D02*
X18654182Y-11324746D01*
X18654182Y-11324746D02*
X18654182Y-11315222D01*
X18654182Y-11315222D02*
X18663706Y-11296174D01*
X18663706Y-11296174D02*
X18682753Y-11286650D01*
X18682753Y-11286650D02*
X18711325Y-11286650D01*
X18711325Y-11286650D02*
X18730373Y-11296174D01*
X18806563Y-11496174D02*
X18816087Y-11486650D01*
X18816087Y-11486650D02*
X18835134Y-11458079D01*
X18835134Y-11458079D02*
X18844658Y-11439031D01*
X18844658Y-11439031D02*
X18854182Y-11410460D01*
X18854182Y-11410460D02*
X18863706Y-11362841D01*
X18863706Y-11362841D02*
X18863706Y-11324746D01*
X18863706Y-11324746D02*
X18854182Y-11277127D01*
X18854182Y-11277127D02*
X18844658Y-11248555D01*
X18844658Y-11248555D02*
X18835134Y-11229508D01*
X18835134Y-11229508D02*
X18816087Y-11200936D01*
X18816087Y-11200936D02*
X18806563Y-11191412D01*
D12*
X14031500Y-11592500D02*
G75*
G02*
X13991500Y-11592500I-20000J0D01*
G01*
X13991500Y-11592500D02*
G75*
G02*
X14031500Y-11592500I20000J0D01*
G01*
D11*
X14330372Y-11483984D02*
X14349420Y-11483984D01*
X14349420Y-11483984D02*
X14368467Y-11493508D01*
X14368467Y-11493508D02*
X14377991Y-11503031D01*
X14377991Y-11503031D02*
X14387515Y-11522079D01*
X14387515Y-11522079D02*
X14397039Y-11560174D01*
X14397039Y-11560174D02*
X14397039Y-11607793D01*
X14397039Y-11607793D02*
X14387515Y-11645888D01*
X14387515Y-11645888D02*
X14377991Y-11664936D01*
X14377991Y-11664936D02*
X14368467Y-11674460D01*
X14368467Y-11674460D02*
X14349420Y-11683984D01*
X14349420Y-11683984D02*
X14330372Y-11683984D01*
X14330372Y-11683984D02*
X14311324Y-11674460D01*
X14311324Y-11674460D02*
X14301801Y-11664936D01*
X14301801Y-11664936D02*
X14292277Y-11645888D01*
X14292277Y-11645888D02*
X14282753Y-11607793D01*
X14282753Y-11607793D02*
X14282753Y-11560174D01*
X14282753Y-11560174D02*
X14292277Y-11522079D01*
X14292277Y-11522079D02*
X14301801Y-11503031D01*
X14301801Y-11503031D02*
X14311324Y-11493508D01*
X14311324Y-11493508D02*
X14330372Y-11483984D01*
X14482753Y-11664936D02*
X14492277Y-11674460D01*
X14492277Y-11674460D02*
X14482753Y-11683984D01*
X14482753Y-11683984D02*
X14473229Y-11674460D01*
X14473229Y-11674460D02*
X14482753Y-11664936D01*
X14482753Y-11664936D02*
X14482753Y-11683984D01*
X14663705Y-11550650D02*
X14663705Y-11683984D01*
X14616086Y-11474460D02*
X14568467Y-11617317D01*
X14568467Y-11617317D02*
X14692277Y-11617317D01*
X14806562Y-11483984D02*
X14825610Y-11483984D01*
X14825610Y-11483984D02*
X14844658Y-11493508D01*
X14844658Y-11493508D02*
X14854182Y-11503031D01*
X14854182Y-11503031D02*
X14863705Y-11522079D01*
X14863705Y-11522079D02*
X14873229Y-11560174D01*
X14873229Y-11560174D02*
X14873229Y-11607793D01*
X14873229Y-11607793D02*
X14863705Y-11645888D01*
X14863705Y-11645888D02*
X14854182Y-11664936D01*
X14854182Y-11664936D02*
X14844658Y-11674460D01*
X14844658Y-11674460D02*
X14825610Y-11683984D01*
X14825610Y-11683984D02*
X14806562Y-11683984D01*
X14806562Y-11683984D02*
X14787515Y-11674460D01*
X14787515Y-11674460D02*
X14777991Y-11664936D01*
X14777991Y-11664936D02*
X14768467Y-11645888D01*
X14768467Y-11645888D02*
X14758943Y-11607793D01*
X14758943Y-11607793D02*
X14758943Y-11560174D01*
X14758943Y-11560174D02*
X14768467Y-11522079D01*
X14768467Y-11522079D02*
X14777991Y-11503031D01*
X14777991Y-11503031D02*
X14787515Y-11493508D01*
X14787515Y-11493508D02*
X14806562Y-11483984D01*
X14997039Y-11483984D02*
X15016086Y-11483984D01*
X15016086Y-11483984D02*
X15035134Y-11493508D01*
X15035134Y-11493508D02*
X15044658Y-11503031D01*
X15044658Y-11503031D02*
X15054182Y-11522079D01*
X15054182Y-11522079D02*
X15063705Y-11560174D01*
X15063705Y-11560174D02*
X15063705Y-11607793D01*
X15063705Y-11607793D02*
X15054182Y-11645888D01*
X15054182Y-11645888D02*
X15044658Y-11664936D01*
X15044658Y-11664936D02*
X15035134Y-11674460D01*
X15035134Y-11674460D02*
X15016086Y-11683984D01*
X15016086Y-11683984D02*
X14997039Y-11683984D01*
X14997039Y-11683984D02*
X14977991Y-11674460D01*
X14977991Y-11674460D02*
X14968467Y-11664936D01*
X14968467Y-11664936D02*
X14958943Y-11645888D01*
X14958943Y-11645888D02*
X14949420Y-11607793D01*
X14949420Y-11607793D02*
X14949420Y-11560174D01*
X14949420Y-11560174D02*
X14958943Y-11522079D01*
X14958943Y-11522079D02*
X14968467Y-11503031D01*
X14968467Y-11503031D02*
X14977991Y-11493508D01*
X14977991Y-11493508D02*
X14997039Y-11483984D01*
X15149420Y-11683984D02*
X15149420Y-11550650D01*
X15149420Y-11569698D02*
X15158943Y-11560174D01*
X15158943Y-11560174D02*
X15177991Y-11550650D01*
X15177991Y-11550650D02*
X15206563Y-11550650D01*
X15206563Y-11550650D02*
X15225610Y-11560174D01*
X15225610Y-11560174D02*
X15235134Y-11579222D01*
X15235134Y-11579222D02*
X15235134Y-11683984D01*
X15235134Y-11579222D02*
X15244658Y-11560174D01*
X15244658Y-11560174D02*
X15263705Y-11550650D01*
X15263705Y-11550650D02*
X15292277Y-11550650D01*
X15292277Y-11550650D02*
X15311324Y-11560174D01*
X15311324Y-11560174D02*
X15320848Y-11579222D01*
X15320848Y-11579222D02*
X15320848Y-11683984D01*
X15416086Y-11683984D02*
X15416086Y-11550650D01*
X15416086Y-11569698D02*
X15425610Y-11560174D01*
X15425610Y-11560174D02*
X15444658Y-11550650D01*
X15444658Y-11550650D02*
X15473229Y-11550650D01*
X15473229Y-11550650D02*
X15492277Y-11560174D01*
X15492277Y-11560174D02*
X15501801Y-11579222D01*
X15501801Y-11579222D02*
X15501801Y-11683984D01*
X15501801Y-11579222D02*
X15511324Y-11560174D01*
X15511324Y-11560174D02*
X15530372Y-11550650D01*
X15530372Y-11550650D02*
X15558943Y-11550650D01*
X15558943Y-11550650D02*
X15577991Y-11560174D01*
X15577991Y-11560174D02*
X15587515Y-11579222D01*
X15587515Y-11579222D02*
X15587515Y-11683984D01*
X15977991Y-11474460D02*
X15806563Y-11731603D01*
X16235134Y-11483984D02*
X16254182Y-11483984D01*
X16254182Y-11483984D02*
X16273229Y-11493508D01*
X16273229Y-11493508D02*
X16282753Y-11503031D01*
X16282753Y-11503031D02*
X16292277Y-11522079D01*
X16292277Y-11522079D02*
X16301801Y-11560174D01*
X16301801Y-11560174D02*
X16301801Y-11607793D01*
X16301801Y-11607793D02*
X16292277Y-11645888D01*
X16292277Y-11645888D02*
X16282753Y-11664936D01*
X16282753Y-11664936D02*
X16273229Y-11674460D01*
X16273229Y-11674460D02*
X16254182Y-11683984D01*
X16254182Y-11683984D02*
X16235134Y-11683984D01*
X16235134Y-11683984D02*
X16216086Y-11674460D01*
X16216086Y-11674460D02*
X16206563Y-11664936D01*
X16206563Y-11664936D02*
X16197039Y-11645888D01*
X16197039Y-11645888D02*
X16187515Y-11607793D01*
X16187515Y-11607793D02*
X16187515Y-11560174D01*
X16187515Y-11560174D02*
X16197039Y-11522079D01*
X16197039Y-11522079D02*
X16206563Y-11503031D01*
X16206563Y-11503031D02*
X16216086Y-11493508D01*
X16216086Y-11493508D02*
X16235134Y-11483984D01*
X16387515Y-11664936D02*
X16397039Y-11674460D01*
X16397039Y-11674460D02*
X16387515Y-11683984D01*
X16387515Y-11683984D02*
X16377991Y-11674460D01*
X16377991Y-11674460D02*
X16387515Y-11664936D01*
X16387515Y-11664936D02*
X16387515Y-11683984D01*
X16520848Y-11483984D02*
X16539896Y-11483984D01*
X16539896Y-11483984D02*
X16558944Y-11493508D01*
X16558944Y-11493508D02*
X16568467Y-11503031D01*
X16568467Y-11503031D02*
X16577991Y-11522079D01*
X16577991Y-11522079D02*
X16587515Y-11560174D01*
X16587515Y-11560174D02*
X16587515Y-11607793D01*
X16587515Y-11607793D02*
X16577991Y-11645888D01*
X16577991Y-11645888D02*
X16568467Y-11664936D01*
X16568467Y-11664936D02*
X16558944Y-11674460D01*
X16558944Y-11674460D02*
X16539896Y-11683984D01*
X16539896Y-11683984D02*
X16520848Y-11683984D01*
X16520848Y-11683984D02*
X16501801Y-11674460D01*
X16501801Y-11674460D02*
X16492277Y-11664936D01*
X16492277Y-11664936D02*
X16482753Y-11645888D01*
X16482753Y-11645888D02*
X16473229Y-11607793D01*
X16473229Y-11607793D02*
X16473229Y-11560174D01*
X16473229Y-11560174D02*
X16482753Y-11522079D01*
X16482753Y-11522079D02*
X16492277Y-11503031D01*
X16492277Y-11503031D02*
X16501801Y-11493508D01*
X16501801Y-11493508D02*
X16520848Y-11483984D01*
X16777991Y-11683984D02*
X16663706Y-11683984D01*
X16720848Y-11683984D02*
X16720848Y-11483984D01*
X16720848Y-11483984D02*
X16701801Y-11512555D01*
X16701801Y-11512555D02*
X16682753Y-11531603D01*
X16682753Y-11531603D02*
X16663706Y-11541127D01*
X16958944Y-11483984D02*
X16863706Y-11483984D01*
X16863706Y-11483984D02*
X16854182Y-11579222D01*
X16854182Y-11579222D02*
X16863706Y-11569698D01*
X16863706Y-11569698D02*
X16882753Y-11560174D01*
X16882753Y-11560174D02*
X16930372Y-11560174D01*
X16930372Y-11560174D02*
X16949420Y-11569698D01*
X16949420Y-11569698D02*
X16958944Y-11579222D01*
X16958944Y-11579222D02*
X16968468Y-11598269D01*
X16968468Y-11598269D02*
X16968468Y-11645888D01*
X16968468Y-11645888D02*
X16958944Y-11664936D01*
X16958944Y-11664936D02*
X16949420Y-11674460D01*
X16949420Y-11674460D02*
X16930372Y-11683984D01*
X16930372Y-11683984D02*
X16882753Y-11683984D01*
X16882753Y-11683984D02*
X16863706Y-11674460D01*
X16863706Y-11674460D02*
X16854182Y-11664936D01*
X17035134Y-11483984D02*
X17168468Y-11483984D01*
X17168468Y-11483984D02*
X17082753Y-11683984D01*
X17235134Y-11483984D02*
X17235134Y-11522079D01*
X17311325Y-11483984D02*
X17311325Y-11522079D01*
X17606563Y-11760174D02*
X17597039Y-11750650D01*
X17597039Y-11750650D02*
X17577991Y-11722079D01*
X17577991Y-11722079D02*
X17568468Y-11703031D01*
X17568468Y-11703031D02*
X17558944Y-11674460D01*
X17558944Y-11674460D02*
X17549420Y-11626841D01*
X17549420Y-11626841D02*
X17549420Y-11588746D01*
X17549420Y-11588746D02*
X17558944Y-11541127D01*
X17558944Y-11541127D02*
X17568468Y-11512555D01*
X17568468Y-11512555D02*
X17577991Y-11493508D01*
X17577991Y-11493508D02*
X17597039Y-11464936D01*
X17597039Y-11464936D02*
X17606563Y-11455412D01*
X17663706Y-11483984D02*
X17787515Y-11483984D01*
X17787515Y-11483984D02*
X17720849Y-11560174D01*
X17720849Y-11560174D02*
X17749420Y-11560174D01*
X17749420Y-11560174D02*
X17768468Y-11569698D01*
X17768468Y-11569698D02*
X17777991Y-11579222D01*
X17777991Y-11579222D02*
X17787515Y-11598269D01*
X17787515Y-11598269D02*
X17787515Y-11645888D01*
X17787515Y-11645888D02*
X17777991Y-11664936D01*
X17777991Y-11664936D02*
X17768468Y-11674460D01*
X17768468Y-11674460D02*
X17749420Y-11683984D01*
X17749420Y-11683984D02*
X17692277Y-11683984D01*
X17692277Y-11683984D02*
X17673230Y-11674460D01*
X17673230Y-11674460D02*
X17663706Y-11664936D01*
X17863706Y-11503031D02*
X17873230Y-11493508D01*
X17873230Y-11493508D02*
X17892277Y-11483984D01*
X17892277Y-11483984D02*
X17939896Y-11483984D01*
X17939896Y-11483984D02*
X17958944Y-11493508D01*
X17958944Y-11493508D02*
X17968468Y-11503031D01*
X17968468Y-11503031D02*
X17977991Y-11522079D01*
X17977991Y-11522079D02*
X17977991Y-11541127D01*
X17977991Y-11541127D02*
X17968468Y-11569698D01*
X17968468Y-11569698D02*
X17854182Y-11683984D01*
X17854182Y-11683984D02*
X17977991Y-11683984D01*
X18216087Y-11683984D02*
X18216087Y-11483984D01*
X18301801Y-11683984D02*
X18301801Y-11579222D01*
X18301801Y-11579222D02*
X18292277Y-11560174D01*
X18292277Y-11560174D02*
X18273230Y-11550650D01*
X18273230Y-11550650D02*
X18244658Y-11550650D01*
X18244658Y-11550650D02*
X18225611Y-11560174D01*
X18225611Y-11560174D02*
X18216087Y-11569698D01*
X18425611Y-11683984D02*
X18406563Y-11674460D01*
X18406563Y-11674460D02*
X18397039Y-11664936D01*
X18397039Y-11664936D02*
X18387515Y-11645888D01*
X18387515Y-11645888D02*
X18387515Y-11588746D01*
X18387515Y-11588746D02*
X18397039Y-11569698D01*
X18397039Y-11569698D02*
X18406563Y-11560174D01*
X18406563Y-11560174D02*
X18425611Y-11550650D01*
X18425611Y-11550650D02*
X18454182Y-11550650D01*
X18454182Y-11550650D02*
X18473230Y-11560174D01*
X18473230Y-11560174D02*
X18482753Y-11569698D01*
X18482753Y-11569698D02*
X18492277Y-11588746D01*
X18492277Y-11588746D02*
X18492277Y-11645888D01*
X18492277Y-11645888D02*
X18482753Y-11664936D01*
X18482753Y-11664936D02*
X18473230Y-11674460D01*
X18473230Y-11674460D02*
X18454182Y-11683984D01*
X18454182Y-11683984D02*
X18425611Y-11683984D01*
X18606563Y-11683984D02*
X18587515Y-11674460D01*
X18587515Y-11674460D02*
X18577992Y-11655412D01*
X18577992Y-11655412D02*
X18577992Y-11483984D01*
X18758944Y-11674460D02*
X18739896Y-11683984D01*
X18739896Y-11683984D02*
X18701801Y-11683984D01*
X18701801Y-11683984D02*
X18682753Y-11674460D01*
X18682753Y-11674460D02*
X18673230Y-11655412D01*
X18673230Y-11655412D02*
X18673230Y-11579222D01*
X18673230Y-11579222D02*
X18682753Y-11560174D01*
X18682753Y-11560174D02*
X18701801Y-11550650D01*
X18701801Y-11550650D02*
X18739896Y-11550650D01*
X18739896Y-11550650D02*
X18758944Y-11560174D01*
X18758944Y-11560174D02*
X18768468Y-11579222D01*
X18768468Y-11579222D02*
X18768468Y-11598269D01*
X18768468Y-11598269D02*
X18673230Y-11617317D01*
X18844658Y-11674460D02*
X18863706Y-11683984D01*
X18863706Y-11683984D02*
X18901801Y-11683984D01*
X18901801Y-11683984D02*
X18920849Y-11674460D01*
X18920849Y-11674460D02*
X18930373Y-11655412D01*
X18930373Y-11655412D02*
X18930373Y-11645888D01*
X18930373Y-11645888D02*
X18920849Y-11626841D01*
X18920849Y-11626841D02*
X18901801Y-11617317D01*
X18901801Y-11617317D02*
X18873230Y-11617317D01*
X18873230Y-11617317D02*
X18854182Y-11607793D01*
X18854182Y-11607793D02*
X18844658Y-11588746D01*
X18844658Y-11588746D02*
X18844658Y-11579222D01*
X18844658Y-11579222D02*
X18854182Y-11560174D01*
X18854182Y-11560174D02*
X18873230Y-11550650D01*
X18873230Y-11550650D02*
X18901801Y-11550650D01*
X18901801Y-11550650D02*
X18920849Y-11560174D01*
X18997039Y-11760174D02*
X19006563Y-11750650D01*
X19006563Y-11750650D02*
X19025611Y-11722079D01*
X19025611Y-11722079D02*
X19035134Y-11703031D01*
X19035134Y-11703031D02*
X19044658Y-11674460D01*
X19044658Y-11674460D02*
X19054182Y-11626841D01*
X19054182Y-11626841D02*
X19054182Y-11588746D01*
X19054182Y-11588746D02*
X19044658Y-11541127D01*
X19044658Y-11541127D02*
X19035134Y-11512555D01*
X19035134Y-11512555D02*
X19025611Y-11493508D01*
X19025611Y-11493508D02*
X19006563Y-11464936D01*
X19006563Y-11464936D02*
X18997039Y-11455412D01*
D12*
X14001500Y-11826500D02*
X14001500Y-11886500D01*
X13971500Y-11856500D02*
X14031500Y-11856500D01*
D11*
X14330372Y-11747984D02*
X14349420Y-11747984D01*
X14349420Y-11747984D02*
X14368467Y-11757508D01*
X14368467Y-11757508D02*
X14377991Y-11767031D01*
X14377991Y-11767031D02*
X14387515Y-11786079D01*
X14387515Y-11786079D02*
X14397039Y-11824174D01*
X14397039Y-11824174D02*
X14397039Y-11871793D01*
X14397039Y-11871793D02*
X14387515Y-11909888D01*
X14387515Y-11909888D02*
X14377991Y-11928936D01*
X14377991Y-11928936D02*
X14368467Y-11938460D01*
X14368467Y-11938460D02*
X14349420Y-11947984D01*
X14349420Y-11947984D02*
X14330372Y-11947984D01*
X14330372Y-11947984D02*
X14311324Y-11938460D01*
X14311324Y-11938460D02*
X14301801Y-11928936D01*
X14301801Y-11928936D02*
X14292277Y-11909888D01*
X14292277Y-11909888D02*
X14282753Y-11871793D01*
X14282753Y-11871793D02*
X14282753Y-11824174D01*
X14282753Y-11824174D02*
X14292277Y-11786079D01*
X14292277Y-11786079D02*
X14301801Y-11767031D01*
X14301801Y-11767031D02*
X14311324Y-11757508D01*
X14311324Y-11757508D02*
X14330372Y-11747984D01*
X14482753Y-11928936D02*
X14492277Y-11938460D01*
X14492277Y-11938460D02*
X14482753Y-11947984D01*
X14482753Y-11947984D02*
X14473229Y-11938460D01*
X14473229Y-11938460D02*
X14482753Y-11928936D01*
X14482753Y-11928936D02*
X14482753Y-11947984D01*
X14663705Y-11747984D02*
X14625610Y-11747984D01*
X14625610Y-11747984D02*
X14606562Y-11757508D01*
X14606562Y-11757508D02*
X14597039Y-11767031D01*
X14597039Y-11767031D02*
X14577991Y-11795603D01*
X14577991Y-11795603D02*
X14568467Y-11833698D01*
X14568467Y-11833698D02*
X14568467Y-11909888D01*
X14568467Y-11909888D02*
X14577991Y-11928936D01*
X14577991Y-11928936D02*
X14587515Y-11938460D01*
X14587515Y-11938460D02*
X14606562Y-11947984D01*
X14606562Y-11947984D02*
X14644658Y-11947984D01*
X14644658Y-11947984D02*
X14663705Y-11938460D01*
X14663705Y-11938460D02*
X14673229Y-11928936D01*
X14673229Y-11928936D02*
X14682753Y-11909888D01*
X14682753Y-11909888D02*
X14682753Y-11862269D01*
X14682753Y-11862269D02*
X14673229Y-11843222D01*
X14673229Y-11843222D02*
X14663705Y-11833698D01*
X14663705Y-11833698D02*
X14644658Y-11824174D01*
X14644658Y-11824174D02*
X14606562Y-11824174D01*
X14606562Y-11824174D02*
X14587515Y-11833698D01*
X14587515Y-11833698D02*
X14577991Y-11843222D01*
X14577991Y-11843222D02*
X14568467Y-11862269D01*
X14806562Y-11747984D02*
X14825610Y-11747984D01*
X14825610Y-11747984D02*
X14844658Y-11757508D01*
X14844658Y-11757508D02*
X14854182Y-11767031D01*
X14854182Y-11767031D02*
X14863705Y-11786079D01*
X14863705Y-11786079D02*
X14873229Y-11824174D01*
X14873229Y-11824174D02*
X14873229Y-11871793D01*
X14873229Y-11871793D02*
X14863705Y-11909888D01*
X14863705Y-11909888D02*
X14854182Y-11928936D01*
X14854182Y-11928936D02*
X14844658Y-11938460D01*
X14844658Y-11938460D02*
X14825610Y-11947984D01*
X14825610Y-11947984D02*
X14806562Y-11947984D01*
X14806562Y-11947984D02*
X14787515Y-11938460D01*
X14787515Y-11938460D02*
X14777991Y-11928936D01*
X14777991Y-11928936D02*
X14768467Y-11909888D01*
X14768467Y-11909888D02*
X14758943Y-11871793D01*
X14758943Y-11871793D02*
X14758943Y-11824174D01*
X14758943Y-11824174D02*
X14768467Y-11786079D01*
X14768467Y-11786079D02*
X14777991Y-11767031D01*
X14777991Y-11767031D02*
X14787515Y-11757508D01*
X14787515Y-11757508D02*
X14806562Y-11747984D01*
X14997039Y-11747984D02*
X15016086Y-11747984D01*
X15016086Y-11747984D02*
X15035134Y-11757508D01*
X15035134Y-11757508D02*
X15044658Y-11767031D01*
X15044658Y-11767031D02*
X15054182Y-11786079D01*
X15054182Y-11786079D02*
X15063705Y-11824174D01*
X15063705Y-11824174D02*
X15063705Y-11871793D01*
X15063705Y-11871793D02*
X15054182Y-11909888D01*
X15054182Y-11909888D02*
X15044658Y-11928936D01*
X15044658Y-11928936D02*
X15035134Y-11938460D01*
X15035134Y-11938460D02*
X15016086Y-11947984D01*
X15016086Y-11947984D02*
X14997039Y-11947984D01*
X14997039Y-11947984D02*
X14977991Y-11938460D01*
X14977991Y-11938460D02*
X14968467Y-11928936D01*
X14968467Y-11928936D02*
X14958943Y-11909888D01*
X14958943Y-11909888D02*
X14949420Y-11871793D01*
X14949420Y-11871793D02*
X14949420Y-11824174D01*
X14949420Y-11824174D02*
X14958943Y-11786079D01*
X14958943Y-11786079D02*
X14968467Y-11767031D01*
X14968467Y-11767031D02*
X14977991Y-11757508D01*
X14977991Y-11757508D02*
X14997039Y-11747984D01*
X15149420Y-11947984D02*
X15149420Y-11814650D01*
X15149420Y-11833698D02*
X15158943Y-11824174D01*
X15158943Y-11824174D02*
X15177991Y-11814650D01*
X15177991Y-11814650D02*
X15206563Y-11814650D01*
X15206563Y-11814650D02*
X15225610Y-11824174D01*
X15225610Y-11824174D02*
X15235134Y-11843222D01*
X15235134Y-11843222D02*
X15235134Y-11947984D01*
X15235134Y-11843222D02*
X15244658Y-11824174D01*
X15244658Y-11824174D02*
X15263705Y-11814650D01*
X15263705Y-11814650D02*
X15292277Y-11814650D01*
X15292277Y-11814650D02*
X15311324Y-11824174D01*
X15311324Y-11824174D02*
X15320848Y-11843222D01*
X15320848Y-11843222D02*
X15320848Y-11947984D01*
X15416086Y-11947984D02*
X15416086Y-11814650D01*
X15416086Y-11833698D02*
X15425610Y-11824174D01*
X15425610Y-11824174D02*
X15444658Y-11814650D01*
X15444658Y-11814650D02*
X15473229Y-11814650D01*
X15473229Y-11814650D02*
X15492277Y-11824174D01*
X15492277Y-11824174D02*
X15501801Y-11843222D01*
X15501801Y-11843222D02*
X15501801Y-11947984D01*
X15501801Y-11843222D02*
X15511324Y-11824174D01*
X15511324Y-11824174D02*
X15530372Y-11814650D01*
X15530372Y-11814650D02*
X15558943Y-11814650D01*
X15558943Y-11814650D02*
X15577991Y-11824174D01*
X15577991Y-11824174D02*
X15587515Y-11843222D01*
X15587515Y-11843222D02*
X15587515Y-11947984D01*
X15977991Y-11738460D02*
X15806563Y-11995603D01*
X16235134Y-11747984D02*
X16254182Y-11747984D01*
X16254182Y-11747984D02*
X16273229Y-11757508D01*
X16273229Y-11757508D02*
X16282753Y-11767031D01*
X16282753Y-11767031D02*
X16292277Y-11786079D01*
X16292277Y-11786079D02*
X16301801Y-11824174D01*
X16301801Y-11824174D02*
X16301801Y-11871793D01*
X16301801Y-11871793D02*
X16292277Y-11909888D01*
X16292277Y-11909888D02*
X16282753Y-11928936D01*
X16282753Y-11928936D02*
X16273229Y-11938460D01*
X16273229Y-11938460D02*
X16254182Y-11947984D01*
X16254182Y-11947984D02*
X16235134Y-11947984D01*
X16235134Y-11947984D02*
X16216086Y-11938460D01*
X16216086Y-11938460D02*
X16206563Y-11928936D01*
X16206563Y-11928936D02*
X16197039Y-11909888D01*
X16197039Y-11909888D02*
X16187515Y-11871793D01*
X16187515Y-11871793D02*
X16187515Y-11824174D01*
X16187515Y-11824174D02*
X16197039Y-11786079D01*
X16197039Y-11786079D02*
X16206563Y-11767031D01*
X16206563Y-11767031D02*
X16216086Y-11757508D01*
X16216086Y-11757508D02*
X16235134Y-11747984D01*
X16387515Y-11928936D02*
X16397039Y-11938460D01*
X16397039Y-11938460D02*
X16387515Y-11947984D01*
X16387515Y-11947984D02*
X16377991Y-11938460D01*
X16377991Y-11938460D02*
X16387515Y-11928936D01*
X16387515Y-11928936D02*
X16387515Y-11947984D01*
X16520848Y-11747984D02*
X16539896Y-11747984D01*
X16539896Y-11747984D02*
X16558944Y-11757508D01*
X16558944Y-11757508D02*
X16568467Y-11767031D01*
X16568467Y-11767031D02*
X16577991Y-11786079D01*
X16577991Y-11786079D02*
X16587515Y-11824174D01*
X16587515Y-11824174D02*
X16587515Y-11871793D01*
X16587515Y-11871793D02*
X16577991Y-11909888D01*
X16577991Y-11909888D02*
X16568467Y-11928936D01*
X16568467Y-11928936D02*
X16558944Y-11938460D01*
X16558944Y-11938460D02*
X16539896Y-11947984D01*
X16539896Y-11947984D02*
X16520848Y-11947984D01*
X16520848Y-11947984D02*
X16501801Y-11938460D01*
X16501801Y-11938460D02*
X16492277Y-11928936D01*
X16492277Y-11928936D02*
X16482753Y-11909888D01*
X16482753Y-11909888D02*
X16473229Y-11871793D01*
X16473229Y-11871793D02*
X16473229Y-11824174D01*
X16473229Y-11824174D02*
X16482753Y-11786079D01*
X16482753Y-11786079D02*
X16492277Y-11767031D01*
X16492277Y-11767031D02*
X16501801Y-11757508D01*
X16501801Y-11757508D02*
X16520848Y-11747984D01*
X16663706Y-11767031D02*
X16673229Y-11757508D01*
X16673229Y-11757508D02*
X16692277Y-11747984D01*
X16692277Y-11747984D02*
X16739896Y-11747984D01*
X16739896Y-11747984D02*
X16758944Y-11757508D01*
X16758944Y-11757508D02*
X16768467Y-11767031D01*
X16768467Y-11767031D02*
X16777991Y-11786079D01*
X16777991Y-11786079D02*
X16777991Y-11805127D01*
X16777991Y-11805127D02*
X16768467Y-11833698D01*
X16768467Y-11833698D02*
X16654182Y-11947984D01*
X16654182Y-11947984D02*
X16777991Y-11947984D01*
X16844658Y-11747984D02*
X16968468Y-11747984D01*
X16968468Y-11747984D02*
X16901801Y-11824174D01*
X16901801Y-11824174D02*
X16930372Y-11824174D01*
X16930372Y-11824174D02*
X16949420Y-11833698D01*
X16949420Y-11833698D02*
X16958944Y-11843222D01*
X16958944Y-11843222D02*
X16968468Y-11862269D01*
X16968468Y-11862269D02*
X16968468Y-11909888D01*
X16968468Y-11909888D02*
X16958944Y-11928936D01*
X16958944Y-11928936D02*
X16949420Y-11938460D01*
X16949420Y-11938460D02*
X16930372Y-11947984D01*
X16930372Y-11947984D02*
X16873229Y-11947984D01*
X16873229Y-11947984D02*
X16854182Y-11938460D01*
X16854182Y-11938460D02*
X16844658Y-11928936D01*
X17139896Y-11747984D02*
X17101801Y-11747984D01*
X17101801Y-11747984D02*
X17082753Y-11757508D01*
X17082753Y-11757508D02*
X17073229Y-11767031D01*
X17073229Y-11767031D02*
X17054182Y-11795603D01*
X17054182Y-11795603D02*
X17044658Y-11833698D01*
X17044658Y-11833698D02*
X17044658Y-11909888D01*
X17044658Y-11909888D02*
X17054182Y-11928936D01*
X17054182Y-11928936D02*
X17063706Y-11938460D01*
X17063706Y-11938460D02*
X17082753Y-11947984D01*
X17082753Y-11947984D02*
X17120849Y-11947984D01*
X17120849Y-11947984D02*
X17139896Y-11938460D01*
X17139896Y-11938460D02*
X17149420Y-11928936D01*
X17149420Y-11928936D02*
X17158944Y-11909888D01*
X17158944Y-11909888D02*
X17158944Y-11862269D01*
X17158944Y-11862269D02*
X17149420Y-11843222D01*
X17149420Y-11843222D02*
X17139896Y-11833698D01*
X17139896Y-11833698D02*
X17120849Y-11824174D01*
X17120849Y-11824174D02*
X17082753Y-11824174D01*
X17082753Y-11824174D02*
X17063706Y-11833698D01*
X17063706Y-11833698D02*
X17054182Y-11843222D01*
X17054182Y-11843222D02*
X17044658Y-11862269D01*
X17235134Y-11747984D02*
X17235134Y-11786079D01*
X17311325Y-11747984D02*
X17311325Y-11786079D01*
X17606563Y-12024174D02*
X17597039Y-12014650D01*
X17597039Y-12014650D02*
X17577991Y-11986079D01*
X17577991Y-11986079D02*
X17568468Y-11967031D01*
X17568468Y-11967031D02*
X17558944Y-11938460D01*
X17558944Y-11938460D02*
X17549420Y-11890841D01*
X17549420Y-11890841D02*
X17549420Y-11852746D01*
X17549420Y-11852746D02*
X17558944Y-11805127D01*
X17558944Y-11805127D02*
X17568468Y-11776555D01*
X17568468Y-11776555D02*
X17577991Y-11757508D01*
X17577991Y-11757508D02*
X17597039Y-11728936D01*
X17597039Y-11728936D02*
X17606563Y-11719412D01*
X17711325Y-11833698D02*
X17692277Y-11824174D01*
X17692277Y-11824174D02*
X17682753Y-11814650D01*
X17682753Y-11814650D02*
X17673230Y-11795603D01*
X17673230Y-11795603D02*
X17673230Y-11786079D01*
X17673230Y-11786079D02*
X17682753Y-11767031D01*
X17682753Y-11767031D02*
X17692277Y-11757508D01*
X17692277Y-11757508D02*
X17711325Y-11747984D01*
X17711325Y-11747984D02*
X17749420Y-11747984D01*
X17749420Y-11747984D02*
X17768468Y-11757508D01*
X17768468Y-11757508D02*
X17777991Y-11767031D01*
X17777991Y-11767031D02*
X17787515Y-11786079D01*
X17787515Y-11786079D02*
X17787515Y-11795603D01*
X17787515Y-11795603D02*
X17777991Y-11814650D01*
X17777991Y-11814650D02*
X17768468Y-11824174D01*
X17768468Y-11824174D02*
X17749420Y-11833698D01*
X17749420Y-11833698D02*
X17711325Y-11833698D01*
X17711325Y-11833698D02*
X17692277Y-11843222D01*
X17692277Y-11843222D02*
X17682753Y-11852746D01*
X17682753Y-11852746D02*
X17673230Y-11871793D01*
X17673230Y-11871793D02*
X17673230Y-11909888D01*
X17673230Y-11909888D02*
X17682753Y-11928936D01*
X17682753Y-11928936D02*
X17692277Y-11938460D01*
X17692277Y-11938460D02*
X17711325Y-11947984D01*
X17711325Y-11947984D02*
X17749420Y-11947984D01*
X17749420Y-11947984D02*
X17768468Y-11938460D01*
X17768468Y-11938460D02*
X17777991Y-11928936D01*
X17777991Y-11928936D02*
X17787515Y-11909888D01*
X17787515Y-11909888D02*
X17787515Y-11871793D01*
X17787515Y-11871793D02*
X17777991Y-11852746D01*
X17777991Y-11852746D02*
X17768468Y-11843222D01*
X17768468Y-11843222D02*
X17749420Y-11833698D01*
X18025611Y-11947984D02*
X18025611Y-11747984D01*
X18111325Y-11947984D02*
X18111325Y-11843222D01*
X18111325Y-11843222D02*
X18101801Y-11824174D01*
X18101801Y-11824174D02*
X18082753Y-11814650D01*
X18082753Y-11814650D02*
X18054182Y-11814650D01*
X18054182Y-11814650D02*
X18035134Y-11824174D01*
X18035134Y-11824174D02*
X18025611Y-11833698D01*
X18235134Y-11947984D02*
X18216087Y-11938460D01*
X18216087Y-11938460D02*
X18206563Y-11928936D01*
X18206563Y-11928936D02*
X18197039Y-11909888D01*
X18197039Y-11909888D02*
X18197039Y-11852746D01*
X18197039Y-11852746D02*
X18206563Y-11833698D01*
X18206563Y-11833698D02*
X18216087Y-11824174D01*
X18216087Y-11824174D02*
X18235134Y-11814650D01*
X18235134Y-11814650D02*
X18263706Y-11814650D01*
X18263706Y-11814650D02*
X18282753Y-11824174D01*
X18282753Y-11824174D02*
X18292277Y-11833698D01*
X18292277Y-11833698D02*
X18301801Y-11852746D01*
X18301801Y-11852746D02*
X18301801Y-11909888D01*
X18301801Y-11909888D02*
X18292277Y-11928936D01*
X18292277Y-11928936D02*
X18282753Y-11938460D01*
X18282753Y-11938460D02*
X18263706Y-11947984D01*
X18263706Y-11947984D02*
X18235134Y-11947984D01*
X18416087Y-11947984D02*
X18397039Y-11938460D01*
X18397039Y-11938460D02*
X18387515Y-11919412D01*
X18387515Y-11919412D02*
X18387515Y-11747984D01*
X18568468Y-11938460D02*
X18549420Y-11947984D01*
X18549420Y-11947984D02*
X18511325Y-11947984D01*
X18511325Y-11947984D02*
X18492277Y-11938460D01*
X18492277Y-11938460D02*
X18482753Y-11919412D01*
X18482753Y-11919412D02*
X18482753Y-11843222D01*
X18482753Y-11843222D02*
X18492277Y-11824174D01*
X18492277Y-11824174D02*
X18511325Y-11814650D01*
X18511325Y-11814650D02*
X18549420Y-11814650D01*
X18549420Y-11814650D02*
X18568468Y-11824174D01*
X18568468Y-11824174D02*
X18577992Y-11843222D01*
X18577992Y-11843222D02*
X18577992Y-11862269D01*
X18577992Y-11862269D02*
X18482753Y-11881317D01*
X18654182Y-11938460D02*
X18673230Y-11947984D01*
X18673230Y-11947984D02*
X18711325Y-11947984D01*
X18711325Y-11947984D02*
X18730373Y-11938460D01*
X18730373Y-11938460D02*
X18739896Y-11919412D01*
X18739896Y-11919412D02*
X18739896Y-11909888D01*
X18739896Y-11909888D02*
X18730373Y-11890841D01*
X18730373Y-11890841D02*
X18711325Y-11881317D01*
X18711325Y-11881317D02*
X18682753Y-11881317D01*
X18682753Y-11881317D02*
X18663706Y-11871793D01*
X18663706Y-11871793D02*
X18654182Y-11852746D01*
X18654182Y-11852746D02*
X18654182Y-11843222D01*
X18654182Y-11843222D02*
X18663706Y-11824174D01*
X18663706Y-11824174D02*
X18682753Y-11814650D01*
X18682753Y-11814650D02*
X18711325Y-11814650D01*
X18711325Y-11814650D02*
X18730373Y-11824174D01*
X18806563Y-12024174D02*
X18816087Y-12014650D01*
X18816087Y-12014650D02*
X18835134Y-11986079D01*
X18835134Y-11986079D02*
X18844658Y-11967031D01*
X18844658Y-11967031D02*
X18854182Y-11938460D01*
X18854182Y-11938460D02*
X18863706Y-11890841D01*
X18863706Y-11890841D02*
X18863706Y-11852746D01*
X18863706Y-11852746D02*
X18854182Y-11805127D01*
X18854182Y-11805127D02*
X18844658Y-11776555D01*
X18844658Y-11776555D02*
X18835134Y-11757508D01*
X18835134Y-11757508D02*
X18816087Y-11728936D01*
X18816087Y-11728936D02*
X18806563Y-11719412D01*
D12*
X14021102Y-12145602D02*
X14021102Y-12095397D01*
X13970897Y-12095397D01*
X13970897Y-12145602D01*
X14021102Y-12145602D01*
D11*
X14330372Y-12011984D02*
X14349420Y-12011984D01*
X14349420Y-12011984D02*
X14368467Y-12021508D01*
X14368467Y-12021508D02*
X14377991Y-12031031D01*
X14377991Y-12031031D02*
X14387515Y-12050079D01*
X14387515Y-12050079D02*
X14397039Y-12088174D01*
X14397039Y-12088174D02*
X14397039Y-12135793D01*
X14397039Y-12135793D02*
X14387515Y-12173888D01*
X14387515Y-12173888D02*
X14377991Y-12192936D01*
X14377991Y-12192936D02*
X14368467Y-12202460D01*
X14368467Y-12202460D02*
X14349420Y-12211984D01*
X14349420Y-12211984D02*
X14330372Y-12211984D01*
X14330372Y-12211984D02*
X14311324Y-12202460D01*
X14311324Y-12202460D02*
X14301801Y-12192936D01*
X14301801Y-12192936D02*
X14292277Y-12173888D01*
X14292277Y-12173888D02*
X14282753Y-12135793D01*
X14282753Y-12135793D02*
X14282753Y-12088174D01*
X14282753Y-12088174D02*
X14292277Y-12050079D01*
X14292277Y-12050079D02*
X14301801Y-12031031D01*
X14301801Y-12031031D02*
X14311324Y-12021508D01*
X14311324Y-12021508D02*
X14330372Y-12011984D01*
X14482753Y-12192936D02*
X14492277Y-12202460D01*
X14492277Y-12202460D02*
X14482753Y-12211984D01*
X14482753Y-12211984D02*
X14473229Y-12202460D01*
X14473229Y-12202460D02*
X14482753Y-12192936D01*
X14482753Y-12192936D02*
X14482753Y-12211984D01*
X14558943Y-12011984D02*
X14692277Y-12011984D01*
X14692277Y-12011984D02*
X14606562Y-12211984D01*
X14873229Y-12211984D02*
X14758943Y-12211984D01*
X14816086Y-12211984D02*
X14816086Y-12011984D01*
X14816086Y-12011984D02*
X14797039Y-12040555D01*
X14797039Y-12040555D02*
X14777991Y-12059603D01*
X14777991Y-12059603D02*
X14758943Y-12069127D01*
X14997039Y-12011984D02*
X15016086Y-12011984D01*
X15016086Y-12011984D02*
X15035134Y-12021508D01*
X15035134Y-12021508D02*
X15044658Y-12031031D01*
X15044658Y-12031031D02*
X15054182Y-12050079D01*
X15054182Y-12050079D02*
X15063705Y-12088174D01*
X15063705Y-12088174D02*
X15063705Y-12135793D01*
X15063705Y-12135793D02*
X15054182Y-12173888D01*
X15054182Y-12173888D02*
X15044658Y-12192936D01*
X15044658Y-12192936D02*
X15035134Y-12202460D01*
X15035134Y-12202460D02*
X15016086Y-12211984D01*
X15016086Y-12211984D02*
X14997039Y-12211984D01*
X14997039Y-12211984D02*
X14977991Y-12202460D01*
X14977991Y-12202460D02*
X14968467Y-12192936D01*
X14968467Y-12192936D02*
X14958943Y-12173888D01*
X14958943Y-12173888D02*
X14949420Y-12135793D01*
X14949420Y-12135793D02*
X14949420Y-12088174D01*
X14949420Y-12088174D02*
X14958943Y-12050079D01*
X14958943Y-12050079D02*
X14968467Y-12031031D01*
X14968467Y-12031031D02*
X14977991Y-12021508D01*
X14977991Y-12021508D02*
X14997039Y-12011984D01*
X15149420Y-12211984D02*
X15149420Y-12078650D01*
X15149420Y-12097698D02*
X15158943Y-12088174D01*
X15158943Y-12088174D02*
X15177991Y-12078650D01*
X15177991Y-12078650D02*
X15206563Y-12078650D01*
X15206563Y-12078650D02*
X15225610Y-12088174D01*
X15225610Y-12088174D02*
X15235134Y-12107222D01*
X15235134Y-12107222D02*
X15235134Y-12211984D01*
X15235134Y-12107222D02*
X15244658Y-12088174D01*
X15244658Y-12088174D02*
X15263705Y-12078650D01*
X15263705Y-12078650D02*
X15292277Y-12078650D01*
X15292277Y-12078650D02*
X15311324Y-12088174D01*
X15311324Y-12088174D02*
X15320848Y-12107222D01*
X15320848Y-12107222D02*
X15320848Y-12211984D01*
X15416086Y-12211984D02*
X15416086Y-12078650D01*
X15416086Y-12097698D02*
X15425610Y-12088174D01*
X15425610Y-12088174D02*
X15444658Y-12078650D01*
X15444658Y-12078650D02*
X15473229Y-12078650D01*
X15473229Y-12078650D02*
X15492277Y-12088174D01*
X15492277Y-12088174D02*
X15501801Y-12107222D01*
X15501801Y-12107222D02*
X15501801Y-12211984D01*
X15501801Y-12107222D02*
X15511324Y-12088174D01*
X15511324Y-12088174D02*
X15530372Y-12078650D01*
X15530372Y-12078650D02*
X15558943Y-12078650D01*
X15558943Y-12078650D02*
X15577991Y-12088174D01*
X15577991Y-12088174D02*
X15587515Y-12107222D01*
X15587515Y-12107222D02*
X15587515Y-12211984D01*
X15977991Y-12002460D02*
X15806563Y-12259603D01*
X16235134Y-12011984D02*
X16254182Y-12011984D01*
X16254182Y-12011984D02*
X16273229Y-12021508D01*
X16273229Y-12021508D02*
X16282753Y-12031031D01*
X16282753Y-12031031D02*
X16292277Y-12050079D01*
X16292277Y-12050079D02*
X16301801Y-12088174D01*
X16301801Y-12088174D02*
X16301801Y-12135793D01*
X16301801Y-12135793D02*
X16292277Y-12173888D01*
X16292277Y-12173888D02*
X16282753Y-12192936D01*
X16282753Y-12192936D02*
X16273229Y-12202460D01*
X16273229Y-12202460D02*
X16254182Y-12211984D01*
X16254182Y-12211984D02*
X16235134Y-12211984D01*
X16235134Y-12211984D02*
X16216086Y-12202460D01*
X16216086Y-12202460D02*
X16206563Y-12192936D01*
X16206563Y-12192936D02*
X16197039Y-12173888D01*
X16197039Y-12173888D02*
X16187515Y-12135793D01*
X16187515Y-12135793D02*
X16187515Y-12088174D01*
X16187515Y-12088174D02*
X16197039Y-12050079D01*
X16197039Y-12050079D02*
X16206563Y-12031031D01*
X16206563Y-12031031D02*
X16216086Y-12021508D01*
X16216086Y-12021508D02*
X16235134Y-12011984D01*
X16387515Y-12192936D02*
X16397039Y-12202460D01*
X16397039Y-12202460D02*
X16387515Y-12211984D01*
X16387515Y-12211984D02*
X16377991Y-12202460D01*
X16377991Y-12202460D02*
X16387515Y-12192936D01*
X16387515Y-12192936D02*
X16387515Y-12211984D01*
X16520848Y-12011984D02*
X16539896Y-12011984D01*
X16539896Y-12011984D02*
X16558944Y-12021508D01*
X16558944Y-12021508D02*
X16568467Y-12031031D01*
X16568467Y-12031031D02*
X16577991Y-12050079D01*
X16577991Y-12050079D02*
X16587515Y-12088174D01*
X16587515Y-12088174D02*
X16587515Y-12135793D01*
X16587515Y-12135793D02*
X16577991Y-12173888D01*
X16577991Y-12173888D02*
X16568467Y-12192936D01*
X16568467Y-12192936D02*
X16558944Y-12202460D01*
X16558944Y-12202460D02*
X16539896Y-12211984D01*
X16539896Y-12211984D02*
X16520848Y-12211984D01*
X16520848Y-12211984D02*
X16501801Y-12202460D01*
X16501801Y-12202460D02*
X16492277Y-12192936D01*
X16492277Y-12192936D02*
X16482753Y-12173888D01*
X16482753Y-12173888D02*
X16473229Y-12135793D01*
X16473229Y-12135793D02*
X16473229Y-12088174D01*
X16473229Y-12088174D02*
X16482753Y-12050079D01*
X16482753Y-12050079D02*
X16492277Y-12031031D01*
X16492277Y-12031031D02*
X16501801Y-12021508D01*
X16501801Y-12021508D02*
X16520848Y-12011984D01*
X16663706Y-12031031D02*
X16673229Y-12021508D01*
X16673229Y-12021508D02*
X16692277Y-12011984D01*
X16692277Y-12011984D02*
X16739896Y-12011984D01*
X16739896Y-12011984D02*
X16758944Y-12021508D01*
X16758944Y-12021508D02*
X16768467Y-12031031D01*
X16768467Y-12031031D02*
X16777991Y-12050079D01*
X16777991Y-12050079D02*
X16777991Y-12069127D01*
X16777991Y-12069127D02*
X16768467Y-12097698D01*
X16768467Y-12097698D02*
X16654182Y-12211984D01*
X16654182Y-12211984D02*
X16777991Y-12211984D01*
X16892277Y-12097698D02*
X16873229Y-12088174D01*
X16873229Y-12088174D02*
X16863706Y-12078650D01*
X16863706Y-12078650D02*
X16854182Y-12059603D01*
X16854182Y-12059603D02*
X16854182Y-12050079D01*
X16854182Y-12050079D02*
X16863706Y-12031031D01*
X16863706Y-12031031D02*
X16873229Y-12021508D01*
X16873229Y-12021508D02*
X16892277Y-12011984D01*
X16892277Y-12011984D02*
X16930372Y-12011984D01*
X16930372Y-12011984D02*
X16949420Y-12021508D01*
X16949420Y-12021508D02*
X16958944Y-12031031D01*
X16958944Y-12031031D02*
X16968468Y-12050079D01*
X16968468Y-12050079D02*
X16968468Y-12059603D01*
X16968468Y-12059603D02*
X16958944Y-12078650D01*
X16958944Y-12078650D02*
X16949420Y-12088174D01*
X16949420Y-12088174D02*
X16930372Y-12097698D01*
X16930372Y-12097698D02*
X16892277Y-12097698D01*
X16892277Y-12097698D02*
X16873229Y-12107222D01*
X16873229Y-12107222D02*
X16863706Y-12116746D01*
X16863706Y-12116746D02*
X16854182Y-12135793D01*
X16854182Y-12135793D02*
X16854182Y-12173888D01*
X16854182Y-12173888D02*
X16863706Y-12192936D01*
X16863706Y-12192936D02*
X16873229Y-12202460D01*
X16873229Y-12202460D02*
X16892277Y-12211984D01*
X16892277Y-12211984D02*
X16930372Y-12211984D01*
X16930372Y-12211984D02*
X16949420Y-12202460D01*
X16949420Y-12202460D02*
X16958944Y-12192936D01*
X16958944Y-12192936D02*
X16968468Y-12173888D01*
X16968468Y-12173888D02*
X16968468Y-12135793D01*
X16968468Y-12135793D02*
X16958944Y-12116746D01*
X16958944Y-12116746D02*
X16949420Y-12107222D01*
X16949420Y-12107222D02*
X16930372Y-12097698D01*
X17092277Y-12011984D02*
X17111325Y-12011984D01*
X17111325Y-12011984D02*
X17130372Y-12021508D01*
X17130372Y-12021508D02*
X17139896Y-12031031D01*
X17139896Y-12031031D02*
X17149420Y-12050079D01*
X17149420Y-12050079D02*
X17158944Y-12088174D01*
X17158944Y-12088174D02*
X17158944Y-12135793D01*
X17158944Y-12135793D02*
X17149420Y-12173888D01*
X17149420Y-12173888D02*
X17139896Y-12192936D01*
X17139896Y-12192936D02*
X17130372Y-12202460D01*
X17130372Y-12202460D02*
X17111325Y-12211984D01*
X17111325Y-12211984D02*
X17092277Y-12211984D01*
X17092277Y-12211984D02*
X17073229Y-12202460D01*
X17073229Y-12202460D02*
X17063706Y-12192936D01*
X17063706Y-12192936D02*
X17054182Y-12173888D01*
X17054182Y-12173888D02*
X17044658Y-12135793D01*
X17044658Y-12135793D02*
X17044658Y-12088174D01*
X17044658Y-12088174D02*
X17054182Y-12050079D01*
X17054182Y-12050079D02*
X17063706Y-12031031D01*
X17063706Y-12031031D02*
X17073229Y-12021508D01*
X17073229Y-12021508D02*
X17092277Y-12011984D01*
X17235134Y-12011984D02*
X17235134Y-12050079D01*
X17311325Y-12011984D02*
X17311325Y-12050079D01*
X17606563Y-12288174D02*
X17597039Y-12278650D01*
X17597039Y-12278650D02*
X17577991Y-12250079D01*
X17577991Y-12250079D02*
X17568468Y-12231031D01*
X17568468Y-12231031D02*
X17558944Y-12202460D01*
X17558944Y-12202460D02*
X17549420Y-12154841D01*
X17549420Y-12154841D02*
X17549420Y-12116746D01*
X17549420Y-12116746D02*
X17558944Y-12069127D01*
X17558944Y-12069127D02*
X17568468Y-12040555D01*
X17568468Y-12040555D02*
X17577991Y-12021508D01*
X17577991Y-12021508D02*
X17597039Y-11992936D01*
X17597039Y-11992936D02*
X17606563Y-11983412D01*
X17663706Y-12011984D02*
X17787515Y-12011984D01*
X17787515Y-12011984D02*
X17720849Y-12088174D01*
X17720849Y-12088174D02*
X17749420Y-12088174D01*
X17749420Y-12088174D02*
X17768468Y-12097698D01*
X17768468Y-12097698D02*
X17777991Y-12107222D01*
X17777991Y-12107222D02*
X17787515Y-12126269D01*
X17787515Y-12126269D02*
X17787515Y-12173888D01*
X17787515Y-12173888D02*
X17777991Y-12192936D01*
X17777991Y-12192936D02*
X17768468Y-12202460D01*
X17768468Y-12202460D02*
X17749420Y-12211984D01*
X17749420Y-12211984D02*
X17692277Y-12211984D01*
X17692277Y-12211984D02*
X17673230Y-12202460D01*
X17673230Y-12202460D02*
X17663706Y-12192936D01*
X18025611Y-12211984D02*
X18025611Y-12011984D01*
X18111325Y-12211984D02*
X18111325Y-12107222D01*
X18111325Y-12107222D02*
X18101801Y-12088174D01*
X18101801Y-12088174D02*
X18082753Y-12078650D01*
X18082753Y-12078650D02*
X18054182Y-12078650D01*
X18054182Y-12078650D02*
X18035134Y-12088174D01*
X18035134Y-12088174D02*
X18025611Y-12097698D01*
X18235134Y-12211984D02*
X18216087Y-12202460D01*
X18216087Y-12202460D02*
X18206563Y-12192936D01*
X18206563Y-12192936D02*
X18197039Y-12173888D01*
X18197039Y-12173888D02*
X18197039Y-12116746D01*
X18197039Y-12116746D02*
X18206563Y-12097698D01*
X18206563Y-12097698D02*
X18216087Y-12088174D01*
X18216087Y-12088174D02*
X18235134Y-12078650D01*
X18235134Y-12078650D02*
X18263706Y-12078650D01*
X18263706Y-12078650D02*
X18282753Y-12088174D01*
X18282753Y-12088174D02*
X18292277Y-12097698D01*
X18292277Y-12097698D02*
X18301801Y-12116746D01*
X18301801Y-12116746D02*
X18301801Y-12173888D01*
X18301801Y-12173888D02*
X18292277Y-12192936D01*
X18292277Y-12192936D02*
X18282753Y-12202460D01*
X18282753Y-12202460D02*
X18263706Y-12211984D01*
X18263706Y-12211984D02*
X18235134Y-12211984D01*
X18416087Y-12211984D02*
X18397039Y-12202460D01*
X18397039Y-12202460D02*
X18387515Y-12183412D01*
X18387515Y-12183412D02*
X18387515Y-12011984D01*
X18568468Y-12202460D02*
X18549420Y-12211984D01*
X18549420Y-12211984D02*
X18511325Y-12211984D01*
X18511325Y-12211984D02*
X18492277Y-12202460D01*
X18492277Y-12202460D02*
X18482753Y-12183412D01*
X18482753Y-12183412D02*
X18482753Y-12107222D01*
X18482753Y-12107222D02*
X18492277Y-12088174D01*
X18492277Y-12088174D02*
X18511325Y-12078650D01*
X18511325Y-12078650D02*
X18549420Y-12078650D01*
X18549420Y-12078650D02*
X18568468Y-12088174D01*
X18568468Y-12088174D02*
X18577992Y-12107222D01*
X18577992Y-12107222D02*
X18577992Y-12126269D01*
X18577992Y-12126269D02*
X18482753Y-12145317D01*
X18654182Y-12202460D02*
X18673230Y-12211984D01*
X18673230Y-12211984D02*
X18711325Y-12211984D01*
X18711325Y-12211984D02*
X18730373Y-12202460D01*
X18730373Y-12202460D02*
X18739896Y-12183412D01*
X18739896Y-12183412D02*
X18739896Y-12173888D01*
X18739896Y-12173888D02*
X18730373Y-12154841D01*
X18730373Y-12154841D02*
X18711325Y-12145317D01*
X18711325Y-12145317D02*
X18682753Y-12145317D01*
X18682753Y-12145317D02*
X18663706Y-12135793D01*
X18663706Y-12135793D02*
X18654182Y-12116746D01*
X18654182Y-12116746D02*
X18654182Y-12107222D01*
X18654182Y-12107222D02*
X18663706Y-12088174D01*
X18663706Y-12088174D02*
X18682753Y-12078650D01*
X18682753Y-12078650D02*
X18711325Y-12078650D01*
X18711325Y-12078650D02*
X18730373Y-12088174D01*
X18806563Y-12288174D02*
X18816087Y-12278650D01*
X18816087Y-12278650D02*
X18835134Y-12250079D01*
X18835134Y-12250079D02*
X18844658Y-12231031D01*
X18844658Y-12231031D02*
X18854182Y-12202460D01*
X18854182Y-12202460D02*
X18863706Y-12154841D01*
X18863706Y-12154841D02*
X18863706Y-12116746D01*
X18863706Y-12116746D02*
X18854182Y-12069127D01*
X18854182Y-12069127D02*
X18844658Y-12040555D01*
X18844658Y-12040555D02*
X18835134Y-12021508D01*
X18835134Y-12021508D02*
X18816087Y-11992936D01*
X18816087Y-11992936D02*
X18806563Y-11983412D01*
D12*
X13992130Y-12423870D02*
X14031500Y-12384500D01*
X13992130Y-12345130D01*
X13952760Y-12384500D01*
X13992130Y-12423870D01*
D11*
X14330372Y-12275984D02*
X14349420Y-12275984D01*
X14349420Y-12275984D02*
X14368467Y-12285508D01*
X14368467Y-12285508D02*
X14377991Y-12295031D01*
X14377991Y-12295031D02*
X14387515Y-12314079D01*
X14387515Y-12314079D02*
X14397039Y-12352174D01*
X14397039Y-12352174D02*
X14397039Y-12399793D01*
X14397039Y-12399793D02*
X14387515Y-12437888D01*
X14387515Y-12437888D02*
X14377991Y-12456936D01*
X14377991Y-12456936D02*
X14368467Y-12466460D01*
X14368467Y-12466460D02*
X14349420Y-12475984D01*
X14349420Y-12475984D02*
X14330372Y-12475984D01*
X14330372Y-12475984D02*
X14311324Y-12466460D01*
X14311324Y-12466460D02*
X14301801Y-12456936D01*
X14301801Y-12456936D02*
X14292277Y-12437888D01*
X14292277Y-12437888D02*
X14282753Y-12399793D01*
X14282753Y-12399793D02*
X14282753Y-12352174D01*
X14282753Y-12352174D02*
X14292277Y-12314079D01*
X14292277Y-12314079D02*
X14301801Y-12295031D01*
X14301801Y-12295031D02*
X14311324Y-12285508D01*
X14311324Y-12285508D02*
X14330372Y-12275984D01*
X14482753Y-12456936D02*
X14492277Y-12466460D01*
X14492277Y-12466460D02*
X14482753Y-12475984D01*
X14482753Y-12475984D02*
X14473229Y-12466460D01*
X14473229Y-12466460D02*
X14482753Y-12456936D01*
X14482753Y-12456936D02*
X14482753Y-12475984D01*
X14558943Y-12275984D02*
X14692277Y-12275984D01*
X14692277Y-12275984D02*
X14606562Y-12475984D01*
X14797039Y-12361698D02*
X14777991Y-12352174D01*
X14777991Y-12352174D02*
X14768467Y-12342650D01*
X14768467Y-12342650D02*
X14758943Y-12323603D01*
X14758943Y-12323603D02*
X14758943Y-12314079D01*
X14758943Y-12314079D02*
X14768467Y-12295031D01*
X14768467Y-12295031D02*
X14777991Y-12285508D01*
X14777991Y-12285508D02*
X14797039Y-12275984D01*
X14797039Y-12275984D02*
X14835134Y-12275984D01*
X14835134Y-12275984D02*
X14854182Y-12285508D01*
X14854182Y-12285508D02*
X14863705Y-12295031D01*
X14863705Y-12295031D02*
X14873229Y-12314079D01*
X14873229Y-12314079D02*
X14873229Y-12323603D01*
X14873229Y-12323603D02*
X14863705Y-12342650D01*
X14863705Y-12342650D02*
X14854182Y-12352174D01*
X14854182Y-12352174D02*
X14835134Y-12361698D01*
X14835134Y-12361698D02*
X14797039Y-12361698D01*
X14797039Y-12361698D02*
X14777991Y-12371222D01*
X14777991Y-12371222D02*
X14768467Y-12380746D01*
X14768467Y-12380746D02*
X14758943Y-12399793D01*
X14758943Y-12399793D02*
X14758943Y-12437888D01*
X14758943Y-12437888D02*
X14768467Y-12456936D01*
X14768467Y-12456936D02*
X14777991Y-12466460D01*
X14777991Y-12466460D02*
X14797039Y-12475984D01*
X14797039Y-12475984D02*
X14835134Y-12475984D01*
X14835134Y-12475984D02*
X14854182Y-12466460D01*
X14854182Y-12466460D02*
X14863705Y-12456936D01*
X14863705Y-12456936D02*
X14873229Y-12437888D01*
X14873229Y-12437888D02*
X14873229Y-12399793D01*
X14873229Y-12399793D02*
X14863705Y-12380746D01*
X14863705Y-12380746D02*
X14854182Y-12371222D01*
X14854182Y-12371222D02*
X14835134Y-12361698D01*
X14939896Y-12275984D02*
X15073229Y-12275984D01*
X15073229Y-12275984D02*
X14987515Y-12475984D01*
X15149420Y-12475984D02*
X15149420Y-12342650D01*
X15149420Y-12361698D02*
X15158943Y-12352174D01*
X15158943Y-12352174D02*
X15177991Y-12342650D01*
X15177991Y-12342650D02*
X15206563Y-12342650D01*
X15206563Y-12342650D02*
X15225610Y-12352174D01*
X15225610Y-12352174D02*
X15235134Y-12371222D01*
X15235134Y-12371222D02*
X15235134Y-12475984D01*
X15235134Y-12371222D02*
X15244658Y-12352174D01*
X15244658Y-12352174D02*
X15263705Y-12342650D01*
X15263705Y-12342650D02*
X15292277Y-12342650D01*
X15292277Y-12342650D02*
X15311324Y-12352174D01*
X15311324Y-12352174D02*
X15320848Y-12371222D01*
X15320848Y-12371222D02*
X15320848Y-12475984D01*
X15416086Y-12475984D02*
X15416086Y-12342650D01*
X15416086Y-12361698D02*
X15425610Y-12352174D01*
X15425610Y-12352174D02*
X15444658Y-12342650D01*
X15444658Y-12342650D02*
X15473229Y-12342650D01*
X15473229Y-12342650D02*
X15492277Y-12352174D01*
X15492277Y-12352174D02*
X15501801Y-12371222D01*
X15501801Y-12371222D02*
X15501801Y-12475984D01*
X15501801Y-12371222D02*
X15511324Y-12352174D01*
X15511324Y-12352174D02*
X15530372Y-12342650D01*
X15530372Y-12342650D02*
X15558943Y-12342650D01*
X15558943Y-12342650D02*
X15577991Y-12352174D01*
X15577991Y-12352174D02*
X15587515Y-12371222D01*
X15587515Y-12371222D02*
X15587515Y-12475984D01*
X15977991Y-12266460D02*
X15806563Y-12523603D01*
X16235134Y-12275984D02*
X16254182Y-12275984D01*
X16254182Y-12275984D02*
X16273229Y-12285508D01*
X16273229Y-12285508D02*
X16282753Y-12295031D01*
X16282753Y-12295031D02*
X16292277Y-12314079D01*
X16292277Y-12314079D02*
X16301801Y-12352174D01*
X16301801Y-12352174D02*
X16301801Y-12399793D01*
X16301801Y-12399793D02*
X16292277Y-12437888D01*
X16292277Y-12437888D02*
X16282753Y-12456936D01*
X16282753Y-12456936D02*
X16273229Y-12466460D01*
X16273229Y-12466460D02*
X16254182Y-12475984D01*
X16254182Y-12475984D02*
X16235134Y-12475984D01*
X16235134Y-12475984D02*
X16216086Y-12466460D01*
X16216086Y-12466460D02*
X16206563Y-12456936D01*
X16206563Y-12456936D02*
X16197039Y-12437888D01*
X16197039Y-12437888D02*
X16187515Y-12399793D01*
X16187515Y-12399793D02*
X16187515Y-12352174D01*
X16187515Y-12352174D02*
X16197039Y-12314079D01*
X16197039Y-12314079D02*
X16206563Y-12295031D01*
X16206563Y-12295031D02*
X16216086Y-12285508D01*
X16216086Y-12285508D02*
X16235134Y-12275984D01*
X16387515Y-12456936D02*
X16397039Y-12466460D01*
X16397039Y-12466460D02*
X16387515Y-12475984D01*
X16387515Y-12475984D02*
X16377991Y-12466460D01*
X16377991Y-12466460D02*
X16387515Y-12456936D01*
X16387515Y-12456936D02*
X16387515Y-12475984D01*
X16520848Y-12275984D02*
X16539896Y-12275984D01*
X16539896Y-12275984D02*
X16558944Y-12285508D01*
X16558944Y-12285508D02*
X16568467Y-12295031D01*
X16568467Y-12295031D02*
X16577991Y-12314079D01*
X16577991Y-12314079D02*
X16587515Y-12352174D01*
X16587515Y-12352174D02*
X16587515Y-12399793D01*
X16587515Y-12399793D02*
X16577991Y-12437888D01*
X16577991Y-12437888D02*
X16568467Y-12456936D01*
X16568467Y-12456936D02*
X16558944Y-12466460D01*
X16558944Y-12466460D02*
X16539896Y-12475984D01*
X16539896Y-12475984D02*
X16520848Y-12475984D01*
X16520848Y-12475984D02*
X16501801Y-12466460D01*
X16501801Y-12466460D02*
X16492277Y-12456936D01*
X16492277Y-12456936D02*
X16482753Y-12437888D01*
X16482753Y-12437888D02*
X16473229Y-12399793D01*
X16473229Y-12399793D02*
X16473229Y-12352174D01*
X16473229Y-12352174D02*
X16482753Y-12314079D01*
X16482753Y-12314079D02*
X16492277Y-12295031D01*
X16492277Y-12295031D02*
X16501801Y-12285508D01*
X16501801Y-12285508D02*
X16520848Y-12275984D01*
X16654182Y-12275984D02*
X16777991Y-12275984D01*
X16777991Y-12275984D02*
X16711325Y-12352174D01*
X16711325Y-12352174D02*
X16739896Y-12352174D01*
X16739896Y-12352174D02*
X16758944Y-12361698D01*
X16758944Y-12361698D02*
X16768467Y-12371222D01*
X16768467Y-12371222D02*
X16777991Y-12390269D01*
X16777991Y-12390269D02*
X16777991Y-12437888D01*
X16777991Y-12437888D02*
X16768467Y-12456936D01*
X16768467Y-12456936D02*
X16758944Y-12466460D01*
X16758944Y-12466460D02*
X16739896Y-12475984D01*
X16739896Y-12475984D02*
X16682753Y-12475984D01*
X16682753Y-12475984D02*
X16663706Y-12466460D01*
X16663706Y-12466460D02*
X16654182Y-12456936D01*
X16968468Y-12475984D02*
X16854182Y-12475984D01*
X16911325Y-12475984D02*
X16911325Y-12275984D01*
X16911325Y-12275984D02*
X16892277Y-12304555D01*
X16892277Y-12304555D02*
X16873229Y-12323603D01*
X16873229Y-12323603D02*
X16854182Y-12333127D01*
X17092277Y-12275984D02*
X17111325Y-12275984D01*
X17111325Y-12275984D02*
X17130372Y-12285508D01*
X17130372Y-12285508D02*
X17139896Y-12295031D01*
X17139896Y-12295031D02*
X17149420Y-12314079D01*
X17149420Y-12314079D02*
X17158944Y-12352174D01*
X17158944Y-12352174D02*
X17158944Y-12399793D01*
X17158944Y-12399793D02*
X17149420Y-12437888D01*
X17149420Y-12437888D02*
X17139896Y-12456936D01*
X17139896Y-12456936D02*
X17130372Y-12466460D01*
X17130372Y-12466460D02*
X17111325Y-12475984D01*
X17111325Y-12475984D02*
X17092277Y-12475984D01*
X17092277Y-12475984D02*
X17073229Y-12466460D01*
X17073229Y-12466460D02*
X17063706Y-12456936D01*
X17063706Y-12456936D02*
X17054182Y-12437888D01*
X17054182Y-12437888D02*
X17044658Y-12399793D01*
X17044658Y-12399793D02*
X17044658Y-12352174D01*
X17044658Y-12352174D02*
X17054182Y-12314079D01*
X17054182Y-12314079D02*
X17063706Y-12295031D01*
X17063706Y-12295031D02*
X17073229Y-12285508D01*
X17073229Y-12285508D02*
X17092277Y-12275984D01*
X17235134Y-12275984D02*
X17235134Y-12314079D01*
X17311325Y-12275984D02*
X17311325Y-12314079D01*
X17606563Y-12552174D02*
X17597039Y-12542650D01*
X17597039Y-12542650D02*
X17577991Y-12514079D01*
X17577991Y-12514079D02*
X17568468Y-12495031D01*
X17568468Y-12495031D02*
X17558944Y-12466460D01*
X17558944Y-12466460D02*
X17549420Y-12418841D01*
X17549420Y-12418841D02*
X17549420Y-12380746D01*
X17549420Y-12380746D02*
X17558944Y-12333127D01*
X17558944Y-12333127D02*
X17568468Y-12304555D01*
X17568468Y-12304555D02*
X17577991Y-12285508D01*
X17577991Y-12285508D02*
X17597039Y-12256936D01*
X17597039Y-12256936D02*
X17606563Y-12247412D01*
X17787515Y-12475984D02*
X17673230Y-12475984D01*
X17730372Y-12475984D02*
X17730372Y-12275984D01*
X17730372Y-12275984D02*
X17711325Y-12304555D01*
X17711325Y-12304555D02*
X17692277Y-12323603D01*
X17692277Y-12323603D02*
X17673230Y-12333127D01*
X17958944Y-12342650D02*
X17958944Y-12475984D01*
X17911325Y-12266460D02*
X17863706Y-12409317D01*
X17863706Y-12409317D02*
X17987515Y-12409317D01*
X18216087Y-12475984D02*
X18216087Y-12275984D01*
X18301801Y-12475984D02*
X18301801Y-12371222D01*
X18301801Y-12371222D02*
X18292277Y-12352174D01*
X18292277Y-12352174D02*
X18273230Y-12342650D01*
X18273230Y-12342650D02*
X18244658Y-12342650D01*
X18244658Y-12342650D02*
X18225611Y-12352174D01*
X18225611Y-12352174D02*
X18216087Y-12361698D01*
X18425611Y-12475984D02*
X18406563Y-12466460D01*
X18406563Y-12466460D02*
X18397039Y-12456936D01*
X18397039Y-12456936D02*
X18387515Y-12437888D01*
X18387515Y-12437888D02*
X18387515Y-12380746D01*
X18387515Y-12380746D02*
X18397039Y-12361698D01*
X18397039Y-12361698D02*
X18406563Y-12352174D01*
X18406563Y-12352174D02*
X18425611Y-12342650D01*
X18425611Y-12342650D02*
X18454182Y-12342650D01*
X18454182Y-12342650D02*
X18473230Y-12352174D01*
X18473230Y-12352174D02*
X18482753Y-12361698D01*
X18482753Y-12361698D02*
X18492277Y-12380746D01*
X18492277Y-12380746D02*
X18492277Y-12437888D01*
X18492277Y-12437888D02*
X18482753Y-12456936D01*
X18482753Y-12456936D02*
X18473230Y-12466460D01*
X18473230Y-12466460D02*
X18454182Y-12475984D01*
X18454182Y-12475984D02*
X18425611Y-12475984D01*
X18606563Y-12475984D02*
X18587515Y-12466460D01*
X18587515Y-12466460D02*
X18577992Y-12447412D01*
X18577992Y-12447412D02*
X18577992Y-12275984D01*
X18758944Y-12466460D02*
X18739896Y-12475984D01*
X18739896Y-12475984D02*
X18701801Y-12475984D01*
X18701801Y-12475984D02*
X18682753Y-12466460D01*
X18682753Y-12466460D02*
X18673230Y-12447412D01*
X18673230Y-12447412D02*
X18673230Y-12371222D01*
X18673230Y-12371222D02*
X18682753Y-12352174D01*
X18682753Y-12352174D02*
X18701801Y-12342650D01*
X18701801Y-12342650D02*
X18739896Y-12342650D01*
X18739896Y-12342650D02*
X18758944Y-12352174D01*
X18758944Y-12352174D02*
X18768468Y-12371222D01*
X18768468Y-12371222D02*
X18768468Y-12390269D01*
X18768468Y-12390269D02*
X18673230Y-12409317D01*
X18844658Y-12466460D02*
X18863706Y-12475984D01*
X18863706Y-12475984D02*
X18901801Y-12475984D01*
X18901801Y-12475984D02*
X18920849Y-12466460D01*
X18920849Y-12466460D02*
X18930373Y-12447412D01*
X18930373Y-12447412D02*
X18930373Y-12437888D01*
X18930373Y-12437888D02*
X18920849Y-12418841D01*
X18920849Y-12418841D02*
X18901801Y-12409317D01*
X18901801Y-12409317D02*
X18873230Y-12409317D01*
X18873230Y-12409317D02*
X18854182Y-12399793D01*
X18854182Y-12399793D02*
X18844658Y-12380746D01*
X18844658Y-12380746D02*
X18844658Y-12371222D01*
X18844658Y-12371222D02*
X18854182Y-12352174D01*
X18854182Y-12352174D02*
X18873230Y-12342650D01*
X18873230Y-12342650D02*
X18901801Y-12342650D01*
X18901801Y-12342650D02*
X18920849Y-12352174D01*
X18997039Y-12552174D02*
X19006563Y-12542650D01*
X19006563Y-12542650D02*
X19025611Y-12514079D01*
X19025611Y-12514079D02*
X19035134Y-12495031D01*
X19035134Y-12495031D02*
X19044658Y-12466460D01*
X19044658Y-12466460D02*
X19054182Y-12418841D01*
X19054182Y-12418841D02*
X19054182Y-12380746D01*
X19054182Y-12380746D02*
X19044658Y-12333127D01*
X19044658Y-12333127D02*
X19035134Y-12304555D01*
X19035134Y-12304555D02*
X19025611Y-12285508D01*
X19025611Y-12285508D02*
X19006563Y-12256936D01*
X19006563Y-12256936D02*
X18997039Y-12247412D01*
D12*
X13951500Y-12608500D02*
X14031500Y-12688500D01*
X14031500Y-12608500D02*
X13951500Y-12688500D01*
X14031500Y-12648500D02*
G75*
G02*
X13951500Y-12648500I-40000J0D01*
G01*
X13951500Y-12648500D02*
G75*
G02*
X14031500Y-12648500I40000J0D01*
G01*
D11*
X14330372Y-12539984D02*
X14349420Y-12539984D01*
X14349420Y-12539984D02*
X14368467Y-12549508D01*
X14368467Y-12549508D02*
X14377991Y-12559031D01*
X14377991Y-12559031D02*
X14387515Y-12578079D01*
X14387515Y-12578079D02*
X14397039Y-12616174D01*
X14397039Y-12616174D02*
X14397039Y-12663793D01*
X14397039Y-12663793D02*
X14387515Y-12701888D01*
X14387515Y-12701888D02*
X14377991Y-12720936D01*
X14377991Y-12720936D02*
X14368467Y-12730460D01*
X14368467Y-12730460D02*
X14349420Y-12739984D01*
X14349420Y-12739984D02*
X14330372Y-12739984D01*
X14330372Y-12739984D02*
X14311324Y-12730460D01*
X14311324Y-12730460D02*
X14301801Y-12720936D01*
X14301801Y-12720936D02*
X14292277Y-12701888D01*
X14292277Y-12701888D02*
X14282753Y-12663793D01*
X14282753Y-12663793D02*
X14282753Y-12616174D01*
X14282753Y-12616174D02*
X14292277Y-12578079D01*
X14292277Y-12578079D02*
X14301801Y-12559031D01*
X14301801Y-12559031D02*
X14311324Y-12549508D01*
X14311324Y-12549508D02*
X14330372Y-12539984D01*
X14482753Y-12720936D02*
X14492277Y-12730460D01*
X14492277Y-12730460D02*
X14482753Y-12739984D01*
X14482753Y-12739984D02*
X14473229Y-12730460D01*
X14473229Y-12730460D02*
X14482753Y-12720936D01*
X14482753Y-12720936D02*
X14482753Y-12739984D01*
X14606562Y-12625698D02*
X14587515Y-12616174D01*
X14587515Y-12616174D02*
X14577991Y-12606650D01*
X14577991Y-12606650D02*
X14568467Y-12587603D01*
X14568467Y-12587603D02*
X14568467Y-12578079D01*
X14568467Y-12578079D02*
X14577991Y-12559031D01*
X14577991Y-12559031D02*
X14587515Y-12549508D01*
X14587515Y-12549508D02*
X14606562Y-12539984D01*
X14606562Y-12539984D02*
X14644658Y-12539984D01*
X14644658Y-12539984D02*
X14663705Y-12549508D01*
X14663705Y-12549508D02*
X14673229Y-12559031D01*
X14673229Y-12559031D02*
X14682753Y-12578079D01*
X14682753Y-12578079D02*
X14682753Y-12587603D01*
X14682753Y-12587603D02*
X14673229Y-12606650D01*
X14673229Y-12606650D02*
X14663705Y-12616174D01*
X14663705Y-12616174D02*
X14644658Y-12625698D01*
X14644658Y-12625698D02*
X14606562Y-12625698D01*
X14606562Y-12625698D02*
X14587515Y-12635222D01*
X14587515Y-12635222D02*
X14577991Y-12644746D01*
X14577991Y-12644746D02*
X14568467Y-12663793D01*
X14568467Y-12663793D02*
X14568467Y-12701888D01*
X14568467Y-12701888D02*
X14577991Y-12720936D01*
X14577991Y-12720936D02*
X14587515Y-12730460D01*
X14587515Y-12730460D02*
X14606562Y-12739984D01*
X14606562Y-12739984D02*
X14644658Y-12739984D01*
X14644658Y-12739984D02*
X14663705Y-12730460D01*
X14663705Y-12730460D02*
X14673229Y-12720936D01*
X14673229Y-12720936D02*
X14682753Y-12701888D01*
X14682753Y-12701888D02*
X14682753Y-12663793D01*
X14682753Y-12663793D02*
X14673229Y-12644746D01*
X14673229Y-12644746D02*
X14663705Y-12635222D01*
X14663705Y-12635222D02*
X14644658Y-12625698D01*
X14806562Y-12539984D02*
X14825610Y-12539984D01*
X14825610Y-12539984D02*
X14844658Y-12549508D01*
X14844658Y-12549508D02*
X14854182Y-12559031D01*
X14854182Y-12559031D02*
X14863705Y-12578079D01*
X14863705Y-12578079D02*
X14873229Y-12616174D01*
X14873229Y-12616174D02*
X14873229Y-12663793D01*
X14873229Y-12663793D02*
X14863705Y-12701888D01*
X14863705Y-12701888D02*
X14854182Y-12720936D01*
X14854182Y-12720936D02*
X14844658Y-12730460D01*
X14844658Y-12730460D02*
X14825610Y-12739984D01*
X14825610Y-12739984D02*
X14806562Y-12739984D01*
X14806562Y-12739984D02*
X14787515Y-12730460D01*
X14787515Y-12730460D02*
X14777991Y-12720936D01*
X14777991Y-12720936D02*
X14768467Y-12701888D01*
X14768467Y-12701888D02*
X14758943Y-12663793D01*
X14758943Y-12663793D02*
X14758943Y-12616174D01*
X14758943Y-12616174D02*
X14768467Y-12578079D01*
X14768467Y-12578079D02*
X14777991Y-12559031D01*
X14777991Y-12559031D02*
X14787515Y-12549508D01*
X14787515Y-12549508D02*
X14806562Y-12539984D01*
X14997039Y-12539984D02*
X15016086Y-12539984D01*
X15016086Y-12539984D02*
X15035134Y-12549508D01*
X15035134Y-12549508D02*
X15044658Y-12559031D01*
X15044658Y-12559031D02*
X15054182Y-12578079D01*
X15054182Y-12578079D02*
X15063705Y-12616174D01*
X15063705Y-12616174D02*
X15063705Y-12663793D01*
X15063705Y-12663793D02*
X15054182Y-12701888D01*
X15054182Y-12701888D02*
X15044658Y-12720936D01*
X15044658Y-12720936D02*
X15035134Y-12730460D01*
X15035134Y-12730460D02*
X15016086Y-12739984D01*
X15016086Y-12739984D02*
X14997039Y-12739984D01*
X14997039Y-12739984D02*
X14977991Y-12730460D01*
X14977991Y-12730460D02*
X14968467Y-12720936D01*
X14968467Y-12720936D02*
X14958943Y-12701888D01*
X14958943Y-12701888D02*
X14949420Y-12663793D01*
X14949420Y-12663793D02*
X14949420Y-12616174D01*
X14949420Y-12616174D02*
X14958943Y-12578079D01*
X14958943Y-12578079D02*
X14968467Y-12559031D01*
X14968467Y-12559031D02*
X14977991Y-12549508D01*
X14977991Y-12549508D02*
X14997039Y-12539984D01*
X15149420Y-12739984D02*
X15149420Y-12606650D01*
X15149420Y-12625698D02*
X15158943Y-12616174D01*
X15158943Y-12616174D02*
X15177991Y-12606650D01*
X15177991Y-12606650D02*
X15206563Y-12606650D01*
X15206563Y-12606650D02*
X15225610Y-12616174D01*
X15225610Y-12616174D02*
X15235134Y-12635222D01*
X15235134Y-12635222D02*
X15235134Y-12739984D01*
X15235134Y-12635222D02*
X15244658Y-12616174D01*
X15244658Y-12616174D02*
X15263705Y-12606650D01*
X15263705Y-12606650D02*
X15292277Y-12606650D01*
X15292277Y-12606650D02*
X15311324Y-12616174D01*
X15311324Y-12616174D02*
X15320848Y-12635222D01*
X15320848Y-12635222D02*
X15320848Y-12739984D01*
X15416086Y-12739984D02*
X15416086Y-12606650D01*
X15416086Y-12625698D02*
X15425610Y-12616174D01*
X15425610Y-12616174D02*
X15444658Y-12606650D01*
X15444658Y-12606650D02*
X15473229Y-12606650D01*
X15473229Y-12606650D02*
X15492277Y-12616174D01*
X15492277Y-12616174D02*
X15501801Y-12635222D01*
X15501801Y-12635222D02*
X15501801Y-12739984D01*
X15501801Y-12635222D02*
X15511324Y-12616174D01*
X15511324Y-12616174D02*
X15530372Y-12606650D01*
X15530372Y-12606650D02*
X15558943Y-12606650D01*
X15558943Y-12606650D02*
X15577991Y-12616174D01*
X15577991Y-12616174D02*
X15587515Y-12635222D01*
X15587515Y-12635222D02*
X15587515Y-12739984D01*
X15977991Y-12530460D02*
X15806563Y-12787603D01*
X16235134Y-12539984D02*
X16254182Y-12539984D01*
X16254182Y-12539984D02*
X16273229Y-12549508D01*
X16273229Y-12549508D02*
X16282753Y-12559031D01*
X16282753Y-12559031D02*
X16292277Y-12578079D01*
X16292277Y-12578079D02*
X16301801Y-12616174D01*
X16301801Y-12616174D02*
X16301801Y-12663793D01*
X16301801Y-12663793D02*
X16292277Y-12701888D01*
X16292277Y-12701888D02*
X16282753Y-12720936D01*
X16282753Y-12720936D02*
X16273229Y-12730460D01*
X16273229Y-12730460D02*
X16254182Y-12739984D01*
X16254182Y-12739984D02*
X16235134Y-12739984D01*
X16235134Y-12739984D02*
X16216086Y-12730460D01*
X16216086Y-12730460D02*
X16206563Y-12720936D01*
X16206563Y-12720936D02*
X16197039Y-12701888D01*
X16197039Y-12701888D02*
X16187515Y-12663793D01*
X16187515Y-12663793D02*
X16187515Y-12616174D01*
X16187515Y-12616174D02*
X16197039Y-12578079D01*
X16197039Y-12578079D02*
X16206563Y-12559031D01*
X16206563Y-12559031D02*
X16216086Y-12549508D01*
X16216086Y-12549508D02*
X16235134Y-12539984D01*
X16387515Y-12720936D02*
X16397039Y-12730460D01*
X16397039Y-12730460D02*
X16387515Y-12739984D01*
X16387515Y-12739984D02*
X16377991Y-12730460D01*
X16377991Y-12730460D02*
X16387515Y-12720936D01*
X16387515Y-12720936D02*
X16387515Y-12739984D01*
X16520848Y-12539984D02*
X16539896Y-12539984D01*
X16539896Y-12539984D02*
X16558944Y-12549508D01*
X16558944Y-12549508D02*
X16568467Y-12559031D01*
X16568467Y-12559031D02*
X16577991Y-12578079D01*
X16577991Y-12578079D02*
X16587515Y-12616174D01*
X16587515Y-12616174D02*
X16587515Y-12663793D01*
X16587515Y-12663793D02*
X16577991Y-12701888D01*
X16577991Y-12701888D02*
X16568467Y-12720936D01*
X16568467Y-12720936D02*
X16558944Y-12730460D01*
X16558944Y-12730460D02*
X16539896Y-12739984D01*
X16539896Y-12739984D02*
X16520848Y-12739984D01*
X16520848Y-12739984D02*
X16501801Y-12730460D01*
X16501801Y-12730460D02*
X16492277Y-12720936D01*
X16492277Y-12720936D02*
X16482753Y-12701888D01*
X16482753Y-12701888D02*
X16473229Y-12663793D01*
X16473229Y-12663793D02*
X16473229Y-12616174D01*
X16473229Y-12616174D02*
X16482753Y-12578079D01*
X16482753Y-12578079D02*
X16492277Y-12559031D01*
X16492277Y-12559031D02*
X16501801Y-12549508D01*
X16501801Y-12549508D02*
X16520848Y-12539984D01*
X16654182Y-12539984D02*
X16777991Y-12539984D01*
X16777991Y-12539984D02*
X16711325Y-12616174D01*
X16711325Y-12616174D02*
X16739896Y-12616174D01*
X16739896Y-12616174D02*
X16758944Y-12625698D01*
X16758944Y-12625698D02*
X16768467Y-12635222D01*
X16768467Y-12635222D02*
X16777991Y-12654269D01*
X16777991Y-12654269D02*
X16777991Y-12701888D01*
X16777991Y-12701888D02*
X16768467Y-12720936D01*
X16768467Y-12720936D02*
X16758944Y-12730460D01*
X16758944Y-12730460D02*
X16739896Y-12739984D01*
X16739896Y-12739984D02*
X16682753Y-12739984D01*
X16682753Y-12739984D02*
X16663706Y-12730460D01*
X16663706Y-12730460D02*
X16654182Y-12720936D01*
X16968468Y-12739984D02*
X16854182Y-12739984D01*
X16911325Y-12739984D02*
X16911325Y-12539984D01*
X16911325Y-12539984D02*
X16892277Y-12568555D01*
X16892277Y-12568555D02*
X16873229Y-12587603D01*
X16873229Y-12587603D02*
X16854182Y-12597127D01*
X17149420Y-12539984D02*
X17054182Y-12539984D01*
X17054182Y-12539984D02*
X17044658Y-12635222D01*
X17044658Y-12635222D02*
X17054182Y-12625698D01*
X17054182Y-12625698D02*
X17073229Y-12616174D01*
X17073229Y-12616174D02*
X17120849Y-12616174D01*
X17120849Y-12616174D02*
X17139896Y-12625698D01*
X17139896Y-12625698D02*
X17149420Y-12635222D01*
X17149420Y-12635222D02*
X17158944Y-12654269D01*
X17158944Y-12654269D02*
X17158944Y-12701888D01*
X17158944Y-12701888D02*
X17149420Y-12720936D01*
X17149420Y-12720936D02*
X17139896Y-12730460D01*
X17139896Y-12730460D02*
X17120849Y-12739984D01*
X17120849Y-12739984D02*
X17073229Y-12739984D01*
X17073229Y-12739984D02*
X17054182Y-12730460D01*
X17054182Y-12730460D02*
X17044658Y-12720936D01*
X17235134Y-12539984D02*
X17235134Y-12578079D01*
X17311325Y-12539984D02*
X17311325Y-12578079D01*
X17606563Y-12816174D02*
X17597039Y-12806650D01*
X17597039Y-12806650D02*
X17577991Y-12778079D01*
X17577991Y-12778079D02*
X17568468Y-12759031D01*
X17568468Y-12759031D02*
X17558944Y-12730460D01*
X17558944Y-12730460D02*
X17549420Y-12682841D01*
X17549420Y-12682841D02*
X17549420Y-12644746D01*
X17549420Y-12644746D02*
X17558944Y-12597127D01*
X17558944Y-12597127D02*
X17568468Y-12568555D01*
X17568468Y-12568555D02*
X17577991Y-12549508D01*
X17577991Y-12549508D02*
X17597039Y-12520936D01*
X17597039Y-12520936D02*
X17606563Y-12511412D01*
X17768468Y-12606650D02*
X17768468Y-12739984D01*
X17720849Y-12530460D02*
X17673230Y-12673317D01*
X17673230Y-12673317D02*
X17797039Y-12673317D01*
X18025611Y-12739984D02*
X18025611Y-12539984D01*
X18111325Y-12739984D02*
X18111325Y-12635222D01*
X18111325Y-12635222D02*
X18101801Y-12616174D01*
X18101801Y-12616174D02*
X18082753Y-12606650D01*
X18082753Y-12606650D02*
X18054182Y-12606650D01*
X18054182Y-12606650D02*
X18035134Y-12616174D01*
X18035134Y-12616174D02*
X18025611Y-12625698D01*
X18235134Y-12739984D02*
X18216087Y-12730460D01*
X18216087Y-12730460D02*
X18206563Y-12720936D01*
X18206563Y-12720936D02*
X18197039Y-12701888D01*
X18197039Y-12701888D02*
X18197039Y-12644746D01*
X18197039Y-12644746D02*
X18206563Y-12625698D01*
X18206563Y-12625698D02*
X18216087Y-12616174D01*
X18216087Y-12616174D02*
X18235134Y-12606650D01*
X18235134Y-12606650D02*
X18263706Y-12606650D01*
X18263706Y-12606650D02*
X18282753Y-12616174D01*
X18282753Y-12616174D02*
X18292277Y-12625698D01*
X18292277Y-12625698D02*
X18301801Y-12644746D01*
X18301801Y-12644746D02*
X18301801Y-12701888D01*
X18301801Y-12701888D02*
X18292277Y-12720936D01*
X18292277Y-12720936D02*
X18282753Y-12730460D01*
X18282753Y-12730460D02*
X18263706Y-12739984D01*
X18263706Y-12739984D02*
X18235134Y-12739984D01*
X18416087Y-12739984D02*
X18397039Y-12730460D01*
X18397039Y-12730460D02*
X18387515Y-12711412D01*
X18387515Y-12711412D02*
X18387515Y-12539984D01*
X18568468Y-12730460D02*
X18549420Y-12739984D01*
X18549420Y-12739984D02*
X18511325Y-12739984D01*
X18511325Y-12739984D02*
X18492277Y-12730460D01*
X18492277Y-12730460D02*
X18482753Y-12711412D01*
X18482753Y-12711412D02*
X18482753Y-12635222D01*
X18482753Y-12635222D02*
X18492277Y-12616174D01*
X18492277Y-12616174D02*
X18511325Y-12606650D01*
X18511325Y-12606650D02*
X18549420Y-12606650D01*
X18549420Y-12606650D02*
X18568468Y-12616174D01*
X18568468Y-12616174D02*
X18577992Y-12635222D01*
X18577992Y-12635222D02*
X18577992Y-12654269D01*
X18577992Y-12654269D02*
X18482753Y-12673317D01*
X18654182Y-12730460D02*
X18673230Y-12739984D01*
X18673230Y-12739984D02*
X18711325Y-12739984D01*
X18711325Y-12739984D02*
X18730373Y-12730460D01*
X18730373Y-12730460D02*
X18739896Y-12711412D01*
X18739896Y-12711412D02*
X18739896Y-12701888D01*
X18739896Y-12701888D02*
X18730373Y-12682841D01*
X18730373Y-12682841D02*
X18711325Y-12673317D01*
X18711325Y-12673317D02*
X18682753Y-12673317D01*
X18682753Y-12673317D02*
X18663706Y-12663793D01*
X18663706Y-12663793D02*
X18654182Y-12644746D01*
X18654182Y-12644746D02*
X18654182Y-12635222D01*
X18654182Y-12635222D02*
X18663706Y-12616174D01*
X18663706Y-12616174D02*
X18682753Y-12606650D01*
X18682753Y-12606650D02*
X18711325Y-12606650D01*
X18711325Y-12606650D02*
X18730373Y-12616174D01*
X18806563Y-12816174D02*
X18816087Y-12806650D01*
X18816087Y-12806650D02*
X18835134Y-12778079D01*
X18835134Y-12778079D02*
X18844658Y-12759031D01*
X18844658Y-12759031D02*
X18854182Y-12730460D01*
X18854182Y-12730460D02*
X18863706Y-12682841D01*
X18863706Y-12682841D02*
X18863706Y-12644746D01*
X18863706Y-12644746D02*
X18854182Y-12597127D01*
X18854182Y-12597127D02*
X18844658Y-12568555D01*
X18844658Y-12568555D02*
X18835134Y-12549508D01*
X18835134Y-12549508D02*
X18816087Y-12520936D01*
X18816087Y-12520936D02*
X18806563Y-12511412D01*
D13*
X13929500Y-12861500D02*
X14031500Y-12963500D01*
X14031500Y-12861500D02*
X13929500Y-12963500D01*
X13980500Y-12861500D02*
X13980500Y-12963500D01*
X13929500Y-12912500D02*
X14031500Y-12912500D01*
D11*
X14397039Y-13003984D02*
X14282753Y-13003984D01*
X14339896Y-13003984D02*
X14339896Y-12803984D01*
X14339896Y-12803984D02*
X14320848Y-12832555D01*
X14320848Y-12832555D02*
X14301801Y-12851603D01*
X14301801Y-12851603D02*
X14282753Y-12861127D01*
X14482753Y-12984936D02*
X14492277Y-12994460D01*
X14492277Y-12994460D02*
X14482753Y-13003984D01*
X14482753Y-13003984D02*
X14473229Y-12994460D01*
X14473229Y-12994460D02*
X14482753Y-12984936D01*
X14482753Y-12984936D02*
X14482753Y-13003984D01*
X14616086Y-12803984D02*
X14635134Y-12803984D01*
X14635134Y-12803984D02*
X14654182Y-12813508D01*
X14654182Y-12813508D02*
X14663705Y-12823031D01*
X14663705Y-12823031D02*
X14673229Y-12842079D01*
X14673229Y-12842079D02*
X14682753Y-12880174D01*
X14682753Y-12880174D02*
X14682753Y-12927793D01*
X14682753Y-12927793D02*
X14673229Y-12965888D01*
X14673229Y-12965888D02*
X14663705Y-12984936D01*
X14663705Y-12984936D02*
X14654182Y-12994460D01*
X14654182Y-12994460D02*
X14635134Y-13003984D01*
X14635134Y-13003984D02*
X14616086Y-13003984D01*
X14616086Y-13003984D02*
X14597039Y-12994460D01*
X14597039Y-12994460D02*
X14587515Y-12984936D01*
X14587515Y-12984936D02*
X14577991Y-12965888D01*
X14577991Y-12965888D02*
X14568467Y-12927793D01*
X14568467Y-12927793D02*
X14568467Y-12880174D01*
X14568467Y-12880174D02*
X14577991Y-12842079D01*
X14577991Y-12842079D02*
X14587515Y-12823031D01*
X14587515Y-12823031D02*
X14597039Y-12813508D01*
X14597039Y-12813508D02*
X14616086Y-12803984D01*
X14758943Y-12823031D02*
X14768467Y-12813508D01*
X14768467Y-12813508D02*
X14787515Y-12803984D01*
X14787515Y-12803984D02*
X14835134Y-12803984D01*
X14835134Y-12803984D02*
X14854182Y-12813508D01*
X14854182Y-12813508D02*
X14863705Y-12823031D01*
X14863705Y-12823031D02*
X14873229Y-12842079D01*
X14873229Y-12842079D02*
X14873229Y-12861127D01*
X14873229Y-12861127D02*
X14863705Y-12889698D01*
X14863705Y-12889698D02*
X14749420Y-13003984D01*
X14749420Y-13003984D02*
X14873229Y-13003984D01*
X14997039Y-12803984D02*
X15016086Y-12803984D01*
X15016086Y-12803984D02*
X15035134Y-12813508D01*
X15035134Y-12813508D02*
X15044658Y-12823031D01*
X15044658Y-12823031D02*
X15054182Y-12842079D01*
X15054182Y-12842079D02*
X15063705Y-12880174D01*
X15063705Y-12880174D02*
X15063705Y-12927793D01*
X15063705Y-12927793D02*
X15054182Y-12965888D01*
X15054182Y-12965888D02*
X15044658Y-12984936D01*
X15044658Y-12984936D02*
X15035134Y-12994460D01*
X15035134Y-12994460D02*
X15016086Y-13003984D01*
X15016086Y-13003984D02*
X14997039Y-13003984D01*
X14997039Y-13003984D02*
X14977991Y-12994460D01*
X14977991Y-12994460D02*
X14968467Y-12984936D01*
X14968467Y-12984936D02*
X14958943Y-12965888D01*
X14958943Y-12965888D02*
X14949420Y-12927793D01*
X14949420Y-12927793D02*
X14949420Y-12880174D01*
X14949420Y-12880174D02*
X14958943Y-12842079D01*
X14958943Y-12842079D02*
X14968467Y-12823031D01*
X14968467Y-12823031D02*
X14977991Y-12813508D01*
X14977991Y-12813508D02*
X14997039Y-12803984D01*
X15149420Y-13003984D02*
X15149420Y-12870650D01*
X15149420Y-12889698D02*
X15158943Y-12880174D01*
X15158943Y-12880174D02*
X15177991Y-12870650D01*
X15177991Y-12870650D02*
X15206563Y-12870650D01*
X15206563Y-12870650D02*
X15225610Y-12880174D01*
X15225610Y-12880174D02*
X15235134Y-12899222D01*
X15235134Y-12899222D02*
X15235134Y-13003984D01*
X15235134Y-12899222D02*
X15244658Y-12880174D01*
X15244658Y-12880174D02*
X15263705Y-12870650D01*
X15263705Y-12870650D02*
X15292277Y-12870650D01*
X15292277Y-12870650D02*
X15311324Y-12880174D01*
X15311324Y-12880174D02*
X15320848Y-12899222D01*
X15320848Y-12899222D02*
X15320848Y-13003984D01*
X15416086Y-13003984D02*
X15416086Y-12870650D01*
X15416086Y-12889698D02*
X15425610Y-12880174D01*
X15425610Y-12880174D02*
X15444658Y-12870650D01*
X15444658Y-12870650D02*
X15473229Y-12870650D01*
X15473229Y-12870650D02*
X15492277Y-12880174D01*
X15492277Y-12880174D02*
X15501801Y-12899222D01*
X15501801Y-12899222D02*
X15501801Y-13003984D01*
X15501801Y-12899222D02*
X15511324Y-12880174D01*
X15511324Y-12880174D02*
X15530372Y-12870650D01*
X15530372Y-12870650D02*
X15558943Y-12870650D01*
X15558943Y-12870650D02*
X15577991Y-12880174D01*
X15577991Y-12880174D02*
X15587515Y-12899222D01*
X15587515Y-12899222D02*
X15587515Y-13003984D01*
X15977991Y-12794460D02*
X15806563Y-13051603D01*
X16235134Y-12803984D02*
X16254182Y-12803984D01*
X16254182Y-12803984D02*
X16273229Y-12813508D01*
X16273229Y-12813508D02*
X16282753Y-12823031D01*
X16282753Y-12823031D02*
X16292277Y-12842079D01*
X16292277Y-12842079D02*
X16301801Y-12880174D01*
X16301801Y-12880174D02*
X16301801Y-12927793D01*
X16301801Y-12927793D02*
X16292277Y-12965888D01*
X16292277Y-12965888D02*
X16282753Y-12984936D01*
X16282753Y-12984936D02*
X16273229Y-12994460D01*
X16273229Y-12994460D02*
X16254182Y-13003984D01*
X16254182Y-13003984D02*
X16235134Y-13003984D01*
X16235134Y-13003984D02*
X16216086Y-12994460D01*
X16216086Y-12994460D02*
X16206563Y-12984936D01*
X16206563Y-12984936D02*
X16197039Y-12965888D01*
X16197039Y-12965888D02*
X16187515Y-12927793D01*
X16187515Y-12927793D02*
X16187515Y-12880174D01*
X16187515Y-12880174D02*
X16197039Y-12842079D01*
X16197039Y-12842079D02*
X16206563Y-12823031D01*
X16206563Y-12823031D02*
X16216086Y-12813508D01*
X16216086Y-12813508D02*
X16235134Y-12803984D01*
X16387515Y-12984936D02*
X16397039Y-12994460D01*
X16397039Y-12994460D02*
X16387515Y-13003984D01*
X16387515Y-13003984D02*
X16377991Y-12994460D01*
X16377991Y-12994460D02*
X16387515Y-12984936D01*
X16387515Y-12984936D02*
X16387515Y-13003984D01*
X16520848Y-12803984D02*
X16539896Y-12803984D01*
X16539896Y-12803984D02*
X16558944Y-12813508D01*
X16558944Y-12813508D02*
X16568467Y-12823031D01*
X16568467Y-12823031D02*
X16577991Y-12842079D01*
X16577991Y-12842079D02*
X16587515Y-12880174D01*
X16587515Y-12880174D02*
X16587515Y-12927793D01*
X16587515Y-12927793D02*
X16577991Y-12965888D01*
X16577991Y-12965888D02*
X16568467Y-12984936D01*
X16568467Y-12984936D02*
X16558944Y-12994460D01*
X16558944Y-12994460D02*
X16539896Y-13003984D01*
X16539896Y-13003984D02*
X16520848Y-13003984D01*
X16520848Y-13003984D02*
X16501801Y-12994460D01*
X16501801Y-12994460D02*
X16492277Y-12984936D01*
X16492277Y-12984936D02*
X16482753Y-12965888D01*
X16482753Y-12965888D02*
X16473229Y-12927793D01*
X16473229Y-12927793D02*
X16473229Y-12880174D01*
X16473229Y-12880174D02*
X16482753Y-12842079D01*
X16482753Y-12842079D02*
X16492277Y-12823031D01*
X16492277Y-12823031D02*
X16501801Y-12813508D01*
X16501801Y-12813508D02*
X16520848Y-12803984D01*
X16758944Y-12870650D02*
X16758944Y-13003984D01*
X16711325Y-12794460D02*
X16663706Y-12937317D01*
X16663706Y-12937317D02*
X16787515Y-12937317D01*
X16901801Y-12803984D02*
X16920849Y-12803984D01*
X16920849Y-12803984D02*
X16939896Y-12813508D01*
X16939896Y-12813508D02*
X16949420Y-12823031D01*
X16949420Y-12823031D02*
X16958944Y-12842079D01*
X16958944Y-12842079D02*
X16968468Y-12880174D01*
X16968468Y-12880174D02*
X16968468Y-12927793D01*
X16968468Y-12927793D02*
X16958944Y-12965888D01*
X16958944Y-12965888D02*
X16949420Y-12984936D01*
X16949420Y-12984936D02*
X16939896Y-12994460D01*
X16939896Y-12994460D02*
X16920849Y-13003984D01*
X16920849Y-13003984D02*
X16901801Y-13003984D01*
X16901801Y-13003984D02*
X16882753Y-12994460D01*
X16882753Y-12994460D02*
X16873229Y-12984936D01*
X16873229Y-12984936D02*
X16863706Y-12965888D01*
X16863706Y-12965888D02*
X16854182Y-12927793D01*
X16854182Y-12927793D02*
X16854182Y-12880174D01*
X16854182Y-12880174D02*
X16863706Y-12842079D01*
X16863706Y-12842079D02*
X16873229Y-12823031D01*
X16873229Y-12823031D02*
X16882753Y-12813508D01*
X16882753Y-12813508D02*
X16901801Y-12803984D01*
X17044658Y-12823031D02*
X17054182Y-12813508D01*
X17054182Y-12813508D02*
X17073229Y-12803984D01*
X17073229Y-12803984D02*
X17120849Y-12803984D01*
X17120849Y-12803984D02*
X17139896Y-12813508D01*
X17139896Y-12813508D02*
X17149420Y-12823031D01*
X17149420Y-12823031D02*
X17158944Y-12842079D01*
X17158944Y-12842079D02*
X17158944Y-12861127D01*
X17158944Y-12861127D02*
X17149420Y-12889698D01*
X17149420Y-12889698D02*
X17035134Y-13003984D01*
X17035134Y-13003984D02*
X17158944Y-13003984D01*
X17235134Y-12803984D02*
X17235134Y-12842079D01*
X17311325Y-12803984D02*
X17311325Y-12842079D01*
X17606563Y-13080174D02*
X17597039Y-13070650D01*
X17597039Y-13070650D02*
X17577991Y-13042079D01*
X17577991Y-13042079D02*
X17568468Y-13023031D01*
X17568468Y-13023031D02*
X17558944Y-12994460D01*
X17558944Y-12994460D02*
X17549420Y-12946841D01*
X17549420Y-12946841D02*
X17549420Y-12908746D01*
X17549420Y-12908746D02*
X17558944Y-12861127D01*
X17558944Y-12861127D02*
X17568468Y-12832555D01*
X17568468Y-12832555D02*
X17577991Y-12813508D01*
X17577991Y-12813508D02*
X17597039Y-12784936D01*
X17597039Y-12784936D02*
X17606563Y-12775412D01*
X17692277Y-13003984D02*
X17730372Y-13003984D01*
X17730372Y-13003984D02*
X17749420Y-12994460D01*
X17749420Y-12994460D02*
X17758944Y-12984936D01*
X17758944Y-12984936D02*
X17777991Y-12956365D01*
X17777991Y-12956365D02*
X17787515Y-12918269D01*
X17787515Y-12918269D02*
X17787515Y-12842079D01*
X17787515Y-12842079D02*
X17777991Y-12823031D01*
X17777991Y-12823031D02*
X17768468Y-12813508D01*
X17768468Y-12813508D02*
X17749420Y-12803984D01*
X17749420Y-12803984D02*
X17711325Y-12803984D01*
X17711325Y-12803984D02*
X17692277Y-12813508D01*
X17692277Y-12813508D02*
X17682753Y-12823031D01*
X17682753Y-12823031D02*
X17673230Y-12842079D01*
X17673230Y-12842079D02*
X17673230Y-12889698D01*
X17673230Y-12889698D02*
X17682753Y-12908746D01*
X17682753Y-12908746D02*
X17692277Y-12918269D01*
X17692277Y-12918269D02*
X17711325Y-12927793D01*
X17711325Y-12927793D02*
X17749420Y-12927793D01*
X17749420Y-12927793D02*
X17768468Y-12918269D01*
X17768468Y-12918269D02*
X17777991Y-12908746D01*
X17777991Y-12908746D02*
X17787515Y-12889698D01*
X18025611Y-13003984D02*
X18025611Y-12803984D01*
X18111325Y-13003984D02*
X18111325Y-12899222D01*
X18111325Y-12899222D02*
X18101801Y-12880174D01*
X18101801Y-12880174D02*
X18082753Y-12870650D01*
X18082753Y-12870650D02*
X18054182Y-12870650D01*
X18054182Y-12870650D02*
X18035134Y-12880174D01*
X18035134Y-12880174D02*
X18025611Y-12889698D01*
X18235134Y-13003984D02*
X18216087Y-12994460D01*
X18216087Y-12994460D02*
X18206563Y-12984936D01*
X18206563Y-12984936D02*
X18197039Y-12965888D01*
X18197039Y-12965888D02*
X18197039Y-12908746D01*
X18197039Y-12908746D02*
X18206563Y-12889698D01*
X18206563Y-12889698D02*
X18216087Y-12880174D01*
X18216087Y-12880174D02*
X18235134Y-12870650D01*
X18235134Y-12870650D02*
X18263706Y-12870650D01*
X18263706Y-12870650D02*
X18282753Y-12880174D01*
X18282753Y-12880174D02*
X18292277Y-12889698D01*
X18292277Y-12889698D02*
X18301801Y-12908746D01*
X18301801Y-12908746D02*
X18301801Y-12965888D01*
X18301801Y-12965888D02*
X18292277Y-12984936D01*
X18292277Y-12984936D02*
X18282753Y-12994460D01*
X18282753Y-12994460D02*
X18263706Y-13003984D01*
X18263706Y-13003984D02*
X18235134Y-13003984D01*
X18416087Y-13003984D02*
X18397039Y-12994460D01*
X18397039Y-12994460D02*
X18387515Y-12975412D01*
X18387515Y-12975412D02*
X18387515Y-12803984D01*
X18568468Y-12994460D02*
X18549420Y-13003984D01*
X18549420Y-13003984D02*
X18511325Y-13003984D01*
X18511325Y-13003984D02*
X18492277Y-12994460D01*
X18492277Y-12994460D02*
X18482753Y-12975412D01*
X18482753Y-12975412D02*
X18482753Y-12899222D01*
X18482753Y-12899222D02*
X18492277Y-12880174D01*
X18492277Y-12880174D02*
X18511325Y-12870650D01*
X18511325Y-12870650D02*
X18549420Y-12870650D01*
X18549420Y-12870650D02*
X18568468Y-12880174D01*
X18568468Y-12880174D02*
X18577992Y-12899222D01*
X18577992Y-12899222D02*
X18577992Y-12918269D01*
X18577992Y-12918269D02*
X18482753Y-12937317D01*
X18654182Y-12994460D02*
X18673230Y-13003984D01*
X18673230Y-13003984D02*
X18711325Y-13003984D01*
X18711325Y-13003984D02*
X18730373Y-12994460D01*
X18730373Y-12994460D02*
X18739896Y-12975412D01*
X18739896Y-12975412D02*
X18739896Y-12965888D01*
X18739896Y-12965888D02*
X18730373Y-12946841D01*
X18730373Y-12946841D02*
X18711325Y-12937317D01*
X18711325Y-12937317D02*
X18682753Y-12937317D01*
X18682753Y-12937317D02*
X18663706Y-12927793D01*
X18663706Y-12927793D02*
X18654182Y-12908746D01*
X18654182Y-12908746D02*
X18654182Y-12899222D01*
X18654182Y-12899222D02*
X18663706Y-12880174D01*
X18663706Y-12880174D02*
X18682753Y-12870650D01*
X18682753Y-12870650D02*
X18711325Y-12870650D01*
X18711325Y-12870650D02*
X18730373Y-12880174D01*
X18806563Y-13080174D02*
X18816087Y-13070650D01*
X18816087Y-13070650D02*
X18835134Y-13042079D01*
X18835134Y-13042079D02*
X18844658Y-13023031D01*
X18844658Y-13023031D02*
X18854182Y-12994460D01*
X18854182Y-12994460D02*
X18863706Y-12946841D01*
X18863706Y-12946841D02*
X18863706Y-12908746D01*
X18863706Y-12908746D02*
X18854182Y-12861127D01*
X18854182Y-12861127D02*
X18844658Y-12832555D01*
X18844658Y-12832555D02*
X18835134Y-12813508D01*
X18835134Y-12813508D02*
X18816087Y-12784936D01*
X18816087Y-12784936D02*
X18806563Y-12775412D01*
D14*
X13856500Y-13089000D02*
X14031500Y-13264000D01*
X14031500Y-13089000D02*
X13856500Y-13264000D01*
X14005872Y-13238372D02*
X14005872Y-13114628D01*
X13882128Y-13114628D01*
X13882128Y-13238372D01*
X14005872Y-13238372D01*
D11*
X14397039Y-13267984D02*
X14282753Y-13267984D01*
X14339896Y-13267984D02*
X14339896Y-13067984D01*
X14339896Y-13067984D02*
X14320848Y-13096555D01*
X14320848Y-13096555D02*
X14301801Y-13115603D01*
X14301801Y-13115603D02*
X14282753Y-13125127D01*
X14482753Y-13248936D02*
X14492277Y-13258460D01*
X14492277Y-13258460D02*
X14482753Y-13267984D01*
X14482753Y-13267984D02*
X14473229Y-13258460D01*
X14473229Y-13258460D02*
X14482753Y-13248936D01*
X14482753Y-13248936D02*
X14482753Y-13267984D01*
X14558943Y-13067984D02*
X14692277Y-13067984D01*
X14692277Y-13067984D02*
X14606562Y-13267984D01*
X14863705Y-13067984D02*
X14768467Y-13067984D01*
X14768467Y-13067984D02*
X14758943Y-13163222D01*
X14758943Y-13163222D02*
X14768467Y-13153698D01*
X14768467Y-13153698D02*
X14787515Y-13144174D01*
X14787515Y-13144174D02*
X14835134Y-13144174D01*
X14835134Y-13144174D02*
X14854182Y-13153698D01*
X14854182Y-13153698D02*
X14863705Y-13163222D01*
X14863705Y-13163222D02*
X14873229Y-13182269D01*
X14873229Y-13182269D02*
X14873229Y-13229888D01*
X14873229Y-13229888D02*
X14863705Y-13248936D01*
X14863705Y-13248936D02*
X14854182Y-13258460D01*
X14854182Y-13258460D02*
X14835134Y-13267984D01*
X14835134Y-13267984D02*
X14787515Y-13267984D01*
X14787515Y-13267984D02*
X14768467Y-13258460D01*
X14768467Y-13258460D02*
X14758943Y-13248936D01*
X14997039Y-13067984D02*
X15016086Y-13067984D01*
X15016086Y-13067984D02*
X15035134Y-13077508D01*
X15035134Y-13077508D02*
X15044658Y-13087031D01*
X15044658Y-13087031D02*
X15054182Y-13106079D01*
X15054182Y-13106079D02*
X15063705Y-13144174D01*
X15063705Y-13144174D02*
X15063705Y-13191793D01*
X15063705Y-13191793D02*
X15054182Y-13229888D01*
X15054182Y-13229888D02*
X15044658Y-13248936D01*
X15044658Y-13248936D02*
X15035134Y-13258460D01*
X15035134Y-13258460D02*
X15016086Y-13267984D01*
X15016086Y-13267984D02*
X14997039Y-13267984D01*
X14997039Y-13267984D02*
X14977991Y-13258460D01*
X14977991Y-13258460D02*
X14968467Y-13248936D01*
X14968467Y-13248936D02*
X14958943Y-13229888D01*
X14958943Y-13229888D02*
X14949420Y-13191793D01*
X14949420Y-13191793D02*
X14949420Y-13144174D01*
X14949420Y-13144174D02*
X14958943Y-13106079D01*
X14958943Y-13106079D02*
X14968467Y-13087031D01*
X14968467Y-13087031D02*
X14977991Y-13077508D01*
X14977991Y-13077508D02*
X14997039Y-13067984D01*
X15149420Y-13267984D02*
X15149420Y-13134650D01*
X15149420Y-13153698D02*
X15158943Y-13144174D01*
X15158943Y-13144174D02*
X15177991Y-13134650D01*
X15177991Y-13134650D02*
X15206563Y-13134650D01*
X15206563Y-13134650D02*
X15225610Y-13144174D01*
X15225610Y-13144174D02*
X15235134Y-13163222D01*
X15235134Y-13163222D02*
X15235134Y-13267984D01*
X15235134Y-13163222D02*
X15244658Y-13144174D01*
X15244658Y-13144174D02*
X15263705Y-13134650D01*
X15263705Y-13134650D02*
X15292277Y-13134650D01*
X15292277Y-13134650D02*
X15311324Y-13144174D01*
X15311324Y-13144174D02*
X15320848Y-13163222D01*
X15320848Y-13163222D02*
X15320848Y-13267984D01*
X15416086Y-13267984D02*
X15416086Y-13134650D01*
X15416086Y-13153698D02*
X15425610Y-13144174D01*
X15425610Y-13144174D02*
X15444658Y-13134650D01*
X15444658Y-13134650D02*
X15473229Y-13134650D01*
X15473229Y-13134650D02*
X15492277Y-13144174D01*
X15492277Y-13144174D02*
X15501801Y-13163222D01*
X15501801Y-13163222D02*
X15501801Y-13267984D01*
X15501801Y-13163222D02*
X15511324Y-13144174D01*
X15511324Y-13144174D02*
X15530372Y-13134650D01*
X15530372Y-13134650D02*
X15558943Y-13134650D01*
X15558943Y-13134650D02*
X15577991Y-13144174D01*
X15577991Y-13144174D02*
X15587515Y-13163222D01*
X15587515Y-13163222D02*
X15587515Y-13267984D01*
X15977991Y-13058460D02*
X15806563Y-13315603D01*
X16235134Y-13067984D02*
X16254182Y-13067984D01*
X16254182Y-13067984D02*
X16273229Y-13077508D01*
X16273229Y-13077508D02*
X16282753Y-13087031D01*
X16282753Y-13087031D02*
X16292277Y-13106079D01*
X16292277Y-13106079D02*
X16301801Y-13144174D01*
X16301801Y-13144174D02*
X16301801Y-13191793D01*
X16301801Y-13191793D02*
X16292277Y-13229888D01*
X16292277Y-13229888D02*
X16282753Y-13248936D01*
X16282753Y-13248936D02*
X16273229Y-13258460D01*
X16273229Y-13258460D02*
X16254182Y-13267984D01*
X16254182Y-13267984D02*
X16235134Y-13267984D01*
X16235134Y-13267984D02*
X16216086Y-13258460D01*
X16216086Y-13258460D02*
X16206563Y-13248936D01*
X16206563Y-13248936D02*
X16197039Y-13229888D01*
X16197039Y-13229888D02*
X16187515Y-13191793D01*
X16187515Y-13191793D02*
X16187515Y-13144174D01*
X16187515Y-13144174D02*
X16197039Y-13106079D01*
X16197039Y-13106079D02*
X16206563Y-13087031D01*
X16206563Y-13087031D02*
X16216086Y-13077508D01*
X16216086Y-13077508D02*
X16235134Y-13067984D01*
X16387515Y-13248936D02*
X16397039Y-13258460D01*
X16397039Y-13258460D02*
X16387515Y-13267984D01*
X16387515Y-13267984D02*
X16377991Y-13258460D01*
X16377991Y-13258460D02*
X16387515Y-13248936D01*
X16387515Y-13248936D02*
X16387515Y-13267984D01*
X16520848Y-13067984D02*
X16539896Y-13067984D01*
X16539896Y-13067984D02*
X16558944Y-13077508D01*
X16558944Y-13077508D02*
X16568467Y-13087031D01*
X16568467Y-13087031D02*
X16577991Y-13106079D01*
X16577991Y-13106079D02*
X16587515Y-13144174D01*
X16587515Y-13144174D02*
X16587515Y-13191793D01*
X16587515Y-13191793D02*
X16577991Y-13229888D01*
X16577991Y-13229888D02*
X16568467Y-13248936D01*
X16568467Y-13248936D02*
X16558944Y-13258460D01*
X16558944Y-13258460D02*
X16539896Y-13267984D01*
X16539896Y-13267984D02*
X16520848Y-13267984D01*
X16520848Y-13267984D02*
X16501801Y-13258460D01*
X16501801Y-13258460D02*
X16492277Y-13248936D01*
X16492277Y-13248936D02*
X16482753Y-13229888D01*
X16482753Y-13229888D02*
X16473229Y-13191793D01*
X16473229Y-13191793D02*
X16473229Y-13144174D01*
X16473229Y-13144174D02*
X16482753Y-13106079D01*
X16482753Y-13106079D02*
X16492277Y-13087031D01*
X16492277Y-13087031D02*
X16501801Y-13077508D01*
X16501801Y-13077508D02*
X16520848Y-13067984D01*
X16758944Y-13067984D02*
X16720848Y-13067984D01*
X16720848Y-13067984D02*
X16701801Y-13077508D01*
X16701801Y-13077508D02*
X16692277Y-13087031D01*
X16692277Y-13087031D02*
X16673229Y-13115603D01*
X16673229Y-13115603D02*
X16663706Y-13153698D01*
X16663706Y-13153698D02*
X16663706Y-13229888D01*
X16663706Y-13229888D02*
X16673229Y-13248936D01*
X16673229Y-13248936D02*
X16682753Y-13258460D01*
X16682753Y-13258460D02*
X16701801Y-13267984D01*
X16701801Y-13267984D02*
X16739896Y-13267984D01*
X16739896Y-13267984D02*
X16758944Y-13258460D01*
X16758944Y-13258460D02*
X16768467Y-13248936D01*
X16768467Y-13248936D02*
X16777991Y-13229888D01*
X16777991Y-13229888D02*
X16777991Y-13182269D01*
X16777991Y-13182269D02*
X16768467Y-13163222D01*
X16768467Y-13163222D02*
X16758944Y-13153698D01*
X16758944Y-13153698D02*
X16739896Y-13144174D01*
X16739896Y-13144174D02*
X16701801Y-13144174D01*
X16701801Y-13144174D02*
X16682753Y-13153698D01*
X16682753Y-13153698D02*
X16673229Y-13163222D01*
X16673229Y-13163222D02*
X16663706Y-13182269D01*
X16892277Y-13153698D02*
X16873229Y-13144174D01*
X16873229Y-13144174D02*
X16863706Y-13134650D01*
X16863706Y-13134650D02*
X16854182Y-13115603D01*
X16854182Y-13115603D02*
X16854182Y-13106079D01*
X16854182Y-13106079D02*
X16863706Y-13087031D01*
X16863706Y-13087031D02*
X16873229Y-13077508D01*
X16873229Y-13077508D02*
X16892277Y-13067984D01*
X16892277Y-13067984D02*
X16930372Y-13067984D01*
X16930372Y-13067984D02*
X16949420Y-13077508D01*
X16949420Y-13077508D02*
X16958944Y-13087031D01*
X16958944Y-13087031D02*
X16968468Y-13106079D01*
X16968468Y-13106079D02*
X16968468Y-13115603D01*
X16968468Y-13115603D02*
X16958944Y-13134650D01*
X16958944Y-13134650D02*
X16949420Y-13144174D01*
X16949420Y-13144174D02*
X16930372Y-13153698D01*
X16930372Y-13153698D02*
X16892277Y-13153698D01*
X16892277Y-13153698D02*
X16873229Y-13163222D01*
X16873229Y-13163222D02*
X16863706Y-13172746D01*
X16863706Y-13172746D02*
X16854182Y-13191793D01*
X16854182Y-13191793D02*
X16854182Y-13229888D01*
X16854182Y-13229888D02*
X16863706Y-13248936D01*
X16863706Y-13248936D02*
X16873229Y-13258460D01*
X16873229Y-13258460D02*
X16892277Y-13267984D01*
X16892277Y-13267984D02*
X16930372Y-13267984D01*
X16930372Y-13267984D02*
X16949420Y-13258460D01*
X16949420Y-13258460D02*
X16958944Y-13248936D01*
X16958944Y-13248936D02*
X16968468Y-13229888D01*
X16968468Y-13229888D02*
X16968468Y-13191793D01*
X16968468Y-13191793D02*
X16958944Y-13172746D01*
X16958944Y-13172746D02*
X16949420Y-13163222D01*
X16949420Y-13163222D02*
X16930372Y-13153698D01*
X17063706Y-13267984D02*
X17101801Y-13267984D01*
X17101801Y-13267984D02*
X17120849Y-13258460D01*
X17120849Y-13258460D02*
X17130372Y-13248936D01*
X17130372Y-13248936D02*
X17149420Y-13220365D01*
X17149420Y-13220365D02*
X17158944Y-13182269D01*
X17158944Y-13182269D02*
X17158944Y-13106079D01*
X17158944Y-13106079D02*
X17149420Y-13087031D01*
X17149420Y-13087031D02*
X17139896Y-13077508D01*
X17139896Y-13077508D02*
X17120849Y-13067984D01*
X17120849Y-13067984D02*
X17082753Y-13067984D01*
X17082753Y-13067984D02*
X17063706Y-13077508D01*
X17063706Y-13077508D02*
X17054182Y-13087031D01*
X17054182Y-13087031D02*
X17044658Y-13106079D01*
X17044658Y-13106079D02*
X17044658Y-13153698D01*
X17044658Y-13153698D02*
X17054182Y-13172746D01*
X17054182Y-13172746D02*
X17063706Y-13182269D01*
X17063706Y-13182269D02*
X17082753Y-13191793D01*
X17082753Y-13191793D02*
X17120849Y-13191793D01*
X17120849Y-13191793D02*
X17139896Y-13182269D01*
X17139896Y-13182269D02*
X17149420Y-13172746D01*
X17149420Y-13172746D02*
X17158944Y-13153698D01*
X17235134Y-13067984D02*
X17235134Y-13106079D01*
X17311325Y-13067984D02*
X17311325Y-13106079D01*
X17606563Y-13344174D02*
X17597039Y-13334650D01*
X17597039Y-13334650D02*
X17577991Y-13306079D01*
X17577991Y-13306079D02*
X17568468Y-13287031D01*
X17568468Y-13287031D02*
X17558944Y-13258460D01*
X17558944Y-13258460D02*
X17549420Y-13210841D01*
X17549420Y-13210841D02*
X17549420Y-13172746D01*
X17549420Y-13172746D02*
X17558944Y-13125127D01*
X17558944Y-13125127D02*
X17568468Y-13096555D01*
X17568468Y-13096555D02*
X17577991Y-13077508D01*
X17577991Y-13077508D02*
X17597039Y-13048936D01*
X17597039Y-13048936D02*
X17606563Y-13039412D01*
X17673230Y-13087031D02*
X17682753Y-13077508D01*
X17682753Y-13077508D02*
X17701801Y-13067984D01*
X17701801Y-13067984D02*
X17749420Y-13067984D01*
X17749420Y-13067984D02*
X17768468Y-13077508D01*
X17768468Y-13077508D02*
X17777991Y-13087031D01*
X17777991Y-13087031D02*
X17787515Y-13106079D01*
X17787515Y-13106079D02*
X17787515Y-13125127D01*
X17787515Y-13125127D02*
X17777991Y-13153698D01*
X17777991Y-13153698D02*
X17663706Y-13267984D01*
X17663706Y-13267984D02*
X17787515Y-13267984D01*
X18025611Y-13267984D02*
X18025611Y-13067984D01*
X18111325Y-13267984D02*
X18111325Y-13163222D01*
X18111325Y-13163222D02*
X18101801Y-13144174D01*
X18101801Y-13144174D02*
X18082753Y-13134650D01*
X18082753Y-13134650D02*
X18054182Y-13134650D01*
X18054182Y-13134650D02*
X18035134Y-13144174D01*
X18035134Y-13144174D02*
X18025611Y-13153698D01*
X18235134Y-13267984D02*
X18216087Y-13258460D01*
X18216087Y-13258460D02*
X18206563Y-13248936D01*
X18206563Y-13248936D02*
X18197039Y-13229888D01*
X18197039Y-13229888D02*
X18197039Y-13172746D01*
X18197039Y-13172746D02*
X18206563Y-13153698D01*
X18206563Y-13153698D02*
X18216087Y-13144174D01*
X18216087Y-13144174D02*
X18235134Y-13134650D01*
X18235134Y-13134650D02*
X18263706Y-13134650D01*
X18263706Y-13134650D02*
X18282753Y-13144174D01*
X18282753Y-13144174D02*
X18292277Y-13153698D01*
X18292277Y-13153698D02*
X18301801Y-13172746D01*
X18301801Y-13172746D02*
X18301801Y-13229888D01*
X18301801Y-13229888D02*
X18292277Y-13248936D01*
X18292277Y-13248936D02*
X18282753Y-13258460D01*
X18282753Y-13258460D02*
X18263706Y-13267984D01*
X18263706Y-13267984D02*
X18235134Y-13267984D01*
X18416087Y-13267984D02*
X18397039Y-13258460D01*
X18397039Y-13258460D02*
X18387515Y-13239412D01*
X18387515Y-13239412D02*
X18387515Y-13067984D01*
X18568468Y-13258460D02*
X18549420Y-13267984D01*
X18549420Y-13267984D02*
X18511325Y-13267984D01*
X18511325Y-13267984D02*
X18492277Y-13258460D01*
X18492277Y-13258460D02*
X18482753Y-13239412D01*
X18482753Y-13239412D02*
X18482753Y-13163222D01*
X18482753Y-13163222D02*
X18492277Y-13144174D01*
X18492277Y-13144174D02*
X18511325Y-13134650D01*
X18511325Y-13134650D02*
X18549420Y-13134650D01*
X18549420Y-13134650D02*
X18568468Y-13144174D01*
X18568468Y-13144174D02*
X18577992Y-13163222D01*
X18577992Y-13163222D02*
X18577992Y-13182269D01*
X18577992Y-13182269D02*
X18482753Y-13201317D01*
X18654182Y-13258460D02*
X18673230Y-13267984D01*
X18673230Y-13267984D02*
X18711325Y-13267984D01*
X18711325Y-13267984D02*
X18730373Y-13258460D01*
X18730373Y-13258460D02*
X18739896Y-13239412D01*
X18739896Y-13239412D02*
X18739896Y-13229888D01*
X18739896Y-13229888D02*
X18730373Y-13210841D01*
X18730373Y-13210841D02*
X18711325Y-13201317D01*
X18711325Y-13201317D02*
X18682753Y-13201317D01*
X18682753Y-13201317D02*
X18663706Y-13191793D01*
X18663706Y-13191793D02*
X18654182Y-13172746D01*
X18654182Y-13172746D02*
X18654182Y-13163222D01*
X18654182Y-13163222D02*
X18663706Y-13144174D01*
X18663706Y-13144174D02*
X18682753Y-13134650D01*
X18682753Y-13134650D02*
X18711325Y-13134650D01*
X18711325Y-13134650D02*
X18730373Y-13144174D01*
X18806563Y-13344174D02*
X18816087Y-13334650D01*
X18816087Y-13334650D02*
X18835134Y-13306079D01*
X18835134Y-13306079D02*
X18844658Y-13287031D01*
X18844658Y-13287031D02*
X18854182Y-13258460D01*
X18854182Y-13258460D02*
X18863706Y-13210841D01*
X18863706Y-13210841D02*
X18863706Y-13172746D01*
X18863706Y-13172746D02*
X18854182Y-13125127D01*
X18854182Y-13125127D02*
X18844658Y-13096555D01*
X18844658Y-13096555D02*
X18835134Y-13077508D01*
X18835134Y-13077508D02*
X18816087Y-13048936D01*
X18816087Y-13048936D02*
X18806563Y-13039412D01*
X13831500Y-13371500D02*
X14031500Y-13571500D01*
X14031500Y-13371500D02*
X13831500Y-13571500D01*
X13931500Y-13571500D02*
X14031500Y-13471500D01*
X13931500Y-13371500D01*
X13831500Y-13471500D01*
X13931500Y-13571500D01*
X14282753Y-13382031D02*
X14292277Y-13372508D01*
X14292277Y-13372508D02*
X14311324Y-13362984D01*
X14311324Y-13362984D02*
X14358943Y-13362984D01*
X14358943Y-13362984D02*
X14377991Y-13372508D01*
X14377991Y-13372508D02*
X14387515Y-13382031D01*
X14387515Y-13382031D02*
X14397039Y-13401079D01*
X14397039Y-13401079D02*
X14397039Y-13420127D01*
X14397039Y-13420127D02*
X14387515Y-13448698D01*
X14387515Y-13448698D02*
X14273229Y-13562984D01*
X14273229Y-13562984D02*
X14397039Y-13562984D01*
X14482753Y-13543936D02*
X14492277Y-13553460D01*
X14492277Y-13553460D02*
X14482753Y-13562984D01*
X14482753Y-13562984D02*
X14473229Y-13553460D01*
X14473229Y-13553460D02*
X14482753Y-13543936D01*
X14482753Y-13543936D02*
X14482753Y-13562984D01*
X14568467Y-13382031D02*
X14577991Y-13372508D01*
X14577991Y-13372508D02*
X14597039Y-13362984D01*
X14597039Y-13362984D02*
X14644658Y-13362984D01*
X14644658Y-13362984D02*
X14663705Y-13372508D01*
X14663705Y-13372508D02*
X14673229Y-13382031D01*
X14673229Y-13382031D02*
X14682753Y-13401079D01*
X14682753Y-13401079D02*
X14682753Y-13420127D01*
X14682753Y-13420127D02*
X14673229Y-13448698D01*
X14673229Y-13448698D02*
X14558943Y-13562984D01*
X14558943Y-13562984D02*
X14682753Y-13562984D01*
X14806562Y-13362984D02*
X14825610Y-13362984D01*
X14825610Y-13362984D02*
X14844658Y-13372508D01*
X14844658Y-13372508D02*
X14854182Y-13382031D01*
X14854182Y-13382031D02*
X14863705Y-13401079D01*
X14863705Y-13401079D02*
X14873229Y-13439174D01*
X14873229Y-13439174D02*
X14873229Y-13486793D01*
X14873229Y-13486793D02*
X14863705Y-13524888D01*
X14863705Y-13524888D02*
X14854182Y-13543936D01*
X14854182Y-13543936D02*
X14844658Y-13553460D01*
X14844658Y-13553460D02*
X14825610Y-13562984D01*
X14825610Y-13562984D02*
X14806562Y-13562984D01*
X14806562Y-13562984D02*
X14787515Y-13553460D01*
X14787515Y-13553460D02*
X14777991Y-13543936D01*
X14777991Y-13543936D02*
X14768467Y-13524888D01*
X14768467Y-13524888D02*
X14758943Y-13486793D01*
X14758943Y-13486793D02*
X14758943Y-13439174D01*
X14758943Y-13439174D02*
X14768467Y-13401079D01*
X14768467Y-13401079D02*
X14777991Y-13382031D01*
X14777991Y-13382031D02*
X14787515Y-13372508D01*
X14787515Y-13372508D02*
X14806562Y-13362984D01*
X14997039Y-13362984D02*
X15016086Y-13362984D01*
X15016086Y-13362984D02*
X15035134Y-13372508D01*
X15035134Y-13372508D02*
X15044658Y-13382031D01*
X15044658Y-13382031D02*
X15054182Y-13401079D01*
X15054182Y-13401079D02*
X15063705Y-13439174D01*
X15063705Y-13439174D02*
X15063705Y-13486793D01*
X15063705Y-13486793D02*
X15054182Y-13524888D01*
X15054182Y-13524888D02*
X15044658Y-13543936D01*
X15044658Y-13543936D02*
X15035134Y-13553460D01*
X15035134Y-13553460D02*
X15016086Y-13562984D01*
X15016086Y-13562984D02*
X14997039Y-13562984D01*
X14997039Y-13562984D02*
X14977991Y-13553460D01*
X14977991Y-13553460D02*
X14968467Y-13543936D01*
X14968467Y-13543936D02*
X14958943Y-13524888D01*
X14958943Y-13524888D02*
X14949420Y-13486793D01*
X14949420Y-13486793D02*
X14949420Y-13439174D01*
X14949420Y-13439174D02*
X14958943Y-13401079D01*
X14958943Y-13401079D02*
X14968467Y-13382031D01*
X14968467Y-13382031D02*
X14977991Y-13372508D01*
X14977991Y-13372508D02*
X14997039Y-13362984D01*
X15149420Y-13562984D02*
X15149420Y-13429650D01*
X15149420Y-13448698D02*
X15158943Y-13439174D01*
X15158943Y-13439174D02*
X15177991Y-13429650D01*
X15177991Y-13429650D02*
X15206563Y-13429650D01*
X15206563Y-13429650D02*
X15225610Y-13439174D01*
X15225610Y-13439174D02*
X15235134Y-13458222D01*
X15235134Y-13458222D02*
X15235134Y-13562984D01*
X15235134Y-13458222D02*
X15244658Y-13439174D01*
X15244658Y-13439174D02*
X15263705Y-13429650D01*
X15263705Y-13429650D02*
X15292277Y-13429650D01*
X15292277Y-13429650D02*
X15311324Y-13439174D01*
X15311324Y-13439174D02*
X15320848Y-13458222D01*
X15320848Y-13458222D02*
X15320848Y-13562984D01*
X15416086Y-13562984D02*
X15416086Y-13429650D01*
X15416086Y-13448698D02*
X15425610Y-13439174D01*
X15425610Y-13439174D02*
X15444658Y-13429650D01*
X15444658Y-13429650D02*
X15473229Y-13429650D01*
X15473229Y-13429650D02*
X15492277Y-13439174D01*
X15492277Y-13439174D02*
X15501801Y-13458222D01*
X15501801Y-13458222D02*
X15501801Y-13562984D01*
X15501801Y-13458222D02*
X15511324Y-13439174D01*
X15511324Y-13439174D02*
X15530372Y-13429650D01*
X15530372Y-13429650D02*
X15558943Y-13429650D01*
X15558943Y-13429650D02*
X15577991Y-13439174D01*
X15577991Y-13439174D02*
X15587515Y-13458222D01*
X15587515Y-13458222D02*
X15587515Y-13562984D01*
X15977991Y-13353460D02*
X15806563Y-13610603D01*
X16235134Y-13362984D02*
X16254182Y-13362984D01*
X16254182Y-13362984D02*
X16273229Y-13372508D01*
X16273229Y-13372508D02*
X16282753Y-13382031D01*
X16282753Y-13382031D02*
X16292277Y-13401079D01*
X16292277Y-13401079D02*
X16301801Y-13439174D01*
X16301801Y-13439174D02*
X16301801Y-13486793D01*
X16301801Y-13486793D02*
X16292277Y-13524888D01*
X16292277Y-13524888D02*
X16282753Y-13543936D01*
X16282753Y-13543936D02*
X16273229Y-13553460D01*
X16273229Y-13553460D02*
X16254182Y-13562984D01*
X16254182Y-13562984D02*
X16235134Y-13562984D01*
X16235134Y-13562984D02*
X16216086Y-13553460D01*
X16216086Y-13553460D02*
X16206563Y-13543936D01*
X16206563Y-13543936D02*
X16197039Y-13524888D01*
X16197039Y-13524888D02*
X16187515Y-13486793D01*
X16187515Y-13486793D02*
X16187515Y-13439174D01*
X16187515Y-13439174D02*
X16197039Y-13401079D01*
X16197039Y-13401079D02*
X16206563Y-13382031D01*
X16206563Y-13382031D02*
X16216086Y-13372508D01*
X16216086Y-13372508D02*
X16235134Y-13362984D01*
X16387515Y-13543936D02*
X16397039Y-13553460D01*
X16397039Y-13553460D02*
X16387515Y-13562984D01*
X16387515Y-13562984D02*
X16377991Y-13553460D01*
X16377991Y-13553460D02*
X16387515Y-13543936D01*
X16387515Y-13543936D02*
X16387515Y-13562984D01*
X16520848Y-13362984D02*
X16539896Y-13362984D01*
X16539896Y-13362984D02*
X16558944Y-13372508D01*
X16558944Y-13372508D02*
X16568467Y-13382031D01*
X16568467Y-13382031D02*
X16577991Y-13401079D01*
X16577991Y-13401079D02*
X16587515Y-13439174D01*
X16587515Y-13439174D02*
X16587515Y-13486793D01*
X16587515Y-13486793D02*
X16577991Y-13524888D01*
X16577991Y-13524888D02*
X16568467Y-13543936D01*
X16568467Y-13543936D02*
X16558944Y-13553460D01*
X16558944Y-13553460D02*
X16539896Y-13562984D01*
X16539896Y-13562984D02*
X16520848Y-13562984D01*
X16520848Y-13562984D02*
X16501801Y-13553460D01*
X16501801Y-13553460D02*
X16492277Y-13543936D01*
X16492277Y-13543936D02*
X16482753Y-13524888D01*
X16482753Y-13524888D02*
X16473229Y-13486793D01*
X16473229Y-13486793D02*
X16473229Y-13439174D01*
X16473229Y-13439174D02*
X16482753Y-13401079D01*
X16482753Y-13401079D02*
X16492277Y-13382031D01*
X16492277Y-13382031D02*
X16501801Y-13372508D01*
X16501801Y-13372508D02*
X16520848Y-13362984D01*
X16701801Y-13448698D02*
X16682753Y-13439174D01*
X16682753Y-13439174D02*
X16673229Y-13429650D01*
X16673229Y-13429650D02*
X16663706Y-13410603D01*
X16663706Y-13410603D02*
X16663706Y-13401079D01*
X16663706Y-13401079D02*
X16673229Y-13382031D01*
X16673229Y-13382031D02*
X16682753Y-13372508D01*
X16682753Y-13372508D02*
X16701801Y-13362984D01*
X16701801Y-13362984D02*
X16739896Y-13362984D01*
X16739896Y-13362984D02*
X16758944Y-13372508D01*
X16758944Y-13372508D02*
X16768467Y-13382031D01*
X16768467Y-13382031D02*
X16777991Y-13401079D01*
X16777991Y-13401079D02*
X16777991Y-13410603D01*
X16777991Y-13410603D02*
X16768467Y-13429650D01*
X16768467Y-13429650D02*
X16758944Y-13439174D01*
X16758944Y-13439174D02*
X16739896Y-13448698D01*
X16739896Y-13448698D02*
X16701801Y-13448698D01*
X16701801Y-13448698D02*
X16682753Y-13458222D01*
X16682753Y-13458222D02*
X16673229Y-13467746D01*
X16673229Y-13467746D02*
X16663706Y-13486793D01*
X16663706Y-13486793D02*
X16663706Y-13524888D01*
X16663706Y-13524888D02*
X16673229Y-13543936D01*
X16673229Y-13543936D02*
X16682753Y-13553460D01*
X16682753Y-13553460D02*
X16701801Y-13562984D01*
X16701801Y-13562984D02*
X16739896Y-13562984D01*
X16739896Y-13562984D02*
X16758944Y-13553460D01*
X16758944Y-13553460D02*
X16768467Y-13543936D01*
X16768467Y-13543936D02*
X16777991Y-13524888D01*
X16777991Y-13524888D02*
X16777991Y-13486793D01*
X16777991Y-13486793D02*
X16768467Y-13467746D01*
X16768467Y-13467746D02*
X16758944Y-13458222D01*
X16758944Y-13458222D02*
X16739896Y-13448698D01*
X16949420Y-13362984D02*
X16911325Y-13362984D01*
X16911325Y-13362984D02*
X16892277Y-13372508D01*
X16892277Y-13372508D02*
X16882753Y-13382031D01*
X16882753Y-13382031D02*
X16863706Y-13410603D01*
X16863706Y-13410603D02*
X16854182Y-13448698D01*
X16854182Y-13448698D02*
X16854182Y-13524888D01*
X16854182Y-13524888D02*
X16863706Y-13543936D01*
X16863706Y-13543936D02*
X16873229Y-13553460D01*
X16873229Y-13553460D02*
X16892277Y-13562984D01*
X16892277Y-13562984D02*
X16930372Y-13562984D01*
X16930372Y-13562984D02*
X16949420Y-13553460D01*
X16949420Y-13553460D02*
X16958944Y-13543936D01*
X16958944Y-13543936D02*
X16968468Y-13524888D01*
X16968468Y-13524888D02*
X16968468Y-13477269D01*
X16968468Y-13477269D02*
X16958944Y-13458222D01*
X16958944Y-13458222D02*
X16949420Y-13448698D01*
X16949420Y-13448698D02*
X16930372Y-13439174D01*
X16930372Y-13439174D02*
X16892277Y-13439174D01*
X16892277Y-13439174D02*
X16873229Y-13448698D01*
X16873229Y-13448698D02*
X16863706Y-13458222D01*
X16863706Y-13458222D02*
X16854182Y-13477269D01*
X17139896Y-13362984D02*
X17101801Y-13362984D01*
X17101801Y-13362984D02*
X17082753Y-13372508D01*
X17082753Y-13372508D02*
X17073229Y-13382031D01*
X17073229Y-13382031D02*
X17054182Y-13410603D01*
X17054182Y-13410603D02*
X17044658Y-13448698D01*
X17044658Y-13448698D02*
X17044658Y-13524888D01*
X17044658Y-13524888D02*
X17054182Y-13543936D01*
X17054182Y-13543936D02*
X17063706Y-13553460D01*
X17063706Y-13553460D02*
X17082753Y-13562984D01*
X17082753Y-13562984D02*
X17120849Y-13562984D01*
X17120849Y-13562984D02*
X17139896Y-13553460D01*
X17139896Y-13553460D02*
X17149420Y-13543936D01*
X17149420Y-13543936D02*
X17158944Y-13524888D01*
X17158944Y-13524888D02*
X17158944Y-13477269D01*
X17158944Y-13477269D02*
X17149420Y-13458222D01*
X17149420Y-13458222D02*
X17139896Y-13448698D01*
X17139896Y-13448698D02*
X17120849Y-13439174D01*
X17120849Y-13439174D02*
X17082753Y-13439174D01*
X17082753Y-13439174D02*
X17063706Y-13448698D01*
X17063706Y-13448698D02*
X17054182Y-13458222D01*
X17054182Y-13458222D02*
X17044658Y-13477269D01*
X17235134Y-13362984D02*
X17235134Y-13401079D01*
X17311325Y-13362984D02*
X17311325Y-13401079D01*
X17606563Y-13639174D02*
X17597039Y-13629650D01*
X17597039Y-13629650D02*
X17577991Y-13601079D01*
X17577991Y-13601079D02*
X17568468Y-13582031D01*
X17568468Y-13582031D02*
X17558944Y-13553460D01*
X17558944Y-13553460D02*
X17549420Y-13505841D01*
X17549420Y-13505841D02*
X17549420Y-13467746D01*
X17549420Y-13467746D02*
X17558944Y-13420127D01*
X17558944Y-13420127D02*
X17568468Y-13391555D01*
X17568468Y-13391555D02*
X17577991Y-13372508D01*
X17577991Y-13372508D02*
X17597039Y-13343936D01*
X17597039Y-13343936D02*
X17606563Y-13334412D01*
X17768468Y-13429650D02*
X17768468Y-13562984D01*
X17720849Y-13353460D02*
X17673230Y-13496317D01*
X17673230Y-13496317D02*
X17797039Y-13496317D01*
X18025611Y-13562984D02*
X18025611Y-13362984D01*
X18111325Y-13562984D02*
X18111325Y-13458222D01*
X18111325Y-13458222D02*
X18101801Y-13439174D01*
X18101801Y-13439174D02*
X18082753Y-13429650D01*
X18082753Y-13429650D02*
X18054182Y-13429650D01*
X18054182Y-13429650D02*
X18035134Y-13439174D01*
X18035134Y-13439174D02*
X18025611Y-13448698D01*
X18235134Y-13562984D02*
X18216087Y-13553460D01*
X18216087Y-13553460D02*
X18206563Y-13543936D01*
X18206563Y-13543936D02*
X18197039Y-13524888D01*
X18197039Y-13524888D02*
X18197039Y-13467746D01*
X18197039Y-13467746D02*
X18206563Y-13448698D01*
X18206563Y-13448698D02*
X18216087Y-13439174D01*
X18216087Y-13439174D02*
X18235134Y-13429650D01*
X18235134Y-13429650D02*
X18263706Y-13429650D01*
X18263706Y-13429650D02*
X18282753Y-13439174D01*
X18282753Y-13439174D02*
X18292277Y-13448698D01*
X18292277Y-13448698D02*
X18301801Y-13467746D01*
X18301801Y-13467746D02*
X18301801Y-13524888D01*
X18301801Y-13524888D02*
X18292277Y-13543936D01*
X18292277Y-13543936D02*
X18282753Y-13553460D01*
X18282753Y-13553460D02*
X18263706Y-13562984D01*
X18263706Y-13562984D02*
X18235134Y-13562984D01*
X18416087Y-13562984D02*
X18397039Y-13553460D01*
X18397039Y-13553460D02*
X18387515Y-13534412D01*
X18387515Y-13534412D02*
X18387515Y-13362984D01*
X18568468Y-13553460D02*
X18549420Y-13562984D01*
X18549420Y-13562984D02*
X18511325Y-13562984D01*
X18511325Y-13562984D02*
X18492277Y-13553460D01*
X18492277Y-13553460D02*
X18482753Y-13534412D01*
X18482753Y-13534412D02*
X18482753Y-13458222D01*
X18482753Y-13458222D02*
X18492277Y-13439174D01*
X18492277Y-13439174D02*
X18511325Y-13429650D01*
X18511325Y-13429650D02*
X18549420Y-13429650D01*
X18549420Y-13429650D02*
X18568468Y-13439174D01*
X18568468Y-13439174D02*
X18577992Y-13458222D01*
X18577992Y-13458222D02*
X18577992Y-13477269D01*
X18577992Y-13477269D02*
X18482753Y-13496317D01*
X18654182Y-13553460D02*
X18673230Y-13562984D01*
X18673230Y-13562984D02*
X18711325Y-13562984D01*
X18711325Y-13562984D02*
X18730373Y-13553460D01*
X18730373Y-13553460D02*
X18739896Y-13534412D01*
X18739896Y-13534412D02*
X18739896Y-13524888D01*
X18739896Y-13524888D02*
X18730373Y-13505841D01*
X18730373Y-13505841D02*
X18711325Y-13496317D01*
X18711325Y-13496317D02*
X18682753Y-13496317D01*
X18682753Y-13496317D02*
X18663706Y-13486793D01*
X18663706Y-13486793D02*
X18654182Y-13467746D01*
X18654182Y-13467746D02*
X18654182Y-13458222D01*
X18654182Y-13458222D02*
X18663706Y-13439174D01*
X18663706Y-13439174D02*
X18682753Y-13429650D01*
X18682753Y-13429650D02*
X18711325Y-13429650D01*
X18711325Y-13429650D02*
X18730373Y-13439174D01*
X18806563Y-13639174D02*
X18816087Y-13629650D01*
X18816087Y-13629650D02*
X18835134Y-13601079D01*
X18835134Y-13601079D02*
X18844658Y-13582031D01*
X18844658Y-13582031D02*
X18854182Y-13553460D01*
X18854182Y-13553460D02*
X18863706Y-13505841D01*
X18863706Y-13505841D02*
X18863706Y-13467746D01*
X18863706Y-13467746D02*
X18854182Y-13420127D01*
X18854182Y-13420127D02*
X18844658Y-13391555D01*
X18844658Y-13391555D02*
X18835134Y-13372508D01*
X18835134Y-13372508D02*
X18816087Y-13343936D01*
X18816087Y-13343936D02*
X18806563Y-13334412D01*
M02*
