%TF.GenerationSoftware,KiCad,Pcbnew,9.0.6*%
%TF.CreationDate,2026-01-22T12:37:59+05:30*%
%TF.ProjectId,Muscle sensor,4d757363-6c65-4207-9365-6e736f722e6b,rev?*%
%TF.SameCoordinates,Original*%
%TF.FileFunction,Legend,Bot*%
%TF.FilePolarity,Positive*%
%FSLAX46Y46*%
G04 Gerber Fmt 4.6, Leading zero omitted, Abs format (unit mm)*
G04 Created by KiCad (PCBNEW 9.0.6) date 2026-01-22 12:37:59*
%MOMM*%
%LPD*%
G01*
G04 APERTURE LIST*
%ADD10C,0.200000*%
%ADD11C,0.010000*%
%ADD12C,0.000000*%
G04 APERTURE END LIST*
D10*
X173310326Y-60463409D02*
X172976993Y-60463409D01*
X172834136Y-60987219D02*
X173310326Y-60987219D01*
X173310326Y-60987219D02*
X173310326Y-59987219D01*
X173310326Y-59987219D02*
X172834136Y-59987219D01*
X172405564Y-60987219D02*
X172405564Y-59987219D01*
X172405564Y-59987219D02*
X172072231Y-60701504D01*
X172072231Y-60701504D02*
X171738898Y-59987219D01*
X171738898Y-59987219D02*
X171738898Y-60987219D01*
X170738898Y-60034838D02*
X170834136Y-59987219D01*
X170834136Y-59987219D02*
X170976993Y-59987219D01*
X170976993Y-59987219D02*
X171119850Y-60034838D01*
X171119850Y-60034838D02*
X171215088Y-60130076D01*
X171215088Y-60130076D02*
X171262707Y-60225314D01*
X171262707Y-60225314D02*
X171310326Y-60415790D01*
X171310326Y-60415790D02*
X171310326Y-60558647D01*
X171310326Y-60558647D02*
X171262707Y-60749123D01*
X171262707Y-60749123D02*
X171215088Y-60844361D01*
X171215088Y-60844361D02*
X171119850Y-60939600D01*
X171119850Y-60939600D02*
X170976993Y-60987219D01*
X170976993Y-60987219D02*
X170881755Y-60987219D01*
X170881755Y-60987219D02*
X170738898Y-60939600D01*
X170738898Y-60939600D02*
X170691279Y-60891980D01*
X170691279Y-60891980D02*
X170691279Y-60558647D01*
X170691279Y-60558647D02*
X170881755Y-60558647D01*
X169548421Y-60939600D02*
X169405564Y-60987219D01*
X169405564Y-60987219D02*
X169167469Y-60987219D01*
X169167469Y-60987219D02*
X169072231Y-60939600D01*
X169072231Y-60939600D02*
X169024612Y-60891980D01*
X169024612Y-60891980D02*
X168976993Y-60796742D01*
X168976993Y-60796742D02*
X168976993Y-60701504D01*
X168976993Y-60701504D02*
X169024612Y-60606266D01*
X169024612Y-60606266D02*
X169072231Y-60558647D01*
X169072231Y-60558647D02*
X169167469Y-60511028D01*
X169167469Y-60511028D02*
X169357945Y-60463409D01*
X169357945Y-60463409D02*
X169453183Y-60415790D01*
X169453183Y-60415790D02*
X169500802Y-60368171D01*
X169500802Y-60368171D02*
X169548421Y-60272933D01*
X169548421Y-60272933D02*
X169548421Y-60177695D01*
X169548421Y-60177695D02*
X169500802Y-60082457D01*
X169500802Y-60082457D02*
X169453183Y-60034838D01*
X169453183Y-60034838D02*
X169357945Y-59987219D01*
X169357945Y-59987219D02*
X169119850Y-59987219D01*
X169119850Y-59987219D02*
X168976993Y-60034838D01*
X168548421Y-60463409D02*
X168215088Y-60463409D01*
X168072231Y-60987219D02*
X168548421Y-60987219D01*
X168548421Y-60987219D02*
X168548421Y-59987219D01*
X168548421Y-59987219D02*
X168072231Y-59987219D01*
X167643659Y-60987219D02*
X167643659Y-59987219D01*
X167643659Y-59987219D02*
X167072231Y-60987219D01*
X167072231Y-60987219D02*
X167072231Y-59987219D01*
X166643659Y-60939600D02*
X166500802Y-60987219D01*
X166500802Y-60987219D02*
X166262707Y-60987219D01*
X166262707Y-60987219D02*
X166167469Y-60939600D01*
X166167469Y-60939600D02*
X166119850Y-60891980D01*
X166119850Y-60891980D02*
X166072231Y-60796742D01*
X166072231Y-60796742D02*
X166072231Y-60701504D01*
X166072231Y-60701504D02*
X166119850Y-60606266D01*
X166119850Y-60606266D02*
X166167469Y-60558647D01*
X166167469Y-60558647D02*
X166262707Y-60511028D01*
X166262707Y-60511028D02*
X166453183Y-60463409D01*
X166453183Y-60463409D02*
X166548421Y-60415790D01*
X166548421Y-60415790D02*
X166596040Y-60368171D01*
X166596040Y-60368171D02*
X166643659Y-60272933D01*
X166643659Y-60272933D02*
X166643659Y-60177695D01*
X166643659Y-60177695D02*
X166596040Y-60082457D01*
X166596040Y-60082457D02*
X166548421Y-60034838D01*
X166548421Y-60034838D02*
X166453183Y-59987219D01*
X166453183Y-59987219D02*
X166215088Y-59987219D01*
X166215088Y-59987219D02*
X166072231Y-60034838D01*
X165453183Y-59987219D02*
X165262707Y-59987219D01*
X165262707Y-59987219D02*
X165167469Y-60034838D01*
X165167469Y-60034838D02*
X165072231Y-60130076D01*
X165072231Y-60130076D02*
X165024612Y-60320552D01*
X165024612Y-60320552D02*
X165024612Y-60653885D01*
X165024612Y-60653885D02*
X165072231Y-60844361D01*
X165072231Y-60844361D02*
X165167469Y-60939600D01*
X165167469Y-60939600D02*
X165262707Y-60987219D01*
X165262707Y-60987219D02*
X165453183Y-60987219D01*
X165453183Y-60987219D02*
X165548421Y-60939600D01*
X165548421Y-60939600D02*
X165643659Y-60844361D01*
X165643659Y-60844361D02*
X165691278Y-60653885D01*
X165691278Y-60653885D02*
X165691278Y-60320552D01*
X165691278Y-60320552D02*
X165643659Y-60130076D01*
X165643659Y-60130076D02*
X165548421Y-60034838D01*
X165548421Y-60034838D02*
X165453183Y-59987219D01*
X164024612Y-60987219D02*
X164357945Y-60511028D01*
X164596040Y-60987219D02*
X164596040Y-59987219D01*
X164596040Y-59987219D02*
X164215088Y-59987219D01*
X164215088Y-59987219D02*
X164119850Y-60034838D01*
X164119850Y-60034838D02*
X164072231Y-60082457D01*
X164072231Y-60082457D02*
X164024612Y-60177695D01*
X164024612Y-60177695D02*
X164024612Y-60320552D01*
X164024612Y-60320552D02*
X164072231Y-60415790D01*
X164072231Y-60415790D02*
X164119850Y-60463409D01*
X164119850Y-60463409D02*
X164215088Y-60511028D01*
X164215088Y-60511028D02*
X164596040Y-60511028D01*
X172510326Y-106337219D02*
X172510326Y-105337219D01*
X172510326Y-105337219D02*
X172272231Y-105337219D01*
X172272231Y-105337219D02*
X172129374Y-105384838D01*
X172129374Y-105384838D02*
X172034136Y-105480076D01*
X172034136Y-105480076D02*
X171986517Y-105575314D01*
X171986517Y-105575314D02*
X171938898Y-105765790D01*
X171938898Y-105765790D02*
X171938898Y-105908647D01*
X171938898Y-105908647D02*
X171986517Y-106099123D01*
X171986517Y-106099123D02*
X172034136Y-106194361D01*
X172034136Y-106194361D02*
X172129374Y-106289600D01*
X172129374Y-106289600D02*
X172272231Y-106337219D01*
X172272231Y-106337219D02*
X172510326Y-106337219D01*
X171510326Y-105813409D02*
X171176993Y-105813409D01*
X171034136Y-106337219D02*
X171510326Y-106337219D01*
X171510326Y-106337219D02*
X171510326Y-105337219D01*
X171510326Y-105337219D02*
X171034136Y-105337219D01*
X170653183Y-106289600D02*
X170510326Y-106337219D01*
X170510326Y-106337219D02*
X170272231Y-106337219D01*
X170272231Y-106337219D02*
X170176993Y-106289600D01*
X170176993Y-106289600D02*
X170129374Y-106241980D01*
X170129374Y-106241980D02*
X170081755Y-106146742D01*
X170081755Y-106146742D02*
X170081755Y-106051504D01*
X170081755Y-106051504D02*
X170129374Y-105956266D01*
X170129374Y-105956266D02*
X170176993Y-105908647D01*
X170176993Y-105908647D02*
X170272231Y-105861028D01*
X170272231Y-105861028D02*
X170462707Y-105813409D01*
X170462707Y-105813409D02*
X170557945Y-105765790D01*
X170557945Y-105765790D02*
X170605564Y-105718171D01*
X170605564Y-105718171D02*
X170653183Y-105622933D01*
X170653183Y-105622933D02*
X170653183Y-105527695D01*
X170653183Y-105527695D02*
X170605564Y-105432457D01*
X170605564Y-105432457D02*
X170557945Y-105384838D01*
X170557945Y-105384838D02*
X170462707Y-105337219D01*
X170462707Y-105337219D02*
X170224612Y-105337219D01*
X170224612Y-105337219D02*
X170081755Y-105384838D01*
X169653183Y-106337219D02*
X169653183Y-105337219D01*
X169176993Y-106337219D02*
X169176993Y-105337219D01*
X169176993Y-105337219D02*
X168605565Y-106337219D01*
X168605565Y-106337219D02*
X168605565Y-105337219D01*
X167605565Y-105384838D02*
X167700803Y-105337219D01*
X167700803Y-105337219D02*
X167843660Y-105337219D01*
X167843660Y-105337219D02*
X167986517Y-105384838D01*
X167986517Y-105384838D02*
X168081755Y-105480076D01*
X168081755Y-105480076D02*
X168129374Y-105575314D01*
X168129374Y-105575314D02*
X168176993Y-105765790D01*
X168176993Y-105765790D02*
X168176993Y-105908647D01*
X168176993Y-105908647D02*
X168129374Y-106099123D01*
X168129374Y-106099123D02*
X168081755Y-106194361D01*
X168081755Y-106194361D02*
X167986517Y-106289600D01*
X167986517Y-106289600D02*
X167843660Y-106337219D01*
X167843660Y-106337219D02*
X167748422Y-106337219D01*
X167748422Y-106337219D02*
X167605565Y-106289600D01*
X167605565Y-106289600D02*
X167557946Y-106241980D01*
X167557946Y-106241980D02*
X167557946Y-105908647D01*
X167557946Y-105908647D02*
X167748422Y-105908647D01*
X167129374Y-105813409D02*
X166796041Y-105813409D01*
X166653184Y-106337219D02*
X167129374Y-106337219D01*
X167129374Y-106337219D02*
X167129374Y-105337219D01*
X167129374Y-105337219D02*
X166653184Y-105337219D01*
X166224612Y-106337219D02*
X166224612Y-105337219D01*
X166224612Y-105337219D02*
X165986517Y-105337219D01*
X165986517Y-105337219D02*
X165843660Y-105384838D01*
X165843660Y-105384838D02*
X165748422Y-105480076D01*
X165748422Y-105480076D02*
X165700803Y-105575314D01*
X165700803Y-105575314D02*
X165653184Y-105765790D01*
X165653184Y-105765790D02*
X165653184Y-105908647D01*
X165653184Y-105908647D02*
X165700803Y-106099123D01*
X165700803Y-106099123D02*
X165748422Y-106194361D01*
X165748422Y-106194361D02*
X165843660Y-106289600D01*
X165843660Y-106289600D02*
X165986517Y-106337219D01*
X165986517Y-106337219D02*
X166224612Y-106337219D01*
X164129374Y-105813409D02*
X163986517Y-105861028D01*
X163986517Y-105861028D02*
X163938898Y-105908647D01*
X163938898Y-105908647D02*
X163891279Y-106003885D01*
X163891279Y-106003885D02*
X163891279Y-106146742D01*
X163891279Y-106146742D02*
X163938898Y-106241980D01*
X163938898Y-106241980D02*
X163986517Y-106289600D01*
X163986517Y-106289600D02*
X164081755Y-106337219D01*
X164081755Y-106337219D02*
X164462707Y-106337219D01*
X164462707Y-106337219D02*
X164462707Y-105337219D01*
X164462707Y-105337219D02*
X164129374Y-105337219D01*
X164129374Y-105337219D02*
X164034136Y-105384838D01*
X164034136Y-105384838D02*
X163986517Y-105432457D01*
X163986517Y-105432457D02*
X163938898Y-105527695D01*
X163938898Y-105527695D02*
X163938898Y-105622933D01*
X163938898Y-105622933D02*
X163986517Y-105718171D01*
X163986517Y-105718171D02*
X164034136Y-105765790D01*
X164034136Y-105765790D02*
X164129374Y-105813409D01*
X164129374Y-105813409D02*
X164462707Y-105813409D01*
X163272231Y-105861028D02*
X163272231Y-106337219D01*
X163605564Y-105337219D02*
X163272231Y-105861028D01*
X163272231Y-105861028D02*
X162938898Y-105337219D01*
D11*
%TO.C,REF\u002A\u002A*%
X162125406Y-84784949D02*
X162151127Y-84800647D01*
X162177778Y-84822227D01*
X162177778Y-85469684D01*
X162151127Y-85491264D01*
X162119767Y-85508739D01*
X162083966Y-85509575D01*
X162052528Y-85489082D01*
X162048652Y-85484416D01*
X162043186Y-85474949D01*
X162038979Y-85461267D01*
X162035867Y-85440748D01*
X162033687Y-85410768D01*
X162032276Y-85368704D01*
X162031471Y-85311932D01*
X162031107Y-85237830D01*
X162031022Y-85143773D01*
X162031022Y-84822227D01*
X162057673Y-84800647D01*
X162081386Y-84785877D01*
X162104400Y-84779067D01*
X162125406Y-84784949D01*
G36*
X162125406Y-84784949D02*
G01*
X162151127Y-84800647D01*
X162177778Y-84822227D01*
X162177778Y-85469684D01*
X162151127Y-85491264D01*
X162119767Y-85508739D01*
X162083966Y-85509575D01*
X162052528Y-85489082D01*
X162048652Y-85484416D01*
X162043186Y-85474949D01*
X162038979Y-85461267D01*
X162035867Y-85440748D01*
X162033687Y-85410768D01*
X162032276Y-85368704D01*
X162031471Y-85311932D01*
X162031107Y-85237830D01*
X162031022Y-85143773D01*
X162031022Y-84822227D01*
X162057673Y-84800647D01*
X162081386Y-84785877D01*
X162104400Y-84779067D01*
X162125406Y-84784949D01*
G37*
X169256137Y-84783463D02*
X169290291Y-84806776D01*
X169318000Y-84834485D01*
X169318000Y-85147537D01*
X169317959Y-85231567D01*
X169317701Y-85305789D01*
X169317030Y-85362541D01*
X169315752Y-85404512D01*
X169313673Y-85434389D01*
X169310599Y-85454861D01*
X169306334Y-85468614D01*
X169300684Y-85478337D01*
X169293455Y-85486717D01*
X169261991Y-85508181D01*
X169226826Y-85509947D01*
X169193822Y-85490267D01*
X169188516Y-85484398D01*
X169183066Y-85475314D01*
X169178900Y-85461973D01*
X169175846Y-85441757D01*
X169173732Y-85412049D01*
X169172386Y-85370232D01*
X169171638Y-85313689D01*
X169171314Y-85239802D01*
X169171245Y-85145956D01*
X169171284Y-85070294D01*
X169171539Y-84992385D01*
X169172183Y-84932375D01*
X169173387Y-84887648D01*
X169175324Y-84855585D01*
X169178164Y-84833571D01*
X169182079Y-84818987D01*
X169187242Y-84809218D01*
X169193822Y-84801645D01*
X169223006Y-84782623D01*
X169256137Y-84783463D01*
G36*
X169256137Y-84783463D02*
G01*
X169290291Y-84806776D01*
X169318000Y-84834485D01*
X169318000Y-85147537D01*
X169317959Y-85231567D01*
X169317701Y-85305789D01*
X169317030Y-85362541D01*
X169315752Y-85404512D01*
X169313673Y-85434389D01*
X169310599Y-85454861D01*
X169306334Y-85468614D01*
X169300684Y-85478337D01*
X169293455Y-85486717D01*
X169261991Y-85508181D01*
X169226826Y-85509947D01*
X169193822Y-85490267D01*
X169188516Y-85484398D01*
X169183066Y-85475314D01*
X169178900Y-85461973D01*
X169175846Y-85441757D01*
X169173732Y-85412049D01*
X169172386Y-85370232D01*
X169171638Y-85313689D01*
X169171314Y-85239802D01*
X169171245Y-85145956D01*
X169171284Y-85070294D01*
X169171539Y-84992385D01*
X169172183Y-84932375D01*
X169173387Y-84887648D01*
X169175324Y-84855585D01*
X169178164Y-84833571D01*
X169182079Y-84818987D01*
X169187242Y-84809218D01*
X169193822Y-84801645D01*
X169223006Y-84782623D01*
X169256137Y-84783463D01*
G37*
X168724562Y-79542850D02*
X168807313Y-79570053D01*
X168882406Y-79615484D01*
X168954298Y-79681302D01*
X168992846Y-79725567D01*
X169032256Y-79783961D01*
X169057446Y-79844586D01*
X169070861Y-79913865D01*
X169074948Y-79998222D01*
X169074669Y-80044307D01*
X169072460Y-80085450D01*
X169066894Y-80117582D01*
X169056586Y-80148122D01*
X169040148Y-80184489D01*
X169026200Y-80211728D01*
X168967665Y-80297429D01*
X168895619Y-80366617D01*
X168811947Y-80417741D01*
X168718531Y-80449250D01*
X168685434Y-80456225D01*
X168644960Y-80463094D01*
X168611999Y-80464919D01*
X168577698Y-80461947D01*
X168533200Y-80454426D01*
X168481934Y-80442002D01*
X168391434Y-80404112D01*
X168312345Y-80349836D01*
X168246528Y-80281770D01*
X168195840Y-80202511D01*
X168162140Y-80114654D01*
X168147286Y-80020795D01*
X168153136Y-79923530D01*
X168179399Y-79827220D01*
X168224418Y-79738494D01*
X168285373Y-79663419D01*
X168360184Y-79603641D01*
X168446768Y-79560809D01*
X168543043Y-79536571D01*
X168646928Y-79532576D01*
X168724562Y-79542850D01*
G36*
X168724562Y-79542850D02*
G01*
X168807313Y-79570053D01*
X168882406Y-79615484D01*
X168954298Y-79681302D01*
X168992846Y-79725567D01*
X169032256Y-79783961D01*
X169057446Y-79844586D01*
X169070861Y-79913865D01*
X169074948Y-79998222D01*
X169074669Y-80044307D01*
X169072460Y-80085450D01*
X169066894Y-80117582D01*
X169056586Y-80148122D01*
X169040148Y-80184489D01*
X169026200Y-80211728D01*
X168967665Y-80297429D01*
X168895619Y-80366617D01*
X168811947Y-80417741D01*
X168718531Y-80449250D01*
X168685434Y-80456225D01*
X168644960Y-80463094D01*
X168611999Y-80464919D01*
X168577698Y-80461947D01*
X168533200Y-80454426D01*
X168481934Y-80442002D01*
X168391434Y-80404112D01*
X168312345Y-80349836D01*
X168246528Y-80281770D01*
X168195840Y-80202511D01*
X168162140Y-80114654D01*
X168147286Y-80020795D01*
X168153136Y-79923530D01*
X168179399Y-79827220D01*
X168224418Y-79738494D01*
X168285373Y-79663419D01*
X168360184Y-79603641D01*
X168446768Y-79560809D01*
X168543043Y-79536571D01*
X168646928Y-79532576D01*
X168724562Y-79542850D01*
G37*
X161425767Y-84779068D02*
X161519890Y-84779158D01*
X161594405Y-84779498D01*
X161651811Y-84780239D01*
X161694611Y-84781535D01*
X161725304Y-84783537D01*
X161746391Y-84786396D01*
X161760373Y-84790266D01*
X161769750Y-84795298D01*
X161777022Y-84801645D01*
X161795828Y-84834362D01*
X161797275Y-84871939D01*
X161780917Y-84905178D01*
X161779557Y-84906631D01*
X161768354Y-84914992D01*
X161751252Y-84920547D01*
X161724082Y-84923840D01*
X161682678Y-84925418D01*
X161622873Y-84925822D01*
X161483511Y-84925822D01*
X161483511Y-85189589D01*
X161483436Y-85265417D01*
X161483028Y-85332083D01*
X161482046Y-85381867D01*
X161480250Y-85417784D01*
X161477399Y-85442850D01*
X161473253Y-85460081D01*
X161467571Y-85472492D01*
X161460114Y-85483100D01*
X161457824Y-85485906D01*
X161426646Y-85508548D01*
X161392266Y-85510112D01*
X161359334Y-85490267D01*
X161352355Y-85482191D01*
X161346883Y-85471593D01*
X161342863Y-85455749D01*
X161340072Y-85431773D01*
X161338288Y-85396774D01*
X161337289Y-85347864D01*
X161336852Y-85282154D01*
X161336756Y-85196756D01*
X161336756Y-84925822D01*
X161190820Y-84925822D01*
X161179720Y-84925821D01*
X161123202Y-84925596D01*
X161084358Y-84924457D01*
X161058965Y-84921657D01*
X161042804Y-84916450D01*
X161031652Y-84908089D01*
X161021289Y-84895826D01*
X161005441Y-84865138D01*
X161008543Y-84831358D01*
X161034187Y-84798822D01*
X161039129Y-84795105D01*
X161049338Y-84790269D01*
X161064764Y-84786506D01*
X161087886Y-84783683D01*
X161121183Y-84781670D01*
X161167137Y-84780333D01*
X161228228Y-84779542D01*
X161306935Y-84779163D01*
X161405740Y-84779067D01*
X161425767Y-84779068D01*
G36*
X161425767Y-84779068D02*
G01*
X161519890Y-84779158D01*
X161594405Y-84779498D01*
X161651811Y-84780239D01*
X161694611Y-84781535D01*
X161725304Y-84783537D01*
X161746391Y-84786396D01*
X161760373Y-84790266D01*
X161769750Y-84795298D01*
X161777022Y-84801645D01*
X161795828Y-84834362D01*
X161797275Y-84871939D01*
X161780917Y-84905178D01*
X161779557Y-84906631D01*
X161768354Y-84914992D01*
X161751252Y-84920547D01*
X161724082Y-84923840D01*
X161682678Y-84925418D01*
X161622873Y-84925822D01*
X161483511Y-84925822D01*
X161483511Y-85189589D01*
X161483436Y-85265417D01*
X161483028Y-85332083D01*
X161482046Y-85381867D01*
X161480250Y-85417784D01*
X161477399Y-85442850D01*
X161473253Y-85460081D01*
X161467571Y-85472492D01*
X161460114Y-85483100D01*
X161457824Y-85485906D01*
X161426646Y-85508548D01*
X161392266Y-85510112D01*
X161359334Y-85490267D01*
X161352355Y-85482191D01*
X161346883Y-85471593D01*
X161342863Y-85455749D01*
X161340072Y-85431773D01*
X161338288Y-85396774D01*
X161337289Y-85347864D01*
X161336852Y-85282154D01*
X161336756Y-85196756D01*
X161336756Y-84925822D01*
X161190820Y-84925822D01*
X161179720Y-84925821D01*
X161123202Y-84925596D01*
X161084358Y-84924457D01*
X161058965Y-84921657D01*
X161042804Y-84916450D01*
X161031652Y-84908089D01*
X161021289Y-84895826D01*
X161005441Y-84865138D01*
X161008543Y-84831358D01*
X161034187Y-84798822D01*
X161039129Y-84795105D01*
X161049338Y-84790269D01*
X161064764Y-84786506D01*
X161087886Y-84783683D01*
X161121183Y-84781670D01*
X161167137Y-84780333D01*
X161228228Y-84779542D01*
X161306935Y-84779163D01*
X161405740Y-84779067D01*
X161425767Y-84779068D01*
G37*
X160749734Y-84801645D02*
X160755366Y-84807835D01*
X160760456Y-84816041D01*
X160764543Y-84827817D01*
X160767721Y-84845276D01*
X160770087Y-84870530D01*
X160771738Y-84905690D01*
X160772769Y-84952869D01*
X160773277Y-85014177D01*
X160773359Y-85091727D01*
X160773109Y-85187631D01*
X160772625Y-85304000D01*
X160772557Y-85318175D01*
X160771971Y-85379937D01*
X160770648Y-85423620D01*
X160768103Y-85453001D01*
X160763848Y-85471855D01*
X160757396Y-85483959D01*
X160748262Y-85493089D01*
X160714804Y-85510506D01*
X160679856Y-85507604D01*
X160648953Y-85483100D01*
X160639944Y-85469897D01*
X160632492Y-85451361D01*
X160628124Y-85425333D01*
X160626069Y-85386787D01*
X160625556Y-85330700D01*
X160625556Y-85208045D01*
X160128845Y-85208045D01*
X160128845Y-85342871D01*
X160128772Y-85378662D01*
X160128009Y-85424992D01*
X160125833Y-85455526D01*
X160121536Y-85474557D01*
X160114412Y-85486374D01*
X160103755Y-85495271D01*
X160071504Y-85510341D01*
X160036217Y-85507673D01*
X160005486Y-85483100D01*
X160000831Y-85476845D01*
X159994895Y-85466321D01*
X159990364Y-85452391D01*
X159987048Y-85432317D01*
X159984759Y-85403360D01*
X159983308Y-85362780D01*
X159982505Y-85307840D01*
X159982162Y-85235799D01*
X159982089Y-85143920D01*
X159982089Y-84834485D01*
X160009798Y-84806776D01*
X160041177Y-84784533D01*
X160074406Y-84781844D01*
X160106267Y-84801645D01*
X160114553Y-84811415D01*
X160121965Y-84827307D01*
X160126302Y-84851275D01*
X160128338Y-84888148D01*
X160128845Y-84942756D01*
X160128845Y-85061289D01*
X160625556Y-85061289D01*
X160625556Y-84945776D01*
X160625994Y-84894078D01*
X160627958Y-84859554D01*
X160632474Y-84836978D01*
X160640567Y-84821126D01*
X160653265Y-84806776D01*
X160684643Y-84784533D01*
X160717872Y-84781844D01*
X160749734Y-84801645D01*
G36*
X160749734Y-84801645D02*
G01*
X160755366Y-84807835D01*
X160760456Y-84816041D01*
X160764543Y-84827817D01*
X160767721Y-84845276D01*
X160770087Y-84870530D01*
X160771738Y-84905690D01*
X160772769Y-84952869D01*
X160773277Y-85014177D01*
X160773359Y-85091727D01*
X160773109Y-85187631D01*
X160772625Y-85304000D01*
X160772557Y-85318175D01*
X160771971Y-85379937D01*
X160770648Y-85423620D01*
X160768103Y-85453001D01*
X160763848Y-85471855D01*
X160757396Y-85483959D01*
X160748262Y-85493089D01*
X160714804Y-85510506D01*
X160679856Y-85507604D01*
X160648953Y-85483100D01*
X160639944Y-85469897D01*
X160632492Y-85451361D01*
X160628124Y-85425333D01*
X160626069Y-85386787D01*
X160625556Y-85330700D01*
X160625556Y-85208045D01*
X160128845Y-85208045D01*
X160128845Y-85342871D01*
X160128772Y-85378662D01*
X160128009Y-85424992D01*
X160125833Y-85455526D01*
X160121536Y-85474557D01*
X160114412Y-85486374D01*
X160103755Y-85495271D01*
X160071504Y-85510341D01*
X160036217Y-85507673D01*
X160005486Y-85483100D01*
X160000831Y-85476845D01*
X159994895Y-85466321D01*
X159990364Y-85452391D01*
X159987048Y-85432317D01*
X159984759Y-85403360D01*
X159983308Y-85362780D01*
X159982505Y-85307840D01*
X159982162Y-85235799D01*
X159982089Y-85143920D01*
X159982089Y-84834485D01*
X160009798Y-84806776D01*
X160041177Y-84784533D01*
X160074406Y-84781844D01*
X160106267Y-84801645D01*
X160114553Y-84811415D01*
X160121965Y-84827307D01*
X160126302Y-84851275D01*
X160128338Y-84888148D01*
X160128845Y-84942756D01*
X160128845Y-85061289D01*
X160625556Y-85061289D01*
X160625556Y-84945776D01*
X160625994Y-84894078D01*
X160627958Y-84859554D01*
X160632474Y-84836978D01*
X160640567Y-84821126D01*
X160653265Y-84806776D01*
X160684643Y-84784533D01*
X160717872Y-84781844D01*
X160749734Y-84801645D01*
G37*
X165455133Y-85390396D02*
X165453163Y-85423175D01*
X165450235Y-85446095D01*
X165446158Y-85461897D01*
X165440743Y-85473319D01*
X165433803Y-85483100D01*
X165410406Y-85512845D01*
X165244714Y-85512251D01*
X165209918Y-85511953D01*
X165111435Y-85508522D01*
X165030473Y-85500839D01*
X164963379Y-85488282D01*
X164906496Y-85470227D01*
X164856169Y-85446052D01*
X164852810Y-85444135D01*
X164794998Y-85407417D01*
X164752644Y-85370451D01*
X164719828Y-85326966D01*
X164690628Y-85270689D01*
X164686346Y-85261073D01*
X164663769Y-85197887D01*
X164658034Y-85152333D01*
X164807279Y-85152333D01*
X164812892Y-85177061D01*
X164818618Y-85192939D01*
X164851548Y-85252847D01*
X164898886Y-85298600D01*
X164962652Y-85331736D01*
X165044861Y-85353790D01*
X165047655Y-85354292D01*
X165093940Y-85360255D01*
X165150336Y-85364483D01*
X165205274Y-85366089D01*
X165299156Y-85366089D01*
X165299156Y-84925822D01*
X165211667Y-84926270D01*
X165144747Y-84928746D01*
X165052349Y-84939998D01*
X164973034Y-84959537D01*
X164911060Y-84986511D01*
X164880120Y-85007240D01*
X164852000Y-85037006D01*
X164828660Y-85079434D01*
X164821533Y-85095400D01*
X164809709Y-85127902D01*
X164807279Y-85152333D01*
X164658034Y-85152333D01*
X164656797Y-85142509D01*
X164665399Y-85087483D01*
X164689541Y-85025351D01*
X164690337Y-85023658D01*
X164730788Y-84954236D01*
X164781473Y-84897638D01*
X164844198Y-84853070D01*
X164920774Y-84819741D01*
X165013009Y-84796861D01*
X165122712Y-84783636D01*
X165251691Y-84779275D01*
X165255263Y-84779270D01*
X165315283Y-84779410D01*
X165357214Y-84780446D01*
X165385328Y-84783040D01*
X165403897Y-84787853D01*
X165417194Y-84795544D01*
X165429491Y-84806776D01*
X165457200Y-84834485D01*
X165457200Y-85143920D01*
X165457175Y-85205526D01*
X165456950Y-85284311D01*
X165456332Y-85345021D01*
X165455775Y-85366089D01*
X165455133Y-85390396D01*
G36*
X165455133Y-85390396D02*
G01*
X165453163Y-85423175D01*
X165450235Y-85446095D01*
X165446158Y-85461897D01*
X165440743Y-85473319D01*
X165433803Y-85483100D01*
X165410406Y-85512845D01*
X165244714Y-85512251D01*
X165209918Y-85511953D01*
X165111435Y-85508522D01*
X165030473Y-85500839D01*
X164963379Y-85488282D01*
X164906496Y-85470227D01*
X164856169Y-85446052D01*
X164852810Y-85444135D01*
X164794998Y-85407417D01*
X164752644Y-85370451D01*
X164719828Y-85326966D01*
X164690628Y-85270689D01*
X164686346Y-85261073D01*
X164663769Y-85197887D01*
X164658034Y-85152333D01*
X164807279Y-85152333D01*
X164812892Y-85177061D01*
X164818618Y-85192939D01*
X164851548Y-85252847D01*
X164898886Y-85298600D01*
X164962652Y-85331736D01*
X165044861Y-85353790D01*
X165047655Y-85354292D01*
X165093940Y-85360255D01*
X165150336Y-85364483D01*
X165205274Y-85366089D01*
X165299156Y-85366089D01*
X165299156Y-84925822D01*
X165211667Y-84926270D01*
X165144747Y-84928746D01*
X165052349Y-84939998D01*
X164973034Y-84959537D01*
X164911060Y-84986511D01*
X164880120Y-85007240D01*
X164852000Y-85037006D01*
X164828660Y-85079434D01*
X164821533Y-85095400D01*
X164809709Y-85127902D01*
X164807279Y-85152333D01*
X164658034Y-85152333D01*
X164656797Y-85142509D01*
X164665399Y-85087483D01*
X164689541Y-85025351D01*
X164690337Y-85023658D01*
X164730788Y-84954236D01*
X164781473Y-84897638D01*
X164844198Y-84853070D01*
X164920774Y-84819741D01*
X165013009Y-84796861D01*
X165122712Y-84783636D01*
X165251691Y-84779275D01*
X165255263Y-84779270D01*
X165315283Y-84779410D01*
X165357214Y-84780446D01*
X165385328Y-84783040D01*
X165403897Y-84787853D01*
X165417194Y-84795544D01*
X165429491Y-84806776D01*
X165457200Y-84834485D01*
X165457200Y-85143920D01*
X165457175Y-85205526D01*
X165456950Y-85284311D01*
X165456332Y-85345021D01*
X165455775Y-85366089D01*
X165455133Y-85390396D01*
G37*
X172546817Y-84964427D02*
X172546870Y-85045041D01*
X172546622Y-85145956D01*
X172546583Y-85221617D01*
X172546328Y-85299526D01*
X172545684Y-85359536D01*
X172544480Y-85404264D01*
X172542543Y-85436326D01*
X172539703Y-85458340D01*
X172535788Y-85472924D01*
X172530626Y-85482694D01*
X172524045Y-85490267D01*
X172517077Y-85496501D01*
X172504079Y-85503801D01*
X172484931Y-85508554D01*
X172455528Y-85511292D01*
X172411762Y-85512545D01*
X172349528Y-85512845D01*
X172300582Y-85512469D01*
X172193722Y-85508041D01*
X172104494Y-85497953D01*
X172029696Y-85481365D01*
X171966125Y-85457435D01*
X171910579Y-85425321D01*
X171859854Y-85384182D01*
X171853866Y-85378330D01*
X171816999Y-85329821D01*
X171785899Y-85269013D01*
X171764417Y-85204769D01*
X171759136Y-85166026D01*
X171906353Y-85166026D01*
X171924635Y-85216961D01*
X171954305Y-85262878D01*
X172001002Y-85305287D01*
X172062392Y-85335090D01*
X172141538Y-85354226D01*
X172143028Y-85354464D01*
X172191999Y-85360256D01*
X172250693Y-85364396D01*
X172306734Y-85366004D01*
X172399867Y-85366089D01*
X172399867Y-84925822D01*
X172323667Y-84925808D01*
X172320639Y-84925817D01*
X172269519Y-84927782D01*
X172209416Y-84932507D01*
X172152708Y-84939035D01*
X172102750Y-84948331D01*
X172027998Y-84974600D01*
X171970489Y-85013899D01*
X171928988Y-85066933D01*
X171907771Y-85118200D01*
X171906353Y-85166026D01*
X171759136Y-85166026D01*
X171756400Y-85145956D01*
X171757679Y-85124739D01*
X171769991Y-85067323D01*
X171792520Y-85007413D01*
X171821750Y-84953363D01*
X171854167Y-84913532D01*
X171873708Y-84896510D01*
X171928420Y-84857322D01*
X171988723Y-84827193D01*
X172057919Y-84805232D01*
X172139311Y-84790550D01*
X172236200Y-84782259D01*
X172351889Y-84779467D01*
X172391371Y-84779066D01*
X172437082Y-84778653D01*
X172472883Y-84780457D01*
X172499974Y-84786739D01*
X172519556Y-84799759D01*
X172532830Y-84821778D01*
X172540998Y-84855055D01*
X172545260Y-84901851D01*
X172545857Y-84925822D01*
X172546817Y-84964427D01*
G36*
X172546817Y-84964427D02*
G01*
X172546870Y-85045041D01*
X172546622Y-85145956D01*
X172546583Y-85221617D01*
X172546328Y-85299526D01*
X172545684Y-85359536D01*
X172544480Y-85404264D01*
X172542543Y-85436326D01*
X172539703Y-85458340D01*
X172535788Y-85472924D01*
X172530626Y-85482694D01*
X172524045Y-85490267D01*
X172517077Y-85496501D01*
X172504079Y-85503801D01*
X172484931Y-85508554D01*
X172455528Y-85511292D01*
X172411762Y-85512545D01*
X172349528Y-85512845D01*
X172300582Y-85512469D01*
X172193722Y-85508041D01*
X172104494Y-85497953D01*
X172029696Y-85481365D01*
X171966125Y-85457435D01*
X171910579Y-85425321D01*
X171859854Y-85384182D01*
X171853866Y-85378330D01*
X171816999Y-85329821D01*
X171785899Y-85269013D01*
X171764417Y-85204769D01*
X171759136Y-85166026D01*
X171906353Y-85166026D01*
X171924635Y-85216961D01*
X171954305Y-85262878D01*
X172001002Y-85305287D01*
X172062392Y-85335090D01*
X172141538Y-85354226D01*
X172143028Y-85354464D01*
X172191999Y-85360256D01*
X172250693Y-85364396D01*
X172306734Y-85366004D01*
X172399867Y-85366089D01*
X172399867Y-84925822D01*
X172323667Y-84925808D01*
X172320639Y-84925817D01*
X172269519Y-84927782D01*
X172209416Y-84932507D01*
X172152708Y-84939035D01*
X172102750Y-84948331D01*
X172027998Y-84974600D01*
X171970489Y-85013899D01*
X171928988Y-85066933D01*
X171907771Y-85118200D01*
X171906353Y-85166026D01*
X171759136Y-85166026D01*
X171756400Y-85145956D01*
X171757679Y-85124739D01*
X171769991Y-85067323D01*
X171792520Y-85007413D01*
X171821750Y-84953363D01*
X171854167Y-84913532D01*
X171873708Y-84896510D01*
X171928420Y-84857322D01*
X171988723Y-84827193D01*
X172057919Y-84805232D01*
X172139311Y-84790550D01*
X172236200Y-84782259D01*
X172351889Y-84779467D01*
X172391371Y-84779066D01*
X172437082Y-84778653D01*
X172472883Y-84780457D01*
X172499974Y-84786739D01*
X172519556Y-84799759D01*
X172532830Y-84821778D01*
X172540998Y-84855055D01*
X172545260Y-84901851D01*
X172545857Y-84925822D01*
X172546817Y-84964427D01*
G37*
X167601893Y-84777892D02*
X167613301Y-84784029D01*
X167623850Y-84794691D01*
X167635136Y-84808811D01*
X167639589Y-84814772D01*
X167645588Y-84825268D01*
X167650167Y-84839093D01*
X167653519Y-84858998D01*
X167655833Y-84887732D01*
X167657301Y-84928045D01*
X167658113Y-84982687D01*
X167658460Y-85054407D01*
X167658534Y-85145956D01*
X167658511Y-85204486D01*
X167658292Y-85283573D01*
X167657683Y-85344516D01*
X167656492Y-85390062D01*
X167654529Y-85422963D01*
X167651603Y-85445968D01*
X167647523Y-85461826D01*
X167642097Y-85473286D01*
X167635136Y-85483100D01*
X167604708Y-85507493D01*
X167569765Y-85510372D01*
X167532784Y-85491282D01*
X167528600Y-85487807D01*
X167520424Y-85479279D01*
X167514364Y-85467728D01*
X167509981Y-85449896D01*
X167506839Y-85422524D01*
X167504502Y-85382354D01*
X167502531Y-85326128D01*
X167500489Y-85250589D01*
X167494845Y-85031458D01*
X167229556Y-85272099D01*
X167155722Y-85338875D01*
X167090542Y-85396991D01*
X167038348Y-85441949D01*
X166997273Y-85474871D01*
X166965455Y-85496879D01*
X166941026Y-85509094D01*
X166922124Y-85512639D01*
X166906883Y-85508636D01*
X166893439Y-85498207D01*
X166879927Y-85482474D01*
X166873682Y-85473991D01*
X166868050Y-85463413D01*
X166863839Y-85449255D01*
X166860887Y-85428803D01*
X166859032Y-85399342D01*
X166858113Y-85358161D01*
X166857968Y-85302544D01*
X166858435Y-85229779D01*
X166859352Y-85137151D01*
X166862667Y-84822199D01*
X166889318Y-84800633D01*
X166915383Y-84784441D01*
X166948241Y-84781670D01*
X166982772Y-84800623D01*
X166987084Y-84804208D01*
X166995216Y-84812737D01*
X167001245Y-84824329D01*
X167005606Y-84842235D01*
X167008734Y-84869706D01*
X167011063Y-84909994D01*
X167013029Y-84966351D01*
X167015067Y-85042029D01*
X167020711Y-85261878D01*
X167201334Y-85098084D01*
X167288072Y-85019451D01*
X167363843Y-84951058D01*
X167425980Y-84895708D01*
X167476078Y-84852338D01*
X167515735Y-84819881D01*
X167546548Y-84797273D01*
X167570114Y-84783448D01*
X167588030Y-84777343D01*
X167601893Y-84777892D01*
G36*
X167601893Y-84777892D02*
G01*
X167613301Y-84784029D01*
X167623850Y-84794691D01*
X167635136Y-84808811D01*
X167639589Y-84814772D01*
X167645588Y-84825268D01*
X167650167Y-84839093D01*
X167653519Y-84858998D01*
X167655833Y-84887732D01*
X167657301Y-84928045D01*
X167658113Y-84982687D01*
X167658460Y-85054407D01*
X167658534Y-85145956D01*
X167658511Y-85204486D01*
X167658292Y-85283573D01*
X167657683Y-85344516D01*
X167656492Y-85390062D01*
X167654529Y-85422963D01*
X167651603Y-85445968D01*
X167647523Y-85461826D01*
X167642097Y-85473286D01*
X167635136Y-85483100D01*
X167604708Y-85507493D01*
X167569765Y-85510372D01*
X167532784Y-85491282D01*
X167528600Y-85487807D01*
X167520424Y-85479279D01*
X167514364Y-85467728D01*
X167509981Y-85449896D01*
X167506839Y-85422524D01*
X167504502Y-85382354D01*
X167502531Y-85326128D01*
X167500489Y-85250589D01*
X167494845Y-85031458D01*
X167229556Y-85272099D01*
X167155722Y-85338875D01*
X167090542Y-85396991D01*
X167038348Y-85441949D01*
X166997273Y-85474871D01*
X166965455Y-85496879D01*
X166941026Y-85509094D01*
X166922124Y-85512639D01*
X166906883Y-85508636D01*
X166893439Y-85498207D01*
X166879927Y-85482474D01*
X166873682Y-85473991D01*
X166868050Y-85463413D01*
X166863839Y-85449255D01*
X166860887Y-85428803D01*
X166859032Y-85399342D01*
X166858113Y-85358161D01*
X166857968Y-85302544D01*
X166858435Y-85229779D01*
X166859352Y-85137151D01*
X166862667Y-84822199D01*
X166889318Y-84800633D01*
X166915383Y-84784441D01*
X166948241Y-84781670D01*
X166982772Y-84800623D01*
X166987084Y-84804208D01*
X166995216Y-84812737D01*
X167001245Y-84824329D01*
X167005606Y-84842235D01*
X167008734Y-84869706D01*
X167011063Y-84909994D01*
X167013029Y-84966351D01*
X167015067Y-85042029D01*
X167020711Y-85261878D01*
X167201334Y-85098084D01*
X167288072Y-85019451D01*
X167363843Y-84951058D01*
X167425980Y-84895708D01*
X167476078Y-84852338D01*
X167515735Y-84819881D01*
X167546548Y-84797273D01*
X167570114Y-84783448D01*
X167588030Y-84777343D01*
X167601893Y-84777892D01*
G37*
X168399150Y-84784179D02*
X168505157Y-84800494D01*
X168598969Y-84828545D01*
X168677765Y-84867452D01*
X168738719Y-84916334D01*
X168764789Y-84949195D01*
X168794297Y-84998394D01*
X168819568Y-85052252D01*
X168837218Y-85103419D01*
X168843858Y-85144544D01*
X168842298Y-85164259D01*
X168829357Y-85215592D01*
X168806194Y-85272118D01*
X168776302Y-85326035D01*
X168743173Y-85369539D01*
X168732977Y-85379887D01*
X168665892Y-85431662D01*
X168585766Y-85471554D01*
X168499556Y-85495956D01*
X168444592Y-85504068D01*
X168351139Y-85510673D01*
X168261358Y-85508586D01*
X168178869Y-85498340D01*
X168107286Y-85480470D01*
X168050228Y-85455508D01*
X168011311Y-85423988D01*
X168009936Y-85422012D01*
X168002848Y-85396786D01*
X167998609Y-85349535D01*
X167997200Y-85280071D01*
X167998060Y-85217838D01*
X168002780Y-85170456D01*
X168014470Y-85138353D01*
X168036239Y-85118800D01*
X168071198Y-85109070D01*
X168122456Y-85106433D01*
X168193123Y-85108161D01*
X168241743Y-85111173D01*
X168291939Y-85119366D01*
X168324433Y-85133419D01*
X168341892Y-85154654D01*
X168346983Y-85184394D01*
X168346877Y-85188936D01*
X168338175Y-85223730D01*
X168314165Y-85247147D01*
X168272900Y-85260347D01*
X168212431Y-85264489D01*
X168143956Y-85264489D01*
X168143956Y-85302841D01*
X168144006Y-85311976D01*
X168146227Y-85329227D01*
X168155494Y-85339521D01*
X168176875Y-85346459D01*
X168215436Y-85353641D01*
X168220910Y-85354575D01*
X168317860Y-85364478D01*
X168407852Y-85361559D01*
X168488760Y-85346829D01*
X168558459Y-85321299D01*
X168614824Y-85285978D01*
X168655729Y-85241879D01*
X168679051Y-85190012D01*
X168682663Y-85131388D01*
X168677145Y-85102494D01*
X168650461Y-85046604D01*
X168604273Y-85000945D01*
X168539291Y-84966108D01*
X168456229Y-84942690D01*
X168431555Y-84938241D01*
X168342226Y-84927742D01*
X168262419Y-84928971D01*
X168184326Y-84941906D01*
X168149183Y-84948696D01*
X168103745Y-84949713D01*
X168072430Y-84937182D01*
X168052277Y-84910395D01*
X168045893Y-84882148D01*
X168055379Y-84850924D01*
X168064708Y-84837499D01*
X168098943Y-84813967D01*
X168151565Y-84796095D01*
X168220081Y-84784599D01*
X168302000Y-84780192D01*
X168399150Y-84784179D01*
G36*
X168399150Y-84784179D02*
G01*
X168505157Y-84800494D01*
X168598969Y-84828545D01*
X168677765Y-84867452D01*
X168738719Y-84916334D01*
X168764789Y-84949195D01*
X168794297Y-84998394D01*
X168819568Y-85052252D01*
X168837218Y-85103419D01*
X168843858Y-85144544D01*
X168842298Y-85164259D01*
X168829357Y-85215592D01*
X168806194Y-85272118D01*
X168776302Y-85326035D01*
X168743173Y-85369539D01*
X168732977Y-85379887D01*
X168665892Y-85431662D01*
X168585766Y-85471554D01*
X168499556Y-85495956D01*
X168444592Y-85504068D01*
X168351139Y-85510673D01*
X168261358Y-85508586D01*
X168178869Y-85498340D01*
X168107286Y-85480470D01*
X168050228Y-85455508D01*
X168011311Y-85423988D01*
X168009936Y-85422012D01*
X168002848Y-85396786D01*
X167998609Y-85349535D01*
X167997200Y-85280071D01*
X167998060Y-85217838D01*
X168002780Y-85170456D01*
X168014470Y-85138353D01*
X168036239Y-85118800D01*
X168071198Y-85109070D01*
X168122456Y-85106433D01*
X168193123Y-85108161D01*
X168241743Y-85111173D01*
X168291939Y-85119366D01*
X168324433Y-85133419D01*
X168341892Y-85154654D01*
X168346983Y-85184394D01*
X168346877Y-85188936D01*
X168338175Y-85223730D01*
X168314165Y-85247147D01*
X168272900Y-85260347D01*
X168212431Y-85264489D01*
X168143956Y-85264489D01*
X168143956Y-85302841D01*
X168144006Y-85311976D01*
X168146227Y-85329227D01*
X168155494Y-85339521D01*
X168176875Y-85346459D01*
X168215436Y-85353641D01*
X168220910Y-85354575D01*
X168317860Y-85364478D01*
X168407852Y-85361559D01*
X168488760Y-85346829D01*
X168558459Y-85321299D01*
X168614824Y-85285978D01*
X168655729Y-85241879D01*
X168679051Y-85190012D01*
X168682663Y-85131388D01*
X168677145Y-85102494D01*
X168650461Y-85046604D01*
X168604273Y-85000945D01*
X168539291Y-84966108D01*
X168456229Y-84942690D01*
X168431555Y-84938241D01*
X168342226Y-84927742D01*
X168262419Y-84928971D01*
X168184326Y-84941906D01*
X168149183Y-84948696D01*
X168103745Y-84949713D01*
X168072430Y-84937182D01*
X168052277Y-84910395D01*
X168045893Y-84882148D01*
X168055379Y-84850924D01*
X168064708Y-84837499D01*
X168098943Y-84813967D01*
X168151565Y-84796095D01*
X168220081Y-84784599D01*
X168302000Y-84780192D01*
X168399150Y-84784179D01*
G37*
X166449803Y-84808811D02*
X166454752Y-84815495D01*
X166460596Y-84826066D01*
X166465057Y-84840153D01*
X166468321Y-84860478D01*
X166470574Y-84889765D01*
X166472002Y-84930737D01*
X166472792Y-84986117D01*
X166473129Y-85058628D01*
X166473200Y-85150994D01*
X166473171Y-85216911D01*
X166472939Y-85295228D01*
X166472319Y-85355496D01*
X166471126Y-85400393D01*
X166469179Y-85432602D01*
X166466294Y-85454800D01*
X166462288Y-85469669D01*
X166456979Y-85479889D01*
X166450183Y-85488138D01*
X166445668Y-85492795D01*
X166437438Y-85499282D01*
X166426078Y-85504194D01*
X166408810Y-85507749D01*
X166382855Y-85510167D01*
X166345436Y-85511667D01*
X166293773Y-85512467D01*
X166225089Y-85512787D01*
X166136606Y-85512845D01*
X166116931Y-85512838D01*
X166029906Y-85512572D01*
X165962254Y-85511806D01*
X165911299Y-85510392D01*
X165874367Y-85508180D01*
X165848783Y-85505022D01*
X165831871Y-85500769D01*
X165820957Y-85495271D01*
X165810464Y-85485285D01*
X165797203Y-85454168D01*
X165798386Y-85418280D01*
X165814550Y-85386733D01*
X165816739Y-85384457D01*
X165825427Y-85378189D01*
X165838769Y-85373523D01*
X165859752Y-85370227D01*
X165891363Y-85368068D01*
X165936590Y-85366814D01*
X165998420Y-85366231D01*
X166079839Y-85366089D01*
X166326445Y-85366089D01*
X166326445Y-85208045D01*
X166164006Y-85208045D01*
X166128338Y-85207964D01*
X166072568Y-85207167D01*
X166033430Y-85205162D01*
X166006976Y-85201521D01*
X165989259Y-85195812D01*
X165976329Y-85187607D01*
X165972686Y-85184423D01*
X165954278Y-85153448D01*
X165953644Y-85117112D01*
X165971183Y-85083493D01*
X165971245Y-85083424D01*
X165980916Y-85074798D01*
X165994209Y-85068742D01*
X166014917Y-85064811D01*
X166046828Y-85062556D01*
X166093734Y-85061531D01*
X166159424Y-85061289D01*
X166327571Y-85061289D01*
X166324186Y-84996378D01*
X166320800Y-84931467D01*
X166078723Y-84928414D01*
X166053707Y-84928086D01*
X165972087Y-84926606D01*
X165909768Y-84924222D01*
X165864154Y-84920227D01*
X165832652Y-84913913D01*
X165812667Y-84904574D01*
X165801604Y-84891503D01*
X165796869Y-84873992D01*
X165795867Y-84851335D01*
X165795873Y-84848970D01*
X165797027Y-84828939D01*
X165801824Y-84813146D01*
X165812632Y-84801090D01*
X165831817Y-84792267D01*
X165861745Y-84786175D01*
X165904783Y-84782311D01*
X165963299Y-84780174D01*
X166039657Y-84779260D01*
X166136226Y-84779067D01*
X166426406Y-84779067D01*
X166449803Y-84808811D01*
G36*
X166449803Y-84808811D02*
G01*
X166454752Y-84815495D01*
X166460596Y-84826066D01*
X166465057Y-84840153D01*
X166468321Y-84860478D01*
X166470574Y-84889765D01*
X166472002Y-84930737D01*
X166472792Y-84986117D01*
X166473129Y-85058628D01*
X166473200Y-85150994D01*
X166473171Y-85216911D01*
X166472939Y-85295228D01*
X166472319Y-85355496D01*
X166471126Y-85400393D01*
X166469179Y-85432602D01*
X166466294Y-85454800D01*
X166462288Y-85469669D01*
X166456979Y-85479889D01*
X166450183Y-85488138D01*
X166445668Y-85492795D01*
X166437438Y-85499282D01*
X166426078Y-85504194D01*
X166408810Y-85507749D01*
X166382855Y-85510167D01*
X166345436Y-85511667D01*
X166293773Y-85512467D01*
X166225089Y-85512787D01*
X166136606Y-85512845D01*
X166116931Y-85512838D01*
X166029906Y-85512572D01*
X165962254Y-85511806D01*
X165911299Y-85510392D01*
X165874367Y-85508180D01*
X165848783Y-85505022D01*
X165831871Y-85500769D01*
X165820957Y-85495271D01*
X165810464Y-85485285D01*
X165797203Y-85454168D01*
X165798386Y-85418280D01*
X165814550Y-85386733D01*
X165816739Y-85384457D01*
X165825427Y-85378189D01*
X165838769Y-85373523D01*
X165859752Y-85370227D01*
X165891363Y-85368068D01*
X165936590Y-85366814D01*
X165998420Y-85366231D01*
X166079839Y-85366089D01*
X166326445Y-85366089D01*
X166326445Y-85208045D01*
X166164006Y-85208045D01*
X166128338Y-85207964D01*
X166072568Y-85207167D01*
X166033430Y-85205162D01*
X166006976Y-85201521D01*
X165989259Y-85195812D01*
X165976329Y-85187607D01*
X165972686Y-85184423D01*
X165954278Y-85153448D01*
X165953644Y-85117112D01*
X165971183Y-85083493D01*
X165971245Y-85083424D01*
X165980916Y-85074798D01*
X165994209Y-85068742D01*
X166014917Y-85064811D01*
X166046828Y-85062556D01*
X166093734Y-85061531D01*
X166159424Y-85061289D01*
X166327571Y-85061289D01*
X166324186Y-84996378D01*
X166320800Y-84931467D01*
X166078723Y-84928414D01*
X166053707Y-84928086D01*
X165972087Y-84926606D01*
X165909768Y-84924222D01*
X165864154Y-84920227D01*
X165832652Y-84913913D01*
X165812667Y-84904574D01*
X165801604Y-84891503D01*
X165796869Y-84873992D01*
X165795867Y-84851335D01*
X165795873Y-84848970D01*
X165797027Y-84828939D01*
X165801824Y-84813146D01*
X165812632Y-84801090D01*
X165831817Y-84792267D01*
X165861745Y-84786175D01*
X165904783Y-84782311D01*
X165963299Y-84780174D01*
X166039657Y-84779260D01*
X166136226Y-84779067D01*
X166426406Y-84779067D01*
X166449803Y-84808811D01*
G37*
X171126734Y-84779083D02*
X171203831Y-84779275D01*
X171262777Y-84779860D01*
X171306364Y-84781051D01*
X171337383Y-84783064D01*
X171358625Y-84786112D01*
X171372882Y-84790409D01*
X171382945Y-84796172D01*
X171391606Y-84803612D01*
X171393391Y-84805293D01*
X171400635Y-84812832D01*
X171406277Y-84821850D01*
X171410517Y-84834984D01*
X171413556Y-84854872D01*
X171415594Y-84884151D01*
X171416830Y-84925458D01*
X171417465Y-84981431D01*
X171417700Y-85054707D01*
X171417734Y-85147923D01*
X171417697Y-85220713D01*
X171417448Y-85298889D01*
X171416812Y-85359103D01*
X171415615Y-85403982D01*
X171413684Y-85436152D01*
X171410846Y-85458239D01*
X171406927Y-85472870D01*
X171401755Y-85482670D01*
X171395156Y-85490267D01*
X171391822Y-85493444D01*
X171383300Y-85499554D01*
X171371298Y-85504229D01*
X171353087Y-85507659D01*
X171325940Y-85510036D01*
X171287129Y-85511552D01*
X171233924Y-85512398D01*
X171163598Y-85512765D01*
X171073422Y-85512845D01*
X171031314Y-85512833D01*
X170950167Y-85512651D01*
X170887675Y-85512098D01*
X170841109Y-85510982D01*
X170807741Y-85509113D01*
X170784844Y-85506298D01*
X170769688Y-85502346D01*
X170759546Y-85497066D01*
X170751689Y-85490267D01*
X170736963Y-85468667D01*
X170729111Y-85439467D01*
X170734610Y-85415560D01*
X170751689Y-85388667D01*
X170756668Y-85384059D01*
X170766443Y-85377772D01*
X170780559Y-85373146D01*
X170802054Y-85369930D01*
X170833968Y-85367870D01*
X170879342Y-85366712D01*
X170941213Y-85366202D01*
X171022622Y-85366089D01*
X171270978Y-85366089D01*
X171270978Y-85208045D01*
X171109801Y-85208045D01*
X171073983Y-85207899D01*
X171008359Y-85206176D01*
X170961118Y-85201741D01*
X170929383Y-85193637D01*
X170910277Y-85180906D01*
X170900923Y-85162592D01*
X170898445Y-85137738D01*
X170899242Y-85117482D01*
X170904494Y-85095656D01*
X170917288Y-85080304D01*
X170940628Y-85070309D01*
X170977517Y-85064553D01*
X171030959Y-85061919D01*
X171103958Y-85061289D01*
X171272105Y-85061289D01*
X171268719Y-84996378D01*
X171265334Y-84931467D01*
X171017617Y-84928418D01*
X170955026Y-84927539D01*
X170886565Y-84926095D01*
X170835661Y-84924164D01*
X170799408Y-84921514D01*
X170774901Y-84917910D01*
X170759235Y-84913121D01*
X170749506Y-84906913D01*
X170743491Y-84900510D01*
X170730482Y-84868828D01*
X170734043Y-84833142D01*
X170753818Y-84802084D01*
X170757069Y-84799161D01*
X170766049Y-84792810D01*
X170778153Y-84787957D01*
X170796159Y-84784403D01*
X170822847Y-84781946D01*
X170860997Y-84780385D01*
X170913386Y-84779518D01*
X170982794Y-84779146D01*
X171072001Y-84779067D01*
X171126734Y-84779083D01*
G36*
X171126734Y-84779083D02*
G01*
X171203831Y-84779275D01*
X171262777Y-84779860D01*
X171306364Y-84781051D01*
X171337383Y-84783064D01*
X171358625Y-84786112D01*
X171372882Y-84790409D01*
X171382945Y-84796172D01*
X171391606Y-84803612D01*
X171393391Y-84805293D01*
X171400635Y-84812832D01*
X171406277Y-84821850D01*
X171410517Y-84834984D01*
X171413556Y-84854872D01*
X171415594Y-84884151D01*
X171416830Y-84925458D01*
X171417465Y-84981431D01*
X171417700Y-85054707D01*
X171417734Y-85147923D01*
X171417697Y-85220713D01*
X171417448Y-85298889D01*
X171416812Y-85359103D01*
X171415615Y-85403982D01*
X171413684Y-85436152D01*
X171410846Y-85458239D01*
X171406927Y-85472870D01*
X171401755Y-85482670D01*
X171395156Y-85490267D01*
X171391822Y-85493444D01*
X171383300Y-85499554D01*
X171371298Y-85504229D01*
X171353087Y-85507659D01*
X171325940Y-85510036D01*
X171287129Y-85511552D01*
X171233924Y-85512398D01*
X171163598Y-85512765D01*
X171073422Y-85512845D01*
X171031314Y-85512833D01*
X170950167Y-85512651D01*
X170887675Y-85512098D01*
X170841109Y-85510982D01*
X170807741Y-85509113D01*
X170784844Y-85506298D01*
X170769688Y-85502346D01*
X170759546Y-85497066D01*
X170751689Y-85490267D01*
X170736963Y-85468667D01*
X170729111Y-85439467D01*
X170734610Y-85415560D01*
X170751689Y-85388667D01*
X170756668Y-85384059D01*
X170766443Y-85377772D01*
X170780559Y-85373146D01*
X170802054Y-85369930D01*
X170833968Y-85367870D01*
X170879342Y-85366712D01*
X170941213Y-85366202D01*
X171022622Y-85366089D01*
X171270978Y-85366089D01*
X171270978Y-85208045D01*
X171109801Y-85208045D01*
X171073983Y-85207899D01*
X171008359Y-85206176D01*
X170961118Y-85201741D01*
X170929383Y-85193637D01*
X170910277Y-85180906D01*
X170900923Y-85162592D01*
X170898445Y-85137738D01*
X170899242Y-85117482D01*
X170904494Y-85095656D01*
X170917288Y-85080304D01*
X170940628Y-85070309D01*
X170977517Y-85064553D01*
X171030959Y-85061919D01*
X171103958Y-85061289D01*
X171272105Y-85061289D01*
X171268719Y-84996378D01*
X171265334Y-84931467D01*
X171017617Y-84928418D01*
X170955026Y-84927539D01*
X170886565Y-84926095D01*
X170835661Y-84924164D01*
X170799408Y-84921514D01*
X170774901Y-84917910D01*
X170759235Y-84913121D01*
X170749506Y-84906913D01*
X170743491Y-84900510D01*
X170730482Y-84868828D01*
X170734043Y-84833142D01*
X170753818Y-84802084D01*
X170757069Y-84799161D01*
X170766049Y-84792810D01*
X170778153Y-84787957D01*
X170796159Y-84784403D01*
X170822847Y-84781946D01*
X170860997Y-84780385D01*
X170913386Y-84779518D01*
X170982794Y-84779146D01*
X171072001Y-84779067D01*
X171126734Y-84779083D01*
G37*
X162559702Y-84788478D02*
X162577663Y-84806989D01*
X162598263Y-84838071D01*
X162623095Y-84883756D01*
X162653750Y-84946078D01*
X162691820Y-85027071D01*
X162706454Y-85058454D01*
X162736203Y-85121638D01*
X162762297Y-85176244D01*
X162783292Y-85219290D01*
X162797739Y-85247793D01*
X162804191Y-85258770D01*
X162805550Y-85258189D01*
X162815542Y-85244242D01*
X162832833Y-85214704D01*
X162855430Y-85173087D01*
X162881338Y-85122903D01*
X162897311Y-85091414D01*
X162926261Y-85036061D01*
X162948749Y-84997044D01*
X162966965Y-84971566D01*
X162983096Y-84956831D01*
X162999330Y-84950042D01*
X163017857Y-84948400D01*
X163028360Y-84948875D01*
X163044476Y-84953082D01*
X163059790Y-84963946D01*
X163076388Y-84984219D01*
X163096357Y-85016654D01*
X163121783Y-85064004D01*
X163154752Y-85129022D01*
X163164485Y-85148277D01*
X163188943Y-85194946D01*
X163209178Y-85231109D01*
X163223311Y-85253497D01*
X163229460Y-85258845D01*
X163230827Y-85255573D01*
X163240202Y-85234664D01*
X163257062Y-85197725D01*
X163279979Y-85147874D01*
X163307520Y-85088226D01*
X163338255Y-85021898D01*
X163364970Y-84964677D01*
X163394593Y-84902688D01*
X163417664Y-84856949D01*
X163435643Y-84824908D01*
X163449990Y-84804014D01*
X163462166Y-84791718D01*
X163473632Y-84785466D01*
X163483042Y-84782574D01*
X163508147Y-84782425D01*
X163535290Y-84797768D01*
X163536590Y-84798753D01*
X163558674Y-84821388D01*
X163569723Y-84843613D01*
X163569769Y-84844253D01*
X163565228Y-84861915D01*
X163552364Y-84896481D01*
X163532605Y-84944826D01*
X163507381Y-85003825D01*
X163478119Y-85070355D01*
X163446250Y-85141291D01*
X163413201Y-85213507D01*
X163380401Y-85283880D01*
X163349280Y-85349285D01*
X163321265Y-85406597D01*
X163297786Y-85452692D01*
X163280272Y-85484446D01*
X163270151Y-85498733D01*
X163235743Y-85512102D01*
X163194046Y-85505741D01*
X163188681Y-85501044D01*
X163172852Y-85478893D01*
X163150650Y-85442132D01*
X163124233Y-85394415D01*
X163095760Y-85339393D01*
X163015986Y-85180150D01*
X162942799Y-85326742D01*
X162933103Y-85346032D01*
X162906125Y-85398380D01*
X162882096Y-85443170D01*
X162863332Y-85476154D01*
X162852146Y-85493089D01*
X162851000Y-85494332D01*
X162822879Y-85509619D01*
X162787817Y-85511302D01*
X162756776Y-85498733D01*
X162754350Y-85495884D01*
X162742090Y-85475259D01*
X162722352Y-85437708D01*
X162696448Y-85385880D01*
X162665685Y-85322423D01*
X162631375Y-85249985D01*
X162594825Y-85171216D01*
X162574585Y-85127093D01*
X162537812Y-85046365D01*
X162509355Y-84982687D01*
X162488331Y-84933752D01*
X162473854Y-84897257D01*
X162465039Y-84870895D01*
X162461004Y-84852361D01*
X162460862Y-84839352D01*
X162463730Y-84829561D01*
X162478387Y-84808678D01*
X162504990Y-84788377D01*
X162505745Y-84788035D01*
X162525335Y-84781034D01*
X162542790Y-84780504D01*
X162559702Y-84788478D01*
G36*
X162559702Y-84788478D02*
G01*
X162577663Y-84806989D01*
X162598263Y-84838071D01*
X162623095Y-84883756D01*
X162653750Y-84946078D01*
X162691820Y-85027071D01*
X162706454Y-85058454D01*
X162736203Y-85121638D01*
X162762297Y-85176244D01*
X162783292Y-85219290D01*
X162797739Y-85247793D01*
X162804191Y-85258770D01*
X162805550Y-85258189D01*
X162815542Y-85244242D01*
X162832833Y-85214704D01*
X162855430Y-85173087D01*
X162881338Y-85122903D01*
X162897311Y-85091414D01*
X162926261Y-85036061D01*
X162948749Y-84997044D01*
X162966965Y-84971566D01*
X162983096Y-84956831D01*
X162999330Y-84950042D01*
X163017857Y-84948400D01*
X163028360Y-84948875D01*
X163044476Y-84953082D01*
X163059790Y-84963946D01*
X163076388Y-84984219D01*
X163096357Y-85016654D01*
X163121783Y-85064004D01*
X163154752Y-85129022D01*
X163164485Y-85148277D01*
X163188943Y-85194946D01*
X163209178Y-85231109D01*
X163223311Y-85253497D01*
X163229460Y-85258845D01*
X163230827Y-85255573D01*
X163240202Y-85234664D01*
X163257062Y-85197725D01*
X163279979Y-85147874D01*
X163307520Y-85088226D01*
X163338255Y-85021898D01*
X163364970Y-84964677D01*
X163394593Y-84902688D01*
X163417664Y-84856949D01*
X163435643Y-84824908D01*
X163449990Y-84804014D01*
X163462166Y-84791718D01*
X163473632Y-84785466D01*
X163483042Y-84782574D01*
X163508147Y-84782425D01*
X163535290Y-84797768D01*
X163536590Y-84798753D01*
X163558674Y-84821388D01*
X163569723Y-84843613D01*
X163569769Y-84844253D01*
X163565228Y-84861915D01*
X163552364Y-84896481D01*
X163532605Y-84944826D01*
X163507381Y-85003825D01*
X163478119Y-85070355D01*
X163446250Y-85141291D01*
X163413201Y-85213507D01*
X163380401Y-85283880D01*
X163349280Y-85349285D01*
X163321265Y-85406597D01*
X163297786Y-85452692D01*
X163280272Y-85484446D01*
X163270151Y-85498733D01*
X163235743Y-85512102D01*
X163194046Y-85505741D01*
X163188681Y-85501044D01*
X163172852Y-85478893D01*
X163150650Y-85442132D01*
X163124233Y-85394415D01*
X163095760Y-85339393D01*
X163015986Y-85180150D01*
X162942799Y-85326742D01*
X162933103Y-85346032D01*
X162906125Y-85398380D01*
X162882096Y-85443170D01*
X162863332Y-85476154D01*
X162852146Y-85493089D01*
X162851000Y-85494332D01*
X162822879Y-85509619D01*
X162787817Y-85511302D01*
X162756776Y-85498733D01*
X162754350Y-85495884D01*
X162742090Y-85475259D01*
X162722352Y-85437708D01*
X162696448Y-85385880D01*
X162665685Y-85322423D01*
X162631375Y-85249985D01*
X162594825Y-85171216D01*
X162574585Y-85127093D01*
X162537812Y-85046365D01*
X162509355Y-84982687D01*
X162488331Y-84933752D01*
X162473854Y-84897257D01*
X162465039Y-84870895D01*
X162461004Y-84852361D01*
X162460862Y-84839352D01*
X162463730Y-84829561D01*
X162478387Y-84808678D01*
X162504990Y-84788377D01*
X162505745Y-84788035D01*
X162525335Y-84781034D01*
X162542790Y-84780504D01*
X162559702Y-84788478D01*
G37*
X170110853Y-84779936D02*
X170177100Y-84785366D01*
X170232400Y-84794964D01*
X170283283Y-84809825D01*
X170354595Y-84842958D01*
X170405752Y-84885640D01*
X170436575Y-84937705D01*
X170446889Y-84998983D01*
X170445952Y-85030232D01*
X170440160Y-85055029D01*
X170425353Y-85076699D01*
X170397380Y-85104049D01*
X170389402Y-85111378D01*
X170365692Y-85132281D01*
X170343298Y-85149251D01*
X170319265Y-85163205D01*
X170290637Y-85175056D01*
X170254460Y-85185720D01*
X170207780Y-85196111D01*
X170147641Y-85207146D01*
X170071090Y-85219738D01*
X169975171Y-85234804D01*
X169956808Y-85237838D01*
X169894478Y-85251458D01*
X169849260Y-85267192D01*
X169822976Y-85284263D01*
X169817447Y-85301897D01*
X169820068Y-85306168D01*
X169838000Y-85321233D01*
X169866126Y-85337867D01*
X169878926Y-85343857D01*
X169900224Y-85351050D01*
X169926610Y-85355827D01*
X169962454Y-85358646D01*
X170012128Y-85359964D01*
X170080000Y-85360237D01*
X170097785Y-85360164D01*
X170165406Y-85359053D01*
X170230345Y-85356828D01*
X170285970Y-85353762D01*
X170325651Y-85350127D01*
X170361162Y-85346059D01*
X170390415Y-85345276D01*
X170409315Y-85349876D01*
X170424429Y-85360551D01*
X170428085Y-85364144D01*
X170444427Y-85395918D01*
X170443107Y-85431572D01*
X170424150Y-85462190D01*
X170403780Y-85473796D01*
X170367796Y-85486491D01*
X170325372Y-85496541D01*
X170321922Y-85497140D01*
X170279252Y-85502356D01*
X170221866Y-85506730D01*
X170156849Y-85509818D01*
X170091289Y-85511177D01*
X170075057Y-85511218D01*
X169976744Y-85508741D01*
X169896692Y-85500735D01*
X169831513Y-85486203D01*
X169777817Y-85464149D01*
X169732216Y-85433576D01*
X169691323Y-85393486D01*
X169671202Y-85367259D01*
X169659576Y-85337712D01*
X169656667Y-85297995D01*
X169656808Y-85286026D01*
X169660681Y-85253345D01*
X169673065Y-85226819D01*
X169698230Y-85195971D01*
X169719442Y-85173831D01*
X169745838Y-85151285D01*
X169775555Y-85132917D01*
X169811785Y-85117661D01*
X169857717Y-85104449D01*
X169916544Y-85092214D01*
X169991456Y-85079889D01*
X170085645Y-85066406D01*
X170130957Y-85059396D01*
X170198911Y-85044837D01*
X170248047Y-85028337D01*
X170277614Y-85010439D01*
X170286864Y-84991685D01*
X170275048Y-84972615D01*
X170241416Y-84953771D01*
X170238370Y-84952557D01*
X170192011Y-84940479D01*
X170129361Y-84932279D01*
X170055927Y-84928119D01*
X169977217Y-84928161D01*
X169898739Y-84932569D01*
X169826000Y-84941505D01*
X169822073Y-84942154D01*
X169773257Y-84949861D01*
X169741005Y-84953473D01*
X169720008Y-84952876D01*
X169704954Y-84947954D01*
X169690534Y-84938596D01*
X169689364Y-84937725D01*
X169664847Y-84907351D01*
X169660054Y-84871850D01*
X169675860Y-84837269D01*
X169680406Y-84832813D01*
X169710020Y-84817673D01*
X169757002Y-84804550D01*
X169817306Y-84793750D01*
X169886888Y-84785581D01*
X169961703Y-84780351D01*
X170037706Y-84778367D01*
X170110853Y-84779936D01*
G36*
X170110853Y-84779936D02*
G01*
X170177100Y-84785366D01*
X170232400Y-84794964D01*
X170283283Y-84809825D01*
X170354595Y-84842958D01*
X170405752Y-84885640D01*
X170436575Y-84937705D01*
X170446889Y-84998983D01*
X170445952Y-85030232D01*
X170440160Y-85055029D01*
X170425353Y-85076699D01*
X170397380Y-85104049D01*
X170389402Y-85111378D01*
X170365692Y-85132281D01*
X170343298Y-85149251D01*
X170319265Y-85163205D01*
X170290637Y-85175056D01*
X170254460Y-85185720D01*
X170207780Y-85196111D01*
X170147641Y-85207146D01*
X170071090Y-85219738D01*
X169975171Y-85234804D01*
X169956808Y-85237838D01*
X169894478Y-85251458D01*
X169849260Y-85267192D01*
X169822976Y-85284263D01*
X169817447Y-85301897D01*
X169820068Y-85306168D01*
X169838000Y-85321233D01*
X169866126Y-85337867D01*
X169878926Y-85343857D01*
X169900224Y-85351050D01*
X169926610Y-85355827D01*
X169962454Y-85358646D01*
X170012128Y-85359964D01*
X170080000Y-85360237D01*
X170097785Y-85360164D01*
X170165406Y-85359053D01*
X170230345Y-85356828D01*
X170285970Y-85353762D01*
X170325651Y-85350127D01*
X170361162Y-85346059D01*
X170390415Y-85345276D01*
X170409315Y-85349876D01*
X170424429Y-85360551D01*
X170428085Y-85364144D01*
X170444427Y-85395918D01*
X170443107Y-85431572D01*
X170424150Y-85462190D01*
X170403780Y-85473796D01*
X170367796Y-85486491D01*
X170325372Y-85496541D01*
X170321922Y-85497140D01*
X170279252Y-85502356D01*
X170221866Y-85506730D01*
X170156849Y-85509818D01*
X170091289Y-85511177D01*
X170075057Y-85511218D01*
X169976744Y-85508741D01*
X169896692Y-85500735D01*
X169831513Y-85486203D01*
X169777817Y-85464149D01*
X169732216Y-85433576D01*
X169691323Y-85393486D01*
X169671202Y-85367259D01*
X169659576Y-85337712D01*
X169656667Y-85297995D01*
X169656808Y-85286026D01*
X169660681Y-85253345D01*
X169673065Y-85226819D01*
X169698230Y-85195971D01*
X169719442Y-85173831D01*
X169745838Y-85151285D01*
X169775555Y-85132917D01*
X169811785Y-85117661D01*
X169857717Y-85104449D01*
X169916544Y-85092214D01*
X169991456Y-85079889D01*
X170085645Y-85066406D01*
X170130957Y-85059396D01*
X170198911Y-85044837D01*
X170248047Y-85028337D01*
X170277614Y-85010439D01*
X170286864Y-84991685D01*
X170275048Y-84972615D01*
X170241416Y-84953771D01*
X170238370Y-84952557D01*
X170192011Y-84940479D01*
X170129361Y-84932279D01*
X170055927Y-84928119D01*
X169977217Y-84928161D01*
X169898739Y-84932569D01*
X169826000Y-84941505D01*
X169822073Y-84942154D01*
X169773257Y-84949861D01*
X169741005Y-84953473D01*
X169720008Y-84952876D01*
X169704954Y-84947954D01*
X169690534Y-84938596D01*
X169689364Y-84937725D01*
X169664847Y-84907351D01*
X169660054Y-84871850D01*
X169675860Y-84837269D01*
X169680406Y-84832813D01*
X169710020Y-84817673D01*
X169757002Y-84804550D01*
X169817306Y-84793750D01*
X169886888Y-84785581D01*
X169961703Y-84780351D01*
X170037706Y-84778367D01*
X170110853Y-84779936D01*
G37*
X166258711Y-80472033D02*
X166354268Y-80489523D01*
X166518558Y-80534564D01*
X166672589Y-80597656D01*
X166818509Y-80679915D01*
X166958466Y-80782457D01*
X167094608Y-80906399D01*
X167138473Y-80951661D01*
X167250758Y-81083865D01*
X167343972Y-81221832D01*
X167420719Y-81369750D01*
X167483603Y-81531803D01*
X167487420Y-81543391D01*
X167537507Y-81729392D01*
X167570899Y-81925521D01*
X167587584Y-82127568D01*
X167587551Y-82331325D01*
X167570791Y-82532581D01*
X167537292Y-82727128D01*
X167487044Y-82910756D01*
X167443190Y-83028053D01*
X167365348Y-83190951D01*
X167271828Y-83344866D01*
X167164822Y-83486671D01*
X167046519Y-83613239D01*
X166919111Y-83721441D01*
X166841606Y-83774120D01*
X166714725Y-83843750D01*
X166577243Y-83902468D01*
X166435716Y-83947587D01*
X166296702Y-83976422D01*
X166282597Y-83978106D01*
X166239153Y-83981434D01*
X166181723Y-83984275D01*
X166116122Y-83986373D01*
X166048167Y-83987468D01*
X165921378Y-83985140D01*
X165773673Y-83972136D01*
X165635779Y-83947133D01*
X165502014Y-83909318D01*
X165478562Y-83900889D01*
X165430612Y-83881408D01*
X165374140Y-83856473D01*
X165312379Y-83827722D01*
X165248563Y-83796790D01*
X165185926Y-83765315D01*
X165127703Y-83734934D01*
X165077127Y-83707283D01*
X165037433Y-83683999D01*
X165011854Y-83666718D01*
X165003625Y-83657079D01*
X165005076Y-83653984D01*
X165016250Y-83634079D01*
X165037134Y-83598420D01*
X165066265Y-83549459D01*
X165102181Y-83489646D01*
X165143420Y-83421433D01*
X165188517Y-83347271D01*
X165369785Y-83050008D01*
X165416315Y-83094539D01*
X165507723Y-83172865D01*
X165621334Y-83247439D01*
X165739122Y-83301474D01*
X165859559Y-83334290D01*
X165981117Y-83345211D01*
X166022585Y-83343868D01*
X166140080Y-83325612D01*
X166250089Y-83286617D01*
X166351430Y-83227670D01*
X166442921Y-83149557D01*
X166523380Y-83053064D01*
X166591627Y-82938978D01*
X166607908Y-82904724D01*
X166653982Y-82781240D01*
X166689106Y-82642918D01*
X166713197Y-82493561D01*
X166726173Y-82336973D01*
X166727949Y-82176956D01*
X166718443Y-82017314D01*
X166697572Y-81861850D01*
X166665252Y-81714366D01*
X166621399Y-81578667D01*
X166583982Y-81492076D01*
X166519185Y-81378688D01*
X166443772Y-81285070D01*
X166357418Y-81210959D01*
X166259795Y-81156094D01*
X166150577Y-81120212D01*
X166029439Y-81103051D01*
X165960038Y-81101880D01*
X165837168Y-81116141D01*
X165721664Y-81151241D01*
X165614953Y-81206682D01*
X165518464Y-81281964D01*
X165502720Y-81296440D01*
X165472150Y-81322962D01*
X165449809Y-81340138D01*
X165439691Y-81344787D01*
X165437706Y-81342597D01*
X165423241Y-81323721D01*
X165399400Y-81290397D01*
X165368029Y-81245380D01*
X165330974Y-81191425D01*
X165290083Y-81131285D01*
X165247202Y-81067718D01*
X165204178Y-81003476D01*
X165162857Y-80941315D01*
X165125086Y-80883991D01*
X165092712Y-80834257D01*
X165067582Y-80794868D01*
X165051542Y-80768580D01*
X165046439Y-80758147D01*
X165051050Y-80753941D01*
X165070267Y-80748933D01*
X165079838Y-80746386D01*
X165107809Y-80735249D01*
X165149448Y-80716802D01*
X165200995Y-80692725D01*
X165258690Y-80664699D01*
X165269957Y-80659154D01*
X165447687Y-80579889D01*
X165617490Y-80520385D01*
X165781430Y-80480245D01*
X165941571Y-80459071D01*
X166099977Y-80456466D01*
X166258711Y-80472033D01*
G36*
X166258711Y-80472033D02*
G01*
X166354268Y-80489523D01*
X166518558Y-80534564D01*
X166672589Y-80597656D01*
X166818509Y-80679915D01*
X166958466Y-80782457D01*
X167094608Y-80906399D01*
X167138473Y-80951661D01*
X167250758Y-81083865D01*
X167343972Y-81221832D01*
X167420719Y-81369750D01*
X167483603Y-81531803D01*
X167487420Y-81543391D01*
X167537507Y-81729392D01*
X167570899Y-81925521D01*
X167587584Y-82127568D01*
X167587551Y-82331325D01*
X167570791Y-82532581D01*
X167537292Y-82727128D01*
X167487044Y-82910756D01*
X167443190Y-83028053D01*
X167365348Y-83190951D01*
X167271828Y-83344866D01*
X167164822Y-83486671D01*
X167046519Y-83613239D01*
X166919111Y-83721441D01*
X166841606Y-83774120D01*
X166714725Y-83843750D01*
X166577243Y-83902468D01*
X166435716Y-83947587D01*
X166296702Y-83976422D01*
X166282597Y-83978106D01*
X166239153Y-83981434D01*
X166181723Y-83984275D01*
X166116122Y-83986373D01*
X166048167Y-83987468D01*
X165921378Y-83985140D01*
X165773673Y-83972136D01*
X165635779Y-83947133D01*
X165502014Y-83909318D01*
X165478562Y-83900889D01*
X165430612Y-83881408D01*
X165374140Y-83856473D01*
X165312379Y-83827722D01*
X165248563Y-83796790D01*
X165185926Y-83765315D01*
X165127703Y-83734934D01*
X165077127Y-83707283D01*
X165037433Y-83683999D01*
X165011854Y-83666718D01*
X165003625Y-83657079D01*
X165005076Y-83653984D01*
X165016250Y-83634079D01*
X165037134Y-83598420D01*
X165066265Y-83549459D01*
X165102181Y-83489646D01*
X165143420Y-83421433D01*
X165188517Y-83347271D01*
X165369785Y-83050008D01*
X165416315Y-83094539D01*
X165507723Y-83172865D01*
X165621334Y-83247439D01*
X165739122Y-83301474D01*
X165859559Y-83334290D01*
X165981117Y-83345211D01*
X166022585Y-83343868D01*
X166140080Y-83325612D01*
X166250089Y-83286617D01*
X166351430Y-83227670D01*
X166442921Y-83149557D01*
X166523380Y-83053064D01*
X166591627Y-82938978D01*
X166607908Y-82904724D01*
X166653982Y-82781240D01*
X166689106Y-82642918D01*
X166713197Y-82493561D01*
X166726173Y-82336973D01*
X166727949Y-82176956D01*
X166718443Y-82017314D01*
X166697572Y-81861850D01*
X166665252Y-81714366D01*
X166621399Y-81578667D01*
X166583982Y-81492076D01*
X166519185Y-81378688D01*
X166443772Y-81285070D01*
X166357418Y-81210959D01*
X166259795Y-81156094D01*
X166150577Y-81120212D01*
X166029439Y-81103051D01*
X165960038Y-81101880D01*
X165837168Y-81116141D01*
X165721664Y-81151241D01*
X165614953Y-81206682D01*
X165518464Y-81281964D01*
X165502720Y-81296440D01*
X165472150Y-81322962D01*
X165449809Y-81340138D01*
X165439691Y-81344787D01*
X165437706Y-81342597D01*
X165423241Y-81323721D01*
X165399400Y-81290397D01*
X165368029Y-81245380D01*
X165330974Y-81191425D01*
X165290083Y-81131285D01*
X165247202Y-81067718D01*
X165204178Y-81003476D01*
X165162857Y-80941315D01*
X165125086Y-80883991D01*
X165092712Y-80834257D01*
X165067582Y-80794868D01*
X165051542Y-80768580D01*
X165046439Y-80758147D01*
X165051050Y-80753941D01*
X165070267Y-80748933D01*
X165079838Y-80746386D01*
X165107809Y-80735249D01*
X165149448Y-80716802D01*
X165200995Y-80692725D01*
X165258690Y-80664699D01*
X165269957Y-80659154D01*
X165447687Y-80579889D01*
X165617490Y-80520385D01*
X165781430Y-80480245D01*
X165941571Y-80459071D01*
X166099977Y-80456466D01*
X166258711Y-80472033D01*
G37*
X162455994Y-82752711D02*
X162455268Y-82830158D01*
X162446689Y-82981594D01*
X162427833Y-83118283D01*
X162397837Y-83244276D01*
X162355836Y-83363625D01*
X162300969Y-83480381D01*
X162234167Y-83591179D01*
X162143363Y-83704739D01*
X162039708Y-83800211D01*
X161923887Y-83877073D01*
X161796586Y-83934797D01*
X161658489Y-83972858D01*
X161620793Y-83978666D01*
X161541752Y-83984396D01*
X161453629Y-83984583D01*
X161364236Y-83979539D01*
X161281384Y-83969578D01*
X161212887Y-83955012D01*
X161182035Y-83945364D01*
X161104730Y-83915123D01*
X161027679Y-83877617D01*
X160958200Y-83836614D01*
X160903615Y-83795879D01*
X160880916Y-83776505D01*
X160858201Y-83758662D01*
X160846779Y-83751778D01*
X160845537Y-83753424D01*
X160842728Y-83771205D01*
X160840776Y-83804370D01*
X160840045Y-83847733D01*
X160840045Y-83943689D01*
X159981896Y-83943689D01*
X160016161Y-83882974D01*
X160021355Y-83873868D01*
X160029715Y-83859249D01*
X160037288Y-83845173D01*
X160044112Y-83830540D01*
X160050227Y-83814249D01*
X160055673Y-83795198D01*
X160060487Y-83772286D01*
X160064708Y-83744413D01*
X160068377Y-83710478D01*
X160071531Y-83669379D01*
X160074211Y-83620015D01*
X160076454Y-83561286D01*
X160078299Y-83492090D01*
X160079787Y-83411326D01*
X160080955Y-83317894D01*
X160081844Y-83210692D01*
X160082491Y-83088620D01*
X160082936Y-82950576D01*
X160083218Y-82795459D01*
X160083375Y-82622168D01*
X160083448Y-82429603D01*
X160083474Y-82216662D01*
X160083485Y-82080530D01*
X160885200Y-82080530D01*
X160885200Y-83230721D01*
X160955756Y-83277089D01*
X160996417Y-83300791D01*
X161050546Y-83326639D01*
X161099689Y-83344829D01*
X161163165Y-83360551D01*
X161259331Y-83371541D01*
X161343900Y-83363365D01*
X161417219Y-83335805D01*
X161479637Y-83288642D01*
X161531502Y-83221658D01*
X161573160Y-83134633D01*
X161604962Y-83027350D01*
X161607545Y-83015009D01*
X161616000Y-82953772D01*
X161621663Y-82876692D01*
X161624576Y-82789002D01*
X161624783Y-82695934D01*
X161622330Y-82602720D01*
X161617261Y-82514594D01*
X161609619Y-82436788D01*
X161599448Y-82374533D01*
X161598167Y-82368666D01*
X161569126Y-82258121D01*
X161534610Y-82167575D01*
X161493456Y-82094953D01*
X161444499Y-82038181D01*
X161386574Y-81995184D01*
X161354620Y-81979615D01*
X161281784Y-81960722D01*
X161200443Y-81957465D01*
X161115319Y-81969389D01*
X161031133Y-81996040D01*
X160952608Y-82036962D01*
X160885200Y-82080530D01*
X160083485Y-82080530D01*
X160083493Y-81982245D01*
X160083689Y-80297378D01*
X160989017Y-80297378D01*
X160964585Y-80334067D01*
X160958318Y-80343647D01*
X160932208Y-80389981D01*
X160914469Y-80437102D01*
X160902908Y-80492251D01*
X160895331Y-80562667D01*
X160894839Y-80569650D01*
X160893062Y-80607641D01*
X160891444Y-80661576D01*
X160889999Y-80728703D01*
X160888740Y-80806271D01*
X160887680Y-80891528D01*
X160886829Y-80981724D01*
X160886203Y-81074107D01*
X160885812Y-81165925D01*
X160885670Y-81254427D01*
X160885790Y-81336862D01*
X160886183Y-81410479D01*
X160886862Y-81472526D01*
X160887841Y-81520251D01*
X160889132Y-81550904D01*
X160890747Y-81561733D01*
X160898957Y-81557333D01*
X160920647Y-81542362D01*
X160950014Y-81520448D01*
X160998879Y-81486236D01*
X161087125Y-81439714D01*
X161185916Y-81406046D01*
X161298510Y-81384231D01*
X161428164Y-81373265D01*
X161520670Y-81372219D01*
X161642011Y-81382014D01*
X161752099Y-81406174D01*
X161855389Y-81445785D01*
X161956338Y-81501932D01*
X162001503Y-81532883D01*
X162106911Y-81624115D01*
X162198538Y-81733106D01*
X162276332Y-81859726D01*
X162340241Y-82003845D01*
X162390214Y-82165332D01*
X162426198Y-82344059D01*
X162448143Y-82539895D01*
X162453900Y-82695934D01*
X162455994Y-82752711D01*
G36*
X162455994Y-82752711D02*
G01*
X162455268Y-82830158D01*
X162446689Y-82981594D01*
X162427833Y-83118283D01*
X162397837Y-83244276D01*
X162355836Y-83363625D01*
X162300969Y-83480381D01*
X162234167Y-83591179D01*
X162143363Y-83704739D01*
X162039708Y-83800211D01*
X161923887Y-83877073D01*
X161796586Y-83934797D01*
X161658489Y-83972858D01*
X161620793Y-83978666D01*
X161541752Y-83984396D01*
X161453629Y-83984583D01*
X161364236Y-83979539D01*
X161281384Y-83969578D01*
X161212887Y-83955012D01*
X161182035Y-83945364D01*
X161104730Y-83915123D01*
X161027679Y-83877617D01*
X160958200Y-83836614D01*
X160903615Y-83795879D01*
X160880916Y-83776505D01*
X160858201Y-83758662D01*
X160846779Y-83751778D01*
X160845537Y-83753424D01*
X160842728Y-83771205D01*
X160840776Y-83804370D01*
X160840045Y-83847733D01*
X160840045Y-83943689D01*
X159981896Y-83943689D01*
X160016161Y-83882974D01*
X160021355Y-83873868D01*
X160029715Y-83859249D01*
X160037288Y-83845173D01*
X160044112Y-83830540D01*
X160050227Y-83814249D01*
X160055673Y-83795198D01*
X160060487Y-83772286D01*
X160064708Y-83744413D01*
X160068377Y-83710478D01*
X160071531Y-83669379D01*
X160074211Y-83620015D01*
X160076454Y-83561286D01*
X160078299Y-83492090D01*
X160079787Y-83411326D01*
X160080955Y-83317894D01*
X160081844Y-83210692D01*
X160082491Y-83088620D01*
X160082936Y-82950576D01*
X160083218Y-82795459D01*
X160083375Y-82622168D01*
X160083448Y-82429603D01*
X160083474Y-82216662D01*
X160083485Y-82080530D01*
X160885200Y-82080530D01*
X160885200Y-83230721D01*
X160955756Y-83277089D01*
X160996417Y-83300791D01*
X161050546Y-83326639D01*
X161099689Y-83344829D01*
X161163165Y-83360551D01*
X161259331Y-83371541D01*
X161343900Y-83363365D01*
X161417219Y-83335805D01*
X161479637Y-83288642D01*
X161531502Y-83221658D01*
X161573160Y-83134633D01*
X161604962Y-83027350D01*
X161607545Y-83015009D01*
X161616000Y-82953772D01*
X161621663Y-82876692D01*
X161624576Y-82789002D01*
X161624783Y-82695934D01*
X161622330Y-82602720D01*
X161617261Y-82514594D01*
X161609619Y-82436788D01*
X161599448Y-82374533D01*
X161598167Y-82368666D01*
X161569126Y-82258121D01*
X161534610Y-82167575D01*
X161493456Y-82094953D01*
X161444499Y-82038181D01*
X161386574Y-81995184D01*
X161354620Y-81979615D01*
X161281784Y-81960722D01*
X161200443Y-81957465D01*
X161115319Y-81969389D01*
X161031133Y-81996040D01*
X160952608Y-82036962D01*
X160885200Y-82080530D01*
X160083485Y-82080530D01*
X160083493Y-81982245D01*
X160083689Y-80297378D01*
X160989017Y-80297378D01*
X160964585Y-80334067D01*
X160958318Y-80343647D01*
X160932208Y-80389981D01*
X160914469Y-80437102D01*
X160902908Y-80492251D01*
X160895331Y-80562667D01*
X160894839Y-80569650D01*
X160893062Y-80607641D01*
X160891444Y-80661576D01*
X160889999Y-80728703D01*
X160888740Y-80806271D01*
X160887680Y-80891528D01*
X160886829Y-80981724D01*
X160886203Y-81074107D01*
X160885812Y-81165925D01*
X160885670Y-81254427D01*
X160885790Y-81336862D01*
X160886183Y-81410479D01*
X160886862Y-81472526D01*
X160887841Y-81520251D01*
X160889132Y-81550904D01*
X160890747Y-81561733D01*
X160898957Y-81557333D01*
X160920647Y-81542362D01*
X160950014Y-81520448D01*
X160998879Y-81486236D01*
X161087125Y-81439714D01*
X161185916Y-81406046D01*
X161298510Y-81384231D01*
X161428164Y-81373265D01*
X161520670Y-81372219D01*
X161642011Y-81382014D01*
X161752099Y-81406174D01*
X161855389Y-81445785D01*
X161956338Y-81501932D01*
X162001503Y-81532883D01*
X162106911Y-81624115D01*
X162198538Y-81733106D01*
X162276332Y-81859726D01*
X162340241Y-82003845D01*
X162390214Y-82165332D01*
X162426198Y-82344059D01*
X162448143Y-82539895D01*
X162453900Y-82695934D01*
X162455994Y-82752711D01*
G37*
X164997755Y-83153467D02*
X164997261Y-83187363D01*
X164993632Y-83262202D01*
X164986022Y-83324401D01*
X164973688Y-83380984D01*
X164929313Y-83507076D01*
X164866400Y-83621679D01*
X164786238Y-83722568D01*
X164689740Y-83808924D01*
X164577822Y-83879932D01*
X164451397Y-83934776D01*
X164311378Y-83972638D01*
X164275149Y-83978351D01*
X164196155Y-83984313D01*
X164107841Y-83984646D01*
X164018075Y-83979659D01*
X163934722Y-83969666D01*
X163865651Y-83954978D01*
X163779187Y-83924749D01*
X163669286Y-83870057D01*
X163571956Y-83802543D01*
X163509867Y-83751556D01*
X163506605Y-83847622D01*
X163503343Y-83943689D01*
X163080450Y-83943689D01*
X163069543Y-83943686D01*
X162975056Y-83943380D01*
X162888331Y-83942616D01*
X162811837Y-83941451D01*
X162748043Y-83939942D01*
X162699418Y-83938147D01*
X162668433Y-83936121D01*
X162657556Y-83933922D01*
X162657578Y-83933463D01*
X162664614Y-83917910D01*
X162680434Y-83895071D01*
X162684734Y-83889638D01*
X162695777Y-83875606D01*
X162705311Y-83862186D01*
X162713461Y-83847722D01*
X162720352Y-83830556D01*
X162726111Y-83809034D01*
X162730862Y-83781498D01*
X162734731Y-83746292D01*
X162737844Y-83701760D01*
X162740325Y-83646246D01*
X162742300Y-83578093D01*
X162743894Y-83495645D01*
X162745234Y-83397246D01*
X162746444Y-83281239D01*
X162747649Y-83145968D01*
X162748595Y-83034586D01*
X163549378Y-83034586D01*
X163549378Y-83230462D01*
X163594048Y-83286973D01*
X163606785Y-83302212D01*
X163653604Y-83344844D01*
X163714255Y-83380672D01*
X163724897Y-83385850D01*
X163763676Y-83402745D01*
X163798692Y-83412909D01*
X163838722Y-83418325D01*
X163892541Y-83420978D01*
X163910648Y-83421383D01*
X163986011Y-83418540D01*
X164046743Y-83406620D01*
X164098452Y-83384037D01*
X164146746Y-83349211D01*
X164151803Y-83344798D01*
X164200272Y-83289160D01*
X164228459Y-83225333D01*
X164237752Y-83150282D01*
X164230520Y-83078693D01*
X164205796Y-83015645D01*
X164161249Y-82957758D01*
X164106319Y-82910808D01*
X164033894Y-82870961D01*
X163947340Y-82843263D01*
X163844670Y-82827096D01*
X163723894Y-82821842D01*
X163715007Y-82821857D01*
X163659660Y-82822655D01*
X163612736Y-82824488D01*
X163578953Y-82827111D01*
X163563028Y-82830274D01*
X163558943Y-82836741D01*
X163554572Y-82858875D01*
X163551604Y-82897988D01*
X163549914Y-82955939D01*
X163549378Y-83034586D01*
X162748595Y-83034586D01*
X162748975Y-82989778D01*
X162750228Y-82847012D01*
X162751651Y-82701942D01*
X162753176Y-82576027D01*
X162754933Y-82467436D01*
X162757051Y-82374334D01*
X162759660Y-82294891D01*
X162762890Y-82227273D01*
X162766869Y-82169649D01*
X162771728Y-82120185D01*
X162777597Y-82077050D01*
X162784604Y-82038410D01*
X162792880Y-82002434D01*
X162802554Y-81967289D01*
X162813756Y-81931142D01*
X162826616Y-81892161D01*
X162842090Y-81849091D01*
X162884994Y-81756871D01*
X162938735Y-81677099D01*
X163007576Y-81602965D01*
X163085185Y-81539405D01*
X163189761Y-81477725D01*
X163309244Y-81430202D01*
X163444508Y-81396567D01*
X163596426Y-81376552D01*
X163765872Y-81369889D01*
X163823890Y-81370287D01*
X163889398Y-81372335D01*
X163950693Y-81376704D01*
X164012097Y-81384035D01*
X164077932Y-81394969D01*
X164152520Y-81410147D01*
X164240184Y-81430209D01*
X164345245Y-81455797D01*
X164373806Y-81462820D01*
X164449054Y-81480776D01*
X164519388Y-81496820D01*
X164580567Y-81510028D01*
X164628354Y-81519474D01*
X164658511Y-81524231D01*
X164686783Y-81527910D01*
X164713060Y-81533187D01*
X164723059Y-81537942D01*
X164719952Y-81546781D01*
X164709194Y-81574072D01*
X164691864Y-81616906D01*
X164669126Y-81672425D01*
X164642147Y-81737772D01*
X164612090Y-81810089D01*
X164605493Y-81825879D01*
X164566907Y-81916484D01*
X164535768Y-81986217D01*
X164511917Y-82035405D01*
X164495198Y-82064374D01*
X164485454Y-82073452D01*
X164477766Y-82071405D01*
X164451415Y-82061760D01*
X164412982Y-82046190D01*
X164367822Y-82026815D01*
X164273293Y-81988814D01*
X164136480Y-81947780D01*
X163995289Y-81922612D01*
X163957314Y-81918611D01*
X163854059Y-81916447D01*
X163766952Y-81929622D01*
X163695129Y-81958756D01*
X163637731Y-82004466D01*
X163593896Y-82067372D01*
X163562762Y-82148092D01*
X163543470Y-82247245D01*
X163536050Y-82306224D01*
X163697936Y-82299445D01*
X163824495Y-82297813D01*
X163975951Y-82304194D01*
X164124396Y-82318777D01*
X164260578Y-82340882D01*
X164325245Y-82355821D01*
X164457490Y-82398741D01*
X164579762Y-82455340D01*
X164689685Y-82524017D01*
X164784883Y-82603170D01*
X164862980Y-82691196D01*
X164921599Y-82786493D01*
X164945595Y-82838864D01*
X164971232Y-82909590D01*
X164987478Y-82980812D01*
X164995822Y-83059712D01*
X164997690Y-83150282D01*
X164997755Y-83153467D01*
G36*
X164997755Y-83153467D02*
G01*
X164997261Y-83187363D01*
X164993632Y-83262202D01*
X164986022Y-83324401D01*
X164973688Y-83380984D01*
X164929313Y-83507076D01*
X164866400Y-83621679D01*
X164786238Y-83722568D01*
X164689740Y-83808924D01*
X164577822Y-83879932D01*
X164451397Y-83934776D01*
X164311378Y-83972638D01*
X164275149Y-83978351D01*
X164196155Y-83984313D01*
X164107841Y-83984646D01*
X164018075Y-83979659D01*
X163934722Y-83969666D01*
X163865651Y-83954978D01*
X163779187Y-83924749D01*
X163669286Y-83870057D01*
X163571956Y-83802543D01*
X163509867Y-83751556D01*
X163506605Y-83847622D01*
X163503343Y-83943689D01*
X163080450Y-83943689D01*
X163069543Y-83943686D01*
X162975056Y-83943380D01*
X162888331Y-83942616D01*
X162811837Y-83941451D01*
X162748043Y-83939942D01*
X162699418Y-83938147D01*
X162668433Y-83936121D01*
X162657556Y-83933922D01*
X162657578Y-83933463D01*
X162664614Y-83917910D01*
X162680434Y-83895071D01*
X162684734Y-83889638D01*
X162695777Y-83875606D01*
X162705311Y-83862186D01*
X162713461Y-83847722D01*
X162720352Y-83830556D01*
X162726111Y-83809034D01*
X162730862Y-83781498D01*
X162734731Y-83746292D01*
X162737844Y-83701760D01*
X162740325Y-83646246D01*
X162742300Y-83578093D01*
X162743894Y-83495645D01*
X162745234Y-83397246D01*
X162746444Y-83281239D01*
X162747649Y-83145968D01*
X162748595Y-83034586D01*
X163549378Y-83034586D01*
X163549378Y-83230462D01*
X163594048Y-83286973D01*
X163606785Y-83302212D01*
X163653604Y-83344844D01*
X163714255Y-83380672D01*
X163724897Y-83385850D01*
X163763676Y-83402745D01*
X163798692Y-83412909D01*
X163838722Y-83418325D01*
X163892541Y-83420978D01*
X163910648Y-83421383D01*
X163986011Y-83418540D01*
X164046743Y-83406620D01*
X164098452Y-83384037D01*
X164146746Y-83349211D01*
X164151803Y-83344798D01*
X164200272Y-83289160D01*
X164228459Y-83225333D01*
X164237752Y-83150282D01*
X164230520Y-83078693D01*
X164205796Y-83015645D01*
X164161249Y-82957758D01*
X164106319Y-82910808D01*
X164033894Y-82870961D01*
X163947340Y-82843263D01*
X163844670Y-82827096D01*
X163723894Y-82821842D01*
X163715007Y-82821857D01*
X163659660Y-82822655D01*
X163612736Y-82824488D01*
X163578953Y-82827111D01*
X163563028Y-82830274D01*
X163558943Y-82836741D01*
X163554572Y-82858875D01*
X163551604Y-82897988D01*
X163549914Y-82955939D01*
X163549378Y-83034586D01*
X162748595Y-83034586D01*
X162748975Y-82989778D01*
X162750228Y-82847012D01*
X162751651Y-82701942D01*
X162753176Y-82576027D01*
X162754933Y-82467436D01*
X162757051Y-82374334D01*
X162759660Y-82294891D01*
X162762890Y-82227273D01*
X162766869Y-82169649D01*
X162771728Y-82120185D01*
X162777597Y-82077050D01*
X162784604Y-82038410D01*
X162792880Y-82002434D01*
X162802554Y-81967289D01*
X162813756Y-81931142D01*
X162826616Y-81892161D01*
X162842090Y-81849091D01*
X162884994Y-81756871D01*
X162938735Y-81677099D01*
X163007576Y-81602965D01*
X163085185Y-81539405D01*
X163189761Y-81477725D01*
X163309244Y-81430202D01*
X163444508Y-81396567D01*
X163596426Y-81376552D01*
X163765872Y-81369889D01*
X163823890Y-81370287D01*
X163889398Y-81372335D01*
X163950693Y-81376704D01*
X164012097Y-81384035D01*
X164077932Y-81394969D01*
X164152520Y-81410147D01*
X164240184Y-81430209D01*
X164345245Y-81455797D01*
X164373806Y-81462820D01*
X164449054Y-81480776D01*
X164519388Y-81496820D01*
X164580567Y-81510028D01*
X164628354Y-81519474D01*
X164658511Y-81524231D01*
X164686783Y-81527910D01*
X164713060Y-81533187D01*
X164723059Y-81537942D01*
X164719952Y-81546781D01*
X164709194Y-81574072D01*
X164691864Y-81616906D01*
X164669126Y-81672425D01*
X164642147Y-81737772D01*
X164612090Y-81810089D01*
X164605493Y-81825879D01*
X164566907Y-81916484D01*
X164535768Y-81986217D01*
X164511917Y-82035405D01*
X164495198Y-82064374D01*
X164485454Y-82073452D01*
X164477766Y-82071405D01*
X164451415Y-82061760D01*
X164412982Y-82046190D01*
X164367822Y-82026815D01*
X164273293Y-81988814D01*
X164136480Y-81947780D01*
X163995289Y-81922612D01*
X163957314Y-81918611D01*
X163854059Y-81916447D01*
X163766952Y-81929622D01*
X163695129Y-81958756D01*
X163637731Y-82004466D01*
X163593896Y-82067372D01*
X163562762Y-82148092D01*
X163543470Y-82247245D01*
X163536050Y-82306224D01*
X163697936Y-82299445D01*
X163824495Y-82297813D01*
X163975951Y-82304194D01*
X164124396Y-82318777D01*
X164260578Y-82340882D01*
X164325245Y-82355821D01*
X164457490Y-82398741D01*
X164579762Y-82455340D01*
X164689685Y-82524017D01*
X164784883Y-82603170D01*
X164862980Y-82691196D01*
X164921599Y-82786493D01*
X164945595Y-82838864D01*
X164971232Y-82909590D01*
X164987478Y-82980812D01*
X164995822Y-83059712D01*
X164997690Y-83150282D01*
X164997755Y-83153467D01*
G37*
X172545614Y-80621792D02*
X172546059Y-80753011D01*
X172546362Y-80900216D01*
X172546548Y-81064349D01*
X172546642Y-81246352D01*
X172546671Y-81447165D01*
X172546661Y-81667732D01*
X172546636Y-81908992D01*
X172546622Y-82171889D01*
X172546622Y-82214040D01*
X172546646Y-82474668D01*
X172546685Y-82713796D01*
X172546708Y-82932360D01*
X172546687Y-83131295D01*
X172546593Y-83311535D01*
X172546395Y-83474015D01*
X172546063Y-83619670D01*
X172545569Y-83749434D01*
X172544883Y-83864243D01*
X172543976Y-83965030D01*
X172542817Y-84052730D01*
X172541378Y-84128279D01*
X172539629Y-84192611D01*
X172537540Y-84246661D01*
X172535083Y-84291363D01*
X172532227Y-84327652D01*
X172528943Y-84356463D01*
X172525202Y-84378731D01*
X172520974Y-84395390D01*
X172516229Y-84407375D01*
X172510939Y-84415621D01*
X172505073Y-84421062D01*
X172498602Y-84424634D01*
X172491497Y-84427270D01*
X172483728Y-84429906D01*
X172475266Y-84433477D01*
X172470908Y-84435145D01*
X172462395Y-84437111D01*
X172449694Y-84438911D01*
X172431885Y-84440555D01*
X172408049Y-84442047D01*
X172377266Y-84443397D01*
X172338617Y-84444611D01*
X172291182Y-84445697D01*
X172234043Y-84446661D01*
X172166279Y-84447511D01*
X172086971Y-84448253D01*
X171995199Y-84448897D01*
X171890044Y-84449447D01*
X171770587Y-84449913D01*
X171635908Y-84450300D01*
X171485088Y-84450616D01*
X171317206Y-84450869D01*
X171131345Y-84451066D01*
X170926583Y-84451213D01*
X170702002Y-84451318D01*
X170456682Y-84451389D01*
X170189704Y-84451432D01*
X170151321Y-84451437D01*
X169885922Y-84451480D01*
X169642050Y-84451525D01*
X169418783Y-84451548D01*
X169215196Y-84451524D01*
X169030367Y-84451430D01*
X168863373Y-84451243D01*
X168713290Y-84450939D01*
X168579196Y-84450494D01*
X168460166Y-84449885D01*
X168355279Y-84449089D01*
X168263610Y-84448080D01*
X168184237Y-84446837D01*
X168116237Y-84445335D01*
X168058686Y-84443551D01*
X168010662Y-84441461D01*
X167971240Y-84439042D01*
X167939499Y-84436270D01*
X167914514Y-84433121D01*
X167895364Y-84429572D01*
X167881123Y-84425598D01*
X167870871Y-84421178D01*
X167863682Y-84416286D01*
X167858635Y-84410900D01*
X167854805Y-84404996D01*
X167851271Y-84398549D01*
X167847108Y-84391537D01*
X167846025Y-84389687D01*
X167843813Y-84384180D01*
X167841786Y-84375868D01*
X167839938Y-84363809D01*
X167838261Y-84347063D01*
X167836745Y-84324687D01*
X167835383Y-84295740D01*
X167834167Y-84259280D01*
X167833089Y-84214367D01*
X167832140Y-84160057D01*
X167831312Y-84095410D01*
X167830597Y-84019484D01*
X167829987Y-83931338D01*
X167829942Y-83922493D01*
X168121378Y-83922493D01*
X168125260Y-83923765D01*
X168148520Y-83925791D01*
X168190874Y-83927626D01*
X168250132Y-83929227D01*
X168324107Y-83930549D01*
X168410610Y-83931548D01*
X168507452Y-83932180D01*
X168612445Y-83932400D01*
X169310651Y-83932400D01*
X170465090Y-83932400D01*
X170464456Y-83856200D01*
X170465574Y-83814160D01*
X170471304Y-83778334D01*
X170483890Y-83740772D01*
X170505568Y-83692577D01*
X170508789Y-83685897D01*
X170534188Y-83636359D01*
X170560996Y-83588369D01*
X170583917Y-83551466D01*
X170588485Y-83544834D01*
X170610516Y-83513593D01*
X170642693Y-83468654D01*
X170683457Y-83412147D01*
X170731245Y-83346204D01*
X170784498Y-83272957D01*
X170841655Y-83194536D01*
X170901155Y-83113072D01*
X170961437Y-83030698D01*
X171020940Y-82949544D01*
X171078105Y-82871742D01*
X171131370Y-82799423D01*
X171179174Y-82734718D01*
X171219957Y-82679759D01*
X171252158Y-82636676D01*
X171274216Y-82607602D01*
X171284571Y-82594667D01*
X171289044Y-82590351D01*
X171293236Y-82588312D01*
X171296643Y-82590926D01*
X171299325Y-82599986D01*
X171301341Y-82617285D01*
X171302748Y-82644614D01*
X171303605Y-82683765D01*
X171303970Y-82736533D01*
X171303903Y-82804707D01*
X171303460Y-82890082D01*
X171302702Y-82994449D01*
X171301685Y-83119600D01*
X171301308Y-83164300D01*
X171300169Y-83285395D01*
X171298972Y-83386688D01*
X171297636Y-83470262D01*
X171296077Y-83538204D01*
X171294215Y-83592599D01*
X171291966Y-83635532D01*
X171289248Y-83669089D01*
X171285979Y-83695355D01*
X171282078Y-83716416D01*
X171277461Y-83734357D01*
X171269192Y-83760770D01*
X171245583Y-83822772D01*
X171219685Y-83875573D01*
X171194535Y-83912645D01*
X171193339Y-83914075D01*
X171191168Y-83918424D01*
X171193328Y-83922026D01*
X171201644Y-83924951D01*
X171217940Y-83927269D01*
X171244041Y-83929051D01*
X171281771Y-83930367D01*
X171332956Y-83931286D01*
X171399420Y-83931878D01*
X171482987Y-83932215D01*
X171585483Y-83932365D01*
X171708732Y-83932400D01*
X172240296Y-83932400D01*
X172201523Y-83874783D01*
X172195432Y-83865893D01*
X172184976Y-83851069D01*
X172175579Y-83837422D01*
X172167183Y-83823765D01*
X172159733Y-83808911D01*
X172153173Y-83791670D01*
X172147446Y-83770855D01*
X172142495Y-83745280D01*
X172138266Y-83713755D01*
X172134701Y-83675093D01*
X172131744Y-83628107D01*
X172129340Y-83571608D01*
X172127431Y-83504409D01*
X172125962Y-83425322D01*
X172124876Y-83333160D01*
X172124118Y-83226734D01*
X172123630Y-83104857D01*
X172123358Y-82966341D01*
X172123243Y-82809999D01*
X172123231Y-82634642D01*
X172123265Y-82439082D01*
X172123289Y-82222133D01*
X172123280Y-82099513D01*
X172123243Y-81894447D01*
X172123227Y-81710116D01*
X172123288Y-81545334D01*
X172123484Y-81398916D01*
X172123870Y-81269674D01*
X172124505Y-81156422D01*
X172125444Y-81057975D01*
X172126745Y-80973144D01*
X172128464Y-80900744D01*
X172130659Y-80839589D01*
X172133385Y-80788492D01*
X172136701Y-80746267D01*
X172140662Y-80711727D01*
X172145325Y-80683686D01*
X172150747Y-80660958D01*
X172156986Y-80642356D01*
X172164097Y-80626693D01*
X172172138Y-80612784D01*
X172181166Y-80599441D01*
X172191236Y-80585479D01*
X172202407Y-80569711D01*
X172242197Y-80511867D01*
X171182314Y-80511867D01*
X171220311Y-80574966D01*
X171234993Y-80600005D01*
X171249531Y-80627586D01*
X171261627Y-80655700D01*
X171271532Y-80686551D01*
X171279494Y-80722344D01*
X171285761Y-80765283D01*
X171290582Y-80817574D01*
X171294206Y-80881419D01*
X171296881Y-80959025D01*
X171298857Y-81052594D01*
X171300382Y-81164333D01*
X171301704Y-81296445D01*
X171302613Y-81416434D01*
X171303020Y-81533063D01*
X171302767Y-81628531D01*
X171301857Y-81702556D01*
X171300293Y-81754855D01*
X171298079Y-81785149D01*
X171295220Y-81793156D01*
X171292161Y-81789858D01*
X171274006Y-81768408D01*
X171244275Y-81731889D01*
X171204639Y-81682442D01*
X171156771Y-81622207D01*
X171102343Y-81553327D01*
X171043027Y-81477943D01*
X170980495Y-81398196D01*
X170916421Y-81316228D01*
X170852475Y-81234180D01*
X170790331Y-81154194D01*
X170731661Y-81078411D01*
X170678137Y-81008973D01*
X170631430Y-80948021D01*
X170593214Y-80897696D01*
X170565161Y-80860140D01*
X170548943Y-80837495D01*
X170503635Y-80765212D01*
X170463661Y-80685463D01*
X170442130Y-80617188D01*
X170438827Y-80559844D01*
X170444116Y-80511867D01*
X169312356Y-80512117D01*
X169351867Y-80542722D01*
X169361248Y-80550089D01*
X169424183Y-80604438D01*
X169492997Y-80672259D01*
X169569596Y-80755516D01*
X169655888Y-80856178D01*
X169673052Y-80876847D01*
X169713833Y-80926409D01*
X169763588Y-80987326D01*
X169820955Y-81057898D01*
X169884569Y-81136424D01*
X169953069Y-81221204D01*
X170025090Y-81310537D01*
X170099270Y-81402722D01*
X170114517Y-81421702D01*
X170174246Y-81496060D01*
X170248653Y-81588848D01*
X170321131Y-81679388D01*
X170390314Y-81765978D01*
X170454841Y-81846918D01*
X170513347Y-81920506D01*
X170564470Y-81985044D01*
X170606847Y-82038829D01*
X170639115Y-82080162D01*
X170659910Y-82107342D01*
X170667869Y-82118668D01*
X170666111Y-82122771D01*
X170653230Y-82143334D01*
X170628885Y-82179561D01*
X170594247Y-82229824D01*
X170550486Y-82292492D01*
X170498775Y-82365936D01*
X170440284Y-82448527D01*
X170376184Y-82538636D01*
X170307646Y-82634631D01*
X170235843Y-82734885D01*
X170161944Y-82837768D01*
X170087121Y-82941650D01*
X170012545Y-83044901D01*
X169939387Y-83145892D01*
X169868819Y-83242994D01*
X169802011Y-83334577D01*
X169740135Y-83419011D01*
X169684361Y-83494667D01*
X169635862Y-83559916D01*
X169595807Y-83613128D01*
X169565369Y-83652673D01*
X169544944Y-83678026D01*
X169498899Y-83732295D01*
X169448612Y-83788775D01*
X169401815Y-83838669D01*
X169310651Y-83932400D01*
X168612445Y-83932400D01*
X168681356Y-83932349D01*
X168779607Y-83932091D01*
X168869030Y-83931637D01*
X168947333Y-83931010D01*
X169012223Y-83930235D01*
X169061411Y-83929335D01*
X169092604Y-83928334D01*
X169103511Y-83927257D01*
X169102322Y-83924037D01*
X169092176Y-83906452D01*
X169075040Y-83880158D01*
X169066540Y-83867691D01*
X169057329Y-83853622D01*
X169049233Y-83839351D01*
X169042185Y-83823479D01*
X169036117Y-83804609D01*
X169030961Y-83781341D01*
X169026651Y-83752278D01*
X169023119Y-83716021D01*
X169020297Y-83671170D01*
X169018118Y-83616328D01*
X169016514Y-83550097D01*
X169015419Y-83471077D01*
X169014765Y-83377871D01*
X169014484Y-83269079D01*
X169014509Y-83143303D01*
X169014772Y-82999145D01*
X169015206Y-82835207D01*
X169015745Y-82650089D01*
X169016279Y-82471232D01*
X169016805Y-82312374D01*
X169017350Y-82173316D01*
X169017945Y-82052665D01*
X169018619Y-81949028D01*
X169019403Y-81861011D01*
X169020326Y-81787223D01*
X169021419Y-81726269D01*
X169022712Y-81676757D01*
X169024235Y-81637293D01*
X169026019Y-81606484D01*
X169028092Y-81582938D01*
X169030486Y-81565260D01*
X169033230Y-81552059D01*
X169036356Y-81541940D01*
X169039892Y-81533511D01*
X169043791Y-81525375D01*
X169063438Y-81488544D01*
X169082225Y-81458391D01*
X169083272Y-81456908D01*
X169097602Y-81434659D01*
X169103511Y-81421702D01*
X169102504Y-81421249D01*
X169085305Y-81419803D01*
X169048656Y-81418480D01*
X168994962Y-81417316D01*
X168926630Y-81416347D01*
X168846064Y-81415611D01*
X168755670Y-81415142D01*
X168657853Y-81414978D01*
X168212195Y-81414978D01*
X168209120Y-82591845D01*
X168206045Y-83768711D01*
X168179407Y-83827622D01*
X168167485Y-83852183D01*
X168150246Y-83882434D01*
X168137074Y-83899560D01*
X168129076Y-83907591D01*
X168121378Y-83922493D01*
X167829942Y-83922493D01*
X167829474Y-83830029D01*
X167829050Y-83714617D01*
X167828706Y-83584160D01*
X167828434Y-83437716D01*
X167828227Y-83274344D01*
X167828076Y-83093101D01*
X167827972Y-82893048D01*
X167827908Y-82673241D01*
X167827876Y-82432739D01*
X167827867Y-82170602D01*
X167827867Y-79979031D01*
X167866249Y-79940649D01*
X167893355Y-79916911D01*
X167920253Y-79905111D01*
X167956560Y-79902267D01*
X168008489Y-79902267D01*
X168008489Y-79990206D01*
X168010427Y-80040102D01*
X168029199Y-80150523D01*
X168066217Y-80251987D01*
X168119369Y-80343152D01*
X168186546Y-80422673D01*
X168265638Y-80489205D01*
X168354534Y-80541406D01*
X168451125Y-80577930D01*
X168553300Y-80597434D01*
X168658950Y-80598573D01*
X168765964Y-80580005D01*
X168872232Y-80540384D01*
X168969219Y-80482516D01*
X169054293Y-80407684D01*
X169123015Y-80319615D01*
X169173918Y-80220616D01*
X169205535Y-80112993D01*
X169216400Y-79999054D01*
X169216400Y-79902267D01*
X170836753Y-79902267D01*
X171047897Y-79902280D01*
X171252020Y-79902330D01*
X171435686Y-79902430D01*
X171599991Y-79902592D01*
X171746029Y-79902829D01*
X171874894Y-79903153D01*
X171987683Y-79903575D01*
X172085488Y-79904109D01*
X172169404Y-79904767D01*
X172240527Y-79905561D01*
X172299950Y-79906504D01*
X172348768Y-79907608D01*
X172388077Y-79908884D01*
X172418969Y-79910347D01*
X172442541Y-79912007D01*
X172459886Y-79913878D01*
X172472099Y-79915972D01*
X172480275Y-79918300D01*
X172485508Y-79920876D01*
X172491504Y-79924445D01*
X172498279Y-79927978D01*
X172504478Y-79931488D01*
X172510126Y-79935918D01*
X172515247Y-79942208D01*
X172519869Y-79951301D01*
X172524015Y-79964139D01*
X172527713Y-79981662D01*
X172530987Y-80004813D01*
X172533863Y-80034534D01*
X172536367Y-80071765D01*
X172538524Y-80117449D01*
X172540360Y-80172527D01*
X172541900Y-80237941D01*
X172543170Y-80314633D01*
X172544195Y-80403544D01*
X172545001Y-80505617D01*
X172545034Y-80511867D01*
X172545614Y-80621792D01*
G36*
X172545614Y-80621792D02*
G01*
X172546059Y-80753011D01*
X172546362Y-80900216D01*
X172546548Y-81064349D01*
X172546642Y-81246352D01*
X172546671Y-81447165D01*
X172546661Y-81667732D01*
X172546636Y-81908992D01*
X172546622Y-82171889D01*
X172546622Y-82214040D01*
X172546646Y-82474668D01*
X172546685Y-82713796D01*
X172546708Y-82932360D01*
X172546687Y-83131295D01*
X172546593Y-83311535D01*
X172546395Y-83474015D01*
X172546063Y-83619670D01*
X172545569Y-83749434D01*
X172544883Y-83864243D01*
X172543976Y-83965030D01*
X172542817Y-84052730D01*
X172541378Y-84128279D01*
X172539629Y-84192611D01*
X172537540Y-84246661D01*
X172535083Y-84291363D01*
X172532227Y-84327652D01*
X172528943Y-84356463D01*
X172525202Y-84378731D01*
X172520974Y-84395390D01*
X172516229Y-84407375D01*
X172510939Y-84415621D01*
X172505073Y-84421062D01*
X172498602Y-84424634D01*
X172491497Y-84427270D01*
X172483728Y-84429906D01*
X172475266Y-84433477D01*
X172470908Y-84435145D01*
X172462395Y-84437111D01*
X172449694Y-84438911D01*
X172431885Y-84440555D01*
X172408049Y-84442047D01*
X172377266Y-84443397D01*
X172338617Y-84444611D01*
X172291182Y-84445697D01*
X172234043Y-84446661D01*
X172166279Y-84447511D01*
X172086971Y-84448253D01*
X171995199Y-84448897D01*
X171890044Y-84449447D01*
X171770587Y-84449913D01*
X171635908Y-84450300D01*
X171485088Y-84450616D01*
X171317206Y-84450869D01*
X171131345Y-84451066D01*
X170926583Y-84451213D01*
X170702002Y-84451318D01*
X170456682Y-84451389D01*
X170189704Y-84451432D01*
X170151321Y-84451437D01*
X169885922Y-84451480D01*
X169642050Y-84451525D01*
X169418783Y-84451548D01*
X169215196Y-84451524D01*
X169030367Y-84451430D01*
X168863373Y-84451243D01*
X168713290Y-84450939D01*
X168579196Y-84450494D01*
X168460166Y-84449885D01*
X168355279Y-84449089D01*
X168263610Y-84448080D01*
X168184237Y-84446837D01*
X168116237Y-84445335D01*
X168058686Y-84443551D01*
X168010662Y-84441461D01*
X167971240Y-84439042D01*
X167939499Y-84436270D01*
X167914514Y-84433121D01*
X167895364Y-84429572D01*
X167881123Y-84425598D01*
X167870871Y-84421178D01*
X167863682Y-84416286D01*
X167858635Y-84410900D01*
X167854805Y-84404996D01*
X167851271Y-84398549D01*
X167847108Y-84391537D01*
X167846025Y-84389687D01*
X167843813Y-84384180D01*
X167841786Y-84375868D01*
X167839938Y-84363809D01*
X167838261Y-84347063D01*
X167836745Y-84324687D01*
X167835383Y-84295740D01*
X167834167Y-84259280D01*
X167833089Y-84214367D01*
X167832140Y-84160057D01*
X167831312Y-84095410D01*
X167830597Y-84019484D01*
X167829987Y-83931338D01*
X167829942Y-83922493D01*
X168121378Y-83922493D01*
X168125260Y-83923765D01*
X168148520Y-83925791D01*
X168190874Y-83927626D01*
X168250132Y-83929227D01*
X168324107Y-83930549D01*
X168410610Y-83931548D01*
X168507452Y-83932180D01*
X168612445Y-83932400D01*
X169310651Y-83932400D01*
X170465090Y-83932400D01*
X170464456Y-83856200D01*
X170465574Y-83814160D01*
X170471304Y-83778334D01*
X170483890Y-83740772D01*
X170505568Y-83692577D01*
X170508789Y-83685897D01*
X170534188Y-83636359D01*
X170560996Y-83588369D01*
X170583917Y-83551466D01*
X170588485Y-83544834D01*
X170610516Y-83513593D01*
X170642693Y-83468654D01*
X170683457Y-83412147D01*
X170731245Y-83346204D01*
X170784498Y-83272957D01*
X170841655Y-83194536D01*
X170901155Y-83113072D01*
X170961437Y-83030698D01*
X171020940Y-82949544D01*
X171078105Y-82871742D01*
X171131370Y-82799423D01*
X171179174Y-82734718D01*
X171219957Y-82679759D01*
X171252158Y-82636676D01*
X171274216Y-82607602D01*
X171284571Y-82594667D01*
X171289044Y-82590351D01*
X171293236Y-82588312D01*
X171296643Y-82590926D01*
X171299325Y-82599986D01*
X171301341Y-82617285D01*
X171302748Y-82644614D01*
X171303605Y-82683765D01*
X171303970Y-82736533D01*
X171303903Y-82804707D01*
X171303460Y-82890082D01*
X171302702Y-82994449D01*
X171301685Y-83119600D01*
X171301308Y-83164300D01*
X171300169Y-83285395D01*
X171298972Y-83386688D01*
X171297636Y-83470262D01*
X171296077Y-83538204D01*
X171294215Y-83592599D01*
X171291966Y-83635532D01*
X171289248Y-83669089D01*
X171285979Y-83695355D01*
X171282078Y-83716416D01*
X171277461Y-83734357D01*
X171269192Y-83760770D01*
X171245583Y-83822772D01*
X171219685Y-83875573D01*
X171194535Y-83912645D01*
X171193339Y-83914075D01*
X171191168Y-83918424D01*
X171193328Y-83922026D01*
X171201644Y-83924951D01*
X171217940Y-83927269D01*
X171244041Y-83929051D01*
X171281771Y-83930367D01*
X171332956Y-83931286D01*
X171399420Y-83931878D01*
X171482987Y-83932215D01*
X171585483Y-83932365D01*
X171708732Y-83932400D01*
X172240296Y-83932400D01*
X172201523Y-83874783D01*
X172195432Y-83865893D01*
X172184976Y-83851069D01*
X172175579Y-83837422D01*
X172167183Y-83823765D01*
X172159733Y-83808911D01*
X172153173Y-83791670D01*
X172147446Y-83770855D01*
X172142495Y-83745280D01*
X172138266Y-83713755D01*
X172134701Y-83675093D01*
X172131744Y-83628107D01*
X172129340Y-83571608D01*
X172127431Y-83504409D01*
X172125962Y-83425322D01*
X172124876Y-83333160D01*
X172124118Y-83226734D01*
X172123630Y-83104857D01*
X172123358Y-82966341D01*
X172123243Y-82809999D01*
X172123231Y-82634642D01*
X172123265Y-82439082D01*
X172123289Y-82222133D01*
X172123280Y-82099513D01*
X172123243Y-81894447D01*
X172123227Y-81710116D01*
X172123288Y-81545334D01*
X172123484Y-81398916D01*
X172123870Y-81269674D01*
X172124505Y-81156422D01*
X172125444Y-81057975D01*
X172126745Y-80973144D01*
X172128464Y-80900744D01*
X172130659Y-80839589D01*
X172133385Y-80788492D01*
X172136701Y-80746267D01*
X172140662Y-80711727D01*
X172145325Y-80683686D01*
X172150747Y-80660958D01*
X172156986Y-80642356D01*
X172164097Y-80626693D01*
X172172138Y-80612784D01*
X172181166Y-80599441D01*
X172191236Y-80585479D01*
X172202407Y-80569711D01*
X172242197Y-80511867D01*
X171182314Y-80511867D01*
X171220311Y-80574966D01*
X171234993Y-80600005D01*
X171249531Y-80627586D01*
X171261627Y-80655700D01*
X171271532Y-80686551D01*
X171279494Y-80722344D01*
X171285761Y-80765283D01*
X171290582Y-80817574D01*
X171294206Y-80881419D01*
X171296881Y-80959025D01*
X171298857Y-81052594D01*
X171300382Y-81164333D01*
X171301704Y-81296445D01*
X171302613Y-81416434D01*
X171303020Y-81533063D01*
X171302767Y-81628531D01*
X171301857Y-81702556D01*
X171300293Y-81754855D01*
X171298079Y-81785149D01*
X171295220Y-81793156D01*
X171292161Y-81789858D01*
X171274006Y-81768408D01*
X171244275Y-81731889D01*
X171204639Y-81682442D01*
X171156771Y-81622207D01*
X171102343Y-81553327D01*
X171043027Y-81477943D01*
X170980495Y-81398196D01*
X170916421Y-81316228D01*
X170852475Y-81234180D01*
X170790331Y-81154194D01*
X170731661Y-81078411D01*
X170678137Y-81008973D01*
X170631430Y-80948021D01*
X170593214Y-80897696D01*
X170565161Y-80860140D01*
X170548943Y-80837495D01*
X170503635Y-80765212D01*
X170463661Y-80685463D01*
X170442130Y-80617188D01*
X170438827Y-80559844D01*
X170444116Y-80511867D01*
X169312356Y-80512117D01*
X169351867Y-80542722D01*
X169361248Y-80550089D01*
X169424183Y-80604438D01*
X169492997Y-80672259D01*
X169569596Y-80755516D01*
X169655888Y-80856178D01*
X169673052Y-80876847D01*
X169713833Y-80926409D01*
X169763588Y-80987326D01*
X169820955Y-81057898D01*
X169884569Y-81136424D01*
X169953069Y-81221204D01*
X170025090Y-81310537D01*
X170099270Y-81402722D01*
X170114517Y-81421702D01*
X170174246Y-81496060D01*
X170248653Y-81588848D01*
X170321131Y-81679388D01*
X170390314Y-81765978D01*
X170454841Y-81846918D01*
X170513347Y-81920506D01*
X170564470Y-81985044D01*
X170606847Y-82038829D01*
X170639115Y-82080162D01*
X170659910Y-82107342D01*
X170667869Y-82118668D01*
X170666111Y-82122771D01*
X170653230Y-82143334D01*
X170628885Y-82179561D01*
X170594247Y-82229824D01*
X170550486Y-82292492D01*
X170498775Y-82365936D01*
X170440284Y-82448527D01*
X170376184Y-82538636D01*
X170307646Y-82634631D01*
X170235843Y-82734885D01*
X170161944Y-82837768D01*
X170087121Y-82941650D01*
X170012545Y-83044901D01*
X169939387Y-83145892D01*
X169868819Y-83242994D01*
X169802011Y-83334577D01*
X169740135Y-83419011D01*
X169684361Y-83494667D01*
X169635862Y-83559916D01*
X169595807Y-83613128D01*
X169565369Y-83652673D01*
X169544944Y-83678026D01*
X169498899Y-83732295D01*
X169448612Y-83788775D01*
X169401815Y-83838669D01*
X169310651Y-83932400D01*
X168612445Y-83932400D01*
X168681356Y-83932349D01*
X168779607Y-83932091D01*
X168869030Y-83931637D01*
X168947333Y-83931010D01*
X169012223Y-83930235D01*
X169061411Y-83929335D01*
X169092604Y-83928334D01*
X169103511Y-83927257D01*
X169102322Y-83924037D01*
X169092176Y-83906452D01*
X169075040Y-83880158D01*
X169066540Y-83867691D01*
X169057329Y-83853622D01*
X169049233Y-83839351D01*
X169042185Y-83823479D01*
X169036117Y-83804609D01*
X169030961Y-83781341D01*
X169026651Y-83752278D01*
X169023119Y-83716021D01*
X169020297Y-83671170D01*
X169018118Y-83616328D01*
X169016514Y-83550097D01*
X169015419Y-83471077D01*
X169014765Y-83377871D01*
X169014484Y-83269079D01*
X169014509Y-83143303D01*
X169014772Y-82999145D01*
X169015206Y-82835207D01*
X169015745Y-82650089D01*
X169016279Y-82471232D01*
X169016805Y-82312374D01*
X169017350Y-82173316D01*
X169017945Y-82052665D01*
X169018619Y-81949028D01*
X169019403Y-81861011D01*
X169020326Y-81787223D01*
X169021419Y-81726269D01*
X169022712Y-81676757D01*
X169024235Y-81637293D01*
X169026019Y-81606484D01*
X169028092Y-81582938D01*
X169030486Y-81565260D01*
X169033230Y-81552059D01*
X169036356Y-81541940D01*
X169039892Y-81533511D01*
X169043791Y-81525375D01*
X169063438Y-81488544D01*
X169082225Y-81458391D01*
X169083272Y-81456908D01*
X169097602Y-81434659D01*
X169103511Y-81421702D01*
X169102504Y-81421249D01*
X169085305Y-81419803D01*
X169048656Y-81418480D01*
X168994962Y-81417316D01*
X168926630Y-81416347D01*
X168846064Y-81415611D01*
X168755670Y-81415142D01*
X168657853Y-81414978D01*
X168212195Y-81414978D01*
X168209120Y-82591845D01*
X168206045Y-83768711D01*
X168179407Y-83827622D01*
X168167485Y-83852183D01*
X168150246Y-83882434D01*
X168137074Y-83899560D01*
X168129076Y-83907591D01*
X168121378Y-83922493D01*
X167829942Y-83922493D01*
X167829474Y-83830029D01*
X167829050Y-83714617D01*
X167828706Y-83584160D01*
X167828434Y-83437716D01*
X167828227Y-83274344D01*
X167828076Y-83093101D01*
X167827972Y-82893048D01*
X167827908Y-82673241D01*
X167827876Y-82432739D01*
X167827867Y-82170602D01*
X167827867Y-79979031D01*
X167866249Y-79940649D01*
X167893355Y-79916911D01*
X167920253Y-79905111D01*
X167956560Y-79902267D01*
X168008489Y-79902267D01*
X168008489Y-79990206D01*
X168010427Y-80040102D01*
X168029199Y-80150523D01*
X168066217Y-80251987D01*
X168119369Y-80343152D01*
X168186546Y-80422673D01*
X168265638Y-80489205D01*
X168354534Y-80541406D01*
X168451125Y-80577930D01*
X168553300Y-80597434D01*
X168658950Y-80598573D01*
X168765964Y-80580005D01*
X168872232Y-80540384D01*
X168969219Y-80482516D01*
X169054293Y-80407684D01*
X169123015Y-80319615D01*
X169173918Y-80220616D01*
X169205535Y-80112993D01*
X169216400Y-79999054D01*
X169216400Y-79902267D01*
X170836753Y-79902267D01*
X171047897Y-79902280D01*
X171252020Y-79902330D01*
X171435686Y-79902430D01*
X171599991Y-79902592D01*
X171746029Y-79902829D01*
X171874894Y-79903153D01*
X171987683Y-79903575D01*
X172085488Y-79904109D01*
X172169404Y-79904767D01*
X172240527Y-79905561D01*
X172299950Y-79906504D01*
X172348768Y-79907608D01*
X172388077Y-79908884D01*
X172418969Y-79910347D01*
X172442541Y-79912007D01*
X172459886Y-79913878D01*
X172472099Y-79915972D01*
X172480275Y-79918300D01*
X172485508Y-79920876D01*
X172491504Y-79924445D01*
X172498279Y-79927978D01*
X172504478Y-79931488D01*
X172510126Y-79935918D01*
X172515247Y-79942208D01*
X172519869Y-79951301D01*
X172524015Y-79964139D01*
X172527713Y-79981662D01*
X172530987Y-80004813D01*
X172533863Y-80034534D01*
X172536367Y-80071765D01*
X172538524Y-80117449D01*
X172540360Y-80172527D01*
X172541900Y-80237941D01*
X172543170Y-80314633D01*
X172544195Y-80403544D01*
X172545001Y-80505617D01*
X172545034Y-80511867D01*
X172545614Y-80621792D01*
G37*
D12*
%TO.C,G\u002A\u002A\u002A*%
G36*
X160109025Y-105932969D02*
G01*
X160112663Y-105934560D01*
X160117571Y-105937781D01*
X160124161Y-105943009D01*
X160132845Y-105950622D01*
X160144034Y-105960995D01*
X160158139Y-105974506D01*
X160175573Y-105991532D01*
X160196745Y-106012450D01*
X160222069Y-106037636D01*
X160326319Y-106141546D01*
X160326364Y-106206926D01*
X160326368Y-106210037D01*
X160326492Y-106230180D01*
X160326764Y-106248235D01*
X160327156Y-106263097D01*
X160327641Y-106273660D01*
X160328188Y-106278817D01*
X160328698Y-106279902D01*
X160333209Y-106285336D01*
X160340995Y-106292909D01*
X160350556Y-106301337D01*
X160360392Y-106309332D01*
X160369006Y-106315610D01*
X160374897Y-106318884D01*
X160375777Y-106317873D01*
X160376970Y-106310974D01*
X160377932Y-106297607D01*
X160378661Y-106277795D01*
X160379157Y-106251561D01*
X160380036Y-106183111D01*
X160401198Y-106200188D01*
X160422359Y-106217265D01*
X160423220Y-106319123D01*
X160424080Y-106420980D01*
X160414738Y-106413382D01*
X160414686Y-106413340D01*
X160409209Y-106408815D01*
X160399730Y-106400912D01*
X160387212Y-106390438D01*
X160372616Y-106378196D01*
X160356905Y-106364992D01*
X160356677Y-106364800D01*
X160340945Y-106351603D01*
X160326305Y-106339390D01*
X160313729Y-106328965D01*
X160304186Y-106321134D01*
X160298647Y-106316699D01*
X160297689Y-106315960D01*
X160292340Y-106311498D01*
X160288272Y-106306888D01*
X160285308Y-106301220D01*
X160283271Y-106293587D01*
X160281984Y-106283078D01*
X160281270Y-106268786D01*
X160280954Y-106249800D01*
X160280857Y-106225212D01*
X160280741Y-106155329D01*
X160184603Y-106060806D01*
X160172946Y-106049340D01*
X160151273Y-106027970D01*
X160133651Y-106010471D01*
X160119663Y-105996384D01*
X160108893Y-105985249D01*
X160100926Y-105976607D01*
X160095344Y-105969997D01*
X160091734Y-105964961D01*
X160089677Y-105961039D01*
X160088759Y-105957770D01*
X160088564Y-105954696D01*
X160088645Y-105951998D01*
X160091198Y-105940315D01*
X160097419Y-105933924D01*
X160107453Y-105932656D01*
X160109025Y-105932969D01*
G37*
G36*
X159677812Y-106286925D02*
G01*
X159678284Y-106301833D01*
X159677993Y-106312496D01*
X159676616Y-106320996D01*
X159673829Y-106329414D01*
X159669311Y-106339834D01*
X159667517Y-106343646D01*
X159652098Y-106368607D01*
X159632549Y-106389285D01*
X159609596Y-106405036D01*
X159583969Y-106415216D01*
X159567844Y-106418599D01*
X159539084Y-106419958D01*
X159511674Y-106415470D01*
X159486316Y-106405543D01*
X159463707Y-106390581D01*
X159444549Y-106370993D01*
X159429539Y-106347185D01*
X159419379Y-106319562D01*
X159418108Y-106314045D01*
X159415696Y-106287224D01*
X159484036Y-106287224D01*
X159486294Y-106306166D01*
X159488926Y-106313430D01*
X159497439Y-106327539D01*
X159508836Y-106339702D01*
X159521223Y-106347669D01*
X159525773Y-106349267D01*
X159542306Y-106351753D01*
X159560149Y-106350578D01*
X159576287Y-106345840D01*
X159581370Y-106343262D01*
X159595861Y-106331593D01*
X159605283Y-106315896D01*
X159609486Y-106296397D01*
X159609820Y-106286663D01*
X159607790Y-106271354D01*
X159601577Y-106258659D01*
X159590381Y-106246488D01*
X159587716Y-106244192D01*
X159571319Y-106234207D01*
X159554104Y-106229643D01*
X159536972Y-106229984D01*
X159520821Y-106234716D01*
X159506552Y-106243322D01*
X159495066Y-106255286D01*
X159487260Y-106270091D01*
X159484036Y-106287224D01*
X159415696Y-106287224D01*
X159415685Y-106287105D01*
X159419188Y-106260753D01*
X159428140Y-106235804D01*
X159442067Y-106213072D01*
X159460491Y-106193372D01*
X159482938Y-106177517D01*
X159508931Y-106166323D01*
X159526562Y-106162097D01*
X159554450Y-106160614D01*
X159582580Y-106165535D01*
X159611235Y-106176887D01*
X159632735Y-106190768D01*
X159652311Y-106210413D01*
X159667171Y-106233871D01*
X159668276Y-106236183D01*
X159672457Y-106246302D01*
X159675135Y-106256446D01*
X159676751Y-106268777D01*
X159677749Y-106285456D01*
X159677801Y-106286663D01*
X159677812Y-106286925D01*
G37*
G36*
X160190538Y-106117798D02*
G01*
X160194905Y-106120643D01*
X160202537Y-106126457D01*
X160212090Y-106134226D01*
X160231908Y-106150786D01*
X160231908Y-106225255D01*
X160231843Y-106241499D01*
X160231705Y-106261684D01*
X160231935Y-106277121D01*
X160233001Y-106288869D01*
X160235371Y-106297986D01*
X160239514Y-106305531D01*
X160245899Y-106312563D01*
X160254993Y-106320142D01*
X160267265Y-106329326D01*
X160283183Y-106341173D01*
X160285968Y-106343292D01*
X160299540Y-106354064D01*
X160310248Y-106363318D01*
X160317271Y-106370312D01*
X160319790Y-106374303D01*
X160319212Y-106379231D01*
X160317248Y-106388904D01*
X160314473Y-106400074D01*
X160311490Y-106410125D01*
X160310801Y-106411450D01*
X160307542Y-106411749D01*
X160301087Y-106407572D01*
X160292638Y-106401284D01*
X160283997Y-106395195D01*
X160281210Y-106393246D01*
X160273172Y-106387446D01*
X160261686Y-106379046D01*
X160247839Y-106368844D01*
X160232722Y-106357638D01*
X160189585Y-106325565D01*
X160189029Y-106308702D01*
X160188844Y-106302277D01*
X160188532Y-106285964D01*
X160188322Y-106266727D01*
X160188208Y-106245508D01*
X160188184Y-106223252D01*
X160188246Y-106200902D01*
X160188389Y-106179402D01*
X160188606Y-106159695D01*
X160188892Y-106142724D01*
X160189243Y-106129434D01*
X160189652Y-106120768D01*
X160190114Y-106117669D01*
X160190538Y-106117798D01*
G37*
G36*
X162161930Y-106361751D02*
G01*
X162156353Y-106379016D01*
X162145013Y-106393802D01*
X162128280Y-106405549D01*
X162128035Y-106405675D01*
X162113185Y-106409950D01*
X162096154Y-106409541D01*
X162079191Y-106404495D01*
X162074484Y-106402124D01*
X162060649Y-106391387D01*
X162051729Y-106378088D01*
X162047468Y-106363248D01*
X162047608Y-106348296D01*
X162078771Y-106348296D01*
X162078964Y-106358970D01*
X162085144Y-106369529D01*
X162085397Y-106369805D01*
X162096186Y-106377574D01*
X162107678Y-106379424D01*
X162118510Y-106375472D01*
X162127321Y-106365838D01*
X162129965Y-106360727D01*
X162130792Y-106354464D01*
X162128142Y-106346327D01*
X162126164Y-106342461D01*
X162117726Y-106333962D01*
X162106836Y-106330394D01*
X162095130Y-106332027D01*
X162084247Y-106339128D01*
X162078771Y-106348296D01*
X162047608Y-106348296D01*
X162047612Y-106347888D01*
X162051907Y-106333030D01*
X162060097Y-106319695D01*
X162071927Y-106308906D01*
X162087144Y-106301683D01*
X162105491Y-106299048D01*
X162121896Y-106301072D01*
X162138493Y-106308278D01*
X162151298Y-106319997D01*
X162159545Y-106335489D01*
X162162464Y-106354012D01*
X162162433Y-106354464D01*
X162161930Y-106361751D01*
G37*
G36*
X160924751Y-106357554D02*
G01*
X160920359Y-106375075D01*
X160911017Y-106389983D01*
X160897430Y-106401194D01*
X160880301Y-106407627D01*
X160865951Y-106408773D01*
X160848051Y-106405738D01*
X160832285Y-106398212D01*
X160820400Y-106386802D01*
X160818381Y-106383496D01*
X160813724Y-106370226D01*
X160811649Y-106354496D01*
X160811887Y-106349257D01*
X160841202Y-106349257D01*
X160842151Y-106359888D01*
X160848691Y-106370121D01*
X160852984Y-106373634D01*
X160864183Y-106377913D01*
X160875681Y-106376977D01*
X160885429Y-106370787D01*
X160885777Y-106370407D01*
X160892404Y-106359251D01*
X160893273Y-106348191D01*
X160888983Y-106338597D01*
X160880130Y-106331836D01*
X160867312Y-106329279D01*
X160865363Y-106329334D01*
X160853464Y-106332543D01*
X160845192Y-106339663D01*
X160841202Y-106349257D01*
X160811887Y-106349257D01*
X160812351Y-106339022D01*
X160816027Y-106326518D01*
X160819849Y-106320720D01*
X160831031Y-106310203D01*
X160845200Y-106302000D01*
X160860027Y-106297640D01*
X160860410Y-106297590D01*
X160877018Y-106298344D01*
X160893171Y-106304030D01*
X160907372Y-106313640D01*
X160918120Y-106326168D01*
X160923919Y-106340604D01*
X160924291Y-106348191D01*
X160924751Y-106357554D01*
G37*
G36*
X161456809Y-106315581D02*
G01*
X161469983Y-106322604D01*
X161480918Y-106334463D01*
X161485420Y-106345813D01*
X161485648Y-106360066D01*
X161481391Y-106374302D01*
X161473214Y-106386727D01*
X161461681Y-106395547D01*
X161448984Y-106399867D01*
X161433300Y-106400110D01*
X161419225Y-106395061D01*
X161407836Y-106385398D01*
X161400207Y-106371800D01*
X161397416Y-106354949D01*
X161399112Y-106342757D01*
X161405587Y-106329991D01*
X161415786Y-106320598D01*
X161428518Y-106314871D01*
X161442590Y-106313101D01*
X161456809Y-106315581D01*
G37*
G36*
X160057265Y-106032223D02*
G01*
X160062700Y-106033693D01*
X160072498Y-106035145D01*
X160084670Y-106036277D01*
X160108350Y-106037905D01*
X159957621Y-106188475D01*
X159806892Y-106339046D01*
X159755698Y-106339046D01*
X159736484Y-106338933D01*
X159721444Y-106338525D01*
X159711563Y-106337767D01*
X159706142Y-106336603D01*
X159704485Y-106334976D01*
X159705113Y-106331849D01*
X159707772Y-106323920D01*
X159711810Y-106313870D01*
X159719155Y-106296834D01*
X159754647Y-106296779D01*
X159790140Y-106296723D01*
X159806737Y-106279617D01*
X159820071Y-106265892D01*
X159850323Y-106234888D01*
X159879804Y-106204854D01*
X159908171Y-106176128D01*
X159935084Y-106149048D01*
X159960202Y-106123950D01*
X159983182Y-106101172D01*
X160003685Y-106081051D01*
X160021368Y-106063926D01*
X160035891Y-106050132D01*
X160046912Y-106040008D01*
X160054090Y-106033890D01*
X160057084Y-106032117D01*
X160057265Y-106032223D01*
G37*
G36*
X162116886Y-105959663D02*
G01*
X162116856Y-106002360D01*
X162116769Y-106043411D01*
X162116630Y-106082096D01*
X162116442Y-106117955D01*
X162116209Y-106150527D01*
X162115937Y-106179352D01*
X162115630Y-106203969D01*
X162115291Y-106223918D01*
X162114926Y-106238737D01*
X162114538Y-106247966D01*
X162114132Y-106251145D01*
X162114013Y-106251159D01*
X162109964Y-106253150D01*
X162101743Y-106258022D01*
X162090483Y-106265083D01*
X162077313Y-106273643D01*
X162076478Y-106274196D01*
X162056011Y-106288684D01*
X162040593Y-106301779D01*
X162029210Y-106314338D01*
X162015171Y-106332534D01*
X161974872Y-106332534D01*
X161934574Y-106332534D01*
X161934574Y-106309745D01*
X161934574Y-106286956D01*
X161963468Y-106286956D01*
X161992363Y-106286956D01*
X162021255Y-106263866D01*
X162030865Y-106256190D01*
X162043463Y-106246142D01*
X162054197Y-106237595D01*
X162061457Y-106231833D01*
X162072768Y-106222891D01*
X162074050Y-105968604D01*
X162075333Y-105714317D01*
X162096110Y-105691249D01*
X162116886Y-105668181D01*
X162116886Y-105959663D01*
G37*
G36*
X161284658Y-105655438D02*
G01*
X161324153Y-105655502D01*
X161342590Y-105677413D01*
X161344609Y-105679812D01*
X161373534Y-105714021D01*
X161406547Y-105752795D01*
X161443731Y-105796232D01*
X161485170Y-105844428D01*
X161496952Y-105858156D01*
X161519000Y-105884146D01*
X161538157Y-105907157D01*
X161554179Y-105926879D01*
X161566822Y-105943003D01*
X161575840Y-105955219D01*
X161580988Y-105963218D01*
X161582021Y-105966690D01*
X161581751Y-105966832D01*
X161576949Y-105967176D01*
X161567698Y-105966885D01*
X161555700Y-105966005D01*
X161547656Y-105965244D01*
X161540087Y-105964100D01*
X161533655Y-105962041D01*
X161527466Y-105958395D01*
X161520625Y-105952489D01*
X161512240Y-105943649D01*
X161501415Y-105931203D01*
X161487257Y-105914478D01*
X161485040Y-105911881D01*
X161476830Y-105903070D01*
X161471624Y-105899238D01*
X161468947Y-105900008D01*
X161468615Y-105902209D01*
X161468104Y-105910464D01*
X161467556Y-105924205D01*
X161466986Y-105942836D01*
X161466407Y-105965756D01*
X161465836Y-105992367D01*
X161465286Y-106022072D01*
X161464773Y-106054271D01*
X161464310Y-106088366D01*
X161463917Y-106119855D01*
X161463468Y-106154319D01*
X161463052Y-106183204D01*
X161462642Y-106207029D01*
X161462216Y-106226315D01*
X161461746Y-106241583D01*
X161461210Y-106253352D01*
X161460582Y-106262142D01*
X161459837Y-106268475D01*
X161458950Y-106272870D01*
X161457898Y-106275847D01*
X161456654Y-106277928D01*
X161455194Y-106279631D01*
X161446657Y-106285604D01*
X161437136Y-106286159D01*
X161428482Y-106280611D01*
X161427177Y-106278862D01*
X161425959Y-106276070D01*
X161424991Y-106271810D01*
X161424248Y-106265453D01*
X161423705Y-106256367D01*
X161423336Y-106243922D01*
X161423115Y-106227488D01*
X161423017Y-106206434D01*
X161423015Y-106180131D01*
X161423085Y-106147946D01*
X161423164Y-106127059D01*
X161423373Y-106092461D01*
X161423674Y-106056643D01*
X161424048Y-106021151D01*
X161424479Y-105987533D01*
X161424950Y-105957333D01*
X161425444Y-105932099D01*
X161427457Y-105842570D01*
X161408965Y-105821409D01*
X161404090Y-105815703D01*
X161399138Y-105809828D01*
X161394896Y-105805127D01*
X161391304Y-105801983D01*
X161388304Y-105800776D01*
X161385835Y-105801888D01*
X161383839Y-105805699D01*
X161382256Y-105812590D01*
X161381026Y-105822943D01*
X161380090Y-105837138D01*
X161379389Y-105855558D01*
X161378863Y-105878581D01*
X161378452Y-105906591D01*
X161378099Y-105939968D01*
X161377742Y-105979092D01*
X161377322Y-106024345D01*
X161377080Y-106048305D01*
X161376674Y-106084746D01*
X161376248Y-106118922D01*
X161375811Y-106150300D01*
X161375372Y-106178351D01*
X161374940Y-106202544D01*
X161374524Y-106222349D01*
X161374134Y-106237234D01*
X161373778Y-106246670D01*
X161373465Y-106250125D01*
X161370339Y-106249550D01*
X161363218Y-106246239D01*
X161353758Y-106240895D01*
X161335732Y-106229984D01*
X161335640Y-106002596D01*
X161335639Y-105998847D01*
X161335633Y-105955059D01*
X161335659Y-105917282D01*
X161335726Y-105885053D01*
X161335846Y-105857909D01*
X161336028Y-105835386D01*
X161336283Y-105817021D01*
X161336622Y-105802351D01*
X161337055Y-105790912D01*
X161337593Y-105782241D01*
X161338246Y-105775876D01*
X161339024Y-105771352D01*
X161339939Y-105768207D01*
X161341000Y-105765977D01*
X161342475Y-105763429D01*
X161344267Y-105758967D01*
X161343627Y-105754648D01*
X161340022Y-105748720D01*
X161332918Y-105739430D01*
X161327245Y-105732210D01*
X161315500Y-105717658D01*
X161306742Y-105707587D01*
X161300400Y-105701418D01*
X161295903Y-105698569D01*
X161292681Y-105698459D01*
X161292501Y-105698548D01*
X161291607Y-105699767D01*
X161290817Y-105702540D01*
X161290119Y-105707281D01*
X161289503Y-105714402D01*
X161288957Y-105724316D01*
X161288469Y-105737437D01*
X161288030Y-105754178D01*
X161287627Y-105774951D01*
X161287250Y-105800170D01*
X161286887Y-105830248D01*
X161286527Y-105865598D01*
X161286159Y-105906633D01*
X161285771Y-105953765D01*
X161285706Y-105962153D01*
X161285429Y-106002134D01*
X161285223Y-106040294D01*
X161285088Y-106076111D01*
X161285021Y-106109064D01*
X161285023Y-106138633D01*
X161285094Y-106164295D01*
X161285232Y-106185531D01*
X161285437Y-106201820D01*
X161285709Y-106212639D01*
X161286047Y-106217469D01*
X161287272Y-106221123D01*
X161290525Y-106226325D01*
X161296197Y-106232346D01*
X161304912Y-106239704D01*
X161317297Y-106248916D01*
X161333978Y-106260500D01*
X161355582Y-106274974D01*
X161363998Y-106280723D01*
X161374635Y-106288546D01*
X161382287Y-106294872D01*
X161385696Y-106298709D01*
X161385996Y-106299541D01*
X161387570Y-106309112D01*
X161386738Y-106318773D01*
X161383730Y-106325372D01*
X161383399Y-106325696D01*
X161378976Y-106328628D01*
X161373408Y-106329443D01*
X161366012Y-106327847D01*
X161356107Y-106323550D01*
X161343011Y-106316261D01*
X161326040Y-106305687D01*
X161304513Y-106291538D01*
X161299999Y-106288520D01*
X161283149Y-106277123D01*
X161268223Y-106266833D01*
X161256102Y-106258267D01*
X161247662Y-106252044D01*
X161243782Y-106248783D01*
X161243733Y-106248719D01*
X161242967Y-106246467D01*
X161242304Y-106241715D01*
X161241740Y-106234096D01*
X161241270Y-106223248D01*
X161240889Y-106208805D01*
X161240593Y-106190402D01*
X161240377Y-106167676D01*
X161240236Y-106140261D01*
X161240166Y-106107794D01*
X161240162Y-106069909D01*
X161240220Y-106026243D01*
X161240334Y-105976430D01*
X161240385Y-105959102D01*
X161240539Y-105917720D01*
X161240733Y-105877921D01*
X161240961Y-105840253D01*
X161241220Y-105805263D01*
X161241503Y-105773500D01*
X161241805Y-105745509D01*
X161242122Y-105721840D01*
X161242448Y-105703039D01*
X161242777Y-105689654D01*
X161243105Y-105682233D01*
X161245162Y-105655375D01*
X161284658Y-105655438D01*
G37*
G36*
X162211652Y-105622460D02*
G01*
X162212403Y-105623340D01*
X162213061Y-105625725D01*
X162213630Y-105629975D01*
X162214115Y-105636445D01*
X162214519Y-105645494D01*
X162214846Y-105657478D01*
X162215101Y-105672756D01*
X162215286Y-105691685D01*
X162215407Y-105714623D01*
X162215467Y-105741926D01*
X162215470Y-105773954D01*
X162215419Y-105811062D01*
X162215320Y-105853608D01*
X162215175Y-105901951D01*
X162214990Y-105956447D01*
X162213799Y-106291703D01*
X162204689Y-106302754D01*
X162203040Y-106304683D01*
X162194513Y-106313298D01*
X162186346Y-106319893D01*
X162185639Y-106320355D01*
X162178818Y-106324350D01*
X162174672Y-106326002D01*
X162174659Y-106325997D01*
X162174330Y-106322563D01*
X162174015Y-106313055D01*
X162173716Y-106297895D01*
X162173435Y-106277501D01*
X162173177Y-106252296D01*
X162172944Y-106222699D01*
X162172738Y-106189132D01*
X162172563Y-106152014D01*
X162172422Y-106111766D01*
X162172318Y-106068810D01*
X162172253Y-106023565D01*
X162172231Y-105976452D01*
X162172231Y-105626881D01*
X162189322Y-105625301D01*
X162195654Y-105624663D01*
X162205378Y-105623470D01*
X162211298Y-105622456D01*
X162211652Y-105622460D01*
G37*
G36*
X161388729Y-105585906D02*
G01*
X161391282Y-105589092D01*
X161400011Y-105600021D01*
X161411557Y-105614512D01*
X161425048Y-105631468D01*
X161439613Y-105649795D01*
X161454379Y-105668397D01*
X161460993Y-105676733D01*
X161475358Y-105694834D01*
X161488886Y-105711875D01*
X161500775Y-105726845D01*
X161510222Y-105738734D01*
X161516425Y-105746531D01*
X161527602Y-105760561D01*
X161547050Y-105785002D01*
X161562970Y-105805101D01*
X161575715Y-105821358D01*
X161585640Y-105834275D01*
X161593096Y-105844351D01*
X161598436Y-105852086D01*
X161602014Y-105857981D01*
X161604183Y-105862537D01*
X161605295Y-105866253D01*
X161605703Y-105869630D01*
X161605761Y-105873169D01*
X161605628Y-105877245D01*
X161603354Y-105886047D01*
X161597237Y-105892752D01*
X161591334Y-105896871D01*
X161586509Y-105897471D01*
X161580145Y-105894290D01*
X161576532Y-105890947D01*
X161569289Y-105882980D01*
X161559044Y-105871070D01*
X161546311Y-105855831D01*
X161531605Y-105837879D01*
X161515439Y-105817829D01*
X161498327Y-105796297D01*
X161487177Y-105782169D01*
X161467964Y-105757826D01*
X161448751Y-105733487D01*
X161430345Y-105710173D01*
X161413553Y-105688908D01*
X161399181Y-105670710D01*
X161388035Y-105656604D01*
X161350993Y-105609736D01*
X161191072Y-105610580D01*
X161031152Y-105611424D01*
X161030907Y-105948000D01*
X161030662Y-106284575D01*
X161011373Y-106301917D01*
X161008917Y-106304108D01*
X160999919Y-106311842D01*
X160993052Y-106317290D01*
X160989643Y-106319385D01*
X160989568Y-106319221D01*
X160989251Y-106314624D01*
X160988953Y-106304025D01*
X160988677Y-106287838D01*
X160988424Y-106266475D01*
X160988198Y-106240352D01*
X160988001Y-106209881D01*
X160987834Y-106175478D01*
X160987701Y-106137556D01*
X160987604Y-106096529D01*
X160987545Y-106052811D01*
X160987527Y-106006815D01*
X160987552Y-105958957D01*
X160987904Y-105598402D01*
X161005797Y-105582124D01*
X161023690Y-105565846D01*
X161197275Y-105564745D01*
X161370860Y-105563643D01*
X161388729Y-105585906D01*
G37*
G36*
X160812459Y-105573402D02*
G01*
X160824606Y-105585842D01*
X160824575Y-105916052D01*
X160824545Y-106246262D01*
X160803293Y-106266609D01*
X160798579Y-106271083D01*
X160789758Y-106279224D01*
X160783312Y-106284854D01*
X160780386Y-106286956D01*
X160780199Y-106284337D01*
X160780038Y-106275620D01*
X160779925Y-106261203D01*
X160779860Y-106241511D01*
X160779841Y-106216970D01*
X160779867Y-106188004D01*
X160779939Y-106155040D01*
X160780056Y-106118502D01*
X160780216Y-106078816D01*
X160780419Y-106036407D01*
X160780664Y-105991700D01*
X160780951Y-105945121D01*
X160783171Y-105603285D01*
X160597068Y-105603285D01*
X160410964Y-105603285D01*
X160410964Y-105582124D01*
X160410964Y-105560963D01*
X160605638Y-105560963D01*
X160800312Y-105560963D01*
X160812459Y-105573402D01*
G37*
G36*
X160907430Y-105620514D02*
G01*
X160928581Y-105621191D01*
X160928588Y-105757925D01*
X160928586Y-105763820D01*
X160928529Y-105795553D01*
X160928394Y-105832284D01*
X160928192Y-105872762D01*
X160927929Y-105915734D01*
X160927613Y-105959951D01*
X160927254Y-106004160D01*
X160926859Y-106047111D01*
X160926437Y-106087552D01*
X160926041Y-106120413D01*
X160925586Y-106153297D01*
X160925106Y-106183633D01*
X160924613Y-106210855D01*
X160924119Y-106234397D01*
X160923636Y-106253693D01*
X160923175Y-106268177D01*
X160922749Y-106277282D01*
X160922370Y-106280443D01*
X160922141Y-106280389D01*
X160918145Y-106277947D01*
X160910703Y-106272595D01*
X160901220Y-106265335D01*
X160881978Y-106250230D01*
X160884120Y-105960127D01*
X160884396Y-105922520D01*
X160884704Y-105880181D01*
X160884994Y-105839705D01*
X160885263Y-105801608D01*
X160885508Y-105766407D01*
X160885725Y-105734617D01*
X160885911Y-105706757D01*
X160886062Y-105683342D01*
X160886175Y-105664888D01*
X160886245Y-105651912D01*
X160886270Y-105644931D01*
X160886278Y-105619837D01*
X160907430Y-105620514D01*
G37*
G36*
X159954992Y-106016356D02*
G01*
X159961600Y-106017394D01*
X159969540Y-106018549D01*
X159985523Y-106020554D01*
X159868634Y-106137477D01*
X159751744Y-106254401D01*
X159724869Y-106254401D01*
X159720464Y-106254370D01*
X159708991Y-106253962D01*
X159700996Y-106253179D01*
X159697993Y-106252148D01*
X159698202Y-106251804D01*
X159701741Y-106247827D01*
X159709327Y-106239824D01*
X159720527Y-106228237D01*
X159734909Y-106213506D01*
X159752043Y-106196072D01*
X159771496Y-106176377D01*
X159792836Y-106154862D01*
X159815632Y-106131967D01*
X159835553Y-106111967D01*
X159858583Y-106088807D01*
X159877767Y-106069582D01*
X159893575Y-106053944D01*
X159906477Y-106041547D01*
X159916946Y-106032043D01*
X159925450Y-106025086D01*
X159932461Y-106020328D01*
X159938451Y-106017423D01*
X159943888Y-106016024D01*
X159949245Y-106015784D01*
X159954992Y-106016356D01*
G37*
G36*
X162006318Y-106109439D02*
G01*
X162014483Y-106115891D01*
X162016458Y-106117934D01*
X162018936Y-106121237D01*
X162020619Y-106125470D01*
X162021661Y-106131747D01*
X162022215Y-106141186D01*
X162022435Y-106154903D01*
X162022474Y-106174015D01*
X162022474Y-106224148D01*
X162003802Y-106234167D01*
X161994533Y-106239004D01*
X161987420Y-106242443D01*
X161984447Y-106243503D01*
X161984210Y-106240431D01*
X161983939Y-106231840D01*
X161983664Y-106218767D01*
X161983406Y-106202248D01*
X161983188Y-106183318D01*
X161983143Y-106178644D01*
X161982998Y-106158749D01*
X161983062Y-106144165D01*
X161983436Y-106133889D01*
X161984223Y-106126922D01*
X161985526Y-106122262D01*
X161987447Y-106118908D01*
X161990088Y-106115858D01*
X161991963Y-106113940D01*
X161999384Y-106108789D01*
X162006318Y-106109439D01*
G37*
G36*
X159695971Y-105623558D02*
G01*
X159700644Y-105628283D01*
X159716092Y-105643813D01*
X159735053Y-105662778D01*
X159756701Y-105684354D01*
X159780208Y-105707721D01*
X159804749Y-105732055D01*
X159829496Y-105756535D01*
X159853623Y-105780339D01*
X159857137Y-105783801D01*
X159881406Y-105807736D01*
X159901470Y-105827604D01*
X159917722Y-105843840D01*
X159930556Y-105856876D01*
X159940367Y-105867146D01*
X159947549Y-105875083D01*
X159952495Y-105881121D01*
X159955599Y-105885693D01*
X159957256Y-105889232D01*
X159957858Y-105892173D01*
X159957802Y-105894948D01*
X159957293Y-105897314D01*
X159955778Y-105900631D01*
X159952948Y-105904987D01*
X159948470Y-105910738D01*
X159942015Y-105918238D01*
X159933252Y-105927840D01*
X159921849Y-105939901D01*
X159907478Y-105954774D01*
X159889806Y-105972814D01*
X159868503Y-105994376D01*
X159843239Y-106019814D01*
X159813682Y-106049482D01*
X159670553Y-106193013D01*
X159656292Y-106177702D01*
X159642031Y-106162391D01*
X159665934Y-106137587D01*
X159670301Y-106133085D01*
X159680340Y-106122819D01*
X159693967Y-106108947D01*
X159710580Y-106092078D01*
X159729575Y-106072825D01*
X159750352Y-106051797D01*
X159772306Y-106029606D01*
X159794837Y-106006863D01*
X159808852Y-105992698D01*
X159834133Y-105966966D01*
X159855003Y-105945440D01*
X159871652Y-105927915D01*
X159884269Y-105914186D01*
X159893046Y-105904047D01*
X159898172Y-105897293D01*
X159899839Y-105893721D01*
X159899111Y-105891563D01*
X159895141Y-105885803D01*
X159887519Y-105876822D01*
X159876019Y-105864380D01*
X159860417Y-105848235D01*
X159840488Y-105828146D01*
X159816008Y-105803874D01*
X159807150Y-105795143D01*
X159783563Y-105771893D01*
X159758827Y-105747510D01*
X159734100Y-105723133D01*
X159710539Y-105699904D01*
X159689302Y-105678964D01*
X159671544Y-105661453D01*
X159610912Y-105601658D01*
X159627199Y-105586019D01*
X159643487Y-105570381D01*
X159695971Y-105623558D01*
G37*
G36*
X159681347Y-105476527D02*
G01*
X159692937Y-105477172D01*
X159702462Y-105478272D01*
X159708182Y-105479800D01*
X159713204Y-105481578D01*
X159719198Y-105479538D01*
X159721465Y-105478492D01*
X159730243Y-105477174D01*
X159745135Y-105476636D01*
X159766319Y-105476870D01*
X159808929Y-105477946D01*
X160089876Y-105759374D01*
X160119456Y-105788991D01*
X160154052Y-105823593D01*
X160187168Y-105856676D01*
X160218520Y-105887957D01*
X160247827Y-105917157D01*
X160274803Y-105943994D01*
X160299167Y-105968187D01*
X160320634Y-105989454D01*
X160338922Y-106007515D01*
X160353748Y-106022087D01*
X160364827Y-106032891D01*
X160371878Y-106039645D01*
X160374616Y-106042067D01*
X160375358Y-106041227D01*
X160376143Y-106036968D01*
X160376795Y-106028802D01*
X160377324Y-106016357D01*
X160377737Y-105999262D01*
X160378044Y-105977143D01*
X160378252Y-105949629D01*
X160378371Y-105916349D01*
X160378409Y-105876930D01*
X160378409Y-105710529D01*
X160399570Y-105727486D01*
X160420731Y-105744444D01*
X160420844Y-105840713D01*
X160420845Y-105841508D01*
X160420945Y-105870942D01*
X160421161Y-105904861D01*
X160421476Y-105941297D01*
X160421870Y-105978284D01*
X160422325Y-106013855D01*
X160422821Y-106046044D01*
X160424685Y-106155106D01*
X160417011Y-106148857D01*
X160416018Y-106147947D01*
X160410693Y-106142781D01*
X160401177Y-106133408D01*
X160387744Y-106120101D01*
X160370666Y-106103132D01*
X160350217Y-106082773D01*
X160326670Y-106059298D01*
X160300297Y-106032978D01*
X160271373Y-106004087D01*
X160240170Y-105972897D01*
X160206962Y-105939679D01*
X160172021Y-105904708D01*
X160135620Y-105868255D01*
X160098034Y-105830593D01*
X159786731Y-105518577D01*
X159725508Y-105519423D01*
X159664285Y-105520268D01*
X159656723Y-105500853D01*
X159653143Y-105491356D01*
X159650264Y-105483040D01*
X159649160Y-105478878D01*
X159651614Y-105477590D01*
X159658944Y-105476708D01*
X159669436Y-105476363D01*
X159681347Y-105476527D01*
G37*
G36*
X162014220Y-106041171D02*
G01*
X162024596Y-106047633D01*
X162032128Y-106058794D01*
X162034170Y-106065139D01*
X162033817Y-106071921D01*
X162030135Y-106080873D01*
X162028934Y-106083127D01*
X162022630Y-106091725D01*
X162015963Y-106097245D01*
X162014104Y-106098128D01*
X162002514Y-106101111D01*
X161991982Y-106098473D01*
X161981042Y-106089908D01*
X161978485Y-106087304D01*
X161972858Y-106080418D01*
X161970878Y-106074287D01*
X161971491Y-106066305D01*
X161973606Y-106058673D01*
X161980693Y-106048158D01*
X161990802Y-106041615D01*
X162002467Y-106039225D01*
X162014220Y-106041171D01*
G37*
G36*
X161770580Y-105955790D02*
G01*
X161766918Y-105977279D01*
X161757980Y-105996793D01*
X161744320Y-106013389D01*
X161726493Y-106026123D01*
X161705056Y-106034050D01*
X161686196Y-106035974D01*
X161664281Y-106032751D01*
X161643805Y-106024179D01*
X161626093Y-106010840D01*
X161612470Y-105993319D01*
X161607457Y-105982787D01*
X161602453Y-105961363D01*
X161602625Y-105957126D01*
X161649214Y-105957126D01*
X161653641Y-105969789D01*
X161663613Y-105981043D01*
X161671505Y-105985230D01*
X161686287Y-105987443D01*
X161695674Y-105986762D01*
X161703573Y-105983546D01*
X161711892Y-105976374D01*
X161720424Y-105964756D01*
X161723063Y-105951993D01*
X161719787Y-105937195D01*
X161717367Y-105932558D01*
X161708378Y-105923713D01*
X161696334Y-105918068D01*
X161683531Y-105916907D01*
X161679095Y-105917656D01*
X161665271Y-105923318D01*
X161655421Y-105932626D01*
X161649938Y-105944317D01*
X161649214Y-105957126D01*
X161602625Y-105957126D01*
X161603357Y-105939133D01*
X161610208Y-105917449D01*
X161618065Y-105903226D01*
X161631240Y-105887986D01*
X161647918Y-105877524D01*
X161669244Y-105870940D01*
X161683458Y-105869128D01*
X161705971Y-105870930D01*
X161726464Y-105878278D01*
X161744071Y-105890664D01*
X161757926Y-105907577D01*
X161767163Y-105928508D01*
X161768409Y-105933270D01*
X161770214Y-105951993D01*
X161770580Y-105955790D01*
G37*
G36*
X162023827Y-105791085D02*
G01*
X162024298Y-105798687D01*
X162024645Y-105811475D01*
X162024860Y-105828706D01*
X162024935Y-105849636D01*
X162024861Y-105873521D01*
X162024630Y-105899618D01*
X162024586Y-105903437D01*
X162024216Y-105932739D01*
X162023838Y-105956287D01*
X162023411Y-105974755D01*
X162022894Y-105988822D01*
X162022246Y-105999164D01*
X162021426Y-106006458D01*
X162020393Y-106011380D01*
X162019106Y-106014608D01*
X162017523Y-106016818D01*
X162016341Y-106018009D01*
X162007156Y-106022606D01*
X161996886Y-106022045D01*
X161987981Y-106016366D01*
X161987010Y-106015215D01*
X161985387Y-106012564D01*
X161984156Y-106008806D01*
X161983273Y-106003169D01*
X161982696Y-105994881D01*
X161982381Y-105983170D01*
X161982285Y-105967265D01*
X161982366Y-105946393D01*
X161982578Y-105919783D01*
X161983377Y-105830089D01*
X162002112Y-105809852D01*
X162005344Y-105806395D01*
X162013744Y-105797752D01*
X162020151Y-105791649D01*
X162023380Y-105789235D01*
X162023827Y-105791085D01*
G37*
G36*
X162091162Y-105579358D02*
G01*
X162091890Y-105580402D01*
X162099259Y-105588238D01*
X162108316Y-105595087D01*
X162119631Y-105601916D01*
X162062100Y-105672115D01*
X162041008Y-105697839D01*
X162011214Y-105734128D01*
X161982992Y-105768450D01*
X161956624Y-105800461D01*
X161932393Y-105829821D01*
X161910582Y-105856187D01*
X161891474Y-105879218D01*
X161875351Y-105898572D01*
X161862497Y-105913907D01*
X161853194Y-105924881D01*
X161847725Y-105931153D01*
X161834493Y-105942688D01*
X161819001Y-105949646D01*
X161812862Y-105951428D01*
X161804787Y-105953684D01*
X161800827Y-105954661D01*
X161800154Y-105952858D01*
X161799944Y-105946157D01*
X161800473Y-105936168D01*
X161802015Y-105917449D01*
X161865304Y-105840943D01*
X161868402Y-105837198D01*
X161885401Y-105816670D01*
X161901979Y-105796678D01*
X161917391Y-105778119D01*
X161930892Y-105761889D01*
X161941737Y-105748886D01*
X161949180Y-105740006D01*
X161950651Y-105738258D01*
X161963543Y-105722780D01*
X161978766Y-105704287D01*
X161995394Y-105683925D01*
X162012499Y-105662839D01*
X162029153Y-105642178D01*
X162044430Y-105623086D01*
X162057401Y-105606710D01*
X162067140Y-105594197D01*
X162085324Y-105570458D01*
X162091162Y-105579358D01*
G37*
G36*
X160078729Y-105885659D02*
G01*
X160088349Y-105892221D01*
X160095578Y-105901110D01*
X160098429Y-105910475D01*
X160096960Y-105921660D01*
X160092067Y-105932283D01*
X160084640Y-105938491D01*
X160072013Y-105941671D01*
X160057990Y-105940017D01*
X160046089Y-105932349D01*
X160040122Y-105924706D01*
X160036214Y-105912941D01*
X160037727Y-105901732D01*
X160044104Y-105892261D01*
X160054786Y-105885711D01*
X160069218Y-105883265D01*
X160078729Y-105885659D01*
G37*
G36*
X160319808Y-105732132D02*
G01*
X160319808Y-105893643D01*
X160299461Y-105877378D01*
X160279114Y-105861112D01*
X160278264Y-105727316D01*
X160278218Y-105719919D01*
X160278053Y-105687564D01*
X160277998Y-105661061D01*
X160278069Y-105639864D01*
X160278280Y-105623427D01*
X160278646Y-105611203D01*
X160279183Y-105602647D01*
X160279905Y-105597211D01*
X160280829Y-105594351D01*
X160281968Y-105593519D01*
X160285820Y-105592281D01*
X160293659Y-105588131D01*
X160303165Y-105582070D01*
X160319808Y-105570622D01*
X160319808Y-105732132D01*
G37*
G36*
X159941871Y-105759369D02*
G01*
X159947441Y-105763468D01*
X159956512Y-105771275D01*
X159968325Y-105782100D01*
X159982119Y-105795252D01*
X159997132Y-105810040D01*
X160009331Y-105822267D01*
X160022780Y-105835898D01*
X160032538Y-105846136D01*
X160039154Y-105853670D01*
X160043173Y-105859191D01*
X160045145Y-105863390D01*
X160045615Y-105866957D01*
X160045132Y-105870583D01*
X160042607Y-105879196D01*
X160039411Y-105885396D01*
X160034737Y-105888293D01*
X160026756Y-105889776D01*
X160026425Y-105889769D01*
X160022310Y-105888740D01*
X160016801Y-105885597D01*
X160009274Y-105879826D01*
X159999103Y-105870912D01*
X159985664Y-105858339D01*
X159968332Y-105841593D01*
X159918929Y-105793409D01*
X159926779Y-105775667D01*
X159927068Y-105775017D01*
X159932190Y-105764863D01*
X159936481Y-105759856D01*
X159940836Y-105758929D01*
X159941871Y-105759369D01*
G37*
G36*
X162016510Y-105564642D02*
G01*
X162026405Y-105565549D01*
X162032647Y-105566889D01*
X162033645Y-105567353D01*
X162034359Y-105568107D01*
X162034373Y-105569466D01*
X162033404Y-105571800D01*
X162031165Y-105575479D01*
X162027372Y-105580872D01*
X162021741Y-105588350D01*
X162013986Y-105598282D01*
X162003822Y-105611038D01*
X161990965Y-105626988D01*
X161975129Y-105646503D01*
X161956030Y-105669951D01*
X161933382Y-105697703D01*
X161906901Y-105730128D01*
X161889412Y-105751570D01*
X161871518Y-105773558D01*
X161854139Y-105794959D01*
X161838178Y-105814661D01*
X161824536Y-105831550D01*
X161814117Y-105844514D01*
X161812304Y-105846776D01*
X161800099Y-105861690D01*
X161790953Y-105872110D01*
X161784176Y-105878717D01*
X161779080Y-105882192D01*
X161774977Y-105883214D01*
X161773797Y-105883199D01*
X161768987Y-105881950D01*
X161765915Y-105877530D01*
X161763291Y-105868296D01*
X161759818Y-105853327D01*
X161789301Y-105817021D01*
X161797785Y-105806540D01*
X161809960Y-105791444D01*
X161824872Y-105772919D01*
X161841841Y-105751810D01*
X161860188Y-105728960D01*
X161879235Y-105705215D01*
X161898303Y-105681419D01*
X161901679Y-105677204D01*
X161919465Y-105655043D01*
X161936171Y-105634293D01*
X161951301Y-105615568D01*
X161964356Y-105599480D01*
X161974840Y-105586643D01*
X161982256Y-105577669D01*
X161986107Y-105573171D01*
X161986638Y-105572603D01*
X161992870Y-105567299D01*
X162000031Y-105564904D01*
X162010875Y-105564447D01*
X162016510Y-105564642D01*
G37*
G36*
X161415309Y-105479575D02*
G01*
X161442326Y-105513895D01*
X161449174Y-105522613D01*
X161460430Y-105536977D01*
X161474449Y-105554895D01*
X161490562Y-105575508D01*
X161508097Y-105597958D01*
X161526382Y-105621385D01*
X161544747Y-105644932D01*
X161552700Y-105655130D01*
X161578796Y-105688535D01*
X161601236Y-105717157D01*
X161620259Y-105741297D01*
X161636107Y-105761254D01*
X161649020Y-105777327D01*
X161659239Y-105789818D01*
X161667002Y-105799024D01*
X161672552Y-105805247D01*
X161676127Y-105808786D01*
X161677917Y-105810021D01*
X161680073Y-105810298D01*
X161682919Y-105808979D01*
X161686924Y-105805557D01*
X161692562Y-105799526D01*
X161700304Y-105790378D01*
X161710621Y-105777606D01*
X161723985Y-105760703D01*
X161740867Y-105739162D01*
X161756813Y-105718814D01*
X161773597Y-105697460D01*
X161789754Y-105676966D01*
X161804439Y-105658400D01*
X161816808Y-105642832D01*
X161826018Y-105631329D01*
X161827460Y-105629539D01*
X161838339Y-105615993D01*
X161851977Y-105598952D01*
X161867270Y-105579800D01*
X161883114Y-105559918D01*
X161898406Y-105540690D01*
X161902741Y-105535247D01*
X161918848Y-105515385D01*
X161931589Y-105500375D01*
X161941296Y-105489850D01*
X161948302Y-105483445D01*
X161952940Y-105480795D01*
X161955791Y-105480396D01*
X161965099Y-105479965D01*
X161978801Y-105479868D01*
X161995557Y-105480107D01*
X162014031Y-105480684D01*
X162025671Y-105481143D01*
X162042166Y-105481788D01*
X162055602Y-105482308D01*
X162064829Y-105482657D01*
X162068700Y-105482792D01*
X162069049Y-105483009D01*
X162068743Y-105486901D01*
X162066258Y-105494119D01*
X162066028Y-105494682D01*
X162062851Y-105505334D01*
X162061541Y-105515280D01*
X162061541Y-105525152D01*
X162014469Y-105525152D01*
X161967396Y-105525152D01*
X161916196Y-105589449D01*
X161898695Y-105611432D01*
X161882212Y-105632154D01*
X161868100Y-105649928D01*
X161855467Y-105665883D01*
X161843422Y-105681149D01*
X161831073Y-105696856D01*
X161817530Y-105714135D01*
X161801901Y-105734115D01*
X161783294Y-105757925D01*
X161775758Y-105767557D01*
X161761409Y-105785811D01*
X161747915Y-105802877D01*
X161736061Y-105817766D01*
X161726632Y-105829491D01*
X161720413Y-105837063D01*
X161718610Y-105839182D01*
X161710468Y-105847842D01*
X161704760Y-105851820D01*
X161700572Y-105851795D01*
X161695987Y-105850625D01*
X161685617Y-105849877D01*
X161672289Y-105850111D01*
X161658006Y-105851348D01*
X161657863Y-105851364D01*
X161655531Y-105851031D01*
X161652505Y-105849357D01*
X161648422Y-105845917D01*
X161642916Y-105840287D01*
X161635624Y-105832044D01*
X161626182Y-105820761D01*
X161614224Y-105806016D01*
X161599388Y-105787385D01*
X161581308Y-105764442D01*
X161559620Y-105736764D01*
X161551070Y-105725829D01*
X161530472Y-105699448D01*
X161509935Y-105673100D01*
X161490118Y-105647633D01*
X161471681Y-105623895D01*
X161455283Y-105602735D01*
X161441583Y-105585001D01*
X161431242Y-105571544D01*
X161393266Y-105521896D01*
X161213582Y-105521896D01*
X161033898Y-105521896D01*
X161030311Y-105506432D01*
X161029163Y-105501647D01*
X161026559Y-105491780D01*
X161024520Y-105485271D01*
X161024318Y-105484417D01*
X161024760Y-105483362D01*
X161026484Y-105482473D01*
X161029965Y-105481734D01*
X161035679Y-105481132D01*
X161044101Y-105480653D01*
X161055706Y-105480283D01*
X161070971Y-105480008D01*
X161090369Y-105479815D01*
X161114377Y-105479688D01*
X161143470Y-105479616D01*
X161178124Y-105479582D01*
X161218813Y-105479574D01*
X161415309Y-105479575D01*
G37*
G36*
X160188996Y-105577763D02*
G01*
X160194723Y-105580693D01*
X160203089Y-105585341D01*
X160207969Y-105587967D01*
X160216762Y-105591910D01*
X160222593Y-105593480D01*
X160223361Y-105593522D01*
X160225360Y-105594240D01*
X160226999Y-105596293D01*
X160228317Y-105600257D01*
X160229353Y-105606706D01*
X160230146Y-105616215D01*
X160230734Y-105629361D01*
X160231158Y-105646716D01*
X160231454Y-105668858D01*
X160231664Y-105696361D01*
X160231825Y-105729799D01*
X160232297Y-105844919D01*
X160223149Y-105838244D01*
X160218877Y-105834938D01*
X160209678Y-105827231D01*
X160200166Y-105818727D01*
X160186330Y-105805883D01*
X160186330Y-105691562D01*
X160186358Y-105667962D01*
X160186451Y-105643307D01*
X160186603Y-105621484D01*
X160186805Y-105603231D01*
X160187048Y-105589282D01*
X160187324Y-105580374D01*
X160187625Y-105577241D01*
X160188996Y-105577763D01*
G37*
G36*
X159844183Y-105650180D02*
G01*
X159920326Y-105726374D01*
X159918296Y-105738883D01*
X159917943Y-105740736D01*
X159914848Y-105749708D01*
X159910686Y-105755473D01*
X159906813Y-105757734D01*
X159900485Y-105759553D01*
X159900189Y-105759453D01*
X159896174Y-105756353D01*
X159888316Y-105749355D01*
X159877226Y-105739060D01*
X159863513Y-105726067D01*
X159847789Y-105710977D01*
X159830665Y-105694389D01*
X159812750Y-105676902D01*
X159794656Y-105659118D01*
X159776994Y-105641634D01*
X159760373Y-105625052D01*
X159745405Y-105609971D01*
X159732700Y-105596991D01*
X159722869Y-105586711D01*
X159716522Y-105579732D01*
X159714271Y-105576653D01*
X159714636Y-105576215D01*
X159719502Y-105575076D01*
X159728848Y-105574283D01*
X159741156Y-105573985D01*
X159768040Y-105573985D01*
X159844183Y-105650180D01*
G37*
G36*
X159632882Y-105507183D02*
G01*
X159632812Y-105513392D01*
X159631731Y-105526407D01*
X159628759Y-105537544D01*
X159623145Y-105550107D01*
X159611685Y-105567994D01*
X159593821Y-105584964D01*
X159571460Y-105597281D01*
X159563595Y-105599974D01*
X159550282Y-105602200D01*
X159533587Y-105602182D01*
X159524498Y-105601377D01*
X159499857Y-105595302D01*
X159478775Y-105583817D01*
X159461450Y-105567055D01*
X159448086Y-105545151D01*
X159444334Y-105536336D01*
X159441808Y-105527155D01*
X159441000Y-105516878D01*
X159441378Y-105506102D01*
X159491532Y-105506102D01*
X159492857Y-105515264D01*
X159496436Y-105525186D01*
X159505188Y-105538369D01*
X159517458Y-105546585D01*
X159532803Y-105550455D01*
X159548360Y-105549243D01*
X159561873Y-105543154D01*
X159572301Y-105532918D01*
X159578602Y-105519266D01*
X159579734Y-105502929D01*
X159576466Y-105490257D01*
X159568464Y-105478361D01*
X159557194Y-105470146D01*
X159543914Y-105465797D01*
X159529886Y-105465497D01*
X159516371Y-105469429D01*
X159504628Y-105477778D01*
X159495919Y-105490726D01*
X159493572Y-105496531D01*
X159491532Y-105506102D01*
X159441378Y-105506102D01*
X159441493Y-105502828D01*
X159442989Y-105488324D01*
X159447922Y-105469506D01*
X159456747Y-105453704D01*
X159470283Y-105439104D01*
X159474600Y-105435351D01*
X159493575Y-105422584D01*
X159513754Y-105415456D01*
X159536842Y-105413307D01*
X159544358Y-105413580D01*
X159568999Y-105418137D01*
X159590456Y-105427865D01*
X159608150Y-105442198D01*
X159621505Y-105460572D01*
X159629941Y-105482422D01*
X159632377Y-105502929D01*
X159632882Y-105507183D01*
G37*
G36*
X162277678Y-105505589D02*
G01*
X162277542Y-105510637D01*
X162273301Y-105534821D01*
X162263494Y-105556148D01*
X162248619Y-105573987D01*
X162229172Y-105587710D01*
X162205651Y-105596687D01*
X162186609Y-105599129D01*
X162165246Y-105597410D01*
X162144542Y-105591723D01*
X162126287Y-105582571D01*
X162112271Y-105570455D01*
X162108143Y-105565227D01*
X162096143Y-105544193D01*
X162089771Y-105521939D01*
X162089039Y-105503774D01*
X162140726Y-105503774D01*
X162142471Y-105517297D01*
X162148569Y-105530188D01*
X162157836Y-105539670D01*
X162163955Y-105542532D01*
X162176074Y-105545537D01*
X162189140Y-105546775D01*
X162199903Y-105545774D01*
X162208525Y-105541512D01*
X162218034Y-105532019D01*
X162224482Y-105519778D01*
X162225593Y-105515709D01*
X162225937Y-105500865D01*
X162221109Y-105487265D01*
X162212162Y-105475964D01*
X162200148Y-105468013D01*
X162186119Y-105464467D01*
X162171127Y-105466378D01*
X162170300Y-105466663D01*
X162157121Y-105474459D01*
X162146786Y-105486438D01*
X162141129Y-105500514D01*
X162140726Y-105503774D01*
X162089039Y-105503774D01*
X162088864Y-105499427D01*
X162093261Y-105477619D01*
X162102797Y-105457479D01*
X162117312Y-105439968D01*
X162136643Y-105426049D01*
X162149882Y-105420325D01*
X162172276Y-105415367D01*
X162195581Y-105414920D01*
X162217344Y-105419191D01*
X162236694Y-105428792D01*
X162253437Y-105443489D01*
X162266402Y-105461980D01*
X162274759Y-105483076D01*
X162277065Y-105500865D01*
X162277678Y-105505589D01*
G37*
G36*
X161001859Y-105509851D02*
G01*
X160999700Y-105528117D01*
X160994610Y-105543057D01*
X160993941Y-105544297D01*
X160981783Y-105561100D01*
X160965713Y-105576007D01*
X160948134Y-105586758D01*
X160948064Y-105586790D01*
X160932173Y-105591460D01*
X160913126Y-105593381D01*
X160893689Y-105592478D01*
X160876627Y-105588676D01*
X160857065Y-105578922D01*
X160840858Y-105564685D01*
X160829163Y-105547231D01*
X160822181Y-105527493D01*
X160820114Y-105506404D01*
X160820612Y-105502896D01*
X160870406Y-105502896D01*
X160872344Y-105517635D01*
X160879099Y-105530702D01*
X160890152Y-105540281D01*
X160890230Y-105540324D01*
X160898875Y-105543239D01*
X160909067Y-105544442D01*
X160912375Y-105544353D01*
X160928723Y-105540770D01*
X160940995Y-105532306D01*
X160948711Y-105519435D01*
X160951390Y-105502633D01*
X160950722Y-105494639D01*
X160947347Y-105486696D01*
X160939887Y-105478054D01*
X160938200Y-105476390D01*
X160930498Y-105470020D01*
X160922890Y-105467192D01*
X160912100Y-105466551D01*
X160896589Y-105468431D01*
X160883724Y-105474960D01*
X160874717Y-105486407D01*
X160873805Y-105488299D01*
X160870406Y-105502896D01*
X160820612Y-105502896D01*
X160823165Y-105484898D01*
X160831534Y-105463908D01*
X160845424Y-105444368D01*
X160857045Y-105433239D01*
X160871940Y-105424152D01*
X160889330Y-105419232D01*
X160910909Y-105417789D01*
X160920310Y-105418119D01*
X160944869Y-105422513D01*
X160965429Y-105432035D01*
X160982028Y-105446708D01*
X160994702Y-105466551D01*
X160997374Y-105473293D01*
X161001085Y-105490746D01*
X161001567Y-105502633D01*
X161001859Y-105509851D01*
G37*
G36*
X160319945Y-105517381D02*
G01*
X160313002Y-105536095D01*
X160300617Y-105551862D01*
X160283149Y-105563915D01*
X160275099Y-105567054D01*
X160257667Y-105570133D01*
X160238758Y-105569892D01*
X160220798Y-105566459D01*
X160206218Y-105559957D01*
X160201080Y-105556181D01*
X160187624Y-105541581D01*
X160178639Y-105523958D01*
X160174740Y-105504849D01*
X160175239Y-105499567D01*
X160215904Y-105499567D01*
X160217800Y-105511135D01*
X160225146Y-105522147D01*
X160235508Y-105529372D01*
X160248095Y-105532181D01*
X160260295Y-105529781D01*
X160270581Y-105522506D01*
X160277423Y-105510691D01*
X160278463Y-105506603D01*
X160277763Y-105493814D01*
X160271335Y-105482576D01*
X160259777Y-105474128D01*
X160259027Y-105473781D01*
X160246164Y-105470816D01*
X160234587Y-105473066D01*
X160225130Y-105479378D01*
X160218625Y-105488596D01*
X160215904Y-105499567D01*
X160175239Y-105499567D01*
X160176541Y-105485789D01*
X160180853Y-105473110D01*
X160191831Y-105454957D01*
X160207018Y-105441674D01*
X160226079Y-105433516D01*
X160248677Y-105430740D01*
X160263893Y-105431983D01*
X160283922Y-105438334D01*
X160300186Y-105449741D01*
X160312215Y-105465836D01*
X160319539Y-105486250D01*
X160321085Y-105496487D01*
X160320533Y-105506603D01*
X160319945Y-105517381D01*
G37*
G36*
X160619932Y-105479575D02*
G01*
X160658718Y-105479604D01*
X160691598Y-105479679D01*
X160719029Y-105479810D01*
X160741469Y-105480008D01*
X160759376Y-105480285D01*
X160773208Y-105480652D01*
X160783425Y-105481120D01*
X160790483Y-105481700D01*
X160794841Y-105482404D01*
X160796957Y-105483242D01*
X160797289Y-105484226D01*
X160797023Y-105484989D01*
X160795241Y-105491969D01*
X160793432Y-105501318D01*
X160793110Y-105503213D01*
X160791443Y-105512072D01*
X160790128Y-105517721D01*
X160789541Y-105518227D01*
X160786134Y-105519045D01*
X160779374Y-105519738D01*
X160768867Y-105520314D01*
X160754218Y-105520783D01*
X160735031Y-105521152D01*
X160710913Y-105521431D01*
X160681468Y-105521628D01*
X160646302Y-105521753D01*
X160605020Y-105521813D01*
X160580240Y-105521808D01*
X160547636Y-105521729D01*
X160517439Y-105521575D01*
X160490235Y-105521353D01*
X160466610Y-105521070D01*
X160447152Y-105520734D01*
X160432446Y-105520351D01*
X160423078Y-105519929D01*
X160419635Y-105519477D01*
X160418780Y-105516680D01*
X160417305Y-105508854D01*
X160415798Y-105498293D01*
X160413470Y-105479574D01*
X160606272Y-105479574D01*
X160619932Y-105479575D01*
G37*
%TD*%
M02*
