%TF.GenerationSoftware,KiCad,Pcbnew,9.0.6*%
%TF.CreationDate,2026-01-22T12:38:03+05:30*%
%TF.ProjectId,Muscle sensor,4d757363-6c65-4207-9365-6e736f722e6b,rev?*%
%TF.SameCoordinates,Original*%
%TF.FileFunction,Drillmap*%
%TF.FilePolarity,Positive*%
%FSLAX45Y45*%
G04 Gerber Fmt 4.5, Leading zero omitted, Abs format (unit mm)*
G04 Created by KiCad (PCBNEW 9.0.6) date 2026-01-22 12:38:03*
%MOMM*%
%LPD*%
G01*
G04 APERTURE LIST*
%ADD10C,0.050000*%
%ADD11C,0.200000*%
G04 APERTURE END LIST*
D10*
X14034000Y-6043450D02*
G75*
G02*
X14159000Y-5918450I125000J0D01*
G01*
X14159000Y-10686000D02*
G75*
G02*
X14034000Y-10561000I0J125000D01*
G01*
X17818000Y-5918450D02*
G75*
G02*
X17943000Y-6043450I0J-125000D01*
G01*
X17943000Y-10561000D02*
G75*
G02*
X17818000Y-10686000I-125000J0D01*
G01*
X14159000Y-5918450D02*
X17818000Y-5918450D01*
X17818000Y-10686000D02*
X14159000Y-10686000D01*
X14034000Y-10561000D02*
X14034000Y-6043450D01*
X17943000Y-6043450D02*
X17943000Y-10561000D01*
D11*
X14292277Y-10999984D02*
X14292277Y-10799984D01*
X14292277Y-10799984D02*
X14339896Y-10799984D01*
X14339896Y-10799984D02*
X14368467Y-10809508D01*
X14368467Y-10809508D02*
X14387515Y-10828555D01*
X14387515Y-10828555D02*
X14397039Y-10847603D01*
X14397039Y-10847603D02*
X14406562Y-10885698D01*
X14406562Y-10885698D02*
X14406562Y-10914270D01*
X14406562Y-10914270D02*
X14397039Y-10952365D01*
X14397039Y-10952365D02*
X14387515Y-10971412D01*
X14387515Y-10971412D02*
X14368467Y-10990460D01*
X14368467Y-10990460D02*
X14339896Y-10999984D01*
X14339896Y-10999984D02*
X14292277Y-10999984D01*
X14492277Y-10999984D02*
X14492277Y-10866650D01*
X14492277Y-10904746D02*
X14501801Y-10885698D01*
X14501801Y-10885698D02*
X14511324Y-10876174D01*
X14511324Y-10876174D02*
X14530372Y-10866650D01*
X14530372Y-10866650D02*
X14549420Y-10866650D01*
X14616086Y-10999984D02*
X14616086Y-10866650D01*
X14616086Y-10799984D02*
X14606562Y-10809508D01*
X14606562Y-10809508D02*
X14616086Y-10819031D01*
X14616086Y-10819031D02*
X14625610Y-10809508D01*
X14625610Y-10809508D02*
X14616086Y-10799984D01*
X14616086Y-10799984D02*
X14616086Y-10819031D01*
X14739896Y-10999984D02*
X14720848Y-10990460D01*
X14720848Y-10990460D02*
X14711324Y-10971412D01*
X14711324Y-10971412D02*
X14711324Y-10799984D01*
X14844658Y-10999984D02*
X14825610Y-10990460D01*
X14825610Y-10990460D02*
X14816086Y-10971412D01*
X14816086Y-10971412D02*
X14816086Y-10799984D01*
X15073229Y-10999984D02*
X15073229Y-10799984D01*
X15073229Y-10799984D02*
X15139896Y-10942841D01*
X15139896Y-10942841D02*
X15206562Y-10799984D01*
X15206562Y-10799984D02*
X15206562Y-10999984D01*
X15387515Y-10999984D02*
X15387515Y-10895222D01*
X15387515Y-10895222D02*
X15377991Y-10876174D01*
X15377991Y-10876174D02*
X15358943Y-10866650D01*
X15358943Y-10866650D02*
X15320848Y-10866650D01*
X15320848Y-10866650D02*
X15301801Y-10876174D01*
X15387515Y-10990460D02*
X15368467Y-10999984D01*
X15368467Y-10999984D02*
X15320848Y-10999984D01*
X15320848Y-10999984D02*
X15301801Y-10990460D01*
X15301801Y-10990460D02*
X15292277Y-10971412D01*
X15292277Y-10971412D02*
X15292277Y-10952365D01*
X15292277Y-10952365D02*
X15301801Y-10933317D01*
X15301801Y-10933317D02*
X15320848Y-10923793D01*
X15320848Y-10923793D02*
X15368467Y-10923793D01*
X15368467Y-10923793D02*
X15387515Y-10914270D01*
X15482753Y-10866650D02*
X15482753Y-11066650D01*
X15482753Y-10876174D02*
X15501801Y-10866650D01*
X15501801Y-10866650D02*
X15539896Y-10866650D01*
X15539896Y-10866650D02*
X15558943Y-10876174D01*
X15558943Y-10876174D02*
X15568467Y-10885698D01*
X15568467Y-10885698D02*
X15577991Y-10904746D01*
X15577991Y-10904746D02*
X15577991Y-10961889D01*
X15577991Y-10961889D02*
X15568467Y-10980936D01*
X15568467Y-10980936D02*
X15558943Y-10990460D01*
X15558943Y-10990460D02*
X15539896Y-10999984D01*
X15539896Y-10999984D02*
X15501801Y-10999984D01*
X15501801Y-10999984D02*
X15482753Y-10990460D01*
X15663705Y-10980936D02*
X15673229Y-10990460D01*
X15673229Y-10990460D02*
X15663705Y-10999984D01*
X15663705Y-10999984D02*
X15654182Y-10990460D01*
X15654182Y-10990460D02*
X15663705Y-10980936D01*
X15663705Y-10980936D02*
X15663705Y-10999984D01*
X15663705Y-10876174D02*
X15673229Y-10885698D01*
X15673229Y-10885698D02*
X15663705Y-10895222D01*
X15663705Y-10895222D02*
X15654182Y-10885698D01*
X15654182Y-10885698D02*
X15663705Y-10876174D01*
X15663705Y-10876174D02*
X15663705Y-10895222D01*
M02*
